G04 #@! TF.GenerationSoftware,KiCad,Pcbnew,(5.1.5)-3*
G04 #@! TF.CreationDate,2020-04-09T07:49:00+02:00*
G04 #@! TF.ProjectId,NumPad,4e756d50-6164-42e6-9b69-6361645f7063,rev?*
G04 #@! TF.SameCoordinates,Original*
G04 #@! TF.FileFunction,Paste,Bot*
G04 #@! TF.FilePolarity,Positive*
%FSLAX46Y46*%
G04 Gerber Fmt 4.6, Leading zero omitted, Abs format (unit mm)*
G04 Created by KiCad (PCBNEW (5.1.5)-3) date 2020-04-09 07:49:00*
%MOMM*%
%LPD*%
G04 APERTURE LIST*
%ADD10R,1.900000X1.350000*%
%ADD11R,1.200000X1.000000*%
%ADD12R,1.550000X1.350000*%
%ADD13R,1.170000X1.800000*%
%ADD14R,0.850000X1.100000*%
%ADD15R,0.750000X1.100000*%
%ADD16C,0.100000*%
%ADD17R,0.700000X1.000000*%
%ADD18R,0.700000X0.600000*%
%ADD19R,1.800000X0.820000*%
%ADD20R,1.200000X0.900000*%
%ADD21R,0.650000X1.560000*%
%ADD22R,1.800000X1.100000*%
%ADD23R,1.560000X0.650000*%
%ADD24R,0.300000X2.450000*%
%ADD25R,0.600000X2.450000*%
G04 APERTURE END LIST*
D10*
X99950000Y-62675000D03*
X105920000Y-62675000D03*
D11*
X109420000Y-58000000D03*
X109420000Y-61700000D03*
D12*
X109245000Y-51975000D03*
D13*
X97925000Y-52200000D03*
D14*
X100185000Y-51850000D03*
X101285000Y-51850000D03*
X102385000Y-51850000D03*
X103485000Y-51850000D03*
X104585000Y-51850000D03*
X105685000Y-51850000D03*
D15*
X99135000Y-51850000D03*
D14*
X106785000Y-51850000D03*
D16*
G36*
X64200779Y-83496144D02*
G01*
X64223834Y-83499563D01*
X64246443Y-83505227D01*
X64268387Y-83513079D01*
X64289457Y-83523044D01*
X64309448Y-83535026D01*
X64328168Y-83548910D01*
X64345438Y-83564562D01*
X64361090Y-83581832D01*
X64374974Y-83600552D01*
X64386956Y-83620543D01*
X64396921Y-83641613D01*
X64404773Y-83663557D01*
X64410437Y-83686166D01*
X64413856Y-83709221D01*
X64415000Y-83732500D01*
X64415000Y-84207500D01*
X64413856Y-84230779D01*
X64410437Y-84253834D01*
X64404773Y-84276443D01*
X64396921Y-84298387D01*
X64386956Y-84319457D01*
X64374974Y-84339448D01*
X64361090Y-84358168D01*
X64345438Y-84375438D01*
X64328168Y-84391090D01*
X64309448Y-84404974D01*
X64289457Y-84416956D01*
X64268387Y-84426921D01*
X64246443Y-84434773D01*
X64223834Y-84440437D01*
X64200779Y-84443856D01*
X64177500Y-84445000D01*
X63602500Y-84445000D01*
X63579221Y-84443856D01*
X63556166Y-84440437D01*
X63533557Y-84434773D01*
X63511613Y-84426921D01*
X63490543Y-84416956D01*
X63470552Y-84404974D01*
X63451832Y-84391090D01*
X63434562Y-84375438D01*
X63418910Y-84358168D01*
X63405026Y-84339448D01*
X63393044Y-84319457D01*
X63383079Y-84298387D01*
X63375227Y-84276443D01*
X63369563Y-84253834D01*
X63366144Y-84230779D01*
X63365000Y-84207500D01*
X63365000Y-83732500D01*
X63366144Y-83709221D01*
X63369563Y-83686166D01*
X63375227Y-83663557D01*
X63383079Y-83641613D01*
X63393044Y-83620543D01*
X63405026Y-83600552D01*
X63418910Y-83581832D01*
X63434562Y-83564562D01*
X63451832Y-83548910D01*
X63470552Y-83535026D01*
X63490543Y-83523044D01*
X63511613Y-83513079D01*
X63533557Y-83505227D01*
X63556166Y-83499563D01*
X63579221Y-83496144D01*
X63602500Y-83495000D01*
X64177500Y-83495000D01*
X64200779Y-83496144D01*
G37*
G36*
X62450779Y-83496144D02*
G01*
X62473834Y-83499563D01*
X62496443Y-83505227D01*
X62518387Y-83513079D01*
X62539457Y-83523044D01*
X62559448Y-83535026D01*
X62578168Y-83548910D01*
X62595438Y-83564562D01*
X62611090Y-83581832D01*
X62624974Y-83600552D01*
X62636956Y-83620543D01*
X62646921Y-83641613D01*
X62654773Y-83663557D01*
X62660437Y-83686166D01*
X62663856Y-83709221D01*
X62665000Y-83732500D01*
X62665000Y-84207500D01*
X62663856Y-84230779D01*
X62660437Y-84253834D01*
X62654773Y-84276443D01*
X62646921Y-84298387D01*
X62636956Y-84319457D01*
X62624974Y-84339448D01*
X62611090Y-84358168D01*
X62595438Y-84375438D01*
X62578168Y-84391090D01*
X62559448Y-84404974D01*
X62539457Y-84416956D01*
X62518387Y-84426921D01*
X62496443Y-84434773D01*
X62473834Y-84440437D01*
X62450779Y-84443856D01*
X62427500Y-84445000D01*
X61852500Y-84445000D01*
X61829221Y-84443856D01*
X61806166Y-84440437D01*
X61783557Y-84434773D01*
X61761613Y-84426921D01*
X61740543Y-84416956D01*
X61720552Y-84404974D01*
X61701832Y-84391090D01*
X61684562Y-84375438D01*
X61668910Y-84358168D01*
X61655026Y-84339448D01*
X61643044Y-84319457D01*
X61633079Y-84298387D01*
X61625227Y-84276443D01*
X61619563Y-84253834D01*
X61616144Y-84230779D01*
X61615000Y-84207500D01*
X61615000Y-83732500D01*
X61616144Y-83709221D01*
X61619563Y-83686166D01*
X61625227Y-83663557D01*
X61633079Y-83641613D01*
X61643044Y-83620543D01*
X61655026Y-83600552D01*
X61668910Y-83581832D01*
X61684562Y-83564562D01*
X61701832Y-83548910D01*
X61720552Y-83535026D01*
X61740543Y-83523044D01*
X61761613Y-83513079D01*
X61783557Y-83505227D01*
X61806166Y-83499563D01*
X61829221Y-83496144D01*
X61852500Y-83495000D01*
X62427500Y-83495000D01*
X62450779Y-83496144D01*
G37*
G36*
X92440191Y-60876053D02*
G01*
X92461426Y-60879203D01*
X92482250Y-60884419D01*
X92502462Y-60891651D01*
X92521868Y-60900830D01*
X92540281Y-60911866D01*
X92557524Y-60924654D01*
X92573430Y-60939070D01*
X92587846Y-60954976D01*
X92600634Y-60972219D01*
X92611670Y-60990632D01*
X92620849Y-61010038D01*
X92628081Y-61030250D01*
X92633297Y-61051074D01*
X92636447Y-61072309D01*
X92637500Y-61093750D01*
X92637500Y-61606250D01*
X92636447Y-61627691D01*
X92633297Y-61648926D01*
X92628081Y-61669750D01*
X92620849Y-61689962D01*
X92611670Y-61709368D01*
X92600634Y-61727781D01*
X92587846Y-61745024D01*
X92573430Y-61760930D01*
X92557524Y-61775346D01*
X92540281Y-61788134D01*
X92521868Y-61799170D01*
X92502462Y-61808349D01*
X92482250Y-61815581D01*
X92461426Y-61820797D01*
X92440191Y-61823947D01*
X92418750Y-61825000D01*
X91981250Y-61825000D01*
X91959809Y-61823947D01*
X91938574Y-61820797D01*
X91917750Y-61815581D01*
X91897538Y-61808349D01*
X91878132Y-61799170D01*
X91859719Y-61788134D01*
X91842476Y-61775346D01*
X91826570Y-61760930D01*
X91812154Y-61745024D01*
X91799366Y-61727781D01*
X91788330Y-61709368D01*
X91779151Y-61689962D01*
X91771919Y-61669750D01*
X91766703Y-61648926D01*
X91763553Y-61627691D01*
X91762500Y-61606250D01*
X91762500Y-61093750D01*
X91763553Y-61072309D01*
X91766703Y-61051074D01*
X91771919Y-61030250D01*
X91779151Y-61010038D01*
X91788330Y-60990632D01*
X91799366Y-60972219D01*
X91812154Y-60954976D01*
X91826570Y-60939070D01*
X91842476Y-60924654D01*
X91859719Y-60911866D01*
X91878132Y-60900830D01*
X91897538Y-60891651D01*
X91917750Y-60884419D01*
X91938574Y-60879203D01*
X91959809Y-60876053D01*
X91981250Y-60875000D01*
X92418750Y-60875000D01*
X92440191Y-60876053D01*
G37*
G36*
X90865191Y-60876053D02*
G01*
X90886426Y-60879203D01*
X90907250Y-60884419D01*
X90927462Y-60891651D01*
X90946868Y-60900830D01*
X90965281Y-60911866D01*
X90982524Y-60924654D01*
X90998430Y-60939070D01*
X91012846Y-60954976D01*
X91025634Y-60972219D01*
X91036670Y-60990632D01*
X91045849Y-61010038D01*
X91053081Y-61030250D01*
X91058297Y-61051074D01*
X91061447Y-61072309D01*
X91062500Y-61093750D01*
X91062500Y-61606250D01*
X91061447Y-61627691D01*
X91058297Y-61648926D01*
X91053081Y-61669750D01*
X91045849Y-61689962D01*
X91036670Y-61709368D01*
X91025634Y-61727781D01*
X91012846Y-61745024D01*
X90998430Y-61760930D01*
X90982524Y-61775346D01*
X90965281Y-61788134D01*
X90946868Y-61799170D01*
X90927462Y-61808349D01*
X90907250Y-61815581D01*
X90886426Y-61820797D01*
X90865191Y-61823947D01*
X90843750Y-61825000D01*
X90406250Y-61825000D01*
X90384809Y-61823947D01*
X90363574Y-61820797D01*
X90342750Y-61815581D01*
X90322538Y-61808349D01*
X90303132Y-61799170D01*
X90284719Y-61788134D01*
X90267476Y-61775346D01*
X90251570Y-61760930D01*
X90237154Y-61745024D01*
X90224366Y-61727781D01*
X90213330Y-61709368D01*
X90204151Y-61689962D01*
X90196919Y-61669750D01*
X90191703Y-61648926D01*
X90188553Y-61627691D01*
X90187500Y-61606250D01*
X90187500Y-61093750D01*
X90188553Y-61072309D01*
X90191703Y-61051074D01*
X90196919Y-61030250D01*
X90204151Y-61010038D01*
X90213330Y-60990632D01*
X90224366Y-60972219D01*
X90237154Y-60954976D01*
X90251570Y-60939070D01*
X90267476Y-60924654D01*
X90284719Y-60911866D01*
X90303132Y-60900830D01*
X90322538Y-60891651D01*
X90342750Y-60884419D01*
X90363574Y-60879203D01*
X90384809Y-60876053D01*
X90406250Y-60875000D01*
X90843750Y-60875000D01*
X90865191Y-60876053D01*
G37*
D17*
X119925000Y-61650000D03*
D18*
X117925000Y-61450000D03*
X119925000Y-63350000D03*
X117925000Y-63350000D03*
D19*
X86050000Y-177975000D03*
X86050000Y-176475000D03*
X91050000Y-176475000D03*
X91050000Y-177975000D03*
X86050000Y-158925000D03*
X86050000Y-157425000D03*
X91050000Y-157425000D03*
X91050000Y-158925000D03*
X86050000Y-139875000D03*
X86050000Y-138375000D03*
X91050000Y-138375000D03*
X91050000Y-139875000D03*
X86050000Y-120825000D03*
X86050000Y-119325000D03*
X91050000Y-119325000D03*
X91050000Y-120825000D03*
X86050000Y-101775000D03*
X86050000Y-100275000D03*
X91050000Y-100275000D03*
X91050000Y-101775000D03*
X86050000Y-82725000D03*
X86050000Y-81225000D03*
X91050000Y-81225000D03*
X91050000Y-82725000D03*
X67000000Y-177975000D03*
X67000000Y-176475000D03*
X72000000Y-176475000D03*
X72000000Y-177975000D03*
X67000000Y-158925000D03*
X67000000Y-157425000D03*
X72000000Y-157425000D03*
X72000000Y-158925000D03*
X67000000Y-139875000D03*
X67000000Y-138375000D03*
X72000000Y-138375000D03*
X72000000Y-139875000D03*
X67000000Y-120825000D03*
X67000000Y-119325000D03*
X72000000Y-119325000D03*
X72000000Y-120825000D03*
X67000000Y-101775000D03*
X67000000Y-100275000D03*
X72000000Y-100275000D03*
X72000000Y-101775000D03*
X67000000Y-82725000D03*
X67000000Y-81225000D03*
X72000000Y-81225000D03*
X72000000Y-82725000D03*
X47950000Y-177975000D03*
X47950000Y-176475000D03*
X52950000Y-176475000D03*
X52950000Y-177975000D03*
X47950000Y-158925000D03*
X47950000Y-157425000D03*
X52950000Y-157425000D03*
X52950000Y-158925000D03*
X47950000Y-139875000D03*
X47950000Y-138375000D03*
X52950000Y-138375000D03*
X52950000Y-139875000D03*
X47950000Y-120825000D03*
X47950000Y-119325000D03*
X52950000Y-119325000D03*
X52950000Y-120825000D03*
X47950000Y-101775000D03*
X47950000Y-100275000D03*
X52950000Y-100275000D03*
X52950000Y-101775000D03*
X47950000Y-82725000D03*
X47950000Y-81225000D03*
X52950000Y-81225000D03*
X52950000Y-82725000D03*
X28900000Y-177975000D03*
X28900000Y-176475000D03*
X33900000Y-176475000D03*
X33900000Y-177975000D03*
X28900000Y-158925000D03*
X28900000Y-157425000D03*
X33900000Y-157425000D03*
X33900000Y-158925000D03*
X28900000Y-139875000D03*
X28900000Y-138375000D03*
X33900000Y-138375000D03*
X33900000Y-139875000D03*
X28900000Y-120825000D03*
X28900000Y-119325000D03*
X33900000Y-119325000D03*
X33900000Y-120825000D03*
X28900000Y-101775000D03*
X28900000Y-100275000D03*
X33900000Y-100275000D03*
X33900000Y-101775000D03*
X28900000Y-82725000D03*
X28900000Y-81225000D03*
X33900000Y-81225000D03*
X33900000Y-82725000D03*
D20*
X96640000Y-173220000D03*
X96640000Y-169920000D03*
X77590000Y-173220000D03*
X77590000Y-169920000D03*
X58540000Y-173220000D03*
X58540000Y-169920000D03*
X39490000Y-173220000D03*
X39490000Y-169920000D03*
X96640000Y-154170000D03*
X96640000Y-150870000D03*
X77590000Y-154170000D03*
X77590000Y-150870000D03*
X58540000Y-154170000D03*
X58540000Y-150870000D03*
X39490000Y-154170000D03*
X39490000Y-150870000D03*
X96640000Y-135120000D03*
X96640000Y-131820000D03*
X77590000Y-135120000D03*
X77590000Y-131820000D03*
X58540000Y-135120000D03*
X58540000Y-131820000D03*
X39490000Y-135120000D03*
X39490000Y-131820000D03*
X96640000Y-116070000D03*
X96640000Y-112770000D03*
X77590000Y-116070000D03*
X77590000Y-112770000D03*
X58540000Y-116070000D03*
X58540000Y-112770000D03*
X39490000Y-116070000D03*
X39490000Y-112770000D03*
X96640000Y-97020000D03*
X96640000Y-93720000D03*
X77590000Y-97020000D03*
X77590000Y-93720000D03*
X58540000Y-97020000D03*
X58540000Y-93720000D03*
X39490000Y-97020000D03*
X39490000Y-93720000D03*
X96640000Y-77970000D03*
X96640000Y-74670000D03*
X77590000Y-77970000D03*
X77590000Y-74670000D03*
X58540000Y-77970000D03*
X58540000Y-74670000D03*
D21*
X131925000Y-57750000D03*
X130025000Y-57750000D03*
X130025000Y-60450000D03*
X130975000Y-60450000D03*
X131925000Y-60450000D03*
D16*
G36*
X130337005Y-54226204D02*
G01*
X130361273Y-54229804D01*
X130385072Y-54235765D01*
X130408171Y-54244030D01*
X130430350Y-54254520D01*
X130451393Y-54267132D01*
X130471099Y-54281747D01*
X130489277Y-54298223D01*
X130505753Y-54316401D01*
X130520368Y-54336107D01*
X130532980Y-54357150D01*
X130543470Y-54379329D01*
X130551735Y-54402428D01*
X130557696Y-54426227D01*
X130561296Y-54450495D01*
X130562500Y-54474999D01*
X130562500Y-55325001D01*
X130561296Y-55349505D01*
X130557696Y-55373773D01*
X130551735Y-55397572D01*
X130543470Y-55420671D01*
X130532980Y-55442850D01*
X130520368Y-55463893D01*
X130505753Y-55483599D01*
X130489277Y-55501777D01*
X130471099Y-55518253D01*
X130451393Y-55532868D01*
X130430350Y-55545480D01*
X130408171Y-55555970D01*
X130385072Y-55564235D01*
X130361273Y-55570196D01*
X130337005Y-55573796D01*
X130312501Y-55575000D01*
X129237499Y-55575000D01*
X129212995Y-55573796D01*
X129188727Y-55570196D01*
X129164928Y-55564235D01*
X129141829Y-55555970D01*
X129119650Y-55545480D01*
X129098607Y-55532868D01*
X129078901Y-55518253D01*
X129060723Y-55501777D01*
X129044247Y-55483599D01*
X129029632Y-55463893D01*
X129017020Y-55442850D01*
X129006530Y-55420671D01*
X128998265Y-55397572D01*
X128992304Y-55373773D01*
X128988704Y-55349505D01*
X128987500Y-55325001D01*
X128987500Y-54474999D01*
X128988704Y-54450495D01*
X128992304Y-54426227D01*
X128998265Y-54402428D01*
X129006530Y-54379329D01*
X129017020Y-54357150D01*
X129029632Y-54336107D01*
X129044247Y-54316401D01*
X129060723Y-54298223D01*
X129078901Y-54281747D01*
X129098607Y-54267132D01*
X129119650Y-54254520D01*
X129141829Y-54244030D01*
X129164928Y-54235765D01*
X129188727Y-54229804D01*
X129212995Y-54226204D01*
X129237499Y-54225000D01*
X130312501Y-54225000D01*
X130337005Y-54226204D01*
G37*
G36*
X133212005Y-54226204D02*
G01*
X133236273Y-54229804D01*
X133260072Y-54235765D01*
X133283171Y-54244030D01*
X133305350Y-54254520D01*
X133326393Y-54267132D01*
X133346099Y-54281747D01*
X133364277Y-54298223D01*
X133380753Y-54316401D01*
X133395368Y-54336107D01*
X133407980Y-54357150D01*
X133418470Y-54379329D01*
X133426735Y-54402428D01*
X133432696Y-54426227D01*
X133436296Y-54450495D01*
X133437500Y-54474999D01*
X133437500Y-55325001D01*
X133436296Y-55349505D01*
X133432696Y-55373773D01*
X133426735Y-55397572D01*
X133418470Y-55420671D01*
X133407980Y-55442850D01*
X133395368Y-55463893D01*
X133380753Y-55483599D01*
X133364277Y-55501777D01*
X133346099Y-55518253D01*
X133326393Y-55532868D01*
X133305350Y-55545480D01*
X133283171Y-55555970D01*
X133260072Y-55564235D01*
X133236273Y-55570196D01*
X133212005Y-55573796D01*
X133187501Y-55575000D01*
X132112499Y-55575000D01*
X132087995Y-55573796D01*
X132063727Y-55570196D01*
X132039928Y-55564235D01*
X132016829Y-55555970D01*
X131994650Y-55545480D01*
X131973607Y-55532868D01*
X131953901Y-55518253D01*
X131935723Y-55501777D01*
X131919247Y-55483599D01*
X131904632Y-55463893D01*
X131892020Y-55442850D01*
X131881530Y-55420671D01*
X131873265Y-55397572D01*
X131867304Y-55373773D01*
X131863704Y-55349505D01*
X131862500Y-55325001D01*
X131862500Y-54474999D01*
X131863704Y-54450495D01*
X131867304Y-54426227D01*
X131873265Y-54402428D01*
X131881530Y-54379329D01*
X131892020Y-54357150D01*
X131904632Y-54336107D01*
X131919247Y-54316401D01*
X131935723Y-54298223D01*
X131953901Y-54281747D01*
X131973607Y-54267132D01*
X131994650Y-54254520D01*
X132016829Y-54244030D01*
X132039928Y-54235765D01*
X132063727Y-54229804D01*
X132087995Y-54226204D01*
X132112499Y-54225000D01*
X133187501Y-54225000D01*
X133212005Y-54226204D01*
G37*
G36*
X133212005Y-62626204D02*
G01*
X133236273Y-62629804D01*
X133260072Y-62635765D01*
X133283171Y-62644030D01*
X133305350Y-62654520D01*
X133326393Y-62667132D01*
X133346099Y-62681747D01*
X133364277Y-62698223D01*
X133380753Y-62716401D01*
X133395368Y-62736107D01*
X133407980Y-62757150D01*
X133418470Y-62779329D01*
X133426735Y-62802428D01*
X133432696Y-62826227D01*
X133436296Y-62850495D01*
X133437500Y-62874999D01*
X133437500Y-63725001D01*
X133436296Y-63749505D01*
X133432696Y-63773773D01*
X133426735Y-63797572D01*
X133418470Y-63820671D01*
X133407980Y-63842850D01*
X133395368Y-63863893D01*
X133380753Y-63883599D01*
X133364277Y-63901777D01*
X133346099Y-63918253D01*
X133326393Y-63932868D01*
X133305350Y-63945480D01*
X133283171Y-63955970D01*
X133260072Y-63964235D01*
X133236273Y-63970196D01*
X133212005Y-63973796D01*
X133187501Y-63975000D01*
X132112499Y-63975000D01*
X132087995Y-63973796D01*
X132063727Y-63970196D01*
X132039928Y-63964235D01*
X132016829Y-63955970D01*
X131994650Y-63945480D01*
X131973607Y-63932868D01*
X131953901Y-63918253D01*
X131935723Y-63901777D01*
X131919247Y-63883599D01*
X131904632Y-63863893D01*
X131892020Y-63842850D01*
X131881530Y-63820671D01*
X131873265Y-63797572D01*
X131867304Y-63773773D01*
X131863704Y-63749505D01*
X131862500Y-63725001D01*
X131862500Y-62874999D01*
X131863704Y-62850495D01*
X131867304Y-62826227D01*
X131873265Y-62802428D01*
X131881530Y-62779329D01*
X131892020Y-62757150D01*
X131904632Y-62736107D01*
X131919247Y-62716401D01*
X131935723Y-62698223D01*
X131953901Y-62681747D01*
X131973607Y-62667132D01*
X131994650Y-62654520D01*
X132016829Y-62644030D01*
X132039928Y-62635765D01*
X132063727Y-62629804D01*
X132087995Y-62626204D01*
X132112499Y-62625000D01*
X133187501Y-62625000D01*
X133212005Y-62626204D01*
G37*
G36*
X130337005Y-62626204D02*
G01*
X130361273Y-62629804D01*
X130385072Y-62635765D01*
X130408171Y-62644030D01*
X130430350Y-62654520D01*
X130451393Y-62667132D01*
X130471099Y-62681747D01*
X130489277Y-62698223D01*
X130505753Y-62716401D01*
X130520368Y-62736107D01*
X130532980Y-62757150D01*
X130543470Y-62779329D01*
X130551735Y-62802428D01*
X130557696Y-62826227D01*
X130561296Y-62850495D01*
X130562500Y-62874999D01*
X130562500Y-63725001D01*
X130561296Y-63749505D01*
X130557696Y-63773773D01*
X130551735Y-63797572D01*
X130543470Y-63820671D01*
X130532980Y-63842850D01*
X130520368Y-63863893D01*
X130505753Y-63883599D01*
X130489277Y-63901777D01*
X130471099Y-63918253D01*
X130451393Y-63932868D01*
X130430350Y-63945480D01*
X130408171Y-63955970D01*
X130385072Y-63964235D01*
X130361273Y-63970196D01*
X130337005Y-63973796D01*
X130312501Y-63975000D01*
X129237499Y-63975000D01*
X129212995Y-63973796D01*
X129188727Y-63970196D01*
X129164928Y-63964235D01*
X129141829Y-63955970D01*
X129119650Y-63945480D01*
X129098607Y-63932868D01*
X129078901Y-63918253D01*
X129060723Y-63901777D01*
X129044247Y-63883599D01*
X129029632Y-63863893D01*
X129017020Y-63842850D01*
X129006530Y-63820671D01*
X128998265Y-63797572D01*
X128992304Y-63773773D01*
X128988704Y-63749505D01*
X128987500Y-63725001D01*
X128987500Y-62874999D01*
X128988704Y-62850495D01*
X128992304Y-62826227D01*
X128998265Y-62802428D01*
X129006530Y-62779329D01*
X129017020Y-62757150D01*
X129029632Y-62736107D01*
X129044247Y-62716401D01*
X129060723Y-62698223D01*
X129078901Y-62681747D01*
X129098607Y-62667132D01*
X129119650Y-62654520D01*
X129141829Y-62644030D01*
X129164928Y-62635765D01*
X129188727Y-62629804D01*
X129212995Y-62626204D01*
X129237499Y-62625000D01*
X130312501Y-62625000D01*
X130337005Y-62626204D01*
G37*
G36*
X116985779Y-81801144D02*
G01*
X117008834Y-81804563D01*
X117031443Y-81810227D01*
X117053387Y-81818079D01*
X117074457Y-81828044D01*
X117094448Y-81840026D01*
X117113168Y-81853910D01*
X117130438Y-81869562D01*
X117146090Y-81886832D01*
X117159974Y-81905552D01*
X117171956Y-81925543D01*
X117181921Y-81946613D01*
X117189773Y-81968557D01*
X117195437Y-81991166D01*
X117198856Y-82014221D01*
X117200000Y-82037500D01*
X117200000Y-82512500D01*
X117198856Y-82535779D01*
X117195437Y-82558834D01*
X117189773Y-82581443D01*
X117181921Y-82603387D01*
X117171956Y-82624457D01*
X117159974Y-82644448D01*
X117146090Y-82663168D01*
X117130438Y-82680438D01*
X117113168Y-82696090D01*
X117094448Y-82709974D01*
X117074457Y-82721956D01*
X117053387Y-82731921D01*
X117031443Y-82739773D01*
X117008834Y-82745437D01*
X116985779Y-82748856D01*
X116962500Y-82750000D01*
X116387500Y-82750000D01*
X116364221Y-82748856D01*
X116341166Y-82745437D01*
X116318557Y-82739773D01*
X116296613Y-82731921D01*
X116275543Y-82721956D01*
X116255552Y-82709974D01*
X116236832Y-82696090D01*
X116219562Y-82680438D01*
X116203910Y-82663168D01*
X116190026Y-82644448D01*
X116178044Y-82624457D01*
X116168079Y-82603387D01*
X116160227Y-82581443D01*
X116154563Y-82558834D01*
X116151144Y-82535779D01*
X116150000Y-82512500D01*
X116150000Y-82037500D01*
X116151144Y-82014221D01*
X116154563Y-81991166D01*
X116160227Y-81968557D01*
X116168079Y-81946613D01*
X116178044Y-81925543D01*
X116190026Y-81905552D01*
X116203910Y-81886832D01*
X116219562Y-81869562D01*
X116236832Y-81853910D01*
X116255552Y-81840026D01*
X116275543Y-81828044D01*
X116296613Y-81818079D01*
X116318557Y-81810227D01*
X116341166Y-81804563D01*
X116364221Y-81801144D01*
X116387500Y-81800000D01*
X116962500Y-81800000D01*
X116985779Y-81801144D01*
G37*
G36*
X118735779Y-81801144D02*
G01*
X118758834Y-81804563D01*
X118781443Y-81810227D01*
X118803387Y-81818079D01*
X118824457Y-81828044D01*
X118844448Y-81840026D01*
X118863168Y-81853910D01*
X118880438Y-81869562D01*
X118896090Y-81886832D01*
X118909974Y-81905552D01*
X118921956Y-81925543D01*
X118931921Y-81946613D01*
X118939773Y-81968557D01*
X118945437Y-81991166D01*
X118948856Y-82014221D01*
X118950000Y-82037500D01*
X118950000Y-82512500D01*
X118948856Y-82535779D01*
X118945437Y-82558834D01*
X118939773Y-82581443D01*
X118931921Y-82603387D01*
X118921956Y-82624457D01*
X118909974Y-82644448D01*
X118896090Y-82663168D01*
X118880438Y-82680438D01*
X118863168Y-82696090D01*
X118844448Y-82709974D01*
X118824457Y-82721956D01*
X118803387Y-82731921D01*
X118781443Y-82739773D01*
X118758834Y-82745437D01*
X118735779Y-82748856D01*
X118712500Y-82750000D01*
X118137500Y-82750000D01*
X118114221Y-82748856D01*
X118091166Y-82745437D01*
X118068557Y-82739773D01*
X118046613Y-82731921D01*
X118025543Y-82721956D01*
X118005552Y-82709974D01*
X117986832Y-82696090D01*
X117969562Y-82680438D01*
X117953910Y-82663168D01*
X117940026Y-82644448D01*
X117928044Y-82624457D01*
X117918079Y-82603387D01*
X117910227Y-82581443D01*
X117904563Y-82558834D01*
X117901144Y-82535779D01*
X117900000Y-82512500D01*
X117900000Y-82037500D01*
X117901144Y-82014221D01*
X117904563Y-81991166D01*
X117910227Y-81968557D01*
X117918079Y-81946613D01*
X117928044Y-81925543D01*
X117940026Y-81905552D01*
X117953910Y-81886832D01*
X117969562Y-81869562D01*
X117986832Y-81853910D01*
X118005552Y-81840026D01*
X118025543Y-81828044D01*
X118046613Y-81818079D01*
X118068557Y-81810227D01*
X118091166Y-81804563D01*
X118114221Y-81801144D01*
X118137500Y-81800000D01*
X118712500Y-81800000D01*
X118735779Y-81801144D01*
G37*
G36*
X125285779Y-73526144D02*
G01*
X125308834Y-73529563D01*
X125331443Y-73535227D01*
X125353387Y-73543079D01*
X125374457Y-73553044D01*
X125394448Y-73565026D01*
X125413168Y-73578910D01*
X125430438Y-73594562D01*
X125446090Y-73611832D01*
X125459974Y-73630552D01*
X125471956Y-73650543D01*
X125481921Y-73671613D01*
X125489773Y-73693557D01*
X125495437Y-73716166D01*
X125498856Y-73739221D01*
X125500000Y-73762500D01*
X125500000Y-74337500D01*
X125498856Y-74360779D01*
X125495437Y-74383834D01*
X125489773Y-74406443D01*
X125481921Y-74428387D01*
X125471956Y-74449457D01*
X125459974Y-74469448D01*
X125446090Y-74488168D01*
X125430438Y-74505438D01*
X125413168Y-74521090D01*
X125394448Y-74534974D01*
X125374457Y-74546956D01*
X125353387Y-74556921D01*
X125331443Y-74564773D01*
X125308834Y-74570437D01*
X125285779Y-74573856D01*
X125262500Y-74575000D01*
X124787500Y-74575000D01*
X124764221Y-74573856D01*
X124741166Y-74570437D01*
X124718557Y-74564773D01*
X124696613Y-74556921D01*
X124675543Y-74546956D01*
X124655552Y-74534974D01*
X124636832Y-74521090D01*
X124619562Y-74505438D01*
X124603910Y-74488168D01*
X124590026Y-74469448D01*
X124578044Y-74449457D01*
X124568079Y-74428387D01*
X124560227Y-74406443D01*
X124554563Y-74383834D01*
X124551144Y-74360779D01*
X124550000Y-74337500D01*
X124550000Y-73762500D01*
X124551144Y-73739221D01*
X124554563Y-73716166D01*
X124560227Y-73693557D01*
X124568079Y-73671613D01*
X124578044Y-73650543D01*
X124590026Y-73630552D01*
X124603910Y-73611832D01*
X124619562Y-73594562D01*
X124636832Y-73578910D01*
X124655552Y-73565026D01*
X124675543Y-73553044D01*
X124696613Y-73543079D01*
X124718557Y-73535227D01*
X124741166Y-73529563D01*
X124764221Y-73526144D01*
X124787500Y-73525000D01*
X125262500Y-73525000D01*
X125285779Y-73526144D01*
G37*
G36*
X125285779Y-71776144D02*
G01*
X125308834Y-71779563D01*
X125331443Y-71785227D01*
X125353387Y-71793079D01*
X125374457Y-71803044D01*
X125394448Y-71815026D01*
X125413168Y-71828910D01*
X125430438Y-71844562D01*
X125446090Y-71861832D01*
X125459974Y-71880552D01*
X125471956Y-71900543D01*
X125481921Y-71921613D01*
X125489773Y-71943557D01*
X125495437Y-71966166D01*
X125498856Y-71989221D01*
X125500000Y-72012500D01*
X125500000Y-72587500D01*
X125498856Y-72610779D01*
X125495437Y-72633834D01*
X125489773Y-72656443D01*
X125481921Y-72678387D01*
X125471956Y-72699457D01*
X125459974Y-72719448D01*
X125446090Y-72738168D01*
X125430438Y-72755438D01*
X125413168Y-72771090D01*
X125394448Y-72784974D01*
X125374457Y-72796956D01*
X125353387Y-72806921D01*
X125331443Y-72814773D01*
X125308834Y-72820437D01*
X125285779Y-72823856D01*
X125262500Y-72825000D01*
X124787500Y-72825000D01*
X124764221Y-72823856D01*
X124741166Y-72820437D01*
X124718557Y-72814773D01*
X124696613Y-72806921D01*
X124675543Y-72796956D01*
X124655552Y-72784974D01*
X124636832Y-72771090D01*
X124619562Y-72755438D01*
X124603910Y-72738168D01*
X124590026Y-72719448D01*
X124578044Y-72699457D01*
X124568079Y-72678387D01*
X124560227Y-72656443D01*
X124554563Y-72633834D01*
X124551144Y-72610779D01*
X124550000Y-72587500D01*
X124550000Y-72012500D01*
X124551144Y-71989221D01*
X124554563Y-71966166D01*
X124560227Y-71943557D01*
X124568079Y-71921613D01*
X124578044Y-71900543D01*
X124590026Y-71880552D01*
X124603910Y-71861832D01*
X124619562Y-71844562D01*
X124636832Y-71828910D01*
X124655552Y-71815026D01*
X124675543Y-71803044D01*
X124696613Y-71793079D01*
X124718557Y-71785227D01*
X124741166Y-71779563D01*
X124764221Y-71776144D01*
X124787500Y-71775000D01*
X125262500Y-71775000D01*
X125285779Y-71776144D01*
G37*
G36*
X111260779Y-80051144D02*
G01*
X111283834Y-80054563D01*
X111306443Y-80060227D01*
X111328387Y-80068079D01*
X111349457Y-80078044D01*
X111369448Y-80090026D01*
X111388168Y-80103910D01*
X111405438Y-80119562D01*
X111421090Y-80136832D01*
X111434974Y-80155552D01*
X111446956Y-80175543D01*
X111456921Y-80196613D01*
X111464773Y-80218557D01*
X111470437Y-80241166D01*
X111473856Y-80264221D01*
X111475000Y-80287500D01*
X111475000Y-80762500D01*
X111473856Y-80785779D01*
X111470437Y-80808834D01*
X111464773Y-80831443D01*
X111456921Y-80853387D01*
X111446956Y-80874457D01*
X111434974Y-80894448D01*
X111421090Y-80913168D01*
X111405438Y-80930438D01*
X111388168Y-80946090D01*
X111369448Y-80959974D01*
X111349457Y-80971956D01*
X111328387Y-80981921D01*
X111306443Y-80989773D01*
X111283834Y-80995437D01*
X111260779Y-80998856D01*
X111237500Y-81000000D01*
X110662500Y-81000000D01*
X110639221Y-80998856D01*
X110616166Y-80995437D01*
X110593557Y-80989773D01*
X110571613Y-80981921D01*
X110550543Y-80971956D01*
X110530552Y-80959974D01*
X110511832Y-80946090D01*
X110494562Y-80930438D01*
X110478910Y-80913168D01*
X110465026Y-80894448D01*
X110453044Y-80874457D01*
X110443079Y-80853387D01*
X110435227Y-80831443D01*
X110429563Y-80808834D01*
X110426144Y-80785779D01*
X110425000Y-80762500D01*
X110425000Y-80287500D01*
X110426144Y-80264221D01*
X110429563Y-80241166D01*
X110435227Y-80218557D01*
X110443079Y-80196613D01*
X110453044Y-80175543D01*
X110465026Y-80155552D01*
X110478910Y-80136832D01*
X110494562Y-80119562D01*
X110511832Y-80103910D01*
X110530552Y-80090026D01*
X110550543Y-80078044D01*
X110571613Y-80068079D01*
X110593557Y-80060227D01*
X110616166Y-80054563D01*
X110639221Y-80051144D01*
X110662500Y-80050000D01*
X111237500Y-80050000D01*
X111260779Y-80051144D01*
G37*
G36*
X109510779Y-80051144D02*
G01*
X109533834Y-80054563D01*
X109556443Y-80060227D01*
X109578387Y-80068079D01*
X109599457Y-80078044D01*
X109619448Y-80090026D01*
X109638168Y-80103910D01*
X109655438Y-80119562D01*
X109671090Y-80136832D01*
X109684974Y-80155552D01*
X109696956Y-80175543D01*
X109706921Y-80196613D01*
X109714773Y-80218557D01*
X109720437Y-80241166D01*
X109723856Y-80264221D01*
X109725000Y-80287500D01*
X109725000Y-80762500D01*
X109723856Y-80785779D01*
X109720437Y-80808834D01*
X109714773Y-80831443D01*
X109706921Y-80853387D01*
X109696956Y-80874457D01*
X109684974Y-80894448D01*
X109671090Y-80913168D01*
X109655438Y-80930438D01*
X109638168Y-80946090D01*
X109619448Y-80959974D01*
X109599457Y-80971956D01*
X109578387Y-80981921D01*
X109556443Y-80989773D01*
X109533834Y-80995437D01*
X109510779Y-80998856D01*
X109487500Y-81000000D01*
X108912500Y-81000000D01*
X108889221Y-80998856D01*
X108866166Y-80995437D01*
X108843557Y-80989773D01*
X108821613Y-80981921D01*
X108800543Y-80971956D01*
X108780552Y-80959974D01*
X108761832Y-80946090D01*
X108744562Y-80930438D01*
X108728910Y-80913168D01*
X108715026Y-80894448D01*
X108703044Y-80874457D01*
X108693079Y-80853387D01*
X108685227Y-80831443D01*
X108679563Y-80808834D01*
X108676144Y-80785779D01*
X108675000Y-80762500D01*
X108675000Y-80287500D01*
X108676144Y-80264221D01*
X108679563Y-80241166D01*
X108685227Y-80218557D01*
X108693079Y-80196613D01*
X108703044Y-80175543D01*
X108715026Y-80155552D01*
X108728910Y-80136832D01*
X108744562Y-80119562D01*
X108761832Y-80103910D01*
X108780552Y-80090026D01*
X108800543Y-80078044D01*
X108821613Y-80068079D01*
X108843557Y-80060227D01*
X108866166Y-80054563D01*
X108889221Y-80051144D01*
X108912500Y-80050000D01*
X109487500Y-80050000D01*
X109510779Y-80051144D01*
G37*
G36*
X117810779Y-67251144D02*
G01*
X117833834Y-67254563D01*
X117856443Y-67260227D01*
X117878387Y-67268079D01*
X117899457Y-67278044D01*
X117919448Y-67290026D01*
X117938168Y-67303910D01*
X117955438Y-67319562D01*
X117971090Y-67336832D01*
X117984974Y-67355552D01*
X117996956Y-67375543D01*
X118006921Y-67396613D01*
X118014773Y-67418557D01*
X118020437Y-67441166D01*
X118023856Y-67464221D01*
X118025000Y-67487500D01*
X118025000Y-67962500D01*
X118023856Y-67985779D01*
X118020437Y-68008834D01*
X118014773Y-68031443D01*
X118006921Y-68053387D01*
X117996956Y-68074457D01*
X117984974Y-68094448D01*
X117971090Y-68113168D01*
X117955438Y-68130438D01*
X117938168Y-68146090D01*
X117919448Y-68159974D01*
X117899457Y-68171956D01*
X117878387Y-68181921D01*
X117856443Y-68189773D01*
X117833834Y-68195437D01*
X117810779Y-68198856D01*
X117787500Y-68200000D01*
X117212500Y-68200000D01*
X117189221Y-68198856D01*
X117166166Y-68195437D01*
X117143557Y-68189773D01*
X117121613Y-68181921D01*
X117100543Y-68171956D01*
X117080552Y-68159974D01*
X117061832Y-68146090D01*
X117044562Y-68130438D01*
X117028910Y-68113168D01*
X117015026Y-68094448D01*
X117003044Y-68074457D01*
X116993079Y-68053387D01*
X116985227Y-68031443D01*
X116979563Y-68008834D01*
X116976144Y-67985779D01*
X116975000Y-67962500D01*
X116975000Y-67487500D01*
X116976144Y-67464221D01*
X116979563Y-67441166D01*
X116985227Y-67418557D01*
X116993079Y-67396613D01*
X117003044Y-67375543D01*
X117015026Y-67355552D01*
X117028910Y-67336832D01*
X117044562Y-67319562D01*
X117061832Y-67303910D01*
X117080552Y-67290026D01*
X117100543Y-67278044D01*
X117121613Y-67268079D01*
X117143557Y-67260227D01*
X117166166Y-67254563D01*
X117189221Y-67251144D01*
X117212500Y-67250000D01*
X117787500Y-67250000D01*
X117810779Y-67251144D01*
G37*
G36*
X116060779Y-67251144D02*
G01*
X116083834Y-67254563D01*
X116106443Y-67260227D01*
X116128387Y-67268079D01*
X116149457Y-67278044D01*
X116169448Y-67290026D01*
X116188168Y-67303910D01*
X116205438Y-67319562D01*
X116221090Y-67336832D01*
X116234974Y-67355552D01*
X116246956Y-67375543D01*
X116256921Y-67396613D01*
X116264773Y-67418557D01*
X116270437Y-67441166D01*
X116273856Y-67464221D01*
X116275000Y-67487500D01*
X116275000Y-67962500D01*
X116273856Y-67985779D01*
X116270437Y-68008834D01*
X116264773Y-68031443D01*
X116256921Y-68053387D01*
X116246956Y-68074457D01*
X116234974Y-68094448D01*
X116221090Y-68113168D01*
X116205438Y-68130438D01*
X116188168Y-68146090D01*
X116169448Y-68159974D01*
X116149457Y-68171956D01*
X116128387Y-68181921D01*
X116106443Y-68189773D01*
X116083834Y-68195437D01*
X116060779Y-68198856D01*
X116037500Y-68200000D01*
X115462500Y-68200000D01*
X115439221Y-68198856D01*
X115416166Y-68195437D01*
X115393557Y-68189773D01*
X115371613Y-68181921D01*
X115350543Y-68171956D01*
X115330552Y-68159974D01*
X115311832Y-68146090D01*
X115294562Y-68130438D01*
X115278910Y-68113168D01*
X115265026Y-68094448D01*
X115253044Y-68074457D01*
X115243079Y-68053387D01*
X115235227Y-68031443D01*
X115229563Y-68008834D01*
X115226144Y-67985779D01*
X115225000Y-67962500D01*
X115225000Y-67487500D01*
X115226144Y-67464221D01*
X115229563Y-67441166D01*
X115235227Y-67418557D01*
X115243079Y-67396613D01*
X115253044Y-67375543D01*
X115265026Y-67355552D01*
X115278910Y-67336832D01*
X115294562Y-67319562D01*
X115311832Y-67303910D01*
X115330552Y-67290026D01*
X115350543Y-67278044D01*
X115371613Y-67268079D01*
X115393557Y-67260227D01*
X115416166Y-67254563D01*
X115439221Y-67251144D01*
X115462500Y-67250000D01*
X116037500Y-67250000D01*
X116060779Y-67251144D01*
G37*
G36*
X48040779Y-165566144D02*
G01*
X48063834Y-165569563D01*
X48086443Y-165575227D01*
X48108387Y-165583079D01*
X48129457Y-165593044D01*
X48149448Y-165605026D01*
X48168168Y-165618910D01*
X48185438Y-165634562D01*
X48201090Y-165651832D01*
X48214974Y-165670552D01*
X48226956Y-165690543D01*
X48236921Y-165711613D01*
X48244773Y-165733557D01*
X48250437Y-165756166D01*
X48253856Y-165779221D01*
X48255000Y-165802500D01*
X48255000Y-166277500D01*
X48253856Y-166300779D01*
X48250437Y-166323834D01*
X48244773Y-166346443D01*
X48236921Y-166368387D01*
X48226956Y-166389457D01*
X48214974Y-166409448D01*
X48201090Y-166428168D01*
X48185438Y-166445438D01*
X48168168Y-166461090D01*
X48149448Y-166474974D01*
X48129457Y-166486956D01*
X48108387Y-166496921D01*
X48086443Y-166504773D01*
X48063834Y-166510437D01*
X48040779Y-166513856D01*
X48017500Y-166515000D01*
X47442500Y-166515000D01*
X47419221Y-166513856D01*
X47396166Y-166510437D01*
X47373557Y-166504773D01*
X47351613Y-166496921D01*
X47330543Y-166486956D01*
X47310552Y-166474974D01*
X47291832Y-166461090D01*
X47274562Y-166445438D01*
X47258910Y-166428168D01*
X47245026Y-166409448D01*
X47233044Y-166389457D01*
X47223079Y-166368387D01*
X47215227Y-166346443D01*
X47209563Y-166323834D01*
X47206144Y-166300779D01*
X47205000Y-166277500D01*
X47205000Y-165802500D01*
X47206144Y-165779221D01*
X47209563Y-165756166D01*
X47215227Y-165733557D01*
X47223079Y-165711613D01*
X47233044Y-165690543D01*
X47245026Y-165670552D01*
X47258910Y-165651832D01*
X47274562Y-165634562D01*
X47291832Y-165618910D01*
X47310552Y-165605026D01*
X47330543Y-165593044D01*
X47351613Y-165583079D01*
X47373557Y-165575227D01*
X47396166Y-165569563D01*
X47419221Y-165566144D01*
X47442500Y-165565000D01*
X48017500Y-165565000D01*
X48040779Y-165566144D01*
G37*
G36*
X46290779Y-165566144D02*
G01*
X46313834Y-165569563D01*
X46336443Y-165575227D01*
X46358387Y-165583079D01*
X46379457Y-165593044D01*
X46399448Y-165605026D01*
X46418168Y-165618910D01*
X46435438Y-165634562D01*
X46451090Y-165651832D01*
X46464974Y-165670552D01*
X46476956Y-165690543D01*
X46486921Y-165711613D01*
X46494773Y-165733557D01*
X46500437Y-165756166D01*
X46503856Y-165779221D01*
X46505000Y-165802500D01*
X46505000Y-166277500D01*
X46503856Y-166300779D01*
X46500437Y-166323834D01*
X46494773Y-166346443D01*
X46486921Y-166368387D01*
X46476956Y-166389457D01*
X46464974Y-166409448D01*
X46451090Y-166428168D01*
X46435438Y-166445438D01*
X46418168Y-166461090D01*
X46399448Y-166474974D01*
X46379457Y-166486956D01*
X46358387Y-166496921D01*
X46336443Y-166504773D01*
X46313834Y-166510437D01*
X46290779Y-166513856D01*
X46267500Y-166515000D01*
X45692500Y-166515000D01*
X45669221Y-166513856D01*
X45646166Y-166510437D01*
X45623557Y-166504773D01*
X45601613Y-166496921D01*
X45580543Y-166486956D01*
X45560552Y-166474974D01*
X45541832Y-166461090D01*
X45524562Y-166445438D01*
X45508910Y-166428168D01*
X45495026Y-166409448D01*
X45483044Y-166389457D01*
X45473079Y-166368387D01*
X45465227Y-166346443D01*
X45459563Y-166323834D01*
X45456144Y-166300779D01*
X45455000Y-166277500D01*
X45455000Y-165802500D01*
X45456144Y-165779221D01*
X45459563Y-165756166D01*
X45465227Y-165733557D01*
X45473079Y-165711613D01*
X45483044Y-165690543D01*
X45495026Y-165670552D01*
X45508910Y-165651832D01*
X45524562Y-165634562D01*
X45541832Y-165618910D01*
X45560552Y-165605026D01*
X45580543Y-165593044D01*
X45601613Y-165583079D01*
X45623557Y-165575227D01*
X45646166Y-165569563D01*
X45669221Y-165566144D01*
X45692500Y-165565000D01*
X46267500Y-165565000D01*
X46290779Y-165566144D01*
G37*
G36*
X24350779Y-83496144D02*
G01*
X24373834Y-83499563D01*
X24396443Y-83505227D01*
X24418387Y-83513079D01*
X24439457Y-83523044D01*
X24459448Y-83535026D01*
X24478168Y-83548910D01*
X24495438Y-83564562D01*
X24511090Y-83581832D01*
X24524974Y-83600552D01*
X24536956Y-83620543D01*
X24546921Y-83641613D01*
X24554773Y-83663557D01*
X24560437Y-83686166D01*
X24563856Y-83709221D01*
X24565000Y-83732500D01*
X24565000Y-84207500D01*
X24563856Y-84230779D01*
X24560437Y-84253834D01*
X24554773Y-84276443D01*
X24546921Y-84298387D01*
X24536956Y-84319457D01*
X24524974Y-84339448D01*
X24511090Y-84358168D01*
X24495438Y-84375438D01*
X24478168Y-84391090D01*
X24459448Y-84404974D01*
X24439457Y-84416956D01*
X24418387Y-84426921D01*
X24396443Y-84434773D01*
X24373834Y-84440437D01*
X24350779Y-84443856D01*
X24327500Y-84445000D01*
X23752500Y-84445000D01*
X23729221Y-84443856D01*
X23706166Y-84440437D01*
X23683557Y-84434773D01*
X23661613Y-84426921D01*
X23640543Y-84416956D01*
X23620552Y-84404974D01*
X23601832Y-84391090D01*
X23584562Y-84375438D01*
X23568910Y-84358168D01*
X23555026Y-84339448D01*
X23543044Y-84319457D01*
X23533079Y-84298387D01*
X23525227Y-84276443D01*
X23519563Y-84253834D01*
X23516144Y-84230779D01*
X23515000Y-84207500D01*
X23515000Y-83732500D01*
X23516144Y-83709221D01*
X23519563Y-83686166D01*
X23525227Y-83663557D01*
X23533079Y-83641613D01*
X23543044Y-83620543D01*
X23555026Y-83600552D01*
X23568910Y-83581832D01*
X23584562Y-83564562D01*
X23601832Y-83548910D01*
X23620552Y-83535026D01*
X23640543Y-83523044D01*
X23661613Y-83513079D01*
X23683557Y-83505227D01*
X23706166Y-83499563D01*
X23729221Y-83496144D01*
X23752500Y-83495000D01*
X24327500Y-83495000D01*
X24350779Y-83496144D01*
G37*
G36*
X26100779Y-83496144D02*
G01*
X26123834Y-83499563D01*
X26146443Y-83505227D01*
X26168387Y-83513079D01*
X26189457Y-83523044D01*
X26209448Y-83535026D01*
X26228168Y-83548910D01*
X26245438Y-83564562D01*
X26261090Y-83581832D01*
X26274974Y-83600552D01*
X26286956Y-83620543D01*
X26296921Y-83641613D01*
X26304773Y-83663557D01*
X26310437Y-83686166D01*
X26313856Y-83709221D01*
X26315000Y-83732500D01*
X26315000Y-84207500D01*
X26313856Y-84230779D01*
X26310437Y-84253834D01*
X26304773Y-84276443D01*
X26296921Y-84298387D01*
X26286956Y-84319457D01*
X26274974Y-84339448D01*
X26261090Y-84358168D01*
X26245438Y-84375438D01*
X26228168Y-84391090D01*
X26209448Y-84404974D01*
X26189457Y-84416956D01*
X26168387Y-84426921D01*
X26146443Y-84434773D01*
X26123834Y-84440437D01*
X26100779Y-84443856D01*
X26077500Y-84445000D01*
X25502500Y-84445000D01*
X25479221Y-84443856D01*
X25456166Y-84440437D01*
X25433557Y-84434773D01*
X25411613Y-84426921D01*
X25390543Y-84416956D01*
X25370552Y-84404974D01*
X25351832Y-84391090D01*
X25334562Y-84375438D01*
X25318910Y-84358168D01*
X25305026Y-84339448D01*
X25293044Y-84319457D01*
X25283079Y-84298387D01*
X25275227Y-84276443D01*
X25269563Y-84253834D01*
X25266144Y-84230779D01*
X25265000Y-84207500D01*
X25265000Y-83732500D01*
X25266144Y-83709221D01*
X25269563Y-83686166D01*
X25275227Y-83663557D01*
X25283079Y-83641613D01*
X25293044Y-83620543D01*
X25305026Y-83600552D01*
X25318910Y-83581832D01*
X25334562Y-83564562D01*
X25351832Y-83548910D01*
X25370552Y-83535026D01*
X25390543Y-83523044D01*
X25411613Y-83513079D01*
X25433557Y-83505227D01*
X25456166Y-83499563D01*
X25479221Y-83496144D01*
X25502500Y-83495000D01*
X26077500Y-83495000D01*
X26100779Y-83496144D01*
G37*
G36*
X66960779Y-165516144D02*
G01*
X66983834Y-165519563D01*
X67006443Y-165525227D01*
X67028387Y-165533079D01*
X67049457Y-165543044D01*
X67069448Y-165555026D01*
X67088168Y-165568910D01*
X67105438Y-165584562D01*
X67121090Y-165601832D01*
X67134974Y-165620552D01*
X67146956Y-165640543D01*
X67156921Y-165661613D01*
X67164773Y-165683557D01*
X67170437Y-165706166D01*
X67173856Y-165729221D01*
X67175000Y-165752500D01*
X67175000Y-166227500D01*
X67173856Y-166250779D01*
X67170437Y-166273834D01*
X67164773Y-166296443D01*
X67156921Y-166318387D01*
X67146956Y-166339457D01*
X67134974Y-166359448D01*
X67121090Y-166378168D01*
X67105438Y-166395438D01*
X67088168Y-166411090D01*
X67069448Y-166424974D01*
X67049457Y-166436956D01*
X67028387Y-166446921D01*
X67006443Y-166454773D01*
X66983834Y-166460437D01*
X66960779Y-166463856D01*
X66937500Y-166465000D01*
X66362500Y-166465000D01*
X66339221Y-166463856D01*
X66316166Y-166460437D01*
X66293557Y-166454773D01*
X66271613Y-166446921D01*
X66250543Y-166436956D01*
X66230552Y-166424974D01*
X66211832Y-166411090D01*
X66194562Y-166395438D01*
X66178910Y-166378168D01*
X66165026Y-166359448D01*
X66153044Y-166339457D01*
X66143079Y-166318387D01*
X66135227Y-166296443D01*
X66129563Y-166273834D01*
X66126144Y-166250779D01*
X66125000Y-166227500D01*
X66125000Y-165752500D01*
X66126144Y-165729221D01*
X66129563Y-165706166D01*
X66135227Y-165683557D01*
X66143079Y-165661613D01*
X66153044Y-165640543D01*
X66165026Y-165620552D01*
X66178910Y-165601832D01*
X66194562Y-165584562D01*
X66211832Y-165568910D01*
X66230552Y-165555026D01*
X66250543Y-165543044D01*
X66271613Y-165533079D01*
X66293557Y-165525227D01*
X66316166Y-165519563D01*
X66339221Y-165516144D01*
X66362500Y-165515000D01*
X66937500Y-165515000D01*
X66960779Y-165516144D01*
G37*
G36*
X65210779Y-165516144D02*
G01*
X65233834Y-165519563D01*
X65256443Y-165525227D01*
X65278387Y-165533079D01*
X65299457Y-165543044D01*
X65319448Y-165555026D01*
X65338168Y-165568910D01*
X65355438Y-165584562D01*
X65371090Y-165601832D01*
X65384974Y-165620552D01*
X65396956Y-165640543D01*
X65406921Y-165661613D01*
X65414773Y-165683557D01*
X65420437Y-165706166D01*
X65423856Y-165729221D01*
X65425000Y-165752500D01*
X65425000Y-166227500D01*
X65423856Y-166250779D01*
X65420437Y-166273834D01*
X65414773Y-166296443D01*
X65406921Y-166318387D01*
X65396956Y-166339457D01*
X65384974Y-166359448D01*
X65371090Y-166378168D01*
X65355438Y-166395438D01*
X65338168Y-166411090D01*
X65319448Y-166424974D01*
X65299457Y-166436956D01*
X65278387Y-166446921D01*
X65256443Y-166454773D01*
X65233834Y-166460437D01*
X65210779Y-166463856D01*
X65187500Y-166465000D01*
X64612500Y-166465000D01*
X64589221Y-166463856D01*
X64566166Y-166460437D01*
X64543557Y-166454773D01*
X64521613Y-166446921D01*
X64500543Y-166436956D01*
X64480552Y-166424974D01*
X64461832Y-166411090D01*
X64444562Y-166395438D01*
X64428910Y-166378168D01*
X64415026Y-166359448D01*
X64403044Y-166339457D01*
X64393079Y-166318387D01*
X64385227Y-166296443D01*
X64379563Y-166273834D01*
X64376144Y-166250779D01*
X64375000Y-166227500D01*
X64375000Y-165752500D01*
X64376144Y-165729221D01*
X64379563Y-165706166D01*
X64385227Y-165683557D01*
X64393079Y-165661613D01*
X64403044Y-165640543D01*
X64415026Y-165620552D01*
X64428910Y-165601832D01*
X64444562Y-165584562D01*
X64461832Y-165568910D01*
X64480552Y-165555026D01*
X64500543Y-165543044D01*
X64521613Y-165533079D01*
X64543557Y-165525227D01*
X64566166Y-165519563D01*
X64589221Y-165516144D01*
X64612500Y-165515000D01*
X65187500Y-165515000D01*
X65210779Y-165516144D01*
G37*
G36*
X45150779Y-83496144D02*
G01*
X45173834Y-83499563D01*
X45196443Y-83505227D01*
X45218387Y-83513079D01*
X45239457Y-83523044D01*
X45259448Y-83535026D01*
X45278168Y-83548910D01*
X45295438Y-83564562D01*
X45311090Y-83581832D01*
X45324974Y-83600552D01*
X45336956Y-83620543D01*
X45346921Y-83641613D01*
X45354773Y-83663557D01*
X45360437Y-83686166D01*
X45363856Y-83709221D01*
X45365000Y-83732500D01*
X45365000Y-84207500D01*
X45363856Y-84230779D01*
X45360437Y-84253834D01*
X45354773Y-84276443D01*
X45346921Y-84298387D01*
X45336956Y-84319457D01*
X45324974Y-84339448D01*
X45311090Y-84358168D01*
X45295438Y-84375438D01*
X45278168Y-84391090D01*
X45259448Y-84404974D01*
X45239457Y-84416956D01*
X45218387Y-84426921D01*
X45196443Y-84434773D01*
X45173834Y-84440437D01*
X45150779Y-84443856D01*
X45127500Y-84445000D01*
X44552500Y-84445000D01*
X44529221Y-84443856D01*
X44506166Y-84440437D01*
X44483557Y-84434773D01*
X44461613Y-84426921D01*
X44440543Y-84416956D01*
X44420552Y-84404974D01*
X44401832Y-84391090D01*
X44384562Y-84375438D01*
X44368910Y-84358168D01*
X44355026Y-84339448D01*
X44343044Y-84319457D01*
X44333079Y-84298387D01*
X44325227Y-84276443D01*
X44319563Y-84253834D01*
X44316144Y-84230779D01*
X44315000Y-84207500D01*
X44315000Y-83732500D01*
X44316144Y-83709221D01*
X44319563Y-83686166D01*
X44325227Y-83663557D01*
X44333079Y-83641613D01*
X44343044Y-83620543D01*
X44355026Y-83600552D01*
X44368910Y-83581832D01*
X44384562Y-83564562D01*
X44401832Y-83548910D01*
X44420552Y-83535026D01*
X44440543Y-83523044D01*
X44461613Y-83513079D01*
X44483557Y-83505227D01*
X44506166Y-83499563D01*
X44529221Y-83496144D01*
X44552500Y-83495000D01*
X45127500Y-83495000D01*
X45150779Y-83496144D01*
G37*
G36*
X43400779Y-83496144D02*
G01*
X43423834Y-83499563D01*
X43446443Y-83505227D01*
X43468387Y-83513079D01*
X43489457Y-83523044D01*
X43509448Y-83535026D01*
X43528168Y-83548910D01*
X43545438Y-83564562D01*
X43561090Y-83581832D01*
X43574974Y-83600552D01*
X43586956Y-83620543D01*
X43596921Y-83641613D01*
X43604773Y-83663557D01*
X43610437Y-83686166D01*
X43613856Y-83709221D01*
X43615000Y-83732500D01*
X43615000Y-84207500D01*
X43613856Y-84230779D01*
X43610437Y-84253834D01*
X43604773Y-84276443D01*
X43596921Y-84298387D01*
X43586956Y-84319457D01*
X43574974Y-84339448D01*
X43561090Y-84358168D01*
X43545438Y-84375438D01*
X43528168Y-84391090D01*
X43509448Y-84404974D01*
X43489457Y-84416956D01*
X43468387Y-84426921D01*
X43446443Y-84434773D01*
X43423834Y-84440437D01*
X43400779Y-84443856D01*
X43377500Y-84445000D01*
X42802500Y-84445000D01*
X42779221Y-84443856D01*
X42756166Y-84440437D01*
X42733557Y-84434773D01*
X42711613Y-84426921D01*
X42690543Y-84416956D01*
X42670552Y-84404974D01*
X42651832Y-84391090D01*
X42634562Y-84375438D01*
X42618910Y-84358168D01*
X42605026Y-84339448D01*
X42593044Y-84319457D01*
X42583079Y-84298387D01*
X42575227Y-84276443D01*
X42569563Y-84253834D01*
X42566144Y-84230779D01*
X42565000Y-84207500D01*
X42565000Y-83732500D01*
X42566144Y-83709221D01*
X42569563Y-83686166D01*
X42575227Y-83663557D01*
X42583079Y-83641613D01*
X42593044Y-83620543D01*
X42605026Y-83600552D01*
X42618910Y-83581832D01*
X42634562Y-83564562D01*
X42651832Y-83548910D01*
X42670552Y-83535026D01*
X42690543Y-83523044D01*
X42711613Y-83513079D01*
X42733557Y-83505227D01*
X42756166Y-83499563D01*
X42779221Y-83496144D01*
X42802500Y-83495000D01*
X43377500Y-83495000D01*
X43400779Y-83496144D01*
G37*
G36*
X81500779Y-83496144D02*
G01*
X81523834Y-83499563D01*
X81546443Y-83505227D01*
X81568387Y-83513079D01*
X81589457Y-83523044D01*
X81609448Y-83535026D01*
X81628168Y-83548910D01*
X81645438Y-83564562D01*
X81661090Y-83581832D01*
X81674974Y-83600552D01*
X81686956Y-83620543D01*
X81696921Y-83641613D01*
X81704773Y-83663557D01*
X81710437Y-83686166D01*
X81713856Y-83709221D01*
X81715000Y-83732500D01*
X81715000Y-84207500D01*
X81713856Y-84230779D01*
X81710437Y-84253834D01*
X81704773Y-84276443D01*
X81696921Y-84298387D01*
X81686956Y-84319457D01*
X81674974Y-84339448D01*
X81661090Y-84358168D01*
X81645438Y-84375438D01*
X81628168Y-84391090D01*
X81609448Y-84404974D01*
X81589457Y-84416956D01*
X81568387Y-84426921D01*
X81546443Y-84434773D01*
X81523834Y-84440437D01*
X81500779Y-84443856D01*
X81477500Y-84445000D01*
X80902500Y-84445000D01*
X80879221Y-84443856D01*
X80856166Y-84440437D01*
X80833557Y-84434773D01*
X80811613Y-84426921D01*
X80790543Y-84416956D01*
X80770552Y-84404974D01*
X80751832Y-84391090D01*
X80734562Y-84375438D01*
X80718910Y-84358168D01*
X80705026Y-84339448D01*
X80693044Y-84319457D01*
X80683079Y-84298387D01*
X80675227Y-84276443D01*
X80669563Y-84253834D01*
X80666144Y-84230779D01*
X80665000Y-84207500D01*
X80665000Y-83732500D01*
X80666144Y-83709221D01*
X80669563Y-83686166D01*
X80675227Y-83663557D01*
X80683079Y-83641613D01*
X80693044Y-83620543D01*
X80705026Y-83600552D01*
X80718910Y-83581832D01*
X80734562Y-83564562D01*
X80751832Y-83548910D01*
X80770552Y-83535026D01*
X80790543Y-83523044D01*
X80811613Y-83513079D01*
X80833557Y-83505227D01*
X80856166Y-83499563D01*
X80879221Y-83496144D01*
X80902500Y-83495000D01*
X81477500Y-83495000D01*
X81500779Y-83496144D01*
G37*
G36*
X83250779Y-83496144D02*
G01*
X83273834Y-83499563D01*
X83296443Y-83505227D01*
X83318387Y-83513079D01*
X83339457Y-83523044D01*
X83359448Y-83535026D01*
X83378168Y-83548910D01*
X83395438Y-83564562D01*
X83411090Y-83581832D01*
X83424974Y-83600552D01*
X83436956Y-83620543D01*
X83446921Y-83641613D01*
X83454773Y-83663557D01*
X83460437Y-83686166D01*
X83463856Y-83709221D01*
X83465000Y-83732500D01*
X83465000Y-84207500D01*
X83463856Y-84230779D01*
X83460437Y-84253834D01*
X83454773Y-84276443D01*
X83446921Y-84298387D01*
X83436956Y-84319457D01*
X83424974Y-84339448D01*
X83411090Y-84358168D01*
X83395438Y-84375438D01*
X83378168Y-84391090D01*
X83359448Y-84404974D01*
X83339457Y-84416956D01*
X83318387Y-84426921D01*
X83296443Y-84434773D01*
X83273834Y-84440437D01*
X83250779Y-84443856D01*
X83227500Y-84445000D01*
X82652500Y-84445000D01*
X82629221Y-84443856D01*
X82606166Y-84440437D01*
X82583557Y-84434773D01*
X82561613Y-84426921D01*
X82540543Y-84416956D01*
X82520552Y-84404974D01*
X82501832Y-84391090D01*
X82484562Y-84375438D01*
X82468910Y-84358168D01*
X82455026Y-84339448D01*
X82443044Y-84319457D01*
X82433079Y-84298387D01*
X82425227Y-84276443D01*
X82419563Y-84253834D01*
X82416144Y-84230779D01*
X82415000Y-84207500D01*
X82415000Y-83732500D01*
X82416144Y-83709221D01*
X82419563Y-83686166D01*
X82425227Y-83663557D01*
X82433079Y-83641613D01*
X82443044Y-83620543D01*
X82455026Y-83600552D01*
X82468910Y-83581832D01*
X82484562Y-83564562D01*
X82501832Y-83548910D01*
X82520552Y-83535026D01*
X82540543Y-83523044D01*
X82561613Y-83513079D01*
X82583557Y-83505227D01*
X82606166Y-83499563D01*
X82629221Y-83496144D01*
X82652500Y-83495000D01*
X83227500Y-83495000D01*
X83250779Y-83496144D01*
G37*
G36*
X28895779Y-165546144D02*
G01*
X28918834Y-165549563D01*
X28941443Y-165555227D01*
X28963387Y-165563079D01*
X28984457Y-165573044D01*
X29004448Y-165585026D01*
X29023168Y-165598910D01*
X29040438Y-165614562D01*
X29056090Y-165631832D01*
X29069974Y-165650552D01*
X29081956Y-165670543D01*
X29091921Y-165691613D01*
X29099773Y-165713557D01*
X29105437Y-165736166D01*
X29108856Y-165759221D01*
X29110000Y-165782500D01*
X29110000Y-166257500D01*
X29108856Y-166280779D01*
X29105437Y-166303834D01*
X29099773Y-166326443D01*
X29091921Y-166348387D01*
X29081956Y-166369457D01*
X29069974Y-166389448D01*
X29056090Y-166408168D01*
X29040438Y-166425438D01*
X29023168Y-166441090D01*
X29004448Y-166454974D01*
X28984457Y-166466956D01*
X28963387Y-166476921D01*
X28941443Y-166484773D01*
X28918834Y-166490437D01*
X28895779Y-166493856D01*
X28872500Y-166495000D01*
X28297500Y-166495000D01*
X28274221Y-166493856D01*
X28251166Y-166490437D01*
X28228557Y-166484773D01*
X28206613Y-166476921D01*
X28185543Y-166466956D01*
X28165552Y-166454974D01*
X28146832Y-166441090D01*
X28129562Y-166425438D01*
X28113910Y-166408168D01*
X28100026Y-166389448D01*
X28088044Y-166369457D01*
X28078079Y-166348387D01*
X28070227Y-166326443D01*
X28064563Y-166303834D01*
X28061144Y-166280779D01*
X28060000Y-166257500D01*
X28060000Y-165782500D01*
X28061144Y-165759221D01*
X28064563Y-165736166D01*
X28070227Y-165713557D01*
X28078079Y-165691613D01*
X28088044Y-165670543D01*
X28100026Y-165650552D01*
X28113910Y-165631832D01*
X28129562Y-165614562D01*
X28146832Y-165598910D01*
X28165552Y-165585026D01*
X28185543Y-165573044D01*
X28206613Y-165563079D01*
X28228557Y-165555227D01*
X28251166Y-165549563D01*
X28274221Y-165546144D01*
X28297500Y-165545000D01*
X28872500Y-165545000D01*
X28895779Y-165546144D01*
G37*
G36*
X27145779Y-165546144D02*
G01*
X27168834Y-165549563D01*
X27191443Y-165555227D01*
X27213387Y-165563079D01*
X27234457Y-165573044D01*
X27254448Y-165585026D01*
X27273168Y-165598910D01*
X27290438Y-165614562D01*
X27306090Y-165631832D01*
X27319974Y-165650552D01*
X27331956Y-165670543D01*
X27341921Y-165691613D01*
X27349773Y-165713557D01*
X27355437Y-165736166D01*
X27358856Y-165759221D01*
X27360000Y-165782500D01*
X27360000Y-166257500D01*
X27358856Y-166280779D01*
X27355437Y-166303834D01*
X27349773Y-166326443D01*
X27341921Y-166348387D01*
X27331956Y-166369457D01*
X27319974Y-166389448D01*
X27306090Y-166408168D01*
X27290438Y-166425438D01*
X27273168Y-166441090D01*
X27254448Y-166454974D01*
X27234457Y-166466956D01*
X27213387Y-166476921D01*
X27191443Y-166484773D01*
X27168834Y-166490437D01*
X27145779Y-166493856D01*
X27122500Y-166495000D01*
X26547500Y-166495000D01*
X26524221Y-166493856D01*
X26501166Y-166490437D01*
X26478557Y-166484773D01*
X26456613Y-166476921D01*
X26435543Y-166466956D01*
X26415552Y-166454974D01*
X26396832Y-166441090D01*
X26379562Y-166425438D01*
X26363910Y-166408168D01*
X26350026Y-166389448D01*
X26338044Y-166369457D01*
X26328079Y-166348387D01*
X26320227Y-166326443D01*
X26314563Y-166303834D01*
X26311144Y-166280779D01*
X26310000Y-166257500D01*
X26310000Y-165782500D01*
X26311144Y-165759221D01*
X26314563Y-165736166D01*
X26320227Y-165713557D01*
X26328079Y-165691613D01*
X26338044Y-165670543D01*
X26350026Y-165650552D01*
X26363910Y-165631832D01*
X26379562Y-165614562D01*
X26396832Y-165598910D01*
X26415552Y-165585026D01*
X26435543Y-165573044D01*
X26456613Y-165563079D01*
X26478557Y-165555227D01*
X26501166Y-165549563D01*
X26524221Y-165546144D01*
X26547500Y-165545000D01*
X27122500Y-165545000D01*
X27145779Y-165546144D01*
G37*
G36*
X86010779Y-165516144D02*
G01*
X86033834Y-165519563D01*
X86056443Y-165525227D01*
X86078387Y-165533079D01*
X86099457Y-165543044D01*
X86119448Y-165555026D01*
X86138168Y-165568910D01*
X86155438Y-165584562D01*
X86171090Y-165601832D01*
X86184974Y-165620552D01*
X86196956Y-165640543D01*
X86206921Y-165661613D01*
X86214773Y-165683557D01*
X86220437Y-165706166D01*
X86223856Y-165729221D01*
X86225000Y-165752500D01*
X86225000Y-166227500D01*
X86223856Y-166250779D01*
X86220437Y-166273834D01*
X86214773Y-166296443D01*
X86206921Y-166318387D01*
X86196956Y-166339457D01*
X86184974Y-166359448D01*
X86171090Y-166378168D01*
X86155438Y-166395438D01*
X86138168Y-166411090D01*
X86119448Y-166424974D01*
X86099457Y-166436956D01*
X86078387Y-166446921D01*
X86056443Y-166454773D01*
X86033834Y-166460437D01*
X86010779Y-166463856D01*
X85987500Y-166465000D01*
X85412500Y-166465000D01*
X85389221Y-166463856D01*
X85366166Y-166460437D01*
X85343557Y-166454773D01*
X85321613Y-166446921D01*
X85300543Y-166436956D01*
X85280552Y-166424974D01*
X85261832Y-166411090D01*
X85244562Y-166395438D01*
X85228910Y-166378168D01*
X85215026Y-166359448D01*
X85203044Y-166339457D01*
X85193079Y-166318387D01*
X85185227Y-166296443D01*
X85179563Y-166273834D01*
X85176144Y-166250779D01*
X85175000Y-166227500D01*
X85175000Y-165752500D01*
X85176144Y-165729221D01*
X85179563Y-165706166D01*
X85185227Y-165683557D01*
X85193079Y-165661613D01*
X85203044Y-165640543D01*
X85215026Y-165620552D01*
X85228910Y-165601832D01*
X85244562Y-165584562D01*
X85261832Y-165568910D01*
X85280552Y-165555026D01*
X85300543Y-165543044D01*
X85321613Y-165533079D01*
X85343557Y-165525227D01*
X85366166Y-165519563D01*
X85389221Y-165516144D01*
X85412500Y-165515000D01*
X85987500Y-165515000D01*
X86010779Y-165516144D01*
G37*
G36*
X84260779Y-165516144D02*
G01*
X84283834Y-165519563D01*
X84306443Y-165525227D01*
X84328387Y-165533079D01*
X84349457Y-165543044D01*
X84369448Y-165555026D01*
X84388168Y-165568910D01*
X84405438Y-165584562D01*
X84421090Y-165601832D01*
X84434974Y-165620552D01*
X84446956Y-165640543D01*
X84456921Y-165661613D01*
X84464773Y-165683557D01*
X84470437Y-165706166D01*
X84473856Y-165729221D01*
X84475000Y-165752500D01*
X84475000Y-166227500D01*
X84473856Y-166250779D01*
X84470437Y-166273834D01*
X84464773Y-166296443D01*
X84456921Y-166318387D01*
X84446956Y-166339457D01*
X84434974Y-166359448D01*
X84421090Y-166378168D01*
X84405438Y-166395438D01*
X84388168Y-166411090D01*
X84369448Y-166424974D01*
X84349457Y-166436956D01*
X84328387Y-166446921D01*
X84306443Y-166454773D01*
X84283834Y-166460437D01*
X84260779Y-166463856D01*
X84237500Y-166465000D01*
X83662500Y-166465000D01*
X83639221Y-166463856D01*
X83616166Y-166460437D01*
X83593557Y-166454773D01*
X83571613Y-166446921D01*
X83550543Y-166436956D01*
X83530552Y-166424974D01*
X83511832Y-166411090D01*
X83494562Y-166395438D01*
X83478910Y-166378168D01*
X83465026Y-166359448D01*
X83453044Y-166339457D01*
X83443079Y-166318387D01*
X83435227Y-166296443D01*
X83429563Y-166273834D01*
X83426144Y-166250779D01*
X83425000Y-166227500D01*
X83425000Y-165752500D01*
X83426144Y-165729221D01*
X83429563Y-165706166D01*
X83435227Y-165683557D01*
X83443079Y-165661613D01*
X83453044Y-165640543D01*
X83465026Y-165620552D01*
X83478910Y-165601832D01*
X83494562Y-165584562D01*
X83511832Y-165568910D01*
X83530552Y-165555026D01*
X83550543Y-165543044D01*
X83571613Y-165533079D01*
X83593557Y-165525227D01*
X83616166Y-165519563D01*
X83639221Y-165516144D01*
X83662500Y-165515000D01*
X84237500Y-165515000D01*
X84260779Y-165516144D01*
G37*
D20*
X39490000Y-74670000D03*
X39490000Y-77970000D03*
D16*
G36*
X126224504Y-61638704D02*
G01*
X126248773Y-61642304D01*
X126272571Y-61648265D01*
X126295671Y-61656530D01*
X126317849Y-61667020D01*
X126338893Y-61679633D01*
X126358598Y-61694247D01*
X126376777Y-61710723D01*
X126393253Y-61728902D01*
X126407867Y-61748607D01*
X126420480Y-61769651D01*
X126430970Y-61791829D01*
X126439235Y-61814929D01*
X126445196Y-61838727D01*
X126448796Y-61862996D01*
X126450000Y-61887500D01*
X126450000Y-62812500D01*
X126448796Y-62837004D01*
X126445196Y-62861273D01*
X126439235Y-62885071D01*
X126430970Y-62908171D01*
X126420480Y-62930349D01*
X126407867Y-62951393D01*
X126393253Y-62971098D01*
X126376777Y-62989277D01*
X126358598Y-63005753D01*
X126338893Y-63020367D01*
X126317849Y-63032980D01*
X126295671Y-63043470D01*
X126272571Y-63051735D01*
X126248773Y-63057696D01*
X126224504Y-63061296D01*
X126200000Y-63062500D01*
X124950000Y-63062500D01*
X124925496Y-63061296D01*
X124901227Y-63057696D01*
X124877429Y-63051735D01*
X124854329Y-63043470D01*
X124832151Y-63032980D01*
X124811107Y-63020367D01*
X124791402Y-63005753D01*
X124773223Y-62989277D01*
X124756747Y-62971098D01*
X124742133Y-62951393D01*
X124729520Y-62930349D01*
X124719030Y-62908171D01*
X124710765Y-62885071D01*
X124704804Y-62861273D01*
X124701204Y-62837004D01*
X124700000Y-62812500D01*
X124700000Y-61887500D01*
X124701204Y-61862996D01*
X124704804Y-61838727D01*
X124710765Y-61814929D01*
X124719030Y-61791829D01*
X124729520Y-61769651D01*
X124742133Y-61748607D01*
X124756747Y-61728902D01*
X124773223Y-61710723D01*
X124791402Y-61694247D01*
X124811107Y-61679633D01*
X124832151Y-61667020D01*
X124854329Y-61656530D01*
X124877429Y-61648265D01*
X124901227Y-61642304D01*
X124925496Y-61638704D01*
X124950000Y-61637500D01*
X126200000Y-61637500D01*
X126224504Y-61638704D01*
G37*
G36*
X126224504Y-58663704D02*
G01*
X126248773Y-58667304D01*
X126272571Y-58673265D01*
X126295671Y-58681530D01*
X126317849Y-58692020D01*
X126338893Y-58704633D01*
X126358598Y-58719247D01*
X126376777Y-58735723D01*
X126393253Y-58753902D01*
X126407867Y-58773607D01*
X126420480Y-58794651D01*
X126430970Y-58816829D01*
X126439235Y-58839929D01*
X126445196Y-58863727D01*
X126448796Y-58887996D01*
X126450000Y-58912500D01*
X126450000Y-59837500D01*
X126448796Y-59862004D01*
X126445196Y-59886273D01*
X126439235Y-59910071D01*
X126430970Y-59933171D01*
X126420480Y-59955349D01*
X126407867Y-59976393D01*
X126393253Y-59996098D01*
X126376777Y-60014277D01*
X126358598Y-60030753D01*
X126338893Y-60045367D01*
X126317849Y-60057980D01*
X126295671Y-60068470D01*
X126272571Y-60076735D01*
X126248773Y-60082696D01*
X126224504Y-60086296D01*
X126200000Y-60087500D01*
X124950000Y-60087500D01*
X124925496Y-60086296D01*
X124901227Y-60082696D01*
X124877429Y-60076735D01*
X124854329Y-60068470D01*
X124832151Y-60057980D01*
X124811107Y-60045367D01*
X124791402Y-60030753D01*
X124773223Y-60014277D01*
X124756747Y-59996098D01*
X124742133Y-59976393D01*
X124729520Y-59955349D01*
X124719030Y-59933171D01*
X124710765Y-59910071D01*
X124704804Y-59886273D01*
X124701204Y-59862004D01*
X124700000Y-59837500D01*
X124700000Y-58912500D01*
X124701204Y-58887996D01*
X124704804Y-58863727D01*
X124710765Y-58839929D01*
X124719030Y-58816829D01*
X124729520Y-58794651D01*
X124742133Y-58773607D01*
X124756747Y-58753902D01*
X124773223Y-58735723D01*
X124791402Y-58719247D01*
X124811107Y-58704633D01*
X124832151Y-58692020D01*
X124854329Y-58681530D01*
X124877429Y-58673265D01*
X124901227Y-58667304D01*
X124925496Y-58663704D01*
X124950000Y-58662500D01*
X126200000Y-58662500D01*
X126224504Y-58663704D01*
G37*
G36*
X113540191Y-59426053D02*
G01*
X113561426Y-59429203D01*
X113582250Y-59434419D01*
X113602462Y-59441651D01*
X113621868Y-59450830D01*
X113640281Y-59461866D01*
X113657524Y-59474654D01*
X113673430Y-59489070D01*
X113687846Y-59504976D01*
X113700634Y-59522219D01*
X113711670Y-59540632D01*
X113720849Y-59560038D01*
X113728081Y-59580250D01*
X113733297Y-59601074D01*
X113736447Y-59622309D01*
X113737500Y-59643750D01*
X113737500Y-60156250D01*
X113736447Y-60177691D01*
X113733297Y-60198926D01*
X113728081Y-60219750D01*
X113720849Y-60239962D01*
X113711670Y-60259368D01*
X113700634Y-60277781D01*
X113687846Y-60295024D01*
X113673430Y-60310930D01*
X113657524Y-60325346D01*
X113640281Y-60338134D01*
X113621868Y-60349170D01*
X113602462Y-60358349D01*
X113582250Y-60365581D01*
X113561426Y-60370797D01*
X113540191Y-60373947D01*
X113518750Y-60375000D01*
X113081250Y-60375000D01*
X113059809Y-60373947D01*
X113038574Y-60370797D01*
X113017750Y-60365581D01*
X112997538Y-60358349D01*
X112978132Y-60349170D01*
X112959719Y-60338134D01*
X112942476Y-60325346D01*
X112926570Y-60310930D01*
X112912154Y-60295024D01*
X112899366Y-60277781D01*
X112888330Y-60259368D01*
X112879151Y-60239962D01*
X112871919Y-60219750D01*
X112866703Y-60198926D01*
X112863553Y-60177691D01*
X112862500Y-60156250D01*
X112862500Y-59643750D01*
X112863553Y-59622309D01*
X112866703Y-59601074D01*
X112871919Y-59580250D01*
X112879151Y-59560038D01*
X112888330Y-59540632D01*
X112899366Y-59522219D01*
X112912154Y-59504976D01*
X112926570Y-59489070D01*
X112942476Y-59474654D01*
X112959719Y-59461866D01*
X112978132Y-59450830D01*
X112997538Y-59441651D01*
X113017750Y-59434419D01*
X113038574Y-59429203D01*
X113059809Y-59426053D01*
X113081250Y-59425000D01*
X113518750Y-59425000D01*
X113540191Y-59426053D01*
G37*
G36*
X115115191Y-59426053D02*
G01*
X115136426Y-59429203D01*
X115157250Y-59434419D01*
X115177462Y-59441651D01*
X115196868Y-59450830D01*
X115215281Y-59461866D01*
X115232524Y-59474654D01*
X115248430Y-59489070D01*
X115262846Y-59504976D01*
X115275634Y-59522219D01*
X115286670Y-59540632D01*
X115295849Y-59560038D01*
X115303081Y-59580250D01*
X115308297Y-59601074D01*
X115311447Y-59622309D01*
X115312500Y-59643750D01*
X115312500Y-60156250D01*
X115311447Y-60177691D01*
X115308297Y-60198926D01*
X115303081Y-60219750D01*
X115295849Y-60239962D01*
X115286670Y-60259368D01*
X115275634Y-60277781D01*
X115262846Y-60295024D01*
X115248430Y-60310930D01*
X115232524Y-60325346D01*
X115215281Y-60338134D01*
X115196868Y-60349170D01*
X115177462Y-60358349D01*
X115157250Y-60365581D01*
X115136426Y-60370797D01*
X115115191Y-60373947D01*
X115093750Y-60375000D01*
X114656250Y-60375000D01*
X114634809Y-60373947D01*
X114613574Y-60370797D01*
X114592750Y-60365581D01*
X114572538Y-60358349D01*
X114553132Y-60349170D01*
X114534719Y-60338134D01*
X114517476Y-60325346D01*
X114501570Y-60310930D01*
X114487154Y-60295024D01*
X114474366Y-60277781D01*
X114463330Y-60259368D01*
X114454151Y-60239962D01*
X114446919Y-60219750D01*
X114441703Y-60198926D01*
X114438553Y-60177691D01*
X114437500Y-60156250D01*
X114437500Y-59643750D01*
X114438553Y-59622309D01*
X114441703Y-59601074D01*
X114446919Y-59580250D01*
X114454151Y-59560038D01*
X114463330Y-59540632D01*
X114474366Y-59522219D01*
X114487154Y-59504976D01*
X114501570Y-59489070D01*
X114517476Y-59474654D01*
X114534719Y-59461866D01*
X114553132Y-59450830D01*
X114572538Y-59441651D01*
X114592750Y-59434419D01*
X114613574Y-59429203D01*
X114634809Y-59426053D01*
X114656250Y-59425000D01*
X115093750Y-59425000D01*
X115115191Y-59426053D01*
G37*
G36*
X122277691Y-62038553D02*
G01*
X122298926Y-62041703D01*
X122319750Y-62046919D01*
X122339962Y-62054151D01*
X122359368Y-62063330D01*
X122377781Y-62074366D01*
X122395024Y-62087154D01*
X122410930Y-62101570D01*
X122425346Y-62117476D01*
X122438134Y-62134719D01*
X122449170Y-62153132D01*
X122458349Y-62172538D01*
X122465581Y-62192750D01*
X122470797Y-62213574D01*
X122473947Y-62234809D01*
X122475000Y-62256250D01*
X122475000Y-62693750D01*
X122473947Y-62715191D01*
X122470797Y-62736426D01*
X122465581Y-62757250D01*
X122458349Y-62777462D01*
X122449170Y-62796868D01*
X122438134Y-62815281D01*
X122425346Y-62832524D01*
X122410930Y-62848430D01*
X122395024Y-62862846D01*
X122377781Y-62875634D01*
X122359368Y-62886670D01*
X122339962Y-62895849D01*
X122319750Y-62903081D01*
X122298926Y-62908297D01*
X122277691Y-62911447D01*
X122256250Y-62912500D01*
X121743750Y-62912500D01*
X121722309Y-62911447D01*
X121701074Y-62908297D01*
X121680250Y-62903081D01*
X121660038Y-62895849D01*
X121640632Y-62886670D01*
X121622219Y-62875634D01*
X121604976Y-62862846D01*
X121589070Y-62848430D01*
X121574654Y-62832524D01*
X121561866Y-62815281D01*
X121550830Y-62796868D01*
X121541651Y-62777462D01*
X121534419Y-62757250D01*
X121529203Y-62736426D01*
X121526053Y-62715191D01*
X121525000Y-62693750D01*
X121525000Y-62256250D01*
X121526053Y-62234809D01*
X121529203Y-62213574D01*
X121534419Y-62192750D01*
X121541651Y-62172538D01*
X121550830Y-62153132D01*
X121561866Y-62134719D01*
X121574654Y-62117476D01*
X121589070Y-62101570D01*
X121604976Y-62087154D01*
X121622219Y-62074366D01*
X121640632Y-62063330D01*
X121660038Y-62054151D01*
X121680250Y-62046919D01*
X121701074Y-62041703D01*
X121722309Y-62038553D01*
X121743750Y-62037500D01*
X122256250Y-62037500D01*
X122277691Y-62038553D01*
G37*
G36*
X122277691Y-60463553D02*
G01*
X122298926Y-60466703D01*
X122319750Y-60471919D01*
X122339962Y-60479151D01*
X122359368Y-60488330D01*
X122377781Y-60499366D01*
X122395024Y-60512154D01*
X122410930Y-60526570D01*
X122425346Y-60542476D01*
X122438134Y-60559719D01*
X122449170Y-60578132D01*
X122458349Y-60597538D01*
X122465581Y-60617750D01*
X122470797Y-60638574D01*
X122473947Y-60659809D01*
X122475000Y-60681250D01*
X122475000Y-61118750D01*
X122473947Y-61140191D01*
X122470797Y-61161426D01*
X122465581Y-61182250D01*
X122458349Y-61202462D01*
X122449170Y-61221868D01*
X122438134Y-61240281D01*
X122425346Y-61257524D01*
X122410930Y-61273430D01*
X122395024Y-61287846D01*
X122377781Y-61300634D01*
X122359368Y-61311670D01*
X122339962Y-61320849D01*
X122319750Y-61328081D01*
X122298926Y-61333297D01*
X122277691Y-61336447D01*
X122256250Y-61337500D01*
X121743750Y-61337500D01*
X121722309Y-61336447D01*
X121701074Y-61333297D01*
X121680250Y-61328081D01*
X121660038Y-61320849D01*
X121640632Y-61311670D01*
X121622219Y-61300634D01*
X121604976Y-61287846D01*
X121589070Y-61273430D01*
X121574654Y-61257524D01*
X121561866Y-61240281D01*
X121550830Y-61221868D01*
X121541651Y-61202462D01*
X121534419Y-61182250D01*
X121529203Y-61161426D01*
X121526053Y-61140191D01*
X121525000Y-61118750D01*
X121525000Y-60681250D01*
X121526053Y-60659809D01*
X121529203Y-60638574D01*
X121534419Y-60617750D01*
X121541651Y-60597538D01*
X121550830Y-60578132D01*
X121561866Y-60559719D01*
X121574654Y-60542476D01*
X121589070Y-60526570D01*
X121604976Y-60512154D01*
X121622219Y-60499366D01*
X121640632Y-60488330D01*
X121660038Y-60479151D01*
X121680250Y-60471919D01*
X121701074Y-60466703D01*
X121722309Y-60463553D01*
X121743750Y-60462500D01*
X122256250Y-60462500D01*
X122277691Y-60463553D01*
G37*
G36*
X130652691Y-78588553D02*
G01*
X130673926Y-78591703D01*
X130694750Y-78596919D01*
X130714962Y-78604151D01*
X130734368Y-78613330D01*
X130752781Y-78624366D01*
X130770024Y-78637154D01*
X130785930Y-78651570D01*
X130800346Y-78667476D01*
X130813134Y-78684719D01*
X130824170Y-78703132D01*
X130833349Y-78722538D01*
X130840581Y-78742750D01*
X130845797Y-78763574D01*
X130848947Y-78784809D01*
X130850000Y-78806250D01*
X130850000Y-79243750D01*
X130848947Y-79265191D01*
X130845797Y-79286426D01*
X130840581Y-79307250D01*
X130833349Y-79327462D01*
X130824170Y-79346868D01*
X130813134Y-79365281D01*
X130800346Y-79382524D01*
X130785930Y-79398430D01*
X130770024Y-79412846D01*
X130752781Y-79425634D01*
X130734368Y-79436670D01*
X130714962Y-79445849D01*
X130694750Y-79453081D01*
X130673926Y-79458297D01*
X130652691Y-79461447D01*
X130631250Y-79462500D01*
X130118750Y-79462500D01*
X130097309Y-79461447D01*
X130076074Y-79458297D01*
X130055250Y-79453081D01*
X130035038Y-79445849D01*
X130015632Y-79436670D01*
X129997219Y-79425634D01*
X129979976Y-79412846D01*
X129964070Y-79398430D01*
X129949654Y-79382524D01*
X129936866Y-79365281D01*
X129925830Y-79346868D01*
X129916651Y-79327462D01*
X129909419Y-79307250D01*
X129904203Y-79286426D01*
X129901053Y-79265191D01*
X129900000Y-79243750D01*
X129900000Y-78806250D01*
X129901053Y-78784809D01*
X129904203Y-78763574D01*
X129909419Y-78742750D01*
X129916651Y-78722538D01*
X129925830Y-78703132D01*
X129936866Y-78684719D01*
X129949654Y-78667476D01*
X129964070Y-78651570D01*
X129979976Y-78637154D01*
X129997219Y-78624366D01*
X130015632Y-78613330D01*
X130035038Y-78604151D01*
X130055250Y-78596919D01*
X130076074Y-78591703D01*
X130097309Y-78588553D01*
X130118750Y-78587500D01*
X130631250Y-78587500D01*
X130652691Y-78588553D01*
G37*
G36*
X130652691Y-80163553D02*
G01*
X130673926Y-80166703D01*
X130694750Y-80171919D01*
X130714962Y-80179151D01*
X130734368Y-80188330D01*
X130752781Y-80199366D01*
X130770024Y-80212154D01*
X130785930Y-80226570D01*
X130800346Y-80242476D01*
X130813134Y-80259719D01*
X130824170Y-80278132D01*
X130833349Y-80297538D01*
X130840581Y-80317750D01*
X130845797Y-80338574D01*
X130848947Y-80359809D01*
X130850000Y-80381250D01*
X130850000Y-80818750D01*
X130848947Y-80840191D01*
X130845797Y-80861426D01*
X130840581Y-80882250D01*
X130833349Y-80902462D01*
X130824170Y-80921868D01*
X130813134Y-80940281D01*
X130800346Y-80957524D01*
X130785930Y-80973430D01*
X130770024Y-80987846D01*
X130752781Y-81000634D01*
X130734368Y-81011670D01*
X130714962Y-81020849D01*
X130694750Y-81028081D01*
X130673926Y-81033297D01*
X130652691Y-81036447D01*
X130631250Y-81037500D01*
X130118750Y-81037500D01*
X130097309Y-81036447D01*
X130076074Y-81033297D01*
X130055250Y-81028081D01*
X130035038Y-81020849D01*
X130015632Y-81011670D01*
X129997219Y-81000634D01*
X129979976Y-80987846D01*
X129964070Y-80973430D01*
X129949654Y-80957524D01*
X129936866Y-80940281D01*
X129925830Y-80921868D01*
X129916651Y-80902462D01*
X129909419Y-80882250D01*
X129904203Y-80861426D01*
X129901053Y-80840191D01*
X129900000Y-80818750D01*
X129900000Y-80381250D01*
X129901053Y-80359809D01*
X129904203Y-80338574D01*
X129909419Y-80317750D01*
X129916651Y-80297538D01*
X129925830Y-80278132D01*
X129936866Y-80259719D01*
X129949654Y-80242476D01*
X129964070Y-80226570D01*
X129979976Y-80212154D01*
X129997219Y-80199366D01*
X130015632Y-80188330D01*
X130035038Y-80179151D01*
X130055250Y-80171919D01*
X130076074Y-80166703D01*
X130097309Y-80163553D01*
X130118750Y-80162500D01*
X130631250Y-80162500D01*
X130652691Y-80163553D01*
G37*
G36*
X127290191Y-87876053D02*
G01*
X127311426Y-87879203D01*
X127332250Y-87884419D01*
X127352462Y-87891651D01*
X127371868Y-87900830D01*
X127390281Y-87911866D01*
X127407524Y-87924654D01*
X127423430Y-87939070D01*
X127437846Y-87954976D01*
X127450634Y-87972219D01*
X127461670Y-87990632D01*
X127470849Y-88010038D01*
X127478081Y-88030250D01*
X127483297Y-88051074D01*
X127486447Y-88072309D01*
X127487500Y-88093750D01*
X127487500Y-88606250D01*
X127486447Y-88627691D01*
X127483297Y-88648926D01*
X127478081Y-88669750D01*
X127470849Y-88689962D01*
X127461670Y-88709368D01*
X127450634Y-88727781D01*
X127437846Y-88745024D01*
X127423430Y-88760930D01*
X127407524Y-88775346D01*
X127390281Y-88788134D01*
X127371868Y-88799170D01*
X127352462Y-88808349D01*
X127332250Y-88815581D01*
X127311426Y-88820797D01*
X127290191Y-88823947D01*
X127268750Y-88825000D01*
X126831250Y-88825000D01*
X126809809Y-88823947D01*
X126788574Y-88820797D01*
X126767750Y-88815581D01*
X126747538Y-88808349D01*
X126728132Y-88799170D01*
X126709719Y-88788134D01*
X126692476Y-88775346D01*
X126676570Y-88760930D01*
X126662154Y-88745024D01*
X126649366Y-88727781D01*
X126638330Y-88709368D01*
X126629151Y-88689962D01*
X126621919Y-88669750D01*
X126616703Y-88648926D01*
X126613553Y-88627691D01*
X126612500Y-88606250D01*
X126612500Y-88093750D01*
X126613553Y-88072309D01*
X126616703Y-88051074D01*
X126621919Y-88030250D01*
X126629151Y-88010038D01*
X126638330Y-87990632D01*
X126649366Y-87972219D01*
X126662154Y-87954976D01*
X126676570Y-87939070D01*
X126692476Y-87924654D01*
X126709719Y-87911866D01*
X126728132Y-87900830D01*
X126747538Y-87891651D01*
X126767750Y-87884419D01*
X126788574Y-87879203D01*
X126809809Y-87876053D01*
X126831250Y-87875000D01*
X127268750Y-87875000D01*
X127290191Y-87876053D01*
G37*
G36*
X128865191Y-87876053D02*
G01*
X128886426Y-87879203D01*
X128907250Y-87884419D01*
X128927462Y-87891651D01*
X128946868Y-87900830D01*
X128965281Y-87911866D01*
X128982524Y-87924654D01*
X128998430Y-87939070D01*
X129012846Y-87954976D01*
X129025634Y-87972219D01*
X129036670Y-87990632D01*
X129045849Y-88010038D01*
X129053081Y-88030250D01*
X129058297Y-88051074D01*
X129061447Y-88072309D01*
X129062500Y-88093750D01*
X129062500Y-88606250D01*
X129061447Y-88627691D01*
X129058297Y-88648926D01*
X129053081Y-88669750D01*
X129045849Y-88689962D01*
X129036670Y-88709368D01*
X129025634Y-88727781D01*
X129012846Y-88745024D01*
X128998430Y-88760930D01*
X128982524Y-88775346D01*
X128965281Y-88788134D01*
X128946868Y-88799170D01*
X128927462Y-88808349D01*
X128907250Y-88815581D01*
X128886426Y-88820797D01*
X128865191Y-88823947D01*
X128843750Y-88825000D01*
X128406250Y-88825000D01*
X128384809Y-88823947D01*
X128363574Y-88820797D01*
X128342750Y-88815581D01*
X128322538Y-88808349D01*
X128303132Y-88799170D01*
X128284719Y-88788134D01*
X128267476Y-88775346D01*
X128251570Y-88760930D01*
X128237154Y-88745024D01*
X128224366Y-88727781D01*
X128213330Y-88709368D01*
X128204151Y-88689962D01*
X128196919Y-88669750D01*
X128191703Y-88648926D01*
X128188553Y-88627691D01*
X128187500Y-88606250D01*
X128187500Y-88093750D01*
X128188553Y-88072309D01*
X128191703Y-88051074D01*
X128196919Y-88030250D01*
X128204151Y-88010038D01*
X128213330Y-87990632D01*
X128224366Y-87972219D01*
X128237154Y-87954976D01*
X128251570Y-87939070D01*
X128267476Y-87924654D01*
X128284719Y-87911866D01*
X128303132Y-87900830D01*
X128322538Y-87891651D01*
X128342750Y-87884419D01*
X128363574Y-87879203D01*
X128384809Y-87876053D01*
X128406250Y-87875000D01*
X128843750Y-87875000D01*
X128865191Y-87876053D01*
G37*
G36*
X113377691Y-87926053D02*
G01*
X113398926Y-87929203D01*
X113419750Y-87934419D01*
X113439962Y-87941651D01*
X113459368Y-87950830D01*
X113477781Y-87961866D01*
X113495024Y-87974654D01*
X113510930Y-87989070D01*
X113525346Y-88004976D01*
X113538134Y-88022219D01*
X113549170Y-88040632D01*
X113558349Y-88060038D01*
X113565581Y-88080250D01*
X113570797Y-88101074D01*
X113573947Y-88122309D01*
X113575000Y-88143750D01*
X113575000Y-88656250D01*
X113573947Y-88677691D01*
X113570797Y-88698926D01*
X113565581Y-88719750D01*
X113558349Y-88739962D01*
X113549170Y-88759368D01*
X113538134Y-88777781D01*
X113525346Y-88795024D01*
X113510930Y-88810930D01*
X113495024Y-88825346D01*
X113477781Y-88838134D01*
X113459368Y-88849170D01*
X113439962Y-88858349D01*
X113419750Y-88865581D01*
X113398926Y-88870797D01*
X113377691Y-88873947D01*
X113356250Y-88875000D01*
X112918750Y-88875000D01*
X112897309Y-88873947D01*
X112876074Y-88870797D01*
X112855250Y-88865581D01*
X112835038Y-88858349D01*
X112815632Y-88849170D01*
X112797219Y-88838134D01*
X112779976Y-88825346D01*
X112764070Y-88810930D01*
X112749654Y-88795024D01*
X112736866Y-88777781D01*
X112725830Y-88759368D01*
X112716651Y-88739962D01*
X112709419Y-88719750D01*
X112704203Y-88698926D01*
X112701053Y-88677691D01*
X112700000Y-88656250D01*
X112700000Y-88143750D01*
X112701053Y-88122309D01*
X112704203Y-88101074D01*
X112709419Y-88080250D01*
X112716651Y-88060038D01*
X112725830Y-88040632D01*
X112736866Y-88022219D01*
X112749654Y-88004976D01*
X112764070Y-87989070D01*
X112779976Y-87974654D01*
X112797219Y-87961866D01*
X112815632Y-87950830D01*
X112835038Y-87941651D01*
X112855250Y-87934419D01*
X112876074Y-87929203D01*
X112897309Y-87926053D01*
X112918750Y-87925000D01*
X113356250Y-87925000D01*
X113377691Y-87926053D01*
G37*
G36*
X114952691Y-87926053D02*
G01*
X114973926Y-87929203D01*
X114994750Y-87934419D01*
X115014962Y-87941651D01*
X115034368Y-87950830D01*
X115052781Y-87961866D01*
X115070024Y-87974654D01*
X115085930Y-87989070D01*
X115100346Y-88004976D01*
X115113134Y-88022219D01*
X115124170Y-88040632D01*
X115133349Y-88060038D01*
X115140581Y-88080250D01*
X115145797Y-88101074D01*
X115148947Y-88122309D01*
X115150000Y-88143750D01*
X115150000Y-88656250D01*
X115148947Y-88677691D01*
X115145797Y-88698926D01*
X115140581Y-88719750D01*
X115133349Y-88739962D01*
X115124170Y-88759368D01*
X115113134Y-88777781D01*
X115100346Y-88795024D01*
X115085930Y-88810930D01*
X115070024Y-88825346D01*
X115052781Y-88838134D01*
X115034368Y-88849170D01*
X115014962Y-88858349D01*
X114994750Y-88865581D01*
X114973926Y-88870797D01*
X114952691Y-88873947D01*
X114931250Y-88875000D01*
X114493750Y-88875000D01*
X114472309Y-88873947D01*
X114451074Y-88870797D01*
X114430250Y-88865581D01*
X114410038Y-88858349D01*
X114390632Y-88849170D01*
X114372219Y-88838134D01*
X114354976Y-88825346D01*
X114339070Y-88810930D01*
X114324654Y-88795024D01*
X114311866Y-88777781D01*
X114300830Y-88759368D01*
X114291651Y-88739962D01*
X114284419Y-88719750D01*
X114279203Y-88698926D01*
X114276053Y-88677691D01*
X114275000Y-88656250D01*
X114275000Y-88143750D01*
X114276053Y-88122309D01*
X114279203Y-88101074D01*
X114284419Y-88080250D01*
X114291651Y-88060038D01*
X114300830Y-88040632D01*
X114311866Y-88022219D01*
X114324654Y-88004976D01*
X114339070Y-87989070D01*
X114354976Y-87974654D01*
X114372219Y-87961866D01*
X114390632Y-87950830D01*
X114410038Y-87941651D01*
X114430250Y-87934419D01*
X114451074Y-87929203D01*
X114472309Y-87926053D01*
X114493750Y-87925000D01*
X114931250Y-87925000D01*
X114952691Y-87926053D01*
G37*
G36*
X130627691Y-85363553D02*
G01*
X130648926Y-85366703D01*
X130669750Y-85371919D01*
X130689962Y-85379151D01*
X130709368Y-85388330D01*
X130727781Y-85399366D01*
X130745024Y-85412154D01*
X130760930Y-85426570D01*
X130775346Y-85442476D01*
X130788134Y-85459719D01*
X130799170Y-85478132D01*
X130808349Y-85497538D01*
X130815581Y-85517750D01*
X130820797Y-85538574D01*
X130823947Y-85559809D01*
X130825000Y-85581250D01*
X130825000Y-86018750D01*
X130823947Y-86040191D01*
X130820797Y-86061426D01*
X130815581Y-86082250D01*
X130808349Y-86102462D01*
X130799170Y-86121868D01*
X130788134Y-86140281D01*
X130775346Y-86157524D01*
X130760930Y-86173430D01*
X130745024Y-86187846D01*
X130727781Y-86200634D01*
X130709368Y-86211670D01*
X130689962Y-86220849D01*
X130669750Y-86228081D01*
X130648926Y-86233297D01*
X130627691Y-86236447D01*
X130606250Y-86237500D01*
X130093750Y-86237500D01*
X130072309Y-86236447D01*
X130051074Y-86233297D01*
X130030250Y-86228081D01*
X130010038Y-86220849D01*
X129990632Y-86211670D01*
X129972219Y-86200634D01*
X129954976Y-86187846D01*
X129939070Y-86173430D01*
X129924654Y-86157524D01*
X129911866Y-86140281D01*
X129900830Y-86121868D01*
X129891651Y-86102462D01*
X129884419Y-86082250D01*
X129879203Y-86061426D01*
X129876053Y-86040191D01*
X129875000Y-86018750D01*
X129875000Y-85581250D01*
X129876053Y-85559809D01*
X129879203Y-85538574D01*
X129884419Y-85517750D01*
X129891651Y-85497538D01*
X129900830Y-85478132D01*
X129911866Y-85459719D01*
X129924654Y-85442476D01*
X129939070Y-85426570D01*
X129954976Y-85412154D01*
X129972219Y-85399366D01*
X129990632Y-85388330D01*
X130010038Y-85379151D01*
X130030250Y-85371919D01*
X130051074Y-85366703D01*
X130072309Y-85363553D01*
X130093750Y-85362500D01*
X130606250Y-85362500D01*
X130627691Y-85363553D01*
G37*
G36*
X130627691Y-83788553D02*
G01*
X130648926Y-83791703D01*
X130669750Y-83796919D01*
X130689962Y-83804151D01*
X130709368Y-83813330D01*
X130727781Y-83824366D01*
X130745024Y-83837154D01*
X130760930Y-83851570D01*
X130775346Y-83867476D01*
X130788134Y-83884719D01*
X130799170Y-83903132D01*
X130808349Y-83922538D01*
X130815581Y-83942750D01*
X130820797Y-83963574D01*
X130823947Y-83984809D01*
X130825000Y-84006250D01*
X130825000Y-84443750D01*
X130823947Y-84465191D01*
X130820797Y-84486426D01*
X130815581Y-84507250D01*
X130808349Y-84527462D01*
X130799170Y-84546868D01*
X130788134Y-84565281D01*
X130775346Y-84582524D01*
X130760930Y-84598430D01*
X130745024Y-84612846D01*
X130727781Y-84625634D01*
X130709368Y-84636670D01*
X130689962Y-84645849D01*
X130669750Y-84653081D01*
X130648926Y-84658297D01*
X130627691Y-84661447D01*
X130606250Y-84662500D01*
X130093750Y-84662500D01*
X130072309Y-84661447D01*
X130051074Y-84658297D01*
X130030250Y-84653081D01*
X130010038Y-84645849D01*
X129990632Y-84636670D01*
X129972219Y-84625634D01*
X129954976Y-84612846D01*
X129939070Y-84598430D01*
X129924654Y-84582524D01*
X129911866Y-84565281D01*
X129900830Y-84546868D01*
X129891651Y-84527462D01*
X129884419Y-84507250D01*
X129879203Y-84486426D01*
X129876053Y-84465191D01*
X129875000Y-84443750D01*
X129875000Y-84006250D01*
X129876053Y-83984809D01*
X129879203Y-83963574D01*
X129884419Y-83942750D01*
X129891651Y-83922538D01*
X129900830Y-83903132D01*
X129911866Y-83884719D01*
X129924654Y-83867476D01*
X129939070Y-83851570D01*
X129954976Y-83837154D01*
X129972219Y-83824366D01*
X129990632Y-83813330D01*
X130010038Y-83804151D01*
X130030250Y-83796919D01*
X130051074Y-83791703D01*
X130072309Y-83788553D01*
X130093750Y-83787500D01*
X130606250Y-83787500D01*
X130627691Y-83788553D01*
G37*
G36*
X109140191Y-71376053D02*
G01*
X109161426Y-71379203D01*
X109182250Y-71384419D01*
X109202462Y-71391651D01*
X109221868Y-71400830D01*
X109240281Y-71411866D01*
X109257524Y-71424654D01*
X109273430Y-71439070D01*
X109287846Y-71454976D01*
X109300634Y-71472219D01*
X109311670Y-71490632D01*
X109320849Y-71510038D01*
X109328081Y-71530250D01*
X109333297Y-71551074D01*
X109336447Y-71572309D01*
X109337500Y-71593750D01*
X109337500Y-72106250D01*
X109336447Y-72127691D01*
X109333297Y-72148926D01*
X109328081Y-72169750D01*
X109320849Y-72189962D01*
X109311670Y-72209368D01*
X109300634Y-72227781D01*
X109287846Y-72245024D01*
X109273430Y-72260930D01*
X109257524Y-72275346D01*
X109240281Y-72288134D01*
X109221868Y-72299170D01*
X109202462Y-72308349D01*
X109182250Y-72315581D01*
X109161426Y-72320797D01*
X109140191Y-72323947D01*
X109118750Y-72325000D01*
X108681250Y-72325000D01*
X108659809Y-72323947D01*
X108638574Y-72320797D01*
X108617750Y-72315581D01*
X108597538Y-72308349D01*
X108578132Y-72299170D01*
X108559719Y-72288134D01*
X108542476Y-72275346D01*
X108526570Y-72260930D01*
X108512154Y-72245024D01*
X108499366Y-72227781D01*
X108488330Y-72209368D01*
X108479151Y-72189962D01*
X108471919Y-72169750D01*
X108466703Y-72148926D01*
X108463553Y-72127691D01*
X108462500Y-72106250D01*
X108462500Y-71593750D01*
X108463553Y-71572309D01*
X108466703Y-71551074D01*
X108471919Y-71530250D01*
X108479151Y-71510038D01*
X108488330Y-71490632D01*
X108499366Y-71472219D01*
X108512154Y-71454976D01*
X108526570Y-71439070D01*
X108542476Y-71424654D01*
X108559719Y-71411866D01*
X108578132Y-71400830D01*
X108597538Y-71391651D01*
X108617750Y-71384419D01*
X108638574Y-71379203D01*
X108659809Y-71376053D01*
X108681250Y-71375000D01*
X109118750Y-71375000D01*
X109140191Y-71376053D01*
G37*
G36*
X107565191Y-71376053D02*
G01*
X107586426Y-71379203D01*
X107607250Y-71384419D01*
X107627462Y-71391651D01*
X107646868Y-71400830D01*
X107665281Y-71411866D01*
X107682524Y-71424654D01*
X107698430Y-71439070D01*
X107712846Y-71454976D01*
X107725634Y-71472219D01*
X107736670Y-71490632D01*
X107745849Y-71510038D01*
X107753081Y-71530250D01*
X107758297Y-71551074D01*
X107761447Y-71572309D01*
X107762500Y-71593750D01*
X107762500Y-72106250D01*
X107761447Y-72127691D01*
X107758297Y-72148926D01*
X107753081Y-72169750D01*
X107745849Y-72189962D01*
X107736670Y-72209368D01*
X107725634Y-72227781D01*
X107712846Y-72245024D01*
X107698430Y-72260930D01*
X107682524Y-72275346D01*
X107665281Y-72288134D01*
X107646868Y-72299170D01*
X107627462Y-72308349D01*
X107607250Y-72315581D01*
X107586426Y-72320797D01*
X107565191Y-72323947D01*
X107543750Y-72325000D01*
X107106250Y-72325000D01*
X107084809Y-72323947D01*
X107063574Y-72320797D01*
X107042750Y-72315581D01*
X107022538Y-72308349D01*
X107003132Y-72299170D01*
X106984719Y-72288134D01*
X106967476Y-72275346D01*
X106951570Y-72260930D01*
X106937154Y-72245024D01*
X106924366Y-72227781D01*
X106913330Y-72209368D01*
X106904151Y-72189962D01*
X106896919Y-72169750D01*
X106891703Y-72148926D01*
X106888553Y-72127691D01*
X106887500Y-72106250D01*
X106887500Y-71593750D01*
X106888553Y-71572309D01*
X106891703Y-71551074D01*
X106896919Y-71530250D01*
X106904151Y-71510038D01*
X106913330Y-71490632D01*
X106924366Y-71472219D01*
X106937154Y-71454976D01*
X106951570Y-71439070D01*
X106967476Y-71424654D01*
X106984719Y-71411866D01*
X107003132Y-71400830D01*
X107022538Y-71391651D01*
X107042750Y-71384419D01*
X107063574Y-71379203D01*
X107084809Y-71376053D01*
X107106250Y-71375000D01*
X107543750Y-71375000D01*
X107565191Y-71376053D01*
G37*
G36*
X92440191Y-57801053D02*
G01*
X92461426Y-57804203D01*
X92482250Y-57809419D01*
X92502462Y-57816651D01*
X92521868Y-57825830D01*
X92540281Y-57836866D01*
X92557524Y-57849654D01*
X92573430Y-57864070D01*
X92587846Y-57879976D01*
X92600634Y-57897219D01*
X92611670Y-57915632D01*
X92620849Y-57935038D01*
X92628081Y-57955250D01*
X92633297Y-57976074D01*
X92636447Y-57997309D01*
X92637500Y-58018750D01*
X92637500Y-58531250D01*
X92636447Y-58552691D01*
X92633297Y-58573926D01*
X92628081Y-58594750D01*
X92620849Y-58614962D01*
X92611670Y-58634368D01*
X92600634Y-58652781D01*
X92587846Y-58670024D01*
X92573430Y-58685930D01*
X92557524Y-58700346D01*
X92540281Y-58713134D01*
X92521868Y-58724170D01*
X92502462Y-58733349D01*
X92482250Y-58740581D01*
X92461426Y-58745797D01*
X92440191Y-58748947D01*
X92418750Y-58750000D01*
X91981250Y-58750000D01*
X91959809Y-58748947D01*
X91938574Y-58745797D01*
X91917750Y-58740581D01*
X91897538Y-58733349D01*
X91878132Y-58724170D01*
X91859719Y-58713134D01*
X91842476Y-58700346D01*
X91826570Y-58685930D01*
X91812154Y-58670024D01*
X91799366Y-58652781D01*
X91788330Y-58634368D01*
X91779151Y-58614962D01*
X91771919Y-58594750D01*
X91766703Y-58573926D01*
X91763553Y-58552691D01*
X91762500Y-58531250D01*
X91762500Y-58018750D01*
X91763553Y-57997309D01*
X91766703Y-57976074D01*
X91771919Y-57955250D01*
X91779151Y-57935038D01*
X91788330Y-57915632D01*
X91799366Y-57897219D01*
X91812154Y-57879976D01*
X91826570Y-57864070D01*
X91842476Y-57849654D01*
X91859719Y-57836866D01*
X91878132Y-57825830D01*
X91897538Y-57816651D01*
X91917750Y-57809419D01*
X91938574Y-57804203D01*
X91959809Y-57801053D01*
X91981250Y-57800000D01*
X92418750Y-57800000D01*
X92440191Y-57801053D01*
G37*
G36*
X90865191Y-57801053D02*
G01*
X90886426Y-57804203D01*
X90907250Y-57809419D01*
X90927462Y-57816651D01*
X90946868Y-57825830D01*
X90965281Y-57836866D01*
X90982524Y-57849654D01*
X90998430Y-57864070D01*
X91012846Y-57879976D01*
X91025634Y-57897219D01*
X91036670Y-57915632D01*
X91045849Y-57935038D01*
X91053081Y-57955250D01*
X91058297Y-57976074D01*
X91061447Y-57997309D01*
X91062500Y-58018750D01*
X91062500Y-58531250D01*
X91061447Y-58552691D01*
X91058297Y-58573926D01*
X91053081Y-58594750D01*
X91045849Y-58614962D01*
X91036670Y-58634368D01*
X91025634Y-58652781D01*
X91012846Y-58670024D01*
X90998430Y-58685930D01*
X90982524Y-58700346D01*
X90965281Y-58713134D01*
X90946868Y-58724170D01*
X90927462Y-58733349D01*
X90907250Y-58740581D01*
X90886426Y-58745797D01*
X90865191Y-58748947D01*
X90843750Y-58750000D01*
X90406250Y-58750000D01*
X90384809Y-58748947D01*
X90363574Y-58745797D01*
X90342750Y-58740581D01*
X90322538Y-58733349D01*
X90303132Y-58724170D01*
X90284719Y-58713134D01*
X90267476Y-58700346D01*
X90251570Y-58685930D01*
X90237154Y-58670024D01*
X90224366Y-58652781D01*
X90213330Y-58634368D01*
X90204151Y-58614962D01*
X90196919Y-58594750D01*
X90191703Y-58573926D01*
X90188553Y-58552691D01*
X90187500Y-58531250D01*
X90187500Y-58018750D01*
X90188553Y-57997309D01*
X90191703Y-57976074D01*
X90196919Y-57955250D01*
X90204151Y-57935038D01*
X90213330Y-57915632D01*
X90224366Y-57897219D01*
X90237154Y-57879976D01*
X90251570Y-57864070D01*
X90267476Y-57849654D01*
X90284719Y-57836866D01*
X90303132Y-57825830D01*
X90322538Y-57816651D01*
X90342750Y-57809419D01*
X90363574Y-57804203D01*
X90384809Y-57801053D01*
X90406250Y-57800000D01*
X90843750Y-57800000D01*
X90865191Y-57801053D01*
G37*
G36*
X92440191Y-54726053D02*
G01*
X92461426Y-54729203D01*
X92482250Y-54734419D01*
X92502462Y-54741651D01*
X92521868Y-54750830D01*
X92540281Y-54761866D01*
X92557524Y-54774654D01*
X92573430Y-54789070D01*
X92587846Y-54804976D01*
X92600634Y-54822219D01*
X92611670Y-54840632D01*
X92620849Y-54860038D01*
X92628081Y-54880250D01*
X92633297Y-54901074D01*
X92636447Y-54922309D01*
X92637500Y-54943750D01*
X92637500Y-55456250D01*
X92636447Y-55477691D01*
X92633297Y-55498926D01*
X92628081Y-55519750D01*
X92620849Y-55539962D01*
X92611670Y-55559368D01*
X92600634Y-55577781D01*
X92587846Y-55595024D01*
X92573430Y-55610930D01*
X92557524Y-55625346D01*
X92540281Y-55638134D01*
X92521868Y-55649170D01*
X92502462Y-55658349D01*
X92482250Y-55665581D01*
X92461426Y-55670797D01*
X92440191Y-55673947D01*
X92418750Y-55675000D01*
X91981250Y-55675000D01*
X91959809Y-55673947D01*
X91938574Y-55670797D01*
X91917750Y-55665581D01*
X91897538Y-55658349D01*
X91878132Y-55649170D01*
X91859719Y-55638134D01*
X91842476Y-55625346D01*
X91826570Y-55610930D01*
X91812154Y-55595024D01*
X91799366Y-55577781D01*
X91788330Y-55559368D01*
X91779151Y-55539962D01*
X91771919Y-55519750D01*
X91766703Y-55498926D01*
X91763553Y-55477691D01*
X91762500Y-55456250D01*
X91762500Y-54943750D01*
X91763553Y-54922309D01*
X91766703Y-54901074D01*
X91771919Y-54880250D01*
X91779151Y-54860038D01*
X91788330Y-54840632D01*
X91799366Y-54822219D01*
X91812154Y-54804976D01*
X91826570Y-54789070D01*
X91842476Y-54774654D01*
X91859719Y-54761866D01*
X91878132Y-54750830D01*
X91897538Y-54741651D01*
X91917750Y-54734419D01*
X91938574Y-54729203D01*
X91959809Y-54726053D01*
X91981250Y-54725000D01*
X92418750Y-54725000D01*
X92440191Y-54726053D01*
G37*
G36*
X90865191Y-54726053D02*
G01*
X90886426Y-54729203D01*
X90907250Y-54734419D01*
X90927462Y-54741651D01*
X90946868Y-54750830D01*
X90965281Y-54761866D01*
X90982524Y-54774654D01*
X90998430Y-54789070D01*
X91012846Y-54804976D01*
X91025634Y-54822219D01*
X91036670Y-54840632D01*
X91045849Y-54860038D01*
X91053081Y-54880250D01*
X91058297Y-54901074D01*
X91061447Y-54922309D01*
X91062500Y-54943750D01*
X91062500Y-55456250D01*
X91061447Y-55477691D01*
X91058297Y-55498926D01*
X91053081Y-55519750D01*
X91045849Y-55539962D01*
X91036670Y-55559368D01*
X91025634Y-55577781D01*
X91012846Y-55595024D01*
X90998430Y-55610930D01*
X90982524Y-55625346D01*
X90965281Y-55638134D01*
X90946868Y-55649170D01*
X90927462Y-55658349D01*
X90907250Y-55665581D01*
X90886426Y-55670797D01*
X90865191Y-55673947D01*
X90843750Y-55675000D01*
X90406250Y-55675000D01*
X90384809Y-55673947D01*
X90363574Y-55670797D01*
X90342750Y-55665581D01*
X90322538Y-55658349D01*
X90303132Y-55649170D01*
X90284719Y-55638134D01*
X90267476Y-55625346D01*
X90251570Y-55610930D01*
X90237154Y-55595024D01*
X90224366Y-55577781D01*
X90213330Y-55559368D01*
X90204151Y-55539962D01*
X90196919Y-55519750D01*
X90191703Y-55498926D01*
X90188553Y-55477691D01*
X90187500Y-55456250D01*
X90187500Y-54943750D01*
X90188553Y-54922309D01*
X90191703Y-54901074D01*
X90196919Y-54880250D01*
X90204151Y-54860038D01*
X90213330Y-54840632D01*
X90224366Y-54822219D01*
X90237154Y-54804976D01*
X90251570Y-54789070D01*
X90267476Y-54774654D01*
X90284719Y-54761866D01*
X90303132Y-54750830D01*
X90322538Y-54741651D01*
X90342750Y-54734419D01*
X90363574Y-54729203D01*
X90384809Y-54726053D01*
X90406250Y-54725000D01*
X90843750Y-54725000D01*
X90865191Y-54726053D01*
G37*
D22*
X139518000Y-76755000D03*
X133318000Y-80455000D03*
X139518000Y-80455000D03*
X133318000Y-76755000D03*
X133318000Y-89750000D03*
X139518000Y-86050000D03*
X133318000Y-86050000D03*
X139518000Y-89750000D03*
D16*
G36*
X116950326Y-79103744D02*
G01*
X116957607Y-79104824D01*
X116964746Y-79106612D01*
X116971676Y-79109092D01*
X116978330Y-79112239D01*
X116984643Y-79116023D01*
X116990554Y-79120407D01*
X116996008Y-79125350D01*
X117102074Y-79231416D01*
X117107017Y-79236870D01*
X117111401Y-79242781D01*
X117115185Y-79249094D01*
X117118332Y-79255748D01*
X117120812Y-79262678D01*
X117122600Y-79269817D01*
X117123680Y-79277098D01*
X117124041Y-79284449D01*
X117123680Y-79291800D01*
X117122600Y-79299081D01*
X117120812Y-79306220D01*
X117118332Y-79313150D01*
X117115185Y-79319804D01*
X117111401Y-79326117D01*
X117107017Y-79332028D01*
X117102074Y-79337482D01*
X116165158Y-80274398D01*
X116159704Y-80279341D01*
X116153793Y-80283725D01*
X116147480Y-80287509D01*
X116140826Y-80290656D01*
X116133896Y-80293136D01*
X116126757Y-80294924D01*
X116119476Y-80296004D01*
X116112125Y-80296365D01*
X116104774Y-80296004D01*
X116097493Y-80294924D01*
X116090354Y-80293136D01*
X116083424Y-80290656D01*
X116076770Y-80287509D01*
X116070457Y-80283725D01*
X116064546Y-80279341D01*
X116059092Y-80274398D01*
X115953026Y-80168332D01*
X115948083Y-80162878D01*
X115943699Y-80156967D01*
X115939915Y-80150654D01*
X115936768Y-80144000D01*
X115934288Y-80137070D01*
X115932500Y-80129931D01*
X115931420Y-80122650D01*
X115931059Y-80115299D01*
X115931420Y-80107948D01*
X115932500Y-80100667D01*
X115934288Y-80093528D01*
X115936768Y-80086598D01*
X115939915Y-80079944D01*
X115943699Y-80073631D01*
X115948083Y-80067720D01*
X115953026Y-80062266D01*
X116889942Y-79125350D01*
X116895396Y-79120407D01*
X116901307Y-79116023D01*
X116907620Y-79112239D01*
X116914274Y-79109092D01*
X116921204Y-79106612D01*
X116928343Y-79104824D01*
X116935624Y-79103744D01*
X116942975Y-79103383D01*
X116950326Y-79103744D01*
G37*
G36*
X116596772Y-78750190D02*
G01*
X116604053Y-78751270D01*
X116611192Y-78753058D01*
X116618122Y-78755538D01*
X116624776Y-78758685D01*
X116631089Y-78762469D01*
X116637000Y-78766853D01*
X116642454Y-78771796D01*
X116748520Y-78877862D01*
X116753463Y-78883316D01*
X116757847Y-78889227D01*
X116761631Y-78895540D01*
X116764778Y-78902194D01*
X116767258Y-78909124D01*
X116769046Y-78916263D01*
X116770126Y-78923544D01*
X116770487Y-78930895D01*
X116770126Y-78938246D01*
X116769046Y-78945527D01*
X116767258Y-78952666D01*
X116764778Y-78959596D01*
X116761631Y-78966250D01*
X116757847Y-78972563D01*
X116753463Y-78978474D01*
X116748520Y-78983928D01*
X115811604Y-79920844D01*
X115806150Y-79925787D01*
X115800239Y-79930171D01*
X115793926Y-79933955D01*
X115787272Y-79937102D01*
X115780342Y-79939582D01*
X115773203Y-79941370D01*
X115765922Y-79942450D01*
X115758571Y-79942811D01*
X115751220Y-79942450D01*
X115743939Y-79941370D01*
X115736800Y-79939582D01*
X115729870Y-79937102D01*
X115723216Y-79933955D01*
X115716903Y-79930171D01*
X115710992Y-79925787D01*
X115705538Y-79920844D01*
X115599472Y-79814778D01*
X115594529Y-79809324D01*
X115590145Y-79803413D01*
X115586361Y-79797100D01*
X115583214Y-79790446D01*
X115580734Y-79783516D01*
X115578946Y-79776377D01*
X115577866Y-79769096D01*
X115577505Y-79761745D01*
X115577866Y-79754394D01*
X115578946Y-79747113D01*
X115580734Y-79739974D01*
X115583214Y-79733044D01*
X115586361Y-79726390D01*
X115590145Y-79720077D01*
X115594529Y-79714166D01*
X115599472Y-79708712D01*
X116536388Y-78771796D01*
X116541842Y-78766853D01*
X116547753Y-78762469D01*
X116554066Y-78758685D01*
X116560720Y-78755538D01*
X116567650Y-78753058D01*
X116574789Y-78751270D01*
X116582070Y-78750190D01*
X116589421Y-78749829D01*
X116596772Y-78750190D01*
G37*
G36*
X116243219Y-78396637D02*
G01*
X116250500Y-78397717D01*
X116257639Y-78399505D01*
X116264569Y-78401985D01*
X116271223Y-78405132D01*
X116277536Y-78408916D01*
X116283447Y-78413300D01*
X116288901Y-78418243D01*
X116394967Y-78524309D01*
X116399910Y-78529763D01*
X116404294Y-78535674D01*
X116408078Y-78541987D01*
X116411225Y-78548641D01*
X116413705Y-78555571D01*
X116415493Y-78562710D01*
X116416573Y-78569991D01*
X116416934Y-78577342D01*
X116416573Y-78584693D01*
X116415493Y-78591974D01*
X116413705Y-78599113D01*
X116411225Y-78606043D01*
X116408078Y-78612697D01*
X116404294Y-78619010D01*
X116399910Y-78624921D01*
X116394967Y-78630375D01*
X115458051Y-79567291D01*
X115452597Y-79572234D01*
X115446686Y-79576618D01*
X115440373Y-79580402D01*
X115433719Y-79583549D01*
X115426789Y-79586029D01*
X115419650Y-79587817D01*
X115412369Y-79588897D01*
X115405018Y-79589258D01*
X115397667Y-79588897D01*
X115390386Y-79587817D01*
X115383247Y-79586029D01*
X115376317Y-79583549D01*
X115369663Y-79580402D01*
X115363350Y-79576618D01*
X115357439Y-79572234D01*
X115351985Y-79567291D01*
X115245919Y-79461225D01*
X115240976Y-79455771D01*
X115236592Y-79449860D01*
X115232808Y-79443547D01*
X115229661Y-79436893D01*
X115227181Y-79429963D01*
X115225393Y-79422824D01*
X115224313Y-79415543D01*
X115223952Y-79408192D01*
X115224313Y-79400841D01*
X115225393Y-79393560D01*
X115227181Y-79386421D01*
X115229661Y-79379491D01*
X115232808Y-79372837D01*
X115236592Y-79366524D01*
X115240976Y-79360613D01*
X115245919Y-79355159D01*
X116182835Y-78418243D01*
X116188289Y-78413300D01*
X116194200Y-78408916D01*
X116200513Y-78405132D01*
X116207167Y-78401985D01*
X116214097Y-78399505D01*
X116221236Y-78397717D01*
X116228517Y-78396637D01*
X116235868Y-78396276D01*
X116243219Y-78396637D01*
G37*
G36*
X115889665Y-78043083D02*
G01*
X115896946Y-78044163D01*
X115904085Y-78045951D01*
X115911015Y-78048431D01*
X115917669Y-78051578D01*
X115923982Y-78055362D01*
X115929893Y-78059746D01*
X115935347Y-78064689D01*
X116041413Y-78170755D01*
X116046356Y-78176209D01*
X116050740Y-78182120D01*
X116054524Y-78188433D01*
X116057671Y-78195087D01*
X116060151Y-78202017D01*
X116061939Y-78209156D01*
X116063019Y-78216437D01*
X116063380Y-78223788D01*
X116063019Y-78231139D01*
X116061939Y-78238420D01*
X116060151Y-78245559D01*
X116057671Y-78252489D01*
X116054524Y-78259143D01*
X116050740Y-78265456D01*
X116046356Y-78271367D01*
X116041413Y-78276821D01*
X115104497Y-79213737D01*
X115099043Y-79218680D01*
X115093132Y-79223064D01*
X115086819Y-79226848D01*
X115080165Y-79229995D01*
X115073235Y-79232475D01*
X115066096Y-79234263D01*
X115058815Y-79235343D01*
X115051464Y-79235704D01*
X115044113Y-79235343D01*
X115036832Y-79234263D01*
X115029693Y-79232475D01*
X115022763Y-79229995D01*
X115016109Y-79226848D01*
X115009796Y-79223064D01*
X115003885Y-79218680D01*
X114998431Y-79213737D01*
X114892365Y-79107671D01*
X114887422Y-79102217D01*
X114883038Y-79096306D01*
X114879254Y-79089993D01*
X114876107Y-79083339D01*
X114873627Y-79076409D01*
X114871839Y-79069270D01*
X114870759Y-79061989D01*
X114870398Y-79054638D01*
X114870759Y-79047287D01*
X114871839Y-79040006D01*
X114873627Y-79032867D01*
X114876107Y-79025937D01*
X114879254Y-79019283D01*
X114883038Y-79012970D01*
X114887422Y-79007059D01*
X114892365Y-79001605D01*
X115829281Y-78064689D01*
X115834735Y-78059746D01*
X115840646Y-78055362D01*
X115846959Y-78051578D01*
X115853613Y-78048431D01*
X115860543Y-78045951D01*
X115867682Y-78044163D01*
X115874963Y-78043083D01*
X115882314Y-78042722D01*
X115889665Y-78043083D01*
G37*
G36*
X115536112Y-77689530D02*
G01*
X115543393Y-77690610D01*
X115550532Y-77692398D01*
X115557462Y-77694878D01*
X115564116Y-77698025D01*
X115570429Y-77701809D01*
X115576340Y-77706193D01*
X115581794Y-77711136D01*
X115687860Y-77817202D01*
X115692803Y-77822656D01*
X115697187Y-77828567D01*
X115700971Y-77834880D01*
X115704118Y-77841534D01*
X115706598Y-77848464D01*
X115708386Y-77855603D01*
X115709466Y-77862884D01*
X115709827Y-77870235D01*
X115709466Y-77877586D01*
X115708386Y-77884867D01*
X115706598Y-77892006D01*
X115704118Y-77898936D01*
X115700971Y-77905590D01*
X115697187Y-77911903D01*
X115692803Y-77917814D01*
X115687860Y-77923268D01*
X114750944Y-78860184D01*
X114745490Y-78865127D01*
X114739579Y-78869511D01*
X114733266Y-78873295D01*
X114726612Y-78876442D01*
X114719682Y-78878922D01*
X114712543Y-78880710D01*
X114705262Y-78881790D01*
X114697911Y-78882151D01*
X114690560Y-78881790D01*
X114683279Y-78880710D01*
X114676140Y-78878922D01*
X114669210Y-78876442D01*
X114662556Y-78873295D01*
X114656243Y-78869511D01*
X114650332Y-78865127D01*
X114644878Y-78860184D01*
X114538812Y-78754118D01*
X114533869Y-78748664D01*
X114529485Y-78742753D01*
X114525701Y-78736440D01*
X114522554Y-78729786D01*
X114520074Y-78722856D01*
X114518286Y-78715717D01*
X114517206Y-78708436D01*
X114516845Y-78701085D01*
X114517206Y-78693734D01*
X114518286Y-78686453D01*
X114520074Y-78679314D01*
X114522554Y-78672384D01*
X114525701Y-78665730D01*
X114529485Y-78659417D01*
X114533869Y-78653506D01*
X114538812Y-78648052D01*
X115475728Y-77711136D01*
X115481182Y-77706193D01*
X115487093Y-77701809D01*
X115493406Y-77698025D01*
X115500060Y-77694878D01*
X115506990Y-77692398D01*
X115514129Y-77690610D01*
X115521410Y-77689530D01*
X115528761Y-77689169D01*
X115536112Y-77689530D01*
G37*
G36*
X115182559Y-77335977D02*
G01*
X115189840Y-77337057D01*
X115196979Y-77338845D01*
X115203909Y-77341325D01*
X115210563Y-77344472D01*
X115216876Y-77348256D01*
X115222787Y-77352640D01*
X115228241Y-77357583D01*
X115334307Y-77463649D01*
X115339250Y-77469103D01*
X115343634Y-77475014D01*
X115347418Y-77481327D01*
X115350565Y-77487981D01*
X115353045Y-77494911D01*
X115354833Y-77502050D01*
X115355913Y-77509331D01*
X115356274Y-77516682D01*
X115355913Y-77524033D01*
X115354833Y-77531314D01*
X115353045Y-77538453D01*
X115350565Y-77545383D01*
X115347418Y-77552037D01*
X115343634Y-77558350D01*
X115339250Y-77564261D01*
X115334307Y-77569715D01*
X114397391Y-78506631D01*
X114391937Y-78511574D01*
X114386026Y-78515958D01*
X114379713Y-78519742D01*
X114373059Y-78522889D01*
X114366129Y-78525369D01*
X114358990Y-78527157D01*
X114351709Y-78528237D01*
X114344358Y-78528598D01*
X114337007Y-78528237D01*
X114329726Y-78527157D01*
X114322587Y-78525369D01*
X114315657Y-78522889D01*
X114309003Y-78519742D01*
X114302690Y-78515958D01*
X114296779Y-78511574D01*
X114291325Y-78506631D01*
X114185259Y-78400565D01*
X114180316Y-78395111D01*
X114175932Y-78389200D01*
X114172148Y-78382887D01*
X114169001Y-78376233D01*
X114166521Y-78369303D01*
X114164733Y-78362164D01*
X114163653Y-78354883D01*
X114163292Y-78347532D01*
X114163653Y-78340181D01*
X114164733Y-78332900D01*
X114166521Y-78325761D01*
X114169001Y-78318831D01*
X114172148Y-78312177D01*
X114175932Y-78305864D01*
X114180316Y-78299953D01*
X114185259Y-78294499D01*
X115122175Y-77357583D01*
X115127629Y-77352640D01*
X115133540Y-77348256D01*
X115139853Y-77344472D01*
X115146507Y-77341325D01*
X115153437Y-77338845D01*
X115160576Y-77337057D01*
X115167857Y-77335977D01*
X115175208Y-77335616D01*
X115182559Y-77335977D01*
G37*
G36*
X114829005Y-76982423D02*
G01*
X114836286Y-76983503D01*
X114843425Y-76985291D01*
X114850355Y-76987771D01*
X114857009Y-76990918D01*
X114863322Y-76994702D01*
X114869233Y-76999086D01*
X114874687Y-77004029D01*
X114980753Y-77110095D01*
X114985696Y-77115549D01*
X114990080Y-77121460D01*
X114993864Y-77127773D01*
X114997011Y-77134427D01*
X114999491Y-77141357D01*
X115001279Y-77148496D01*
X115002359Y-77155777D01*
X115002720Y-77163128D01*
X115002359Y-77170479D01*
X115001279Y-77177760D01*
X114999491Y-77184899D01*
X114997011Y-77191829D01*
X114993864Y-77198483D01*
X114990080Y-77204796D01*
X114985696Y-77210707D01*
X114980753Y-77216161D01*
X114043837Y-78153077D01*
X114038383Y-78158020D01*
X114032472Y-78162404D01*
X114026159Y-78166188D01*
X114019505Y-78169335D01*
X114012575Y-78171815D01*
X114005436Y-78173603D01*
X113998155Y-78174683D01*
X113990804Y-78175044D01*
X113983453Y-78174683D01*
X113976172Y-78173603D01*
X113969033Y-78171815D01*
X113962103Y-78169335D01*
X113955449Y-78166188D01*
X113949136Y-78162404D01*
X113943225Y-78158020D01*
X113937771Y-78153077D01*
X113831705Y-78047011D01*
X113826762Y-78041557D01*
X113822378Y-78035646D01*
X113818594Y-78029333D01*
X113815447Y-78022679D01*
X113812967Y-78015749D01*
X113811179Y-78008610D01*
X113810099Y-78001329D01*
X113809738Y-77993978D01*
X113810099Y-77986627D01*
X113811179Y-77979346D01*
X113812967Y-77972207D01*
X113815447Y-77965277D01*
X113818594Y-77958623D01*
X113822378Y-77952310D01*
X113826762Y-77946399D01*
X113831705Y-77940945D01*
X114768621Y-77004029D01*
X114774075Y-76999086D01*
X114779986Y-76994702D01*
X114786299Y-76990918D01*
X114792953Y-76987771D01*
X114799883Y-76985291D01*
X114807022Y-76983503D01*
X114814303Y-76982423D01*
X114821654Y-76982062D01*
X114829005Y-76982423D01*
G37*
G36*
X114475452Y-76628870D02*
G01*
X114482733Y-76629950D01*
X114489872Y-76631738D01*
X114496802Y-76634218D01*
X114503456Y-76637365D01*
X114509769Y-76641149D01*
X114515680Y-76645533D01*
X114521134Y-76650476D01*
X114627200Y-76756542D01*
X114632143Y-76761996D01*
X114636527Y-76767907D01*
X114640311Y-76774220D01*
X114643458Y-76780874D01*
X114645938Y-76787804D01*
X114647726Y-76794943D01*
X114648806Y-76802224D01*
X114649167Y-76809575D01*
X114648806Y-76816926D01*
X114647726Y-76824207D01*
X114645938Y-76831346D01*
X114643458Y-76838276D01*
X114640311Y-76844930D01*
X114636527Y-76851243D01*
X114632143Y-76857154D01*
X114627200Y-76862608D01*
X113690284Y-77799524D01*
X113684830Y-77804467D01*
X113678919Y-77808851D01*
X113672606Y-77812635D01*
X113665952Y-77815782D01*
X113659022Y-77818262D01*
X113651883Y-77820050D01*
X113644602Y-77821130D01*
X113637251Y-77821491D01*
X113629900Y-77821130D01*
X113622619Y-77820050D01*
X113615480Y-77818262D01*
X113608550Y-77815782D01*
X113601896Y-77812635D01*
X113595583Y-77808851D01*
X113589672Y-77804467D01*
X113584218Y-77799524D01*
X113478152Y-77693458D01*
X113473209Y-77688004D01*
X113468825Y-77682093D01*
X113465041Y-77675780D01*
X113461894Y-77669126D01*
X113459414Y-77662196D01*
X113457626Y-77655057D01*
X113456546Y-77647776D01*
X113456185Y-77640425D01*
X113456546Y-77633074D01*
X113457626Y-77625793D01*
X113459414Y-77618654D01*
X113461894Y-77611724D01*
X113465041Y-77605070D01*
X113468825Y-77598757D01*
X113473209Y-77592846D01*
X113478152Y-77587392D01*
X114415068Y-76650476D01*
X114420522Y-76645533D01*
X114426433Y-76641149D01*
X114432746Y-76637365D01*
X114439400Y-76634218D01*
X114446330Y-76631738D01*
X114453469Y-76629950D01*
X114460750Y-76628870D01*
X114468101Y-76628509D01*
X114475452Y-76628870D01*
G37*
G36*
X114121899Y-76275317D02*
G01*
X114129180Y-76276397D01*
X114136319Y-76278185D01*
X114143249Y-76280665D01*
X114149903Y-76283812D01*
X114156216Y-76287596D01*
X114162127Y-76291980D01*
X114167581Y-76296923D01*
X114273647Y-76402989D01*
X114278590Y-76408443D01*
X114282974Y-76414354D01*
X114286758Y-76420667D01*
X114289905Y-76427321D01*
X114292385Y-76434251D01*
X114294173Y-76441390D01*
X114295253Y-76448671D01*
X114295614Y-76456022D01*
X114295253Y-76463373D01*
X114294173Y-76470654D01*
X114292385Y-76477793D01*
X114289905Y-76484723D01*
X114286758Y-76491377D01*
X114282974Y-76497690D01*
X114278590Y-76503601D01*
X114273647Y-76509055D01*
X113336731Y-77445971D01*
X113331277Y-77450914D01*
X113325366Y-77455298D01*
X113319053Y-77459082D01*
X113312399Y-77462229D01*
X113305469Y-77464709D01*
X113298330Y-77466497D01*
X113291049Y-77467577D01*
X113283698Y-77467938D01*
X113276347Y-77467577D01*
X113269066Y-77466497D01*
X113261927Y-77464709D01*
X113254997Y-77462229D01*
X113248343Y-77459082D01*
X113242030Y-77455298D01*
X113236119Y-77450914D01*
X113230665Y-77445971D01*
X113124599Y-77339905D01*
X113119656Y-77334451D01*
X113115272Y-77328540D01*
X113111488Y-77322227D01*
X113108341Y-77315573D01*
X113105861Y-77308643D01*
X113104073Y-77301504D01*
X113102993Y-77294223D01*
X113102632Y-77286872D01*
X113102993Y-77279521D01*
X113104073Y-77272240D01*
X113105861Y-77265101D01*
X113108341Y-77258171D01*
X113111488Y-77251517D01*
X113115272Y-77245204D01*
X113119656Y-77239293D01*
X113124599Y-77233839D01*
X114061515Y-76296923D01*
X114066969Y-76291980D01*
X114072880Y-76287596D01*
X114079193Y-76283812D01*
X114085847Y-76280665D01*
X114092777Y-76278185D01*
X114099916Y-76276397D01*
X114107197Y-76275317D01*
X114114548Y-76274956D01*
X114121899Y-76275317D01*
G37*
G36*
X113768345Y-75921763D02*
G01*
X113775626Y-75922843D01*
X113782765Y-75924631D01*
X113789695Y-75927111D01*
X113796349Y-75930258D01*
X113802662Y-75934042D01*
X113808573Y-75938426D01*
X113814027Y-75943369D01*
X113920093Y-76049435D01*
X113925036Y-76054889D01*
X113929420Y-76060800D01*
X113933204Y-76067113D01*
X113936351Y-76073767D01*
X113938831Y-76080697D01*
X113940619Y-76087836D01*
X113941699Y-76095117D01*
X113942060Y-76102468D01*
X113941699Y-76109819D01*
X113940619Y-76117100D01*
X113938831Y-76124239D01*
X113936351Y-76131169D01*
X113933204Y-76137823D01*
X113929420Y-76144136D01*
X113925036Y-76150047D01*
X113920093Y-76155501D01*
X112983177Y-77092417D01*
X112977723Y-77097360D01*
X112971812Y-77101744D01*
X112965499Y-77105528D01*
X112958845Y-77108675D01*
X112951915Y-77111155D01*
X112944776Y-77112943D01*
X112937495Y-77114023D01*
X112930144Y-77114384D01*
X112922793Y-77114023D01*
X112915512Y-77112943D01*
X112908373Y-77111155D01*
X112901443Y-77108675D01*
X112894789Y-77105528D01*
X112888476Y-77101744D01*
X112882565Y-77097360D01*
X112877111Y-77092417D01*
X112771045Y-76986351D01*
X112766102Y-76980897D01*
X112761718Y-76974986D01*
X112757934Y-76968673D01*
X112754787Y-76962019D01*
X112752307Y-76955089D01*
X112750519Y-76947950D01*
X112749439Y-76940669D01*
X112749078Y-76933318D01*
X112749439Y-76925967D01*
X112750519Y-76918686D01*
X112752307Y-76911547D01*
X112754787Y-76904617D01*
X112757934Y-76897963D01*
X112761718Y-76891650D01*
X112766102Y-76885739D01*
X112771045Y-76880285D01*
X113707961Y-75943369D01*
X113713415Y-75938426D01*
X113719326Y-75934042D01*
X113725639Y-75930258D01*
X113732293Y-75927111D01*
X113739223Y-75924631D01*
X113746362Y-75922843D01*
X113753643Y-75921763D01*
X113760994Y-75921402D01*
X113768345Y-75921763D01*
G37*
G36*
X113414792Y-75568210D02*
G01*
X113422073Y-75569290D01*
X113429212Y-75571078D01*
X113436142Y-75573558D01*
X113442796Y-75576705D01*
X113449109Y-75580489D01*
X113455020Y-75584873D01*
X113460474Y-75589816D01*
X113566540Y-75695882D01*
X113571483Y-75701336D01*
X113575867Y-75707247D01*
X113579651Y-75713560D01*
X113582798Y-75720214D01*
X113585278Y-75727144D01*
X113587066Y-75734283D01*
X113588146Y-75741564D01*
X113588507Y-75748915D01*
X113588146Y-75756266D01*
X113587066Y-75763547D01*
X113585278Y-75770686D01*
X113582798Y-75777616D01*
X113579651Y-75784270D01*
X113575867Y-75790583D01*
X113571483Y-75796494D01*
X113566540Y-75801948D01*
X112629624Y-76738864D01*
X112624170Y-76743807D01*
X112618259Y-76748191D01*
X112611946Y-76751975D01*
X112605292Y-76755122D01*
X112598362Y-76757602D01*
X112591223Y-76759390D01*
X112583942Y-76760470D01*
X112576591Y-76760831D01*
X112569240Y-76760470D01*
X112561959Y-76759390D01*
X112554820Y-76757602D01*
X112547890Y-76755122D01*
X112541236Y-76751975D01*
X112534923Y-76748191D01*
X112529012Y-76743807D01*
X112523558Y-76738864D01*
X112417492Y-76632798D01*
X112412549Y-76627344D01*
X112408165Y-76621433D01*
X112404381Y-76615120D01*
X112401234Y-76608466D01*
X112398754Y-76601536D01*
X112396966Y-76594397D01*
X112395886Y-76587116D01*
X112395525Y-76579765D01*
X112395886Y-76572414D01*
X112396966Y-76565133D01*
X112398754Y-76557994D01*
X112401234Y-76551064D01*
X112404381Y-76544410D01*
X112408165Y-76538097D01*
X112412549Y-76532186D01*
X112417492Y-76526732D01*
X113354408Y-75589816D01*
X113359862Y-75584873D01*
X113365773Y-75580489D01*
X113372086Y-75576705D01*
X113378740Y-75573558D01*
X113385670Y-75571078D01*
X113392809Y-75569290D01*
X113400090Y-75568210D01*
X113407441Y-75567849D01*
X113414792Y-75568210D01*
G37*
G36*
X113061238Y-75214656D02*
G01*
X113068519Y-75215736D01*
X113075658Y-75217524D01*
X113082588Y-75220004D01*
X113089242Y-75223151D01*
X113095555Y-75226935D01*
X113101466Y-75231319D01*
X113106920Y-75236262D01*
X113212986Y-75342328D01*
X113217929Y-75347782D01*
X113222313Y-75353693D01*
X113226097Y-75360006D01*
X113229244Y-75366660D01*
X113231724Y-75373590D01*
X113233512Y-75380729D01*
X113234592Y-75388010D01*
X113234953Y-75395361D01*
X113234592Y-75402712D01*
X113233512Y-75409993D01*
X113231724Y-75417132D01*
X113229244Y-75424062D01*
X113226097Y-75430716D01*
X113222313Y-75437029D01*
X113217929Y-75442940D01*
X113212986Y-75448394D01*
X112276070Y-76385310D01*
X112270616Y-76390253D01*
X112264705Y-76394637D01*
X112258392Y-76398421D01*
X112251738Y-76401568D01*
X112244808Y-76404048D01*
X112237669Y-76405836D01*
X112230388Y-76406916D01*
X112223037Y-76407277D01*
X112215686Y-76406916D01*
X112208405Y-76405836D01*
X112201266Y-76404048D01*
X112194336Y-76401568D01*
X112187682Y-76398421D01*
X112181369Y-76394637D01*
X112175458Y-76390253D01*
X112170004Y-76385310D01*
X112063938Y-76279244D01*
X112058995Y-76273790D01*
X112054611Y-76267879D01*
X112050827Y-76261566D01*
X112047680Y-76254912D01*
X112045200Y-76247982D01*
X112043412Y-76240843D01*
X112042332Y-76233562D01*
X112041971Y-76226211D01*
X112042332Y-76218860D01*
X112043412Y-76211579D01*
X112045200Y-76204440D01*
X112047680Y-76197510D01*
X112050827Y-76190856D01*
X112054611Y-76184543D01*
X112058995Y-76178632D01*
X112063938Y-76173178D01*
X113000854Y-75236262D01*
X113006308Y-75231319D01*
X113012219Y-75226935D01*
X113018532Y-75223151D01*
X113025186Y-75220004D01*
X113032116Y-75217524D01*
X113039255Y-75215736D01*
X113046536Y-75214656D01*
X113053887Y-75214295D01*
X113061238Y-75214656D01*
G37*
G36*
X112230388Y-73217080D02*
G01*
X112237669Y-73218160D01*
X112244808Y-73219948D01*
X112251738Y-73222428D01*
X112258392Y-73225575D01*
X112264705Y-73229359D01*
X112270616Y-73233743D01*
X112276070Y-73238686D01*
X113212986Y-74175602D01*
X113217929Y-74181056D01*
X113222313Y-74186967D01*
X113226097Y-74193280D01*
X113229244Y-74199934D01*
X113231724Y-74206864D01*
X113233512Y-74214003D01*
X113234592Y-74221284D01*
X113234953Y-74228635D01*
X113234592Y-74235986D01*
X113233512Y-74243267D01*
X113231724Y-74250406D01*
X113229244Y-74257336D01*
X113226097Y-74263990D01*
X113222313Y-74270303D01*
X113217929Y-74276214D01*
X113212986Y-74281668D01*
X113106920Y-74387734D01*
X113101466Y-74392677D01*
X113095555Y-74397061D01*
X113089242Y-74400845D01*
X113082588Y-74403992D01*
X113075658Y-74406472D01*
X113068519Y-74408260D01*
X113061238Y-74409340D01*
X113053887Y-74409701D01*
X113046536Y-74409340D01*
X113039255Y-74408260D01*
X113032116Y-74406472D01*
X113025186Y-74403992D01*
X113018532Y-74400845D01*
X113012219Y-74397061D01*
X113006308Y-74392677D01*
X113000854Y-74387734D01*
X112063938Y-73450818D01*
X112058995Y-73445364D01*
X112054611Y-73439453D01*
X112050827Y-73433140D01*
X112047680Y-73426486D01*
X112045200Y-73419556D01*
X112043412Y-73412417D01*
X112042332Y-73405136D01*
X112041971Y-73397785D01*
X112042332Y-73390434D01*
X112043412Y-73383153D01*
X112045200Y-73376014D01*
X112047680Y-73369084D01*
X112050827Y-73362430D01*
X112054611Y-73356117D01*
X112058995Y-73350206D01*
X112063938Y-73344752D01*
X112170004Y-73238686D01*
X112175458Y-73233743D01*
X112181369Y-73229359D01*
X112187682Y-73225575D01*
X112194336Y-73222428D01*
X112201266Y-73219948D01*
X112208405Y-73218160D01*
X112215686Y-73217080D01*
X112223037Y-73216719D01*
X112230388Y-73217080D01*
G37*
G36*
X112583942Y-72863526D02*
G01*
X112591223Y-72864606D01*
X112598362Y-72866394D01*
X112605292Y-72868874D01*
X112611946Y-72872021D01*
X112618259Y-72875805D01*
X112624170Y-72880189D01*
X112629624Y-72885132D01*
X113566540Y-73822048D01*
X113571483Y-73827502D01*
X113575867Y-73833413D01*
X113579651Y-73839726D01*
X113582798Y-73846380D01*
X113585278Y-73853310D01*
X113587066Y-73860449D01*
X113588146Y-73867730D01*
X113588507Y-73875081D01*
X113588146Y-73882432D01*
X113587066Y-73889713D01*
X113585278Y-73896852D01*
X113582798Y-73903782D01*
X113579651Y-73910436D01*
X113575867Y-73916749D01*
X113571483Y-73922660D01*
X113566540Y-73928114D01*
X113460474Y-74034180D01*
X113455020Y-74039123D01*
X113449109Y-74043507D01*
X113442796Y-74047291D01*
X113436142Y-74050438D01*
X113429212Y-74052918D01*
X113422073Y-74054706D01*
X113414792Y-74055786D01*
X113407441Y-74056147D01*
X113400090Y-74055786D01*
X113392809Y-74054706D01*
X113385670Y-74052918D01*
X113378740Y-74050438D01*
X113372086Y-74047291D01*
X113365773Y-74043507D01*
X113359862Y-74039123D01*
X113354408Y-74034180D01*
X112417492Y-73097264D01*
X112412549Y-73091810D01*
X112408165Y-73085899D01*
X112404381Y-73079586D01*
X112401234Y-73072932D01*
X112398754Y-73066002D01*
X112396966Y-73058863D01*
X112395886Y-73051582D01*
X112395525Y-73044231D01*
X112395886Y-73036880D01*
X112396966Y-73029599D01*
X112398754Y-73022460D01*
X112401234Y-73015530D01*
X112404381Y-73008876D01*
X112408165Y-73002563D01*
X112412549Y-72996652D01*
X112417492Y-72991198D01*
X112523558Y-72885132D01*
X112529012Y-72880189D01*
X112534923Y-72875805D01*
X112541236Y-72872021D01*
X112547890Y-72868874D01*
X112554820Y-72866394D01*
X112561959Y-72864606D01*
X112569240Y-72863526D01*
X112576591Y-72863165D01*
X112583942Y-72863526D01*
G37*
G36*
X112937495Y-72509973D02*
G01*
X112944776Y-72511053D01*
X112951915Y-72512841D01*
X112958845Y-72515321D01*
X112965499Y-72518468D01*
X112971812Y-72522252D01*
X112977723Y-72526636D01*
X112983177Y-72531579D01*
X113920093Y-73468495D01*
X113925036Y-73473949D01*
X113929420Y-73479860D01*
X113933204Y-73486173D01*
X113936351Y-73492827D01*
X113938831Y-73499757D01*
X113940619Y-73506896D01*
X113941699Y-73514177D01*
X113942060Y-73521528D01*
X113941699Y-73528879D01*
X113940619Y-73536160D01*
X113938831Y-73543299D01*
X113936351Y-73550229D01*
X113933204Y-73556883D01*
X113929420Y-73563196D01*
X113925036Y-73569107D01*
X113920093Y-73574561D01*
X113814027Y-73680627D01*
X113808573Y-73685570D01*
X113802662Y-73689954D01*
X113796349Y-73693738D01*
X113789695Y-73696885D01*
X113782765Y-73699365D01*
X113775626Y-73701153D01*
X113768345Y-73702233D01*
X113760994Y-73702594D01*
X113753643Y-73702233D01*
X113746362Y-73701153D01*
X113739223Y-73699365D01*
X113732293Y-73696885D01*
X113725639Y-73693738D01*
X113719326Y-73689954D01*
X113713415Y-73685570D01*
X113707961Y-73680627D01*
X112771045Y-72743711D01*
X112766102Y-72738257D01*
X112761718Y-72732346D01*
X112757934Y-72726033D01*
X112754787Y-72719379D01*
X112752307Y-72712449D01*
X112750519Y-72705310D01*
X112749439Y-72698029D01*
X112749078Y-72690678D01*
X112749439Y-72683327D01*
X112750519Y-72676046D01*
X112752307Y-72668907D01*
X112754787Y-72661977D01*
X112757934Y-72655323D01*
X112761718Y-72649010D01*
X112766102Y-72643099D01*
X112771045Y-72637645D01*
X112877111Y-72531579D01*
X112882565Y-72526636D01*
X112888476Y-72522252D01*
X112894789Y-72518468D01*
X112901443Y-72515321D01*
X112908373Y-72512841D01*
X112915512Y-72511053D01*
X112922793Y-72509973D01*
X112930144Y-72509612D01*
X112937495Y-72509973D01*
G37*
G36*
X113291049Y-72156419D02*
G01*
X113298330Y-72157499D01*
X113305469Y-72159287D01*
X113312399Y-72161767D01*
X113319053Y-72164914D01*
X113325366Y-72168698D01*
X113331277Y-72173082D01*
X113336731Y-72178025D01*
X114273647Y-73114941D01*
X114278590Y-73120395D01*
X114282974Y-73126306D01*
X114286758Y-73132619D01*
X114289905Y-73139273D01*
X114292385Y-73146203D01*
X114294173Y-73153342D01*
X114295253Y-73160623D01*
X114295614Y-73167974D01*
X114295253Y-73175325D01*
X114294173Y-73182606D01*
X114292385Y-73189745D01*
X114289905Y-73196675D01*
X114286758Y-73203329D01*
X114282974Y-73209642D01*
X114278590Y-73215553D01*
X114273647Y-73221007D01*
X114167581Y-73327073D01*
X114162127Y-73332016D01*
X114156216Y-73336400D01*
X114149903Y-73340184D01*
X114143249Y-73343331D01*
X114136319Y-73345811D01*
X114129180Y-73347599D01*
X114121899Y-73348679D01*
X114114548Y-73349040D01*
X114107197Y-73348679D01*
X114099916Y-73347599D01*
X114092777Y-73345811D01*
X114085847Y-73343331D01*
X114079193Y-73340184D01*
X114072880Y-73336400D01*
X114066969Y-73332016D01*
X114061515Y-73327073D01*
X113124599Y-72390157D01*
X113119656Y-72384703D01*
X113115272Y-72378792D01*
X113111488Y-72372479D01*
X113108341Y-72365825D01*
X113105861Y-72358895D01*
X113104073Y-72351756D01*
X113102993Y-72344475D01*
X113102632Y-72337124D01*
X113102993Y-72329773D01*
X113104073Y-72322492D01*
X113105861Y-72315353D01*
X113108341Y-72308423D01*
X113111488Y-72301769D01*
X113115272Y-72295456D01*
X113119656Y-72289545D01*
X113124599Y-72284091D01*
X113230665Y-72178025D01*
X113236119Y-72173082D01*
X113242030Y-72168698D01*
X113248343Y-72164914D01*
X113254997Y-72161767D01*
X113261927Y-72159287D01*
X113269066Y-72157499D01*
X113276347Y-72156419D01*
X113283698Y-72156058D01*
X113291049Y-72156419D01*
G37*
G36*
X113644602Y-71802866D02*
G01*
X113651883Y-71803946D01*
X113659022Y-71805734D01*
X113665952Y-71808214D01*
X113672606Y-71811361D01*
X113678919Y-71815145D01*
X113684830Y-71819529D01*
X113690284Y-71824472D01*
X114627200Y-72761388D01*
X114632143Y-72766842D01*
X114636527Y-72772753D01*
X114640311Y-72779066D01*
X114643458Y-72785720D01*
X114645938Y-72792650D01*
X114647726Y-72799789D01*
X114648806Y-72807070D01*
X114649167Y-72814421D01*
X114648806Y-72821772D01*
X114647726Y-72829053D01*
X114645938Y-72836192D01*
X114643458Y-72843122D01*
X114640311Y-72849776D01*
X114636527Y-72856089D01*
X114632143Y-72862000D01*
X114627200Y-72867454D01*
X114521134Y-72973520D01*
X114515680Y-72978463D01*
X114509769Y-72982847D01*
X114503456Y-72986631D01*
X114496802Y-72989778D01*
X114489872Y-72992258D01*
X114482733Y-72994046D01*
X114475452Y-72995126D01*
X114468101Y-72995487D01*
X114460750Y-72995126D01*
X114453469Y-72994046D01*
X114446330Y-72992258D01*
X114439400Y-72989778D01*
X114432746Y-72986631D01*
X114426433Y-72982847D01*
X114420522Y-72978463D01*
X114415068Y-72973520D01*
X113478152Y-72036604D01*
X113473209Y-72031150D01*
X113468825Y-72025239D01*
X113465041Y-72018926D01*
X113461894Y-72012272D01*
X113459414Y-72005342D01*
X113457626Y-71998203D01*
X113456546Y-71990922D01*
X113456185Y-71983571D01*
X113456546Y-71976220D01*
X113457626Y-71968939D01*
X113459414Y-71961800D01*
X113461894Y-71954870D01*
X113465041Y-71948216D01*
X113468825Y-71941903D01*
X113473209Y-71935992D01*
X113478152Y-71930538D01*
X113584218Y-71824472D01*
X113589672Y-71819529D01*
X113595583Y-71815145D01*
X113601896Y-71811361D01*
X113608550Y-71808214D01*
X113615480Y-71805734D01*
X113622619Y-71803946D01*
X113629900Y-71802866D01*
X113637251Y-71802505D01*
X113644602Y-71802866D01*
G37*
G36*
X113998155Y-71449313D02*
G01*
X114005436Y-71450393D01*
X114012575Y-71452181D01*
X114019505Y-71454661D01*
X114026159Y-71457808D01*
X114032472Y-71461592D01*
X114038383Y-71465976D01*
X114043837Y-71470919D01*
X114980753Y-72407835D01*
X114985696Y-72413289D01*
X114990080Y-72419200D01*
X114993864Y-72425513D01*
X114997011Y-72432167D01*
X114999491Y-72439097D01*
X115001279Y-72446236D01*
X115002359Y-72453517D01*
X115002720Y-72460868D01*
X115002359Y-72468219D01*
X115001279Y-72475500D01*
X114999491Y-72482639D01*
X114997011Y-72489569D01*
X114993864Y-72496223D01*
X114990080Y-72502536D01*
X114985696Y-72508447D01*
X114980753Y-72513901D01*
X114874687Y-72619967D01*
X114869233Y-72624910D01*
X114863322Y-72629294D01*
X114857009Y-72633078D01*
X114850355Y-72636225D01*
X114843425Y-72638705D01*
X114836286Y-72640493D01*
X114829005Y-72641573D01*
X114821654Y-72641934D01*
X114814303Y-72641573D01*
X114807022Y-72640493D01*
X114799883Y-72638705D01*
X114792953Y-72636225D01*
X114786299Y-72633078D01*
X114779986Y-72629294D01*
X114774075Y-72624910D01*
X114768621Y-72619967D01*
X113831705Y-71683051D01*
X113826762Y-71677597D01*
X113822378Y-71671686D01*
X113818594Y-71665373D01*
X113815447Y-71658719D01*
X113812967Y-71651789D01*
X113811179Y-71644650D01*
X113810099Y-71637369D01*
X113809738Y-71630018D01*
X113810099Y-71622667D01*
X113811179Y-71615386D01*
X113812967Y-71608247D01*
X113815447Y-71601317D01*
X113818594Y-71594663D01*
X113822378Y-71588350D01*
X113826762Y-71582439D01*
X113831705Y-71576985D01*
X113937771Y-71470919D01*
X113943225Y-71465976D01*
X113949136Y-71461592D01*
X113955449Y-71457808D01*
X113962103Y-71454661D01*
X113969033Y-71452181D01*
X113976172Y-71450393D01*
X113983453Y-71449313D01*
X113990804Y-71448952D01*
X113998155Y-71449313D01*
G37*
G36*
X114351709Y-71095759D02*
G01*
X114358990Y-71096839D01*
X114366129Y-71098627D01*
X114373059Y-71101107D01*
X114379713Y-71104254D01*
X114386026Y-71108038D01*
X114391937Y-71112422D01*
X114397391Y-71117365D01*
X115334307Y-72054281D01*
X115339250Y-72059735D01*
X115343634Y-72065646D01*
X115347418Y-72071959D01*
X115350565Y-72078613D01*
X115353045Y-72085543D01*
X115354833Y-72092682D01*
X115355913Y-72099963D01*
X115356274Y-72107314D01*
X115355913Y-72114665D01*
X115354833Y-72121946D01*
X115353045Y-72129085D01*
X115350565Y-72136015D01*
X115347418Y-72142669D01*
X115343634Y-72148982D01*
X115339250Y-72154893D01*
X115334307Y-72160347D01*
X115228241Y-72266413D01*
X115222787Y-72271356D01*
X115216876Y-72275740D01*
X115210563Y-72279524D01*
X115203909Y-72282671D01*
X115196979Y-72285151D01*
X115189840Y-72286939D01*
X115182559Y-72288019D01*
X115175208Y-72288380D01*
X115167857Y-72288019D01*
X115160576Y-72286939D01*
X115153437Y-72285151D01*
X115146507Y-72282671D01*
X115139853Y-72279524D01*
X115133540Y-72275740D01*
X115127629Y-72271356D01*
X115122175Y-72266413D01*
X114185259Y-71329497D01*
X114180316Y-71324043D01*
X114175932Y-71318132D01*
X114172148Y-71311819D01*
X114169001Y-71305165D01*
X114166521Y-71298235D01*
X114164733Y-71291096D01*
X114163653Y-71283815D01*
X114163292Y-71276464D01*
X114163653Y-71269113D01*
X114164733Y-71261832D01*
X114166521Y-71254693D01*
X114169001Y-71247763D01*
X114172148Y-71241109D01*
X114175932Y-71234796D01*
X114180316Y-71228885D01*
X114185259Y-71223431D01*
X114291325Y-71117365D01*
X114296779Y-71112422D01*
X114302690Y-71108038D01*
X114309003Y-71104254D01*
X114315657Y-71101107D01*
X114322587Y-71098627D01*
X114329726Y-71096839D01*
X114337007Y-71095759D01*
X114344358Y-71095398D01*
X114351709Y-71095759D01*
G37*
G36*
X114705262Y-70742206D02*
G01*
X114712543Y-70743286D01*
X114719682Y-70745074D01*
X114726612Y-70747554D01*
X114733266Y-70750701D01*
X114739579Y-70754485D01*
X114745490Y-70758869D01*
X114750944Y-70763812D01*
X115687860Y-71700728D01*
X115692803Y-71706182D01*
X115697187Y-71712093D01*
X115700971Y-71718406D01*
X115704118Y-71725060D01*
X115706598Y-71731990D01*
X115708386Y-71739129D01*
X115709466Y-71746410D01*
X115709827Y-71753761D01*
X115709466Y-71761112D01*
X115708386Y-71768393D01*
X115706598Y-71775532D01*
X115704118Y-71782462D01*
X115700971Y-71789116D01*
X115697187Y-71795429D01*
X115692803Y-71801340D01*
X115687860Y-71806794D01*
X115581794Y-71912860D01*
X115576340Y-71917803D01*
X115570429Y-71922187D01*
X115564116Y-71925971D01*
X115557462Y-71929118D01*
X115550532Y-71931598D01*
X115543393Y-71933386D01*
X115536112Y-71934466D01*
X115528761Y-71934827D01*
X115521410Y-71934466D01*
X115514129Y-71933386D01*
X115506990Y-71931598D01*
X115500060Y-71929118D01*
X115493406Y-71925971D01*
X115487093Y-71922187D01*
X115481182Y-71917803D01*
X115475728Y-71912860D01*
X114538812Y-70975944D01*
X114533869Y-70970490D01*
X114529485Y-70964579D01*
X114525701Y-70958266D01*
X114522554Y-70951612D01*
X114520074Y-70944682D01*
X114518286Y-70937543D01*
X114517206Y-70930262D01*
X114516845Y-70922911D01*
X114517206Y-70915560D01*
X114518286Y-70908279D01*
X114520074Y-70901140D01*
X114522554Y-70894210D01*
X114525701Y-70887556D01*
X114529485Y-70881243D01*
X114533869Y-70875332D01*
X114538812Y-70869878D01*
X114644878Y-70763812D01*
X114650332Y-70758869D01*
X114656243Y-70754485D01*
X114662556Y-70750701D01*
X114669210Y-70747554D01*
X114676140Y-70745074D01*
X114683279Y-70743286D01*
X114690560Y-70742206D01*
X114697911Y-70741845D01*
X114705262Y-70742206D01*
G37*
G36*
X115058815Y-70388653D02*
G01*
X115066096Y-70389733D01*
X115073235Y-70391521D01*
X115080165Y-70394001D01*
X115086819Y-70397148D01*
X115093132Y-70400932D01*
X115099043Y-70405316D01*
X115104497Y-70410259D01*
X116041413Y-71347175D01*
X116046356Y-71352629D01*
X116050740Y-71358540D01*
X116054524Y-71364853D01*
X116057671Y-71371507D01*
X116060151Y-71378437D01*
X116061939Y-71385576D01*
X116063019Y-71392857D01*
X116063380Y-71400208D01*
X116063019Y-71407559D01*
X116061939Y-71414840D01*
X116060151Y-71421979D01*
X116057671Y-71428909D01*
X116054524Y-71435563D01*
X116050740Y-71441876D01*
X116046356Y-71447787D01*
X116041413Y-71453241D01*
X115935347Y-71559307D01*
X115929893Y-71564250D01*
X115923982Y-71568634D01*
X115917669Y-71572418D01*
X115911015Y-71575565D01*
X115904085Y-71578045D01*
X115896946Y-71579833D01*
X115889665Y-71580913D01*
X115882314Y-71581274D01*
X115874963Y-71580913D01*
X115867682Y-71579833D01*
X115860543Y-71578045D01*
X115853613Y-71575565D01*
X115846959Y-71572418D01*
X115840646Y-71568634D01*
X115834735Y-71564250D01*
X115829281Y-71559307D01*
X114892365Y-70622391D01*
X114887422Y-70616937D01*
X114883038Y-70611026D01*
X114879254Y-70604713D01*
X114876107Y-70598059D01*
X114873627Y-70591129D01*
X114871839Y-70583990D01*
X114870759Y-70576709D01*
X114870398Y-70569358D01*
X114870759Y-70562007D01*
X114871839Y-70554726D01*
X114873627Y-70547587D01*
X114876107Y-70540657D01*
X114879254Y-70534003D01*
X114883038Y-70527690D01*
X114887422Y-70521779D01*
X114892365Y-70516325D01*
X114998431Y-70410259D01*
X115003885Y-70405316D01*
X115009796Y-70400932D01*
X115016109Y-70397148D01*
X115022763Y-70394001D01*
X115029693Y-70391521D01*
X115036832Y-70389733D01*
X115044113Y-70388653D01*
X115051464Y-70388292D01*
X115058815Y-70388653D01*
G37*
G36*
X115412369Y-70035099D02*
G01*
X115419650Y-70036179D01*
X115426789Y-70037967D01*
X115433719Y-70040447D01*
X115440373Y-70043594D01*
X115446686Y-70047378D01*
X115452597Y-70051762D01*
X115458051Y-70056705D01*
X116394967Y-70993621D01*
X116399910Y-70999075D01*
X116404294Y-71004986D01*
X116408078Y-71011299D01*
X116411225Y-71017953D01*
X116413705Y-71024883D01*
X116415493Y-71032022D01*
X116416573Y-71039303D01*
X116416934Y-71046654D01*
X116416573Y-71054005D01*
X116415493Y-71061286D01*
X116413705Y-71068425D01*
X116411225Y-71075355D01*
X116408078Y-71082009D01*
X116404294Y-71088322D01*
X116399910Y-71094233D01*
X116394967Y-71099687D01*
X116288901Y-71205753D01*
X116283447Y-71210696D01*
X116277536Y-71215080D01*
X116271223Y-71218864D01*
X116264569Y-71222011D01*
X116257639Y-71224491D01*
X116250500Y-71226279D01*
X116243219Y-71227359D01*
X116235868Y-71227720D01*
X116228517Y-71227359D01*
X116221236Y-71226279D01*
X116214097Y-71224491D01*
X116207167Y-71222011D01*
X116200513Y-71218864D01*
X116194200Y-71215080D01*
X116188289Y-71210696D01*
X116182835Y-71205753D01*
X115245919Y-70268837D01*
X115240976Y-70263383D01*
X115236592Y-70257472D01*
X115232808Y-70251159D01*
X115229661Y-70244505D01*
X115227181Y-70237575D01*
X115225393Y-70230436D01*
X115224313Y-70223155D01*
X115223952Y-70215804D01*
X115224313Y-70208453D01*
X115225393Y-70201172D01*
X115227181Y-70194033D01*
X115229661Y-70187103D01*
X115232808Y-70180449D01*
X115236592Y-70174136D01*
X115240976Y-70168225D01*
X115245919Y-70162771D01*
X115351985Y-70056705D01*
X115357439Y-70051762D01*
X115363350Y-70047378D01*
X115369663Y-70043594D01*
X115376317Y-70040447D01*
X115383247Y-70037967D01*
X115390386Y-70036179D01*
X115397667Y-70035099D01*
X115405018Y-70034738D01*
X115412369Y-70035099D01*
G37*
G36*
X115765922Y-69681546D02*
G01*
X115773203Y-69682626D01*
X115780342Y-69684414D01*
X115787272Y-69686894D01*
X115793926Y-69690041D01*
X115800239Y-69693825D01*
X115806150Y-69698209D01*
X115811604Y-69703152D01*
X116748520Y-70640068D01*
X116753463Y-70645522D01*
X116757847Y-70651433D01*
X116761631Y-70657746D01*
X116764778Y-70664400D01*
X116767258Y-70671330D01*
X116769046Y-70678469D01*
X116770126Y-70685750D01*
X116770487Y-70693101D01*
X116770126Y-70700452D01*
X116769046Y-70707733D01*
X116767258Y-70714872D01*
X116764778Y-70721802D01*
X116761631Y-70728456D01*
X116757847Y-70734769D01*
X116753463Y-70740680D01*
X116748520Y-70746134D01*
X116642454Y-70852200D01*
X116637000Y-70857143D01*
X116631089Y-70861527D01*
X116624776Y-70865311D01*
X116618122Y-70868458D01*
X116611192Y-70870938D01*
X116604053Y-70872726D01*
X116596772Y-70873806D01*
X116589421Y-70874167D01*
X116582070Y-70873806D01*
X116574789Y-70872726D01*
X116567650Y-70870938D01*
X116560720Y-70868458D01*
X116554066Y-70865311D01*
X116547753Y-70861527D01*
X116541842Y-70857143D01*
X116536388Y-70852200D01*
X115599472Y-69915284D01*
X115594529Y-69909830D01*
X115590145Y-69903919D01*
X115586361Y-69897606D01*
X115583214Y-69890952D01*
X115580734Y-69884022D01*
X115578946Y-69876883D01*
X115577866Y-69869602D01*
X115577505Y-69862251D01*
X115577866Y-69854900D01*
X115578946Y-69847619D01*
X115580734Y-69840480D01*
X115583214Y-69833550D01*
X115586361Y-69826896D01*
X115590145Y-69820583D01*
X115594529Y-69814672D01*
X115599472Y-69809218D01*
X115705538Y-69703152D01*
X115710992Y-69698209D01*
X115716903Y-69693825D01*
X115723216Y-69690041D01*
X115729870Y-69686894D01*
X115736800Y-69684414D01*
X115743939Y-69682626D01*
X115751220Y-69681546D01*
X115758571Y-69681185D01*
X115765922Y-69681546D01*
G37*
G36*
X116119476Y-69327992D02*
G01*
X116126757Y-69329072D01*
X116133896Y-69330860D01*
X116140826Y-69333340D01*
X116147480Y-69336487D01*
X116153793Y-69340271D01*
X116159704Y-69344655D01*
X116165158Y-69349598D01*
X117102074Y-70286514D01*
X117107017Y-70291968D01*
X117111401Y-70297879D01*
X117115185Y-70304192D01*
X117118332Y-70310846D01*
X117120812Y-70317776D01*
X117122600Y-70324915D01*
X117123680Y-70332196D01*
X117124041Y-70339547D01*
X117123680Y-70346898D01*
X117122600Y-70354179D01*
X117120812Y-70361318D01*
X117118332Y-70368248D01*
X117115185Y-70374902D01*
X117111401Y-70381215D01*
X117107017Y-70387126D01*
X117102074Y-70392580D01*
X116996008Y-70498646D01*
X116990554Y-70503589D01*
X116984643Y-70507973D01*
X116978330Y-70511757D01*
X116971676Y-70514904D01*
X116964746Y-70517384D01*
X116957607Y-70519172D01*
X116950326Y-70520252D01*
X116942975Y-70520613D01*
X116935624Y-70520252D01*
X116928343Y-70519172D01*
X116921204Y-70517384D01*
X116914274Y-70514904D01*
X116907620Y-70511757D01*
X116901307Y-70507973D01*
X116895396Y-70503589D01*
X116889942Y-70498646D01*
X115953026Y-69561730D01*
X115948083Y-69556276D01*
X115943699Y-69550365D01*
X115939915Y-69544052D01*
X115936768Y-69537398D01*
X115934288Y-69530468D01*
X115932500Y-69523329D01*
X115931420Y-69516048D01*
X115931059Y-69508697D01*
X115931420Y-69501346D01*
X115932500Y-69494065D01*
X115934288Y-69486926D01*
X115936768Y-69479996D01*
X115939915Y-69473342D01*
X115943699Y-69467029D01*
X115948083Y-69461118D01*
X115953026Y-69455664D01*
X116059092Y-69349598D01*
X116064546Y-69344655D01*
X116070457Y-69340271D01*
X116076770Y-69336487D01*
X116083424Y-69333340D01*
X116090354Y-69330860D01*
X116097493Y-69329072D01*
X116104774Y-69327992D01*
X116112125Y-69327631D01*
X116119476Y-69327992D01*
G37*
G36*
X118947902Y-69327992D02*
G01*
X118955183Y-69329072D01*
X118962322Y-69330860D01*
X118969252Y-69333340D01*
X118975906Y-69336487D01*
X118982219Y-69340271D01*
X118988130Y-69344655D01*
X118993584Y-69349598D01*
X119099650Y-69455664D01*
X119104593Y-69461118D01*
X119108977Y-69467029D01*
X119112761Y-69473342D01*
X119115908Y-69479996D01*
X119118388Y-69486926D01*
X119120176Y-69494065D01*
X119121256Y-69501346D01*
X119121617Y-69508697D01*
X119121256Y-69516048D01*
X119120176Y-69523329D01*
X119118388Y-69530468D01*
X119115908Y-69537398D01*
X119112761Y-69544052D01*
X119108977Y-69550365D01*
X119104593Y-69556276D01*
X119099650Y-69561730D01*
X118162734Y-70498646D01*
X118157280Y-70503589D01*
X118151369Y-70507973D01*
X118145056Y-70511757D01*
X118138402Y-70514904D01*
X118131472Y-70517384D01*
X118124333Y-70519172D01*
X118117052Y-70520252D01*
X118109701Y-70520613D01*
X118102350Y-70520252D01*
X118095069Y-70519172D01*
X118087930Y-70517384D01*
X118081000Y-70514904D01*
X118074346Y-70511757D01*
X118068033Y-70507973D01*
X118062122Y-70503589D01*
X118056668Y-70498646D01*
X117950602Y-70392580D01*
X117945659Y-70387126D01*
X117941275Y-70381215D01*
X117937491Y-70374902D01*
X117934344Y-70368248D01*
X117931864Y-70361318D01*
X117930076Y-70354179D01*
X117928996Y-70346898D01*
X117928635Y-70339547D01*
X117928996Y-70332196D01*
X117930076Y-70324915D01*
X117931864Y-70317776D01*
X117934344Y-70310846D01*
X117937491Y-70304192D01*
X117941275Y-70297879D01*
X117945659Y-70291968D01*
X117950602Y-70286514D01*
X118887518Y-69349598D01*
X118892972Y-69344655D01*
X118898883Y-69340271D01*
X118905196Y-69336487D01*
X118911850Y-69333340D01*
X118918780Y-69330860D01*
X118925919Y-69329072D01*
X118933200Y-69327992D01*
X118940551Y-69327631D01*
X118947902Y-69327992D01*
G37*
G36*
X119301456Y-69681546D02*
G01*
X119308737Y-69682626D01*
X119315876Y-69684414D01*
X119322806Y-69686894D01*
X119329460Y-69690041D01*
X119335773Y-69693825D01*
X119341684Y-69698209D01*
X119347138Y-69703152D01*
X119453204Y-69809218D01*
X119458147Y-69814672D01*
X119462531Y-69820583D01*
X119466315Y-69826896D01*
X119469462Y-69833550D01*
X119471942Y-69840480D01*
X119473730Y-69847619D01*
X119474810Y-69854900D01*
X119475171Y-69862251D01*
X119474810Y-69869602D01*
X119473730Y-69876883D01*
X119471942Y-69884022D01*
X119469462Y-69890952D01*
X119466315Y-69897606D01*
X119462531Y-69903919D01*
X119458147Y-69909830D01*
X119453204Y-69915284D01*
X118516288Y-70852200D01*
X118510834Y-70857143D01*
X118504923Y-70861527D01*
X118498610Y-70865311D01*
X118491956Y-70868458D01*
X118485026Y-70870938D01*
X118477887Y-70872726D01*
X118470606Y-70873806D01*
X118463255Y-70874167D01*
X118455904Y-70873806D01*
X118448623Y-70872726D01*
X118441484Y-70870938D01*
X118434554Y-70868458D01*
X118427900Y-70865311D01*
X118421587Y-70861527D01*
X118415676Y-70857143D01*
X118410222Y-70852200D01*
X118304156Y-70746134D01*
X118299213Y-70740680D01*
X118294829Y-70734769D01*
X118291045Y-70728456D01*
X118287898Y-70721802D01*
X118285418Y-70714872D01*
X118283630Y-70707733D01*
X118282550Y-70700452D01*
X118282189Y-70693101D01*
X118282550Y-70685750D01*
X118283630Y-70678469D01*
X118285418Y-70671330D01*
X118287898Y-70664400D01*
X118291045Y-70657746D01*
X118294829Y-70651433D01*
X118299213Y-70645522D01*
X118304156Y-70640068D01*
X119241072Y-69703152D01*
X119246526Y-69698209D01*
X119252437Y-69693825D01*
X119258750Y-69690041D01*
X119265404Y-69686894D01*
X119272334Y-69684414D01*
X119279473Y-69682626D01*
X119286754Y-69681546D01*
X119294105Y-69681185D01*
X119301456Y-69681546D01*
G37*
G36*
X119655009Y-70035099D02*
G01*
X119662290Y-70036179D01*
X119669429Y-70037967D01*
X119676359Y-70040447D01*
X119683013Y-70043594D01*
X119689326Y-70047378D01*
X119695237Y-70051762D01*
X119700691Y-70056705D01*
X119806757Y-70162771D01*
X119811700Y-70168225D01*
X119816084Y-70174136D01*
X119819868Y-70180449D01*
X119823015Y-70187103D01*
X119825495Y-70194033D01*
X119827283Y-70201172D01*
X119828363Y-70208453D01*
X119828724Y-70215804D01*
X119828363Y-70223155D01*
X119827283Y-70230436D01*
X119825495Y-70237575D01*
X119823015Y-70244505D01*
X119819868Y-70251159D01*
X119816084Y-70257472D01*
X119811700Y-70263383D01*
X119806757Y-70268837D01*
X118869841Y-71205753D01*
X118864387Y-71210696D01*
X118858476Y-71215080D01*
X118852163Y-71218864D01*
X118845509Y-71222011D01*
X118838579Y-71224491D01*
X118831440Y-71226279D01*
X118824159Y-71227359D01*
X118816808Y-71227720D01*
X118809457Y-71227359D01*
X118802176Y-71226279D01*
X118795037Y-71224491D01*
X118788107Y-71222011D01*
X118781453Y-71218864D01*
X118775140Y-71215080D01*
X118769229Y-71210696D01*
X118763775Y-71205753D01*
X118657709Y-71099687D01*
X118652766Y-71094233D01*
X118648382Y-71088322D01*
X118644598Y-71082009D01*
X118641451Y-71075355D01*
X118638971Y-71068425D01*
X118637183Y-71061286D01*
X118636103Y-71054005D01*
X118635742Y-71046654D01*
X118636103Y-71039303D01*
X118637183Y-71032022D01*
X118638971Y-71024883D01*
X118641451Y-71017953D01*
X118644598Y-71011299D01*
X118648382Y-71004986D01*
X118652766Y-70999075D01*
X118657709Y-70993621D01*
X119594625Y-70056705D01*
X119600079Y-70051762D01*
X119605990Y-70047378D01*
X119612303Y-70043594D01*
X119618957Y-70040447D01*
X119625887Y-70037967D01*
X119633026Y-70036179D01*
X119640307Y-70035099D01*
X119647658Y-70034738D01*
X119655009Y-70035099D01*
G37*
G36*
X120008563Y-70388653D02*
G01*
X120015844Y-70389733D01*
X120022983Y-70391521D01*
X120029913Y-70394001D01*
X120036567Y-70397148D01*
X120042880Y-70400932D01*
X120048791Y-70405316D01*
X120054245Y-70410259D01*
X120160311Y-70516325D01*
X120165254Y-70521779D01*
X120169638Y-70527690D01*
X120173422Y-70534003D01*
X120176569Y-70540657D01*
X120179049Y-70547587D01*
X120180837Y-70554726D01*
X120181917Y-70562007D01*
X120182278Y-70569358D01*
X120181917Y-70576709D01*
X120180837Y-70583990D01*
X120179049Y-70591129D01*
X120176569Y-70598059D01*
X120173422Y-70604713D01*
X120169638Y-70611026D01*
X120165254Y-70616937D01*
X120160311Y-70622391D01*
X119223395Y-71559307D01*
X119217941Y-71564250D01*
X119212030Y-71568634D01*
X119205717Y-71572418D01*
X119199063Y-71575565D01*
X119192133Y-71578045D01*
X119184994Y-71579833D01*
X119177713Y-71580913D01*
X119170362Y-71581274D01*
X119163011Y-71580913D01*
X119155730Y-71579833D01*
X119148591Y-71578045D01*
X119141661Y-71575565D01*
X119135007Y-71572418D01*
X119128694Y-71568634D01*
X119122783Y-71564250D01*
X119117329Y-71559307D01*
X119011263Y-71453241D01*
X119006320Y-71447787D01*
X119001936Y-71441876D01*
X118998152Y-71435563D01*
X118995005Y-71428909D01*
X118992525Y-71421979D01*
X118990737Y-71414840D01*
X118989657Y-71407559D01*
X118989296Y-71400208D01*
X118989657Y-71392857D01*
X118990737Y-71385576D01*
X118992525Y-71378437D01*
X118995005Y-71371507D01*
X118998152Y-71364853D01*
X119001936Y-71358540D01*
X119006320Y-71352629D01*
X119011263Y-71347175D01*
X119948179Y-70410259D01*
X119953633Y-70405316D01*
X119959544Y-70400932D01*
X119965857Y-70397148D01*
X119972511Y-70394001D01*
X119979441Y-70391521D01*
X119986580Y-70389733D01*
X119993861Y-70388653D01*
X120001212Y-70388292D01*
X120008563Y-70388653D01*
G37*
G36*
X120362116Y-70742206D02*
G01*
X120369397Y-70743286D01*
X120376536Y-70745074D01*
X120383466Y-70747554D01*
X120390120Y-70750701D01*
X120396433Y-70754485D01*
X120402344Y-70758869D01*
X120407798Y-70763812D01*
X120513864Y-70869878D01*
X120518807Y-70875332D01*
X120523191Y-70881243D01*
X120526975Y-70887556D01*
X120530122Y-70894210D01*
X120532602Y-70901140D01*
X120534390Y-70908279D01*
X120535470Y-70915560D01*
X120535831Y-70922911D01*
X120535470Y-70930262D01*
X120534390Y-70937543D01*
X120532602Y-70944682D01*
X120530122Y-70951612D01*
X120526975Y-70958266D01*
X120523191Y-70964579D01*
X120518807Y-70970490D01*
X120513864Y-70975944D01*
X119576948Y-71912860D01*
X119571494Y-71917803D01*
X119565583Y-71922187D01*
X119559270Y-71925971D01*
X119552616Y-71929118D01*
X119545686Y-71931598D01*
X119538547Y-71933386D01*
X119531266Y-71934466D01*
X119523915Y-71934827D01*
X119516564Y-71934466D01*
X119509283Y-71933386D01*
X119502144Y-71931598D01*
X119495214Y-71929118D01*
X119488560Y-71925971D01*
X119482247Y-71922187D01*
X119476336Y-71917803D01*
X119470882Y-71912860D01*
X119364816Y-71806794D01*
X119359873Y-71801340D01*
X119355489Y-71795429D01*
X119351705Y-71789116D01*
X119348558Y-71782462D01*
X119346078Y-71775532D01*
X119344290Y-71768393D01*
X119343210Y-71761112D01*
X119342849Y-71753761D01*
X119343210Y-71746410D01*
X119344290Y-71739129D01*
X119346078Y-71731990D01*
X119348558Y-71725060D01*
X119351705Y-71718406D01*
X119355489Y-71712093D01*
X119359873Y-71706182D01*
X119364816Y-71700728D01*
X120301732Y-70763812D01*
X120307186Y-70758869D01*
X120313097Y-70754485D01*
X120319410Y-70750701D01*
X120326064Y-70747554D01*
X120332994Y-70745074D01*
X120340133Y-70743286D01*
X120347414Y-70742206D01*
X120354765Y-70741845D01*
X120362116Y-70742206D01*
G37*
G36*
X120715669Y-71095759D02*
G01*
X120722950Y-71096839D01*
X120730089Y-71098627D01*
X120737019Y-71101107D01*
X120743673Y-71104254D01*
X120749986Y-71108038D01*
X120755897Y-71112422D01*
X120761351Y-71117365D01*
X120867417Y-71223431D01*
X120872360Y-71228885D01*
X120876744Y-71234796D01*
X120880528Y-71241109D01*
X120883675Y-71247763D01*
X120886155Y-71254693D01*
X120887943Y-71261832D01*
X120889023Y-71269113D01*
X120889384Y-71276464D01*
X120889023Y-71283815D01*
X120887943Y-71291096D01*
X120886155Y-71298235D01*
X120883675Y-71305165D01*
X120880528Y-71311819D01*
X120876744Y-71318132D01*
X120872360Y-71324043D01*
X120867417Y-71329497D01*
X119930501Y-72266413D01*
X119925047Y-72271356D01*
X119919136Y-72275740D01*
X119912823Y-72279524D01*
X119906169Y-72282671D01*
X119899239Y-72285151D01*
X119892100Y-72286939D01*
X119884819Y-72288019D01*
X119877468Y-72288380D01*
X119870117Y-72288019D01*
X119862836Y-72286939D01*
X119855697Y-72285151D01*
X119848767Y-72282671D01*
X119842113Y-72279524D01*
X119835800Y-72275740D01*
X119829889Y-72271356D01*
X119824435Y-72266413D01*
X119718369Y-72160347D01*
X119713426Y-72154893D01*
X119709042Y-72148982D01*
X119705258Y-72142669D01*
X119702111Y-72136015D01*
X119699631Y-72129085D01*
X119697843Y-72121946D01*
X119696763Y-72114665D01*
X119696402Y-72107314D01*
X119696763Y-72099963D01*
X119697843Y-72092682D01*
X119699631Y-72085543D01*
X119702111Y-72078613D01*
X119705258Y-72071959D01*
X119709042Y-72065646D01*
X119713426Y-72059735D01*
X119718369Y-72054281D01*
X120655285Y-71117365D01*
X120660739Y-71112422D01*
X120666650Y-71108038D01*
X120672963Y-71104254D01*
X120679617Y-71101107D01*
X120686547Y-71098627D01*
X120693686Y-71096839D01*
X120700967Y-71095759D01*
X120708318Y-71095398D01*
X120715669Y-71095759D01*
G37*
G36*
X121069223Y-71449313D02*
G01*
X121076504Y-71450393D01*
X121083643Y-71452181D01*
X121090573Y-71454661D01*
X121097227Y-71457808D01*
X121103540Y-71461592D01*
X121109451Y-71465976D01*
X121114905Y-71470919D01*
X121220971Y-71576985D01*
X121225914Y-71582439D01*
X121230298Y-71588350D01*
X121234082Y-71594663D01*
X121237229Y-71601317D01*
X121239709Y-71608247D01*
X121241497Y-71615386D01*
X121242577Y-71622667D01*
X121242938Y-71630018D01*
X121242577Y-71637369D01*
X121241497Y-71644650D01*
X121239709Y-71651789D01*
X121237229Y-71658719D01*
X121234082Y-71665373D01*
X121230298Y-71671686D01*
X121225914Y-71677597D01*
X121220971Y-71683051D01*
X120284055Y-72619967D01*
X120278601Y-72624910D01*
X120272690Y-72629294D01*
X120266377Y-72633078D01*
X120259723Y-72636225D01*
X120252793Y-72638705D01*
X120245654Y-72640493D01*
X120238373Y-72641573D01*
X120231022Y-72641934D01*
X120223671Y-72641573D01*
X120216390Y-72640493D01*
X120209251Y-72638705D01*
X120202321Y-72636225D01*
X120195667Y-72633078D01*
X120189354Y-72629294D01*
X120183443Y-72624910D01*
X120177989Y-72619967D01*
X120071923Y-72513901D01*
X120066980Y-72508447D01*
X120062596Y-72502536D01*
X120058812Y-72496223D01*
X120055665Y-72489569D01*
X120053185Y-72482639D01*
X120051397Y-72475500D01*
X120050317Y-72468219D01*
X120049956Y-72460868D01*
X120050317Y-72453517D01*
X120051397Y-72446236D01*
X120053185Y-72439097D01*
X120055665Y-72432167D01*
X120058812Y-72425513D01*
X120062596Y-72419200D01*
X120066980Y-72413289D01*
X120071923Y-72407835D01*
X121008839Y-71470919D01*
X121014293Y-71465976D01*
X121020204Y-71461592D01*
X121026517Y-71457808D01*
X121033171Y-71454661D01*
X121040101Y-71452181D01*
X121047240Y-71450393D01*
X121054521Y-71449313D01*
X121061872Y-71448952D01*
X121069223Y-71449313D01*
G37*
G36*
X121422776Y-71802866D02*
G01*
X121430057Y-71803946D01*
X121437196Y-71805734D01*
X121444126Y-71808214D01*
X121450780Y-71811361D01*
X121457093Y-71815145D01*
X121463004Y-71819529D01*
X121468458Y-71824472D01*
X121574524Y-71930538D01*
X121579467Y-71935992D01*
X121583851Y-71941903D01*
X121587635Y-71948216D01*
X121590782Y-71954870D01*
X121593262Y-71961800D01*
X121595050Y-71968939D01*
X121596130Y-71976220D01*
X121596491Y-71983571D01*
X121596130Y-71990922D01*
X121595050Y-71998203D01*
X121593262Y-72005342D01*
X121590782Y-72012272D01*
X121587635Y-72018926D01*
X121583851Y-72025239D01*
X121579467Y-72031150D01*
X121574524Y-72036604D01*
X120637608Y-72973520D01*
X120632154Y-72978463D01*
X120626243Y-72982847D01*
X120619930Y-72986631D01*
X120613276Y-72989778D01*
X120606346Y-72992258D01*
X120599207Y-72994046D01*
X120591926Y-72995126D01*
X120584575Y-72995487D01*
X120577224Y-72995126D01*
X120569943Y-72994046D01*
X120562804Y-72992258D01*
X120555874Y-72989778D01*
X120549220Y-72986631D01*
X120542907Y-72982847D01*
X120536996Y-72978463D01*
X120531542Y-72973520D01*
X120425476Y-72867454D01*
X120420533Y-72862000D01*
X120416149Y-72856089D01*
X120412365Y-72849776D01*
X120409218Y-72843122D01*
X120406738Y-72836192D01*
X120404950Y-72829053D01*
X120403870Y-72821772D01*
X120403509Y-72814421D01*
X120403870Y-72807070D01*
X120404950Y-72799789D01*
X120406738Y-72792650D01*
X120409218Y-72785720D01*
X120412365Y-72779066D01*
X120416149Y-72772753D01*
X120420533Y-72766842D01*
X120425476Y-72761388D01*
X121362392Y-71824472D01*
X121367846Y-71819529D01*
X121373757Y-71815145D01*
X121380070Y-71811361D01*
X121386724Y-71808214D01*
X121393654Y-71805734D01*
X121400793Y-71803946D01*
X121408074Y-71802866D01*
X121415425Y-71802505D01*
X121422776Y-71802866D01*
G37*
G36*
X121776329Y-72156419D02*
G01*
X121783610Y-72157499D01*
X121790749Y-72159287D01*
X121797679Y-72161767D01*
X121804333Y-72164914D01*
X121810646Y-72168698D01*
X121816557Y-72173082D01*
X121822011Y-72178025D01*
X121928077Y-72284091D01*
X121933020Y-72289545D01*
X121937404Y-72295456D01*
X121941188Y-72301769D01*
X121944335Y-72308423D01*
X121946815Y-72315353D01*
X121948603Y-72322492D01*
X121949683Y-72329773D01*
X121950044Y-72337124D01*
X121949683Y-72344475D01*
X121948603Y-72351756D01*
X121946815Y-72358895D01*
X121944335Y-72365825D01*
X121941188Y-72372479D01*
X121937404Y-72378792D01*
X121933020Y-72384703D01*
X121928077Y-72390157D01*
X120991161Y-73327073D01*
X120985707Y-73332016D01*
X120979796Y-73336400D01*
X120973483Y-73340184D01*
X120966829Y-73343331D01*
X120959899Y-73345811D01*
X120952760Y-73347599D01*
X120945479Y-73348679D01*
X120938128Y-73349040D01*
X120930777Y-73348679D01*
X120923496Y-73347599D01*
X120916357Y-73345811D01*
X120909427Y-73343331D01*
X120902773Y-73340184D01*
X120896460Y-73336400D01*
X120890549Y-73332016D01*
X120885095Y-73327073D01*
X120779029Y-73221007D01*
X120774086Y-73215553D01*
X120769702Y-73209642D01*
X120765918Y-73203329D01*
X120762771Y-73196675D01*
X120760291Y-73189745D01*
X120758503Y-73182606D01*
X120757423Y-73175325D01*
X120757062Y-73167974D01*
X120757423Y-73160623D01*
X120758503Y-73153342D01*
X120760291Y-73146203D01*
X120762771Y-73139273D01*
X120765918Y-73132619D01*
X120769702Y-73126306D01*
X120774086Y-73120395D01*
X120779029Y-73114941D01*
X121715945Y-72178025D01*
X121721399Y-72173082D01*
X121727310Y-72168698D01*
X121733623Y-72164914D01*
X121740277Y-72161767D01*
X121747207Y-72159287D01*
X121754346Y-72157499D01*
X121761627Y-72156419D01*
X121768978Y-72156058D01*
X121776329Y-72156419D01*
G37*
G36*
X122129883Y-72509973D02*
G01*
X122137164Y-72511053D01*
X122144303Y-72512841D01*
X122151233Y-72515321D01*
X122157887Y-72518468D01*
X122164200Y-72522252D01*
X122170111Y-72526636D01*
X122175565Y-72531579D01*
X122281631Y-72637645D01*
X122286574Y-72643099D01*
X122290958Y-72649010D01*
X122294742Y-72655323D01*
X122297889Y-72661977D01*
X122300369Y-72668907D01*
X122302157Y-72676046D01*
X122303237Y-72683327D01*
X122303598Y-72690678D01*
X122303237Y-72698029D01*
X122302157Y-72705310D01*
X122300369Y-72712449D01*
X122297889Y-72719379D01*
X122294742Y-72726033D01*
X122290958Y-72732346D01*
X122286574Y-72738257D01*
X122281631Y-72743711D01*
X121344715Y-73680627D01*
X121339261Y-73685570D01*
X121333350Y-73689954D01*
X121327037Y-73693738D01*
X121320383Y-73696885D01*
X121313453Y-73699365D01*
X121306314Y-73701153D01*
X121299033Y-73702233D01*
X121291682Y-73702594D01*
X121284331Y-73702233D01*
X121277050Y-73701153D01*
X121269911Y-73699365D01*
X121262981Y-73696885D01*
X121256327Y-73693738D01*
X121250014Y-73689954D01*
X121244103Y-73685570D01*
X121238649Y-73680627D01*
X121132583Y-73574561D01*
X121127640Y-73569107D01*
X121123256Y-73563196D01*
X121119472Y-73556883D01*
X121116325Y-73550229D01*
X121113845Y-73543299D01*
X121112057Y-73536160D01*
X121110977Y-73528879D01*
X121110616Y-73521528D01*
X121110977Y-73514177D01*
X121112057Y-73506896D01*
X121113845Y-73499757D01*
X121116325Y-73492827D01*
X121119472Y-73486173D01*
X121123256Y-73479860D01*
X121127640Y-73473949D01*
X121132583Y-73468495D01*
X122069499Y-72531579D01*
X122074953Y-72526636D01*
X122080864Y-72522252D01*
X122087177Y-72518468D01*
X122093831Y-72515321D01*
X122100761Y-72512841D01*
X122107900Y-72511053D01*
X122115181Y-72509973D01*
X122122532Y-72509612D01*
X122129883Y-72509973D01*
G37*
G36*
X122483436Y-72863526D02*
G01*
X122490717Y-72864606D01*
X122497856Y-72866394D01*
X122504786Y-72868874D01*
X122511440Y-72872021D01*
X122517753Y-72875805D01*
X122523664Y-72880189D01*
X122529118Y-72885132D01*
X122635184Y-72991198D01*
X122640127Y-72996652D01*
X122644511Y-73002563D01*
X122648295Y-73008876D01*
X122651442Y-73015530D01*
X122653922Y-73022460D01*
X122655710Y-73029599D01*
X122656790Y-73036880D01*
X122657151Y-73044231D01*
X122656790Y-73051582D01*
X122655710Y-73058863D01*
X122653922Y-73066002D01*
X122651442Y-73072932D01*
X122648295Y-73079586D01*
X122644511Y-73085899D01*
X122640127Y-73091810D01*
X122635184Y-73097264D01*
X121698268Y-74034180D01*
X121692814Y-74039123D01*
X121686903Y-74043507D01*
X121680590Y-74047291D01*
X121673936Y-74050438D01*
X121667006Y-74052918D01*
X121659867Y-74054706D01*
X121652586Y-74055786D01*
X121645235Y-74056147D01*
X121637884Y-74055786D01*
X121630603Y-74054706D01*
X121623464Y-74052918D01*
X121616534Y-74050438D01*
X121609880Y-74047291D01*
X121603567Y-74043507D01*
X121597656Y-74039123D01*
X121592202Y-74034180D01*
X121486136Y-73928114D01*
X121481193Y-73922660D01*
X121476809Y-73916749D01*
X121473025Y-73910436D01*
X121469878Y-73903782D01*
X121467398Y-73896852D01*
X121465610Y-73889713D01*
X121464530Y-73882432D01*
X121464169Y-73875081D01*
X121464530Y-73867730D01*
X121465610Y-73860449D01*
X121467398Y-73853310D01*
X121469878Y-73846380D01*
X121473025Y-73839726D01*
X121476809Y-73833413D01*
X121481193Y-73827502D01*
X121486136Y-73822048D01*
X122423052Y-72885132D01*
X122428506Y-72880189D01*
X122434417Y-72875805D01*
X122440730Y-72872021D01*
X122447384Y-72868874D01*
X122454314Y-72866394D01*
X122461453Y-72864606D01*
X122468734Y-72863526D01*
X122476085Y-72863165D01*
X122483436Y-72863526D01*
G37*
G36*
X122836990Y-73217080D02*
G01*
X122844271Y-73218160D01*
X122851410Y-73219948D01*
X122858340Y-73222428D01*
X122864994Y-73225575D01*
X122871307Y-73229359D01*
X122877218Y-73233743D01*
X122882672Y-73238686D01*
X122988738Y-73344752D01*
X122993681Y-73350206D01*
X122998065Y-73356117D01*
X123001849Y-73362430D01*
X123004996Y-73369084D01*
X123007476Y-73376014D01*
X123009264Y-73383153D01*
X123010344Y-73390434D01*
X123010705Y-73397785D01*
X123010344Y-73405136D01*
X123009264Y-73412417D01*
X123007476Y-73419556D01*
X123004996Y-73426486D01*
X123001849Y-73433140D01*
X122998065Y-73439453D01*
X122993681Y-73445364D01*
X122988738Y-73450818D01*
X122051822Y-74387734D01*
X122046368Y-74392677D01*
X122040457Y-74397061D01*
X122034144Y-74400845D01*
X122027490Y-74403992D01*
X122020560Y-74406472D01*
X122013421Y-74408260D01*
X122006140Y-74409340D01*
X121998789Y-74409701D01*
X121991438Y-74409340D01*
X121984157Y-74408260D01*
X121977018Y-74406472D01*
X121970088Y-74403992D01*
X121963434Y-74400845D01*
X121957121Y-74397061D01*
X121951210Y-74392677D01*
X121945756Y-74387734D01*
X121839690Y-74281668D01*
X121834747Y-74276214D01*
X121830363Y-74270303D01*
X121826579Y-74263990D01*
X121823432Y-74257336D01*
X121820952Y-74250406D01*
X121819164Y-74243267D01*
X121818084Y-74235986D01*
X121817723Y-74228635D01*
X121818084Y-74221284D01*
X121819164Y-74214003D01*
X121820952Y-74206864D01*
X121823432Y-74199934D01*
X121826579Y-74193280D01*
X121830363Y-74186967D01*
X121834747Y-74181056D01*
X121839690Y-74175602D01*
X122776606Y-73238686D01*
X122782060Y-73233743D01*
X122787971Y-73229359D01*
X122794284Y-73225575D01*
X122800938Y-73222428D01*
X122807868Y-73219948D01*
X122815007Y-73218160D01*
X122822288Y-73217080D01*
X122829639Y-73216719D01*
X122836990Y-73217080D01*
G37*
G36*
X122006140Y-75214656D02*
G01*
X122013421Y-75215736D01*
X122020560Y-75217524D01*
X122027490Y-75220004D01*
X122034144Y-75223151D01*
X122040457Y-75226935D01*
X122046368Y-75231319D01*
X122051822Y-75236262D01*
X122988738Y-76173178D01*
X122993681Y-76178632D01*
X122998065Y-76184543D01*
X123001849Y-76190856D01*
X123004996Y-76197510D01*
X123007476Y-76204440D01*
X123009264Y-76211579D01*
X123010344Y-76218860D01*
X123010705Y-76226211D01*
X123010344Y-76233562D01*
X123009264Y-76240843D01*
X123007476Y-76247982D01*
X123004996Y-76254912D01*
X123001849Y-76261566D01*
X122998065Y-76267879D01*
X122993681Y-76273790D01*
X122988738Y-76279244D01*
X122882672Y-76385310D01*
X122877218Y-76390253D01*
X122871307Y-76394637D01*
X122864994Y-76398421D01*
X122858340Y-76401568D01*
X122851410Y-76404048D01*
X122844271Y-76405836D01*
X122836990Y-76406916D01*
X122829639Y-76407277D01*
X122822288Y-76406916D01*
X122815007Y-76405836D01*
X122807868Y-76404048D01*
X122800938Y-76401568D01*
X122794284Y-76398421D01*
X122787971Y-76394637D01*
X122782060Y-76390253D01*
X122776606Y-76385310D01*
X121839690Y-75448394D01*
X121834747Y-75442940D01*
X121830363Y-75437029D01*
X121826579Y-75430716D01*
X121823432Y-75424062D01*
X121820952Y-75417132D01*
X121819164Y-75409993D01*
X121818084Y-75402712D01*
X121817723Y-75395361D01*
X121818084Y-75388010D01*
X121819164Y-75380729D01*
X121820952Y-75373590D01*
X121823432Y-75366660D01*
X121826579Y-75360006D01*
X121830363Y-75353693D01*
X121834747Y-75347782D01*
X121839690Y-75342328D01*
X121945756Y-75236262D01*
X121951210Y-75231319D01*
X121957121Y-75226935D01*
X121963434Y-75223151D01*
X121970088Y-75220004D01*
X121977018Y-75217524D01*
X121984157Y-75215736D01*
X121991438Y-75214656D01*
X121998789Y-75214295D01*
X122006140Y-75214656D01*
G37*
G36*
X121652586Y-75568210D02*
G01*
X121659867Y-75569290D01*
X121667006Y-75571078D01*
X121673936Y-75573558D01*
X121680590Y-75576705D01*
X121686903Y-75580489D01*
X121692814Y-75584873D01*
X121698268Y-75589816D01*
X122635184Y-76526732D01*
X122640127Y-76532186D01*
X122644511Y-76538097D01*
X122648295Y-76544410D01*
X122651442Y-76551064D01*
X122653922Y-76557994D01*
X122655710Y-76565133D01*
X122656790Y-76572414D01*
X122657151Y-76579765D01*
X122656790Y-76587116D01*
X122655710Y-76594397D01*
X122653922Y-76601536D01*
X122651442Y-76608466D01*
X122648295Y-76615120D01*
X122644511Y-76621433D01*
X122640127Y-76627344D01*
X122635184Y-76632798D01*
X122529118Y-76738864D01*
X122523664Y-76743807D01*
X122517753Y-76748191D01*
X122511440Y-76751975D01*
X122504786Y-76755122D01*
X122497856Y-76757602D01*
X122490717Y-76759390D01*
X122483436Y-76760470D01*
X122476085Y-76760831D01*
X122468734Y-76760470D01*
X122461453Y-76759390D01*
X122454314Y-76757602D01*
X122447384Y-76755122D01*
X122440730Y-76751975D01*
X122434417Y-76748191D01*
X122428506Y-76743807D01*
X122423052Y-76738864D01*
X121486136Y-75801948D01*
X121481193Y-75796494D01*
X121476809Y-75790583D01*
X121473025Y-75784270D01*
X121469878Y-75777616D01*
X121467398Y-75770686D01*
X121465610Y-75763547D01*
X121464530Y-75756266D01*
X121464169Y-75748915D01*
X121464530Y-75741564D01*
X121465610Y-75734283D01*
X121467398Y-75727144D01*
X121469878Y-75720214D01*
X121473025Y-75713560D01*
X121476809Y-75707247D01*
X121481193Y-75701336D01*
X121486136Y-75695882D01*
X121592202Y-75589816D01*
X121597656Y-75584873D01*
X121603567Y-75580489D01*
X121609880Y-75576705D01*
X121616534Y-75573558D01*
X121623464Y-75571078D01*
X121630603Y-75569290D01*
X121637884Y-75568210D01*
X121645235Y-75567849D01*
X121652586Y-75568210D01*
G37*
G36*
X121299033Y-75921763D02*
G01*
X121306314Y-75922843D01*
X121313453Y-75924631D01*
X121320383Y-75927111D01*
X121327037Y-75930258D01*
X121333350Y-75934042D01*
X121339261Y-75938426D01*
X121344715Y-75943369D01*
X122281631Y-76880285D01*
X122286574Y-76885739D01*
X122290958Y-76891650D01*
X122294742Y-76897963D01*
X122297889Y-76904617D01*
X122300369Y-76911547D01*
X122302157Y-76918686D01*
X122303237Y-76925967D01*
X122303598Y-76933318D01*
X122303237Y-76940669D01*
X122302157Y-76947950D01*
X122300369Y-76955089D01*
X122297889Y-76962019D01*
X122294742Y-76968673D01*
X122290958Y-76974986D01*
X122286574Y-76980897D01*
X122281631Y-76986351D01*
X122175565Y-77092417D01*
X122170111Y-77097360D01*
X122164200Y-77101744D01*
X122157887Y-77105528D01*
X122151233Y-77108675D01*
X122144303Y-77111155D01*
X122137164Y-77112943D01*
X122129883Y-77114023D01*
X122122532Y-77114384D01*
X122115181Y-77114023D01*
X122107900Y-77112943D01*
X122100761Y-77111155D01*
X122093831Y-77108675D01*
X122087177Y-77105528D01*
X122080864Y-77101744D01*
X122074953Y-77097360D01*
X122069499Y-77092417D01*
X121132583Y-76155501D01*
X121127640Y-76150047D01*
X121123256Y-76144136D01*
X121119472Y-76137823D01*
X121116325Y-76131169D01*
X121113845Y-76124239D01*
X121112057Y-76117100D01*
X121110977Y-76109819D01*
X121110616Y-76102468D01*
X121110977Y-76095117D01*
X121112057Y-76087836D01*
X121113845Y-76080697D01*
X121116325Y-76073767D01*
X121119472Y-76067113D01*
X121123256Y-76060800D01*
X121127640Y-76054889D01*
X121132583Y-76049435D01*
X121238649Y-75943369D01*
X121244103Y-75938426D01*
X121250014Y-75934042D01*
X121256327Y-75930258D01*
X121262981Y-75927111D01*
X121269911Y-75924631D01*
X121277050Y-75922843D01*
X121284331Y-75921763D01*
X121291682Y-75921402D01*
X121299033Y-75921763D01*
G37*
G36*
X120945479Y-76275317D02*
G01*
X120952760Y-76276397D01*
X120959899Y-76278185D01*
X120966829Y-76280665D01*
X120973483Y-76283812D01*
X120979796Y-76287596D01*
X120985707Y-76291980D01*
X120991161Y-76296923D01*
X121928077Y-77233839D01*
X121933020Y-77239293D01*
X121937404Y-77245204D01*
X121941188Y-77251517D01*
X121944335Y-77258171D01*
X121946815Y-77265101D01*
X121948603Y-77272240D01*
X121949683Y-77279521D01*
X121950044Y-77286872D01*
X121949683Y-77294223D01*
X121948603Y-77301504D01*
X121946815Y-77308643D01*
X121944335Y-77315573D01*
X121941188Y-77322227D01*
X121937404Y-77328540D01*
X121933020Y-77334451D01*
X121928077Y-77339905D01*
X121822011Y-77445971D01*
X121816557Y-77450914D01*
X121810646Y-77455298D01*
X121804333Y-77459082D01*
X121797679Y-77462229D01*
X121790749Y-77464709D01*
X121783610Y-77466497D01*
X121776329Y-77467577D01*
X121768978Y-77467938D01*
X121761627Y-77467577D01*
X121754346Y-77466497D01*
X121747207Y-77464709D01*
X121740277Y-77462229D01*
X121733623Y-77459082D01*
X121727310Y-77455298D01*
X121721399Y-77450914D01*
X121715945Y-77445971D01*
X120779029Y-76509055D01*
X120774086Y-76503601D01*
X120769702Y-76497690D01*
X120765918Y-76491377D01*
X120762771Y-76484723D01*
X120760291Y-76477793D01*
X120758503Y-76470654D01*
X120757423Y-76463373D01*
X120757062Y-76456022D01*
X120757423Y-76448671D01*
X120758503Y-76441390D01*
X120760291Y-76434251D01*
X120762771Y-76427321D01*
X120765918Y-76420667D01*
X120769702Y-76414354D01*
X120774086Y-76408443D01*
X120779029Y-76402989D01*
X120885095Y-76296923D01*
X120890549Y-76291980D01*
X120896460Y-76287596D01*
X120902773Y-76283812D01*
X120909427Y-76280665D01*
X120916357Y-76278185D01*
X120923496Y-76276397D01*
X120930777Y-76275317D01*
X120938128Y-76274956D01*
X120945479Y-76275317D01*
G37*
G36*
X120591926Y-76628870D02*
G01*
X120599207Y-76629950D01*
X120606346Y-76631738D01*
X120613276Y-76634218D01*
X120619930Y-76637365D01*
X120626243Y-76641149D01*
X120632154Y-76645533D01*
X120637608Y-76650476D01*
X121574524Y-77587392D01*
X121579467Y-77592846D01*
X121583851Y-77598757D01*
X121587635Y-77605070D01*
X121590782Y-77611724D01*
X121593262Y-77618654D01*
X121595050Y-77625793D01*
X121596130Y-77633074D01*
X121596491Y-77640425D01*
X121596130Y-77647776D01*
X121595050Y-77655057D01*
X121593262Y-77662196D01*
X121590782Y-77669126D01*
X121587635Y-77675780D01*
X121583851Y-77682093D01*
X121579467Y-77688004D01*
X121574524Y-77693458D01*
X121468458Y-77799524D01*
X121463004Y-77804467D01*
X121457093Y-77808851D01*
X121450780Y-77812635D01*
X121444126Y-77815782D01*
X121437196Y-77818262D01*
X121430057Y-77820050D01*
X121422776Y-77821130D01*
X121415425Y-77821491D01*
X121408074Y-77821130D01*
X121400793Y-77820050D01*
X121393654Y-77818262D01*
X121386724Y-77815782D01*
X121380070Y-77812635D01*
X121373757Y-77808851D01*
X121367846Y-77804467D01*
X121362392Y-77799524D01*
X120425476Y-76862608D01*
X120420533Y-76857154D01*
X120416149Y-76851243D01*
X120412365Y-76844930D01*
X120409218Y-76838276D01*
X120406738Y-76831346D01*
X120404950Y-76824207D01*
X120403870Y-76816926D01*
X120403509Y-76809575D01*
X120403870Y-76802224D01*
X120404950Y-76794943D01*
X120406738Y-76787804D01*
X120409218Y-76780874D01*
X120412365Y-76774220D01*
X120416149Y-76767907D01*
X120420533Y-76761996D01*
X120425476Y-76756542D01*
X120531542Y-76650476D01*
X120536996Y-76645533D01*
X120542907Y-76641149D01*
X120549220Y-76637365D01*
X120555874Y-76634218D01*
X120562804Y-76631738D01*
X120569943Y-76629950D01*
X120577224Y-76628870D01*
X120584575Y-76628509D01*
X120591926Y-76628870D01*
G37*
G36*
X120238373Y-76982423D02*
G01*
X120245654Y-76983503D01*
X120252793Y-76985291D01*
X120259723Y-76987771D01*
X120266377Y-76990918D01*
X120272690Y-76994702D01*
X120278601Y-76999086D01*
X120284055Y-77004029D01*
X121220971Y-77940945D01*
X121225914Y-77946399D01*
X121230298Y-77952310D01*
X121234082Y-77958623D01*
X121237229Y-77965277D01*
X121239709Y-77972207D01*
X121241497Y-77979346D01*
X121242577Y-77986627D01*
X121242938Y-77993978D01*
X121242577Y-78001329D01*
X121241497Y-78008610D01*
X121239709Y-78015749D01*
X121237229Y-78022679D01*
X121234082Y-78029333D01*
X121230298Y-78035646D01*
X121225914Y-78041557D01*
X121220971Y-78047011D01*
X121114905Y-78153077D01*
X121109451Y-78158020D01*
X121103540Y-78162404D01*
X121097227Y-78166188D01*
X121090573Y-78169335D01*
X121083643Y-78171815D01*
X121076504Y-78173603D01*
X121069223Y-78174683D01*
X121061872Y-78175044D01*
X121054521Y-78174683D01*
X121047240Y-78173603D01*
X121040101Y-78171815D01*
X121033171Y-78169335D01*
X121026517Y-78166188D01*
X121020204Y-78162404D01*
X121014293Y-78158020D01*
X121008839Y-78153077D01*
X120071923Y-77216161D01*
X120066980Y-77210707D01*
X120062596Y-77204796D01*
X120058812Y-77198483D01*
X120055665Y-77191829D01*
X120053185Y-77184899D01*
X120051397Y-77177760D01*
X120050317Y-77170479D01*
X120049956Y-77163128D01*
X120050317Y-77155777D01*
X120051397Y-77148496D01*
X120053185Y-77141357D01*
X120055665Y-77134427D01*
X120058812Y-77127773D01*
X120062596Y-77121460D01*
X120066980Y-77115549D01*
X120071923Y-77110095D01*
X120177989Y-77004029D01*
X120183443Y-76999086D01*
X120189354Y-76994702D01*
X120195667Y-76990918D01*
X120202321Y-76987771D01*
X120209251Y-76985291D01*
X120216390Y-76983503D01*
X120223671Y-76982423D01*
X120231022Y-76982062D01*
X120238373Y-76982423D01*
G37*
G36*
X119884819Y-77335977D02*
G01*
X119892100Y-77337057D01*
X119899239Y-77338845D01*
X119906169Y-77341325D01*
X119912823Y-77344472D01*
X119919136Y-77348256D01*
X119925047Y-77352640D01*
X119930501Y-77357583D01*
X120867417Y-78294499D01*
X120872360Y-78299953D01*
X120876744Y-78305864D01*
X120880528Y-78312177D01*
X120883675Y-78318831D01*
X120886155Y-78325761D01*
X120887943Y-78332900D01*
X120889023Y-78340181D01*
X120889384Y-78347532D01*
X120889023Y-78354883D01*
X120887943Y-78362164D01*
X120886155Y-78369303D01*
X120883675Y-78376233D01*
X120880528Y-78382887D01*
X120876744Y-78389200D01*
X120872360Y-78395111D01*
X120867417Y-78400565D01*
X120761351Y-78506631D01*
X120755897Y-78511574D01*
X120749986Y-78515958D01*
X120743673Y-78519742D01*
X120737019Y-78522889D01*
X120730089Y-78525369D01*
X120722950Y-78527157D01*
X120715669Y-78528237D01*
X120708318Y-78528598D01*
X120700967Y-78528237D01*
X120693686Y-78527157D01*
X120686547Y-78525369D01*
X120679617Y-78522889D01*
X120672963Y-78519742D01*
X120666650Y-78515958D01*
X120660739Y-78511574D01*
X120655285Y-78506631D01*
X119718369Y-77569715D01*
X119713426Y-77564261D01*
X119709042Y-77558350D01*
X119705258Y-77552037D01*
X119702111Y-77545383D01*
X119699631Y-77538453D01*
X119697843Y-77531314D01*
X119696763Y-77524033D01*
X119696402Y-77516682D01*
X119696763Y-77509331D01*
X119697843Y-77502050D01*
X119699631Y-77494911D01*
X119702111Y-77487981D01*
X119705258Y-77481327D01*
X119709042Y-77475014D01*
X119713426Y-77469103D01*
X119718369Y-77463649D01*
X119824435Y-77357583D01*
X119829889Y-77352640D01*
X119835800Y-77348256D01*
X119842113Y-77344472D01*
X119848767Y-77341325D01*
X119855697Y-77338845D01*
X119862836Y-77337057D01*
X119870117Y-77335977D01*
X119877468Y-77335616D01*
X119884819Y-77335977D01*
G37*
G36*
X119531266Y-77689530D02*
G01*
X119538547Y-77690610D01*
X119545686Y-77692398D01*
X119552616Y-77694878D01*
X119559270Y-77698025D01*
X119565583Y-77701809D01*
X119571494Y-77706193D01*
X119576948Y-77711136D01*
X120513864Y-78648052D01*
X120518807Y-78653506D01*
X120523191Y-78659417D01*
X120526975Y-78665730D01*
X120530122Y-78672384D01*
X120532602Y-78679314D01*
X120534390Y-78686453D01*
X120535470Y-78693734D01*
X120535831Y-78701085D01*
X120535470Y-78708436D01*
X120534390Y-78715717D01*
X120532602Y-78722856D01*
X120530122Y-78729786D01*
X120526975Y-78736440D01*
X120523191Y-78742753D01*
X120518807Y-78748664D01*
X120513864Y-78754118D01*
X120407798Y-78860184D01*
X120402344Y-78865127D01*
X120396433Y-78869511D01*
X120390120Y-78873295D01*
X120383466Y-78876442D01*
X120376536Y-78878922D01*
X120369397Y-78880710D01*
X120362116Y-78881790D01*
X120354765Y-78882151D01*
X120347414Y-78881790D01*
X120340133Y-78880710D01*
X120332994Y-78878922D01*
X120326064Y-78876442D01*
X120319410Y-78873295D01*
X120313097Y-78869511D01*
X120307186Y-78865127D01*
X120301732Y-78860184D01*
X119364816Y-77923268D01*
X119359873Y-77917814D01*
X119355489Y-77911903D01*
X119351705Y-77905590D01*
X119348558Y-77898936D01*
X119346078Y-77892006D01*
X119344290Y-77884867D01*
X119343210Y-77877586D01*
X119342849Y-77870235D01*
X119343210Y-77862884D01*
X119344290Y-77855603D01*
X119346078Y-77848464D01*
X119348558Y-77841534D01*
X119351705Y-77834880D01*
X119355489Y-77828567D01*
X119359873Y-77822656D01*
X119364816Y-77817202D01*
X119470882Y-77711136D01*
X119476336Y-77706193D01*
X119482247Y-77701809D01*
X119488560Y-77698025D01*
X119495214Y-77694878D01*
X119502144Y-77692398D01*
X119509283Y-77690610D01*
X119516564Y-77689530D01*
X119523915Y-77689169D01*
X119531266Y-77689530D01*
G37*
G36*
X119177713Y-78043083D02*
G01*
X119184994Y-78044163D01*
X119192133Y-78045951D01*
X119199063Y-78048431D01*
X119205717Y-78051578D01*
X119212030Y-78055362D01*
X119217941Y-78059746D01*
X119223395Y-78064689D01*
X120160311Y-79001605D01*
X120165254Y-79007059D01*
X120169638Y-79012970D01*
X120173422Y-79019283D01*
X120176569Y-79025937D01*
X120179049Y-79032867D01*
X120180837Y-79040006D01*
X120181917Y-79047287D01*
X120182278Y-79054638D01*
X120181917Y-79061989D01*
X120180837Y-79069270D01*
X120179049Y-79076409D01*
X120176569Y-79083339D01*
X120173422Y-79089993D01*
X120169638Y-79096306D01*
X120165254Y-79102217D01*
X120160311Y-79107671D01*
X120054245Y-79213737D01*
X120048791Y-79218680D01*
X120042880Y-79223064D01*
X120036567Y-79226848D01*
X120029913Y-79229995D01*
X120022983Y-79232475D01*
X120015844Y-79234263D01*
X120008563Y-79235343D01*
X120001212Y-79235704D01*
X119993861Y-79235343D01*
X119986580Y-79234263D01*
X119979441Y-79232475D01*
X119972511Y-79229995D01*
X119965857Y-79226848D01*
X119959544Y-79223064D01*
X119953633Y-79218680D01*
X119948179Y-79213737D01*
X119011263Y-78276821D01*
X119006320Y-78271367D01*
X119001936Y-78265456D01*
X118998152Y-78259143D01*
X118995005Y-78252489D01*
X118992525Y-78245559D01*
X118990737Y-78238420D01*
X118989657Y-78231139D01*
X118989296Y-78223788D01*
X118989657Y-78216437D01*
X118990737Y-78209156D01*
X118992525Y-78202017D01*
X118995005Y-78195087D01*
X118998152Y-78188433D01*
X119001936Y-78182120D01*
X119006320Y-78176209D01*
X119011263Y-78170755D01*
X119117329Y-78064689D01*
X119122783Y-78059746D01*
X119128694Y-78055362D01*
X119135007Y-78051578D01*
X119141661Y-78048431D01*
X119148591Y-78045951D01*
X119155730Y-78044163D01*
X119163011Y-78043083D01*
X119170362Y-78042722D01*
X119177713Y-78043083D01*
G37*
G36*
X118824159Y-78396637D02*
G01*
X118831440Y-78397717D01*
X118838579Y-78399505D01*
X118845509Y-78401985D01*
X118852163Y-78405132D01*
X118858476Y-78408916D01*
X118864387Y-78413300D01*
X118869841Y-78418243D01*
X119806757Y-79355159D01*
X119811700Y-79360613D01*
X119816084Y-79366524D01*
X119819868Y-79372837D01*
X119823015Y-79379491D01*
X119825495Y-79386421D01*
X119827283Y-79393560D01*
X119828363Y-79400841D01*
X119828724Y-79408192D01*
X119828363Y-79415543D01*
X119827283Y-79422824D01*
X119825495Y-79429963D01*
X119823015Y-79436893D01*
X119819868Y-79443547D01*
X119816084Y-79449860D01*
X119811700Y-79455771D01*
X119806757Y-79461225D01*
X119700691Y-79567291D01*
X119695237Y-79572234D01*
X119689326Y-79576618D01*
X119683013Y-79580402D01*
X119676359Y-79583549D01*
X119669429Y-79586029D01*
X119662290Y-79587817D01*
X119655009Y-79588897D01*
X119647658Y-79589258D01*
X119640307Y-79588897D01*
X119633026Y-79587817D01*
X119625887Y-79586029D01*
X119618957Y-79583549D01*
X119612303Y-79580402D01*
X119605990Y-79576618D01*
X119600079Y-79572234D01*
X119594625Y-79567291D01*
X118657709Y-78630375D01*
X118652766Y-78624921D01*
X118648382Y-78619010D01*
X118644598Y-78612697D01*
X118641451Y-78606043D01*
X118638971Y-78599113D01*
X118637183Y-78591974D01*
X118636103Y-78584693D01*
X118635742Y-78577342D01*
X118636103Y-78569991D01*
X118637183Y-78562710D01*
X118638971Y-78555571D01*
X118641451Y-78548641D01*
X118644598Y-78541987D01*
X118648382Y-78535674D01*
X118652766Y-78529763D01*
X118657709Y-78524309D01*
X118763775Y-78418243D01*
X118769229Y-78413300D01*
X118775140Y-78408916D01*
X118781453Y-78405132D01*
X118788107Y-78401985D01*
X118795037Y-78399505D01*
X118802176Y-78397717D01*
X118809457Y-78396637D01*
X118816808Y-78396276D01*
X118824159Y-78396637D01*
G37*
G36*
X118470606Y-78750190D02*
G01*
X118477887Y-78751270D01*
X118485026Y-78753058D01*
X118491956Y-78755538D01*
X118498610Y-78758685D01*
X118504923Y-78762469D01*
X118510834Y-78766853D01*
X118516288Y-78771796D01*
X119453204Y-79708712D01*
X119458147Y-79714166D01*
X119462531Y-79720077D01*
X119466315Y-79726390D01*
X119469462Y-79733044D01*
X119471942Y-79739974D01*
X119473730Y-79747113D01*
X119474810Y-79754394D01*
X119475171Y-79761745D01*
X119474810Y-79769096D01*
X119473730Y-79776377D01*
X119471942Y-79783516D01*
X119469462Y-79790446D01*
X119466315Y-79797100D01*
X119462531Y-79803413D01*
X119458147Y-79809324D01*
X119453204Y-79814778D01*
X119347138Y-79920844D01*
X119341684Y-79925787D01*
X119335773Y-79930171D01*
X119329460Y-79933955D01*
X119322806Y-79937102D01*
X119315876Y-79939582D01*
X119308737Y-79941370D01*
X119301456Y-79942450D01*
X119294105Y-79942811D01*
X119286754Y-79942450D01*
X119279473Y-79941370D01*
X119272334Y-79939582D01*
X119265404Y-79937102D01*
X119258750Y-79933955D01*
X119252437Y-79930171D01*
X119246526Y-79925787D01*
X119241072Y-79920844D01*
X118304156Y-78983928D01*
X118299213Y-78978474D01*
X118294829Y-78972563D01*
X118291045Y-78966250D01*
X118287898Y-78959596D01*
X118285418Y-78952666D01*
X118283630Y-78945527D01*
X118282550Y-78938246D01*
X118282189Y-78930895D01*
X118282550Y-78923544D01*
X118283630Y-78916263D01*
X118285418Y-78909124D01*
X118287898Y-78902194D01*
X118291045Y-78895540D01*
X118294829Y-78889227D01*
X118299213Y-78883316D01*
X118304156Y-78877862D01*
X118410222Y-78771796D01*
X118415676Y-78766853D01*
X118421587Y-78762469D01*
X118427900Y-78758685D01*
X118434554Y-78755538D01*
X118441484Y-78753058D01*
X118448623Y-78751270D01*
X118455904Y-78750190D01*
X118463255Y-78749829D01*
X118470606Y-78750190D01*
G37*
G36*
X118117052Y-79103744D02*
G01*
X118124333Y-79104824D01*
X118131472Y-79106612D01*
X118138402Y-79109092D01*
X118145056Y-79112239D01*
X118151369Y-79116023D01*
X118157280Y-79120407D01*
X118162734Y-79125350D01*
X119099650Y-80062266D01*
X119104593Y-80067720D01*
X119108977Y-80073631D01*
X119112761Y-80079944D01*
X119115908Y-80086598D01*
X119118388Y-80093528D01*
X119120176Y-80100667D01*
X119121256Y-80107948D01*
X119121617Y-80115299D01*
X119121256Y-80122650D01*
X119120176Y-80129931D01*
X119118388Y-80137070D01*
X119115908Y-80144000D01*
X119112761Y-80150654D01*
X119108977Y-80156967D01*
X119104593Y-80162878D01*
X119099650Y-80168332D01*
X118993584Y-80274398D01*
X118988130Y-80279341D01*
X118982219Y-80283725D01*
X118975906Y-80287509D01*
X118969252Y-80290656D01*
X118962322Y-80293136D01*
X118955183Y-80294924D01*
X118947902Y-80296004D01*
X118940551Y-80296365D01*
X118933200Y-80296004D01*
X118925919Y-80294924D01*
X118918780Y-80293136D01*
X118911850Y-80290656D01*
X118905196Y-80287509D01*
X118898883Y-80283725D01*
X118892972Y-80279341D01*
X118887518Y-80274398D01*
X117950602Y-79337482D01*
X117945659Y-79332028D01*
X117941275Y-79326117D01*
X117937491Y-79319804D01*
X117934344Y-79313150D01*
X117931864Y-79306220D01*
X117930076Y-79299081D01*
X117928996Y-79291800D01*
X117928635Y-79284449D01*
X117928996Y-79277098D01*
X117930076Y-79269817D01*
X117931864Y-79262678D01*
X117934344Y-79255748D01*
X117937491Y-79249094D01*
X117941275Y-79242781D01*
X117945659Y-79236870D01*
X117950602Y-79231416D01*
X118056668Y-79125350D01*
X118062122Y-79120407D01*
X118068033Y-79116023D01*
X118074346Y-79112239D01*
X118081000Y-79109092D01*
X118087930Y-79106612D01*
X118095069Y-79104824D01*
X118102350Y-79103744D01*
X118109701Y-79103383D01*
X118117052Y-79103744D01*
G37*
D23*
X85200000Y-64800000D03*
X85200000Y-66700000D03*
X87900000Y-66700000D03*
X87900000Y-65750000D03*
X87900000Y-64800000D03*
D24*
X118525000Y-56920000D03*
X119025000Y-56920000D03*
X119525000Y-56920000D03*
X118025000Y-56920000D03*
X120025000Y-56920000D03*
X117525000Y-56920000D03*
X120525000Y-56920000D03*
X117025000Y-56920000D03*
D25*
X116325000Y-56920000D03*
X121225000Y-56920000D03*
X115550000Y-56920000D03*
X122000000Y-56920000D03*
M02*
