G04 #@! TF.GenerationSoftware,KiCad,Pcbnew,(5.1.5)-3*
G04 #@! TF.CreationDate,2020-04-09T07:49:00+02:00*
G04 #@! TF.ProjectId,NumPad,4e756d50-6164-42e6-9b69-6361645f7063,rev?*
G04 #@! TF.SameCoordinates,Original*
G04 #@! TF.FileFunction,Legend,Bot*
G04 #@! TF.FilePolarity,Positive*
%FSLAX46Y46*%
G04 Gerber Fmt 4.6, Leading zero omitted, Abs format (unit mm)*
G04 Created by KiCad (PCBNEW (5.1.5)-3) date 2020-04-09 07:49:00*
%MOMM*%
%LPD*%
G04 APERTURE LIST*
%ADD10C,0.120000*%
%ADD11C,0.150000*%
G04 APERTURE END LIST*
D10*
X109750000Y-52850000D02*
X109750000Y-57300000D01*
X109750000Y-58700000D02*
X109750000Y-61000000D01*
X109750000Y-62400000D02*
X109750000Y-63120000D01*
X109750000Y-63120000D02*
X107070000Y-63120000D01*
X104770000Y-63120000D02*
X101100000Y-63120000D01*
X98800000Y-63120000D02*
X97570000Y-63120000D01*
X97570000Y-63120000D02*
X97570000Y-53300000D01*
X108270000Y-51480000D02*
X107410000Y-51480000D01*
X63186267Y-83460000D02*
X62843733Y-83460000D01*
X63186267Y-84480000D02*
X62843733Y-84480000D01*
X91249721Y-60840000D02*
X91575279Y-60840000D01*
X91249721Y-61860000D02*
X91575279Y-61860000D01*
D11*
X118275000Y-60950000D02*
X118275000Y-63850000D01*
X118275000Y-60950000D02*
X119575000Y-60950000D01*
X119575000Y-60950000D02*
X119575000Y-63850000D01*
X119575000Y-63850000D02*
X118275000Y-63850000D01*
X85050000Y-175725000D02*
X85050000Y-176025000D01*
X85050000Y-176025000D02*
X85350000Y-175725000D01*
X85350000Y-175725000D02*
X85050000Y-175725000D01*
X85050000Y-156675000D02*
X85050000Y-156975000D01*
X85050000Y-156975000D02*
X85350000Y-156675000D01*
X85350000Y-156675000D02*
X85050000Y-156675000D01*
X85050000Y-137625000D02*
X85050000Y-137925000D01*
X85050000Y-137925000D02*
X85350000Y-137625000D01*
X85350000Y-137625000D02*
X85050000Y-137625000D01*
X85050000Y-118575000D02*
X85050000Y-118875000D01*
X85050000Y-118875000D02*
X85350000Y-118575000D01*
X85350000Y-118575000D02*
X85050000Y-118575000D01*
X85050000Y-99525000D02*
X85050000Y-99825000D01*
X85050000Y-99825000D02*
X85350000Y-99525000D01*
X85350000Y-99525000D02*
X85050000Y-99525000D01*
X85050000Y-80475000D02*
X85050000Y-80775000D01*
X85050000Y-80775000D02*
X85350000Y-80475000D01*
X85350000Y-80475000D02*
X85050000Y-80475000D01*
X66000000Y-175725000D02*
X66000000Y-176025000D01*
X66000000Y-176025000D02*
X66300000Y-175725000D01*
X66300000Y-175725000D02*
X66000000Y-175725000D01*
X66000000Y-156675000D02*
X66000000Y-156975000D01*
X66000000Y-156975000D02*
X66300000Y-156675000D01*
X66300000Y-156675000D02*
X66000000Y-156675000D01*
X66000000Y-137625000D02*
X66000000Y-137925000D01*
X66000000Y-137925000D02*
X66300000Y-137625000D01*
X66300000Y-137625000D02*
X66000000Y-137625000D01*
X66000000Y-118575000D02*
X66000000Y-118875000D01*
X66000000Y-118875000D02*
X66300000Y-118575000D01*
X66300000Y-118575000D02*
X66000000Y-118575000D01*
X66000000Y-99525000D02*
X66000000Y-99825000D01*
X66000000Y-99825000D02*
X66300000Y-99525000D01*
X66300000Y-99525000D02*
X66000000Y-99525000D01*
X66000000Y-80475000D02*
X66000000Y-80775000D01*
X66000000Y-80775000D02*
X66300000Y-80475000D01*
X66300000Y-80475000D02*
X66000000Y-80475000D01*
X46950000Y-175725000D02*
X46950000Y-176025000D01*
X46950000Y-176025000D02*
X47250000Y-175725000D01*
X47250000Y-175725000D02*
X46950000Y-175725000D01*
X46950000Y-156675000D02*
X46950000Y-156975000D01*
X46950000Y-156975000D02*
X47250000Y-156675000D01*
X47250000Y-156675000D02*
X46950000Y-156675000D01*
X46950000Y-137625000D02*
X46950000Y-137925000D01*
X46950000Y-137925000D02*
X47250000Y-137625000D01*
X47250000Y-137625000D02*
X46950000Y-137625000D01*
X46950000Y-118575000D02*
X46950000Y-118875000D01*
X46950000Y-118875000D02*
X47250000Y-118575000D01*
X47250000Y-118575000D02*
X46950000Y-118575000D01*
X46950000Y-99525000D02*
X46950000Y-99825000D01*
X46950000Y-99825000D02*
X47250000Y-99525000D01*
X47250000Y-99525000D02*
X46950000Y-99525000D01*
X46950000Y-80475000D02*
X46950000Y-80775000D01*
X46950000Y-80775000D02*
X47250000Y-80475000D01*
X47250000Y-80475000D02*
X46950000Y-80475000D01*
X27900000Y-175725000D02*
X27900000Y-176025000D01*
X27900000Y-176025000D02*
X28200000Y-175725000D01*
X28200000Y-175725000D02*
X27900000Y-175725000D01*
X27900000Y-156675000D02*
X27900000Y-156975000D01*
X27900000Y-156975000D02*
X28200000Y-156675000D01*
X28200000Y-156675000D02*
X27900000Y-156675000D01*
X27900000Y-137625000D02*
X27900000Y-137925000D01*
X27900000Y-137925000D02*
X28200000Y-137625000D01*
X28200000Y-137625000D02*
X27900000Y-137625000D01*
X27900000Y-118575000D02*
X27900000Y-118875000D01*
X27900000Y-118875000D02*
X28200000Y-118575000D01*
X28200000Y-118575000D02*
X27900000Y-118575000D01*
X27900000Y-99525000D02*
X27900000Y-99825000D01*
X27900000Y-99825000D02*
X28200000Y-99525000D01*
X28200000Y-99525000D02*
X27900000Y-99525000D01*
X27900000Y-80475000D02*
X27900000Y-80775000D01*
X27900000Y-80775000D02*
X28200000Y-80475000D01*
X28200000Y-80475000D02*
X27900000Y-80475000D01*
D10*
X97640000Y-173820000D02*
X95640000Y-173820000D01*
X95640000Y-173820000D02*
X95640000Y-169920000D01*
X97640000Y-173820000D02*
X97640000Y-169920000D01*
X78590000Y-173820000D02*
X76590000Y-173820000D01*
X76590000Y-173820000D02*
X76590000Y-169920000D01*
X78590000Y-173820000D02*
X78590000Y-169920000D01*
X59540000Y-173820000D02*
X57540000Y-173820000D01*
X57540000Y-173820000D02*
X57540000Y-169920000D01*
X59540000Y-173820000D02*
X59540000Y-169920000D01*
X40490000Y-173820000D02*
X38490000Y-173820000D01*
X38490000Y-173820000D02*
X38490000Y-169920000D01*
X40490000Y-173820000D02*
X40490000Y-169920000D01*
X97640000Y-154770000D02*
X95640000Y-154770000D01*
X95640000Y-154770000D02*
X95640000Y-150870000D01*
X97640000Y-154770000D02*
X97640000Y-150870000D01*
X78590000Y-154770000D02*
X76590000Y-154770000D01*
X76590000Y-154770000D02*
X76590000Y-150870000D01*
X78590000Y-154770000D02*
X78590000Y-150870000D01*
X59540000Y-154770000D02*
X57540000Y-154770000D01*
X57540000Y-154770000D02*
X57540000Y-150870000D01*
X59540000Y-154770000D02*
X59540000Y-150870000D01*
X40490000Y-154770000D02*
X38490000Y-154770000D01*
X38490000Y-154770000D02*
X38490000Y-150870000D01*
X40490000Y-154770000D02*
X40490000Y-150870000D01*
X97640000Y-135720000D02*
X95640000Y-135720000D01*
X95640000Y-135720000D02*
X95640000Y-131820000D01*
X97640000Y-135720000D02*
X97640000Y-131820000D01*
X78590000Y-135720000D02*
X76590000Y-135720000D01*
X76590000Y-135720000D02*
X76590000Y-131820000D01*
X78590000Y-135720000D02*
X78590000Y-131820000D01*
X59540000Y-135720000D02*
X57540000Y-135720000D01*
X57540000Y-135720000D02*
X57540000Y-131820000D01*
X59540000Y-135720000D02*
X59540000Y-131820000D01*
X40490000Y-135720000D02*
X38490000Y-135720000D01*
X38490000Y-135720000D02*
X38490000Y-131820000D01*
X40490000Y-135720000D02*
X40490000Y-131820000D01*
X97640000Y-116670000D02*
X95640000Y-116670000D01*
X95640000Y-116670000D02*
X95640000Y-112770000D01*
X97640000Y-116670000D02*
X97640000Y-112770000D01*
X78590000Y-116670000D02*
X76590000Y-116670000D01*
X76590000Y-116670000D02*
X76590000Y-112770000D01*
X78590000Y-116670000D02*
X78590000Y-112770000D01*
X59540000Y-116670000D02*
X57540000Y-116670000D01*
X57540000Y-116670000D02*
X57540000Y-112770000D01*
X59540000Y-116670000D02*
X59540000Y-112770000D01*
X40490000Y-116670000D02*
X38490000Y-116670000D01*
X38490000Y-116670000D02*
X38490000Y-112770000D01*
X40490000Y-116670000D02*
X40490000Y-112770000D01*
X97640000Y-97620000D02*
X95640000Y-97620000D01*
X95640000Y-97620000D02*
X95640000Y-93720000D01*
X97640000Y-97620000D02*
X97640000Y-93720000D01*
X78590000Y-97620000D02*
X76590000Y-97620000D01*
X76590000Y-97620000D02*
X76590000Y-93720000D01*
X78590000Y-97620000D02*
X78590000Y-93720000D01*
X59540000Y-97620000D02*
X57540000Y-97620000D01*
X57540000Y-97620000D02*
X57540000Y-93720000D01*
X59540000Y-97620000D02*
X59540000Y-93720000D01*
X40490000Y-97620000D02*
X38490000Y-97620000D01*
X38490000Y-97620000D02*
X38490000Y-93720000D01*
X40490000Y-97620000D02*
X40490000Y-93720000D01*
X97640000Y-78570000D02*
X95640000Y-78570000D01*
X95640000Y-78570000D02*
X95640000Y-74670000D01*
X97640000Y-78570000D02*
X97640000Y-74670000D01*
X78590000Y-78570000D02*
X76590000Y-78570000D01*
X76590000Y-78570000D02*
X76590000Y-74670000D01*
X78590000Y-78570000D02*
X78590000Y-74670000D01*
X59540000Y-78570000D02*
X57540000Y-78570000D01*
X57540000Y-78570000D02*
X57540000Y-74670000D01*
X59540000Y-78570000D02*
X59540000Y-74670000D01*
X132585000Y-58200000D02*
X132585000Y-60650000D01*
X129365000Y-60000000D02*
X129365000Y-58200000D01*
X132812500Y-55835000D02*
X128727500Y-55835000D01*
X128727500Y-55835000D02*
X128727500Y-53965000D01*
X128727500Y-53965000D02*
X132812500Y-53965000D01*
X128727500Y-62365000D02*
X132812500Y-62365000D01*
X128727500Y-64235000D02*
X128727500Y-62365000D01*
X132812500Y-64235000D02*
X128727500Y-64235000D01*
X117721267Y-82785000D02*
X117378733Y-82785000D01*
X117721267Y-81765000D02*
X117378733Y-81765000D01*
X125535000Y-73346267D02*
X125535000Y-73003733D01*
X124515000Y-73346267D02*
X124515000Y-73003733D01*
X109903733Y-80015000D02*
X110246267Y-80015000D01*
X109903733Y-81035000D02*
X110246267Y-81035000D01*
X116796267Y-67215000D02*
X116453733Y-67215000D01*
X116796267Y-68235000D02*
X116453733Y-68235000D01*
X47026267Y-165530000D02*
X46683733Y-165530000D01*
X47026267Y-166550000D02*
X46683733Y-166550000D01*
X25086267Y-84480000D02*
X24743733Y-84480000D01*
X25086267Y-83460000D02*
X24743733Y-83460000D01*
X65946267Y-165480000D02*
X65603733Y-165480000D01*
X65946267Y-166500000D02*
X65603733Y-166500000D01*
X44136267Y-83460000D02*
X43793733Y-83460000D01*
X44136267Y-84480000D02*
X43793733Y-84480000D01*
X82236267Y-84480000D02*
X81893733Y-84480000D01*
X82236267Y-83460000D02*
X81893733Y-83460000D01*
X27881267Y-165510000D02*
X27538733Y-165510000D01*
X27881267Y-166530000D02*
X27538733Y-166530000D01*
X84996267Y-165480000D02*
X84653733Y-165480000D01*
X84996267Y-166500000D02*
X84653733Y-166500000D01*
X40490000Y-78570000D02*
X40490000Y-74670000D01*
X38490000Y-78570000D02*
X38490000Y-74670000D01*
X40490000Y-78570000D02*
X38490000Y-78570000D01*
X126485000Y-61464564D02*
X126485000Y-60260436D01*
X124665000Y-61464564D02*
X124665000Y-60260436D01*
X113924721Y-60410000D02*
X114250279Y-60410000D01*
X113924721Y-59390000D02*
X114250279Y-59390000D01*
X122510000Y-61850279D02*
X122510000Y-61524721D01*
X121490000Y-61850279D02*
X121490000Y-61524721D01*
X129865000Y-79649721D02*
X129865000Y-79975279D01*
X130885000Y-79649721D02*
X130885000Y-79975279D01*
X128000279Y-88860000D02*
X127674721Y-88860000D01*
X128000279Y-87840000D02*
X127674721Y-87840000D01*
X113762221Y-88910000D02*
X114087779Y-88910000D01*
X113762221Y-87890000D02*
X114087779Y-87890000D01*
X130860000Y-85175279D02*
X130860000Y-84849721D01*
X129840000Y-85175279D02*
X129840000Y-84849721D01*
X107949721Y-71340000D02*
X108275279Y-71340000D01*
X107949721Y-72360000D02*
X108275279Y-72360000D01*
X91575279Y-57765000D02*
X91249721Y-57765000D01*
X91575279Y-58785000D02*
X91249721Y-58785000D01*
X91249721Y-54690000D02*
X91575279Y-54690000D01*
X91249721Y-55710000D02*
X91575279Y-55710000D01*
D11*
X137418000Y-78605000D02*
G75*
G03X137418000Y-78605000I-1000000J0D01*
G01*
X133818000Y-76005000D02*
X133818000Y-81205000D01*
X139018000Y-76005000D02*
X133818000Y-76005000D01*
X139018000Y-81205000D02*
X139018000Y-76005000D01*
X133818000Y-81205000D02*
X139018000Y-81205000D01*
X137418000Y-87900000D02*
G75*
G03X137418000Y-87900000I-1000000J0D01*
G01*
X139018000Y-90500000D02*
X139018000Y-85300000D01*
X133818000Y-90500000D02*
X139018000Y-90500000D01*
X133818000Y-85300000D02*
X133818000Y-90500000D01*
X139018000Y-85300000D02*
X133818000Y-85300000D01*
D10*
X117208140Y-70024885D02*
X117526338Y-69706687D01*
X117526338Y-69706687D02*
X117844536Y-70024885D01*
X112739225Y-74493800D02*
X112421027Y-74811998D01*
X112421027Y-74811998D02*
X112739225Y-75130196D01*
X122313451Y-75130196D02*
X122631649Y-74811998D01*
X122631649Y-74811998D02*
X122313451Y-74493800D01*
X117844536Y-79599111D02*
X117526338Y-79917309D01*
X117526338Y-79917309D02*
X117208140Y-79599111D01*
X117208140Y-79599111D02*
X116295972Y-80511279D01*
X85650000Y-64140000D02*
X88100000Y-64140000D01*
X87450000Y-67360000D02*
X85650000Y-67360000D01*
D11*
X104013333Y-49572380D02*
X104013333Y-50286666D01*
X104060952Y-50429523D01*
X104156190Y-50524761D01*
X104299047Y-50572380D01*
X104394285Y-50572380D01*
X103013333Y-50572380D02*
X103584761Y-50572380D01*
X103299047Y-50572380D02*
X103299047Y-49572380D01*
X103394285Y-49715238D01*
X103489523Y-49810476D01*
X103584761Y-49858095D01*
X63657857Y-82897142D02*
X63705476Y-82944761D01*
X63848333Y-82992380D01*
X63943571Y-82992380D01*
X64086428Y-82944761D01*
X64181666Y-82849523D01*
X64229285Y-82754285D01*
X64276904Y-82563809D01*
X64276904Y-82420952D01*
X64229285Y-82230476D01*
X64181666Y-82135238D01*
X64086428Y-82040000D01*
X63943571Y-81992380D01*
X63848333Y-81992380D01*
X63705476Y-82040000D01*
X63657857Y-82087619D01*
X62705476Y-82992380D02*
X63276904Y-82992380D01*
X62991190Y-82992380D02*
X62991190Y-81992380D01*
X63086428Y-82135238D01*
X63181666Y-82230476D01*
X63276904Y-82278095D01*
X61848333Y-82325714D02*
X61848333Y-82992380D01*
X62086428Y-81944761D02*
X62324523Y-82659047D01*
X61705476Y-82659047D01*
X91579166Y-63232380D02*
X91912500Y-62756190D01*
X92150595Y-63232380D02*
X92150595Y-62232380D01*
X91769642Y-62232380D01*
X91674404Y-62280000D01*
X91626785Y-62327619D01*
X91579166Y-62422857D01*
X91579166Y-62565714D01*
X91626785Y-62660952D01*
X91674404Y-62708571D01*
X91769642Y-62756190D01*
X92150595Y-62756190D01*
X91007738Y-62660952D02*
X91102976Y-62613333D01*
X91150595Y-62565714D01*
X91198214Y-62470476D01*
X91198214Y-62422857D01*
X91150595Y-62327619D01*
X91102976Y-62280000D01*
X91007738Y-62232380D01*
X90817261Y-62232380D01*
X90722023Y-62280000D01*
X90674404Y-62327619D01*
X90626785Y-62422857D01*
X90626785Y-62470476D01*
X90674404Y-62565714D01*
X90722023Y-62613333D01*
X90817261Y-62660952D01*
X91007738Y-62660952D01*
X91102976Y-62708571D01*
X91150595Y-62756190D01*
X91198214Y-62851428D01*
X91198214Y-63041904D01*
X91150595Y-63137142D01*
X91102976Y-63184761D01*
X91007738Y-63232380D01*
X90817261Y-63232380D01*
X90722023Y-63184761D01*
X90674404Y-63137142D01*
X90626785Y-63041904D01*
X90626785Y-62851428D01*
X90674404Y-62756190D01*
X90722023Y-62708571D01*
X90817261Y-62660952D01*
X121827380Y-61661904D02*
X120827380Y-61661904D01*
X120827380Y-61900000D01*
X120875000Y-62042857D01*
X120970238Y-62138095D01*
X121065476Y-62185714D01*
X121255952Y-62233333D01*
X121398809Y-62233333D01*
X121589285Y-62185714D01*
X121684523Y-62138095D01*
X121779761Y-62042857D01*
X121827380Y-61900000D01*
X121827380Y-61661904D01*
X121827380Y-63185714D02*
X121827380Y-62614285D01*
X121827380Y-62900000D02*
X120827380Y-62900000D01*
X120970238Y-62804761D01*
X121065476Y-62709523D01*
X121113095Y-62614285D01*
X89764285Y-174877380D02*
X89764285Y-173877380D01*
X89526190Y-173877380D01*
X89383333Y-173925000D01*
X89288095Y-174020238D01*
X89240476Y-174115476D01*
X89192857Y-174305952D01*
X89192857Y-174448809D01*
X89240476Y-174639285D01*
X89288095Y-174734523D01*
X89383333Y-174829761D01*
X89526190Y-174877380D01*
X89764285Y-174877380D01*
X88335714Y-174210714D02*
X88335714Y-174877380D01*
X88573809Y-173829761D02*
X88811904Y-174544047D01*
X88192857Y-174544047D01*
X87764285Y-174877380D02*
X87573809Y-174877380D01*
X87478571Y-174829761D01*
X87430952Y-174782142D01*
X87335714Y-174639285D01*
X87288095Y-174448809D01*
X87288095Y-174067857D01*
X87335714Y-173972619D01*
X87383333Y-173925000D01*
X87478571Y-173877380D01*
X87669047Y-173877380D01*
X87764285Y-173925000D01*
X87811904Y-173972619D01*
X87859523Y-174067857D01*
X87859523Y-174305952D01*
X87811904Y-174401190D01*
X87764285Y-174448809D01*
X87669047Y-174496428D01*
X87478571Y-174496428D01*
X87383333Y-174448809D01*
X87335714Y-174401190D01*
X87288095Y-174305952D01*
X92597619Y-179403571D02*
X92454761Y-179451190D01*
X92407142Y-179498809D01*
X92359523Y-179594047D01*
X92359523Y-179736904D01*
X92407142Y-179832142D01*
X92454761Y-179879761D01*
X92550000Y-179927380D01*
X92930952Y-179927380D01*
X92930952Y-178927380D01*
X92597619Y-178927380D01*
X92502380Y-178975000D01*
X92454761Y-179022619D01*
X92407142Y-179117857D01*
X92407142Y-179213095D01*
X92454761Y-179308333D01*
X92502380Y-179355952D01*
X92597619Y-179403571D01*
X92930952Y-179403571D01*
X91788095Y-179927380D02*
X91883333Y-179879761D01*
X91930952Y-179832142D01*
X91978571Y-179736904D01*
X91978571Y-179451190D01*
X91930952Y-179355952D01*
X91883333Y-179308333D01*
X91788095Y-179260714D01*
X91645238Y-179260714D01*
X91550000Y-179308333D01*
X91502380Y-179355952D01*
X91454761Y-179451190D01*
X91454761Y-179736904D01*
X91502380Y-179832142D01*
X91550000Y-179879761D01*
X91645238Y-179927380D01*
X91788095Y-179927380D01*
X91169047Y-179260714D02*
X90788095Y-179260714D01*
X91026190Y-178927380D02*
X91026190Y-179784523D01*
X90978571Y-179879761D01*
X90883333Y-179927380D01*
X90788095Y-179927380D01*
X90597619Y-179260714D02*
X90216666Y-179260714D01*
X90454761Y-178927380D02*
X90454761Y-179784523D01*
X90407142Y-179879761D01*
X90311904Y-179927380D01*
X90216666Y-179927380D01*
X89740476Y-179927380D02*
X89835714Y-179879761D01*
X89883333Y-179832142D01*
X89930952Y-179736904D01*
X89930952Y-179451190D01*
X89883333Y-179355952D01*
X89835714Y-179308333D01*
X89740476Y-179260714D01*
X89597619Y-179260714D01*
X89502380Y-179308333D01*
X89454761Y-179355952D01*
X89407142Y-179451190D01*
X89407142Y-179736904D01*
X89454761Y-179832142D01*
X89502380Y-179879761D01*
X89597619Y-179927380D01*
X89740476Y-179927380D01*
X88978571Y-179927380D02*
X88978571Y-179260714D01*
X88978571Y-179355952D02*
X88930952Y-179308333D01*
X88835714Y-179260714D01*
X88692857Y-179260714D01*
X88597619Y-179308333D01*
X88550000Y-179403571D01*
X88550000Y-179927380D01*
X88550000Y-179403571D02*
X88502380Y-179308333D01*
X88407142Y-179260714D01*
X88264285Y-179260714D01*
X88169047Y-179308333D01*
X88121428Y-179403571D01*
X88121428Y-179927380D01*
X86930952Y-179879761D02*
X86788095Y-179927380D01*
X86550000Y-179927380D01*
X86454761Y-179879761D01*
X86407142Y-179832142D01*
X86359523Y-179736904D01*
X86359523Y-179641666D01*
X86407142Y-179546428D01*
X86454761Y-179498809D01*
X86550000Y-179451190D01*
X86740476Y-179403571D01*
X86835714Y-179355952D01*
X86883333Y-179308333D01*
X86930952Y-179213095D01*
X86930952Y-179117857D01*
X86883333Y-179022619D01*
X86835714Y-178975000D01*
X86740476Y-178927380D01*
X86502380Y-178927380D01*
X86359523Y-178975000D01*
X85930952Y-179927380D02*
X85930952Y-179260714D01*
X85930952Y-178927380D02*
X85978571Y-178975000D01*
X85930952Y-179022619D01*
X85883333Y-178975000D01*
X85930952Y-178927380D01*
X85930952Y-179022619D01*
X85026190Y-179927380D02*
X85026190Y-178927380D01*
X85026190Y-179879761D02*
X85121428Y-179927380D01*
X85311904Y-179927380D01*
X85407142Y-179879761D01*
X85454761Y-179832142D01*
X85502380Y-179736904D01*
X85502380Y-179451190D01*
X85454761Y-179355952D01*
X85407142Y-179308333D01*
X85311904Y-179260714D01*
X85121428Y-179260714D01*
X85026190Y-179308333D01*
X84169047Y-179879761D02*
X84264285Y-179927380D01*
X84454761Y-179927380D01*
X84550000Y-179879761D01*
X84597619Y-179784523D01*
X84597619Y-179403571D01*
X84550000Y-179308333D01*
X84454761Y-179260714D01*
X84264285Y-179260714D01*
X84169047Y-179308333D01*
X84121428Y-179403571D01*
X84121428Y-179498809D01*
X84597619Y-179594047D01*
X92883333Y-177427380D02*
X92550000Y-178427380D01*
X92216666Y-177427380D01*
X92645238Y-175927380D02*
X92454761Y-175927380D01*
X92359523Y-175975000D01*
X92264285Y-176070238D01*
X92216666Y-176260714D01*
X92216666Y-176594047D01*
X92264285Y-176784523D01*
X92359523Y-176879761D01*
X92454761Y-176927380D01*
X92645238Y-176927380D01*
X92740476Y-176879761D01*
X92835714Y-176784523D01*
X92883333Y-176594047D01*
X92883333Y-176260714D01*
X92835714Y-176070238D01*
X92740476Y-175975000D01*
X92645238Y-175927380D01*
X84550000Y-178427380D02*
X84550000Y-177427380D01*
X84288095Y-175975000D02*
X84383333Y-175927380D01*
X84526190Y-175927380D01*
X84669047Y-175975000D01*
X84764285Y-176070238D01*
X84811904Y-176165476D01*
X84859523Y-176355952D01*
X84859523Y-176498809D01*
X84811904Y-176689285D01*
X84764285Y-176784523D01*
X84669047Y-176879761D01*
X84526190Y-176927380D01*
X84430952Y-176927380D01*
X84288095Y-176879761D01*
X84240476Y-176832142D01*
X84240476Y-176498809D01*
X84430952Y-176498809D01*
X89764285Y-155827380D02*
X89764285Y-154827380D01*
X89526190Y-154827380D01*
X89383333Y-154875000D01*
X89288095Y-154970238D01*
X89240476Y-155065476D01*
X89192857Y-155255952D01*
X89192857Y-155398809D01*
X89240476Y-155589285D01*
X89288095Y-155684523D01*
X89383333Y-155779761D01*
X89526190Y-155827380D01*
X89764285Y-155827380D01*
X88335714Y-155160714D02*
X88335714Y-155827380D01*
X88573809Y-154779761D02*
X88811904Y-155494047D01*
X88192857Y-155494047D01*
X87669047Y-155255952D02*
X87764285Y-155208333D01*
X87811904Y-155160714D01*
X87859523Y-155065476D01*
X87859523Y-155017857D01*
X87811904Y-154922619D01*
X87764285Y-154875000D01*
X87669047Y-154827380D01*
X87478571Y-154827380D01*
X87383333Y-154875000D01*
X87335714Y-154922619D01*
X87288095Y-155017857D01*
X87288095Y-155065476D01*
X87335714Y-155160714D01*
X87383333Y-155208333D01*
X87478571Y-155255952D01*
X87669047Y-155255952D01*
X87764285Y-155303571D01*
X87811904Y-155351190D01*
X87859523Y-155446428D01*
X87859523Y-155636904D01*
X87811904Y-155732142D01*
X87764285Y-155779761D01*
X87669047Y-155827380D01*
X87478571Y-155827380D01*
X87383333Y-155779761D01*
X87335714Y-155732142D01*
X87288095Y-155636904D01*
X87288095Y-155446428D01*
X87335714Y-155351190D01*
X87383333Y-155303571D01*
X87478571Y-155255952D01*
X92597619Y-160353571D02*
X92454761Y-160401190D01*
X92407142Y-160448809D01*
X92359523Y-160544047D01*
X92359523Y-160686904D01*
X92407142Y-160782142D01*
X92454761Y-160829761D01*
X92550000Y-160877380D01*
X92930952Y-160877380D01*
X92930952Y-159877380D01*
X92597619Y-159877380D01*
X92502380Y-159925000D01*
X92454761Y-159972619D01*
X92407142Y-160067857D01*
X92407142Y-160163095D01*
X92454761Y-160258333D01*
X92502380Y-160305952D01*
X92597619Y-160353571D01*
X92930952Y-160353571D01*
X91788095Y-160877380D02*
X91883333Y-160829761D01*
X91930952Y-160782142D01*
X91978571Y-160686904D01*
X91978571Y-160401190D01*
X91930952Y-160305952D01*
X91883333Y-160258333D01*
X91788095Y-160210714D01*
X91645238Y-160210714D01*
X91550000Y-160258333D01*
X91502380Y-160305952D01*
X91454761Y-160401190D01*
X91454761Y-160686904D01*
X91502380Y-160782142D01*
X91550000Y-160829761D01*
X91645238Y-160877380D01*
X91788095Y-160877380D01*
X91169047Y-160210714D02*
X90788095Y-160210714D01*
X91026190Y-159877380D02*
X91026190Y-160734523D01*
X90978571Y-160829761D01*
X90883333Y-160877380D01*
X90788095Y-160877380D01*
X90597619Y-160210714D02*
X90216666Y-160210714D01*
X90454761Y-159877380D02*
X90454761Y-160734523D01*
X90407142Y-160829761D01*
X90311904Y-160877380D01*
X90216666Y-160877380D01*
X89740476Y-160877380D02*
X89835714Y-160829761D01*
X89883333Y-160782142D01*
X89930952Y-160686904D01*
X89930952Y-160401190D01*
X89883333Y-160305952D01*
X89835714Y-160258333D01*
X89740476Y-160210714D01*
X89597619Y-160210714D01*
X89502380Y-160258333D01*
X89454761Y-160305952D01*
X89407142Y-160401190D01*
X89407142Y-160686904D01*
X89454761Y-160782142D01*
X89502380Y-160829761D01*
X89597619Y-160877380D01*
X89740476Y-160877380D01*
X88978571Y-160877380D02*
X88978571Y-160210714D01*
X88978571Y-160305952D02*
X88930952Y-160258333D01*
X88835714Y-160210714D01*
X88692857Y-160210714D01*
X88597619Y-160258333D01*
X88550000Y-160353571D01*
X88550000Y-160877380D01*
X88550000Y-160353571D02*
X88502380Y-160258333D01*
X88407142Y-160210714D01*
X88264285Y-160210714D01*
X88169047Y-160258333D01*
X88121428Y-160353571D01*
X88121428Y-160877380D01*
X86930952Y-160829761D02*
X86788095Y-160877380D01*
X86550000Y-160877380D01*
X86454761Y-160829761D01*
X86407142Y-160782142D01*
X86359523Y-160686904D01*
X86359523Y-160591666D01*
X86407142Y-160496428D01*
X86454761Y-160448809D01*
X86550000Y-160401190D01*
X86740476Y-160353571D01*
X86835714Y-160305952D01*
X86883333Y-160258333D01*
X86930952Y-160163095D01*
X86930952Y-160067857D01*
X86883333Y-159972619D01*
X86835714Y-159925000D01*
X86740476Y-159877380D01*
X86502380Y-159877380D01*
X86359523Y-159925000D01*
X85930952Y-160877380D02*
X85930952Y-160210714D01*
X85930952Y-159877380D02*
X85978571Y-159925000D01*
X85930952Y-159972619D01*
X85883333Y-159925000D01*
X85930952Y-159877380D01*
X85930952Y-159972619D01*
X85026190Y-160877380D02*
X85026190Y-159877380D01*
X85026190Y-160829761D02*
X85121428Y-160877380D01*
X85311904Y-160877380D01*
X85407142Y-160829761D01*
X85454761Y-160782142D01*
X85502380Y-160686904D01*
X85502380Y-160401190D01*
X85454761Y-160305952D01*
X85407142Y-160258333D01*
X85311904Y-160210714D01*
X85121428Y-160210714D01*
X85026190Y-160258333D01*
X84169047Y-160829761D02*
X84264285Y-160877380D01*
X84454761Y-160877380D01*
X84550000Y-160829761D01*
X84597619Y-160734523D01*
X84597619Y-160353571D01*
X84550000Y-160258333D01*
X84454761Y-160210714D01*
X84264285Y-160210714D01*
X84169047Y-160258333D01*
X84121428Y-160353571D01*
X84121428Y-160448809D01*
X84597619Y-160544047D01*
X92883333Y-158377380D02*
X92550000Y-159377380D01*
X92216666Y-158377380D01*
X92645238Y-156877380D02*
X92454761Y-156877380D01*
X92359523Y-156925000D01*
X92264285Y-157020238D01*
X92216666Y-157210714D01*
X92216666Y-157544047D01*
X92264285Y-157734523D01*
X92359523Y-157829761D01*
X92454761Y-157877380D01*
X92645238Y-157877380D01*
X92740476Y-157829761D01*
X92835714Y-157734523D01*
X92883333Y-157544047D01*
X92883333Y-157210714D01*
X92835714Y-157020238D01*
X92740476Y-156925000D01*
X92645238Y-156877380D01*
X84550000Y-159377380D02*
X84550000Y-158377380D01*
X84288095Y-156925000D02*
X84383333Y-156877380D01*
X84526190Y-156877380D01*
X84669047Y-156925000D01*
X84764285Y-157020238D01*
X84811904Y-157115476D01*
X84859523Y-157305952D01*
X84859523Y-157448809D01*
X84811904Y-157639285D01*
X84764285Y-157734523D01*
X84669047Y-157829761D01*
X84526190Y-157877380D01*
X84430952Y-157877380D01*
X84288095Y-157829761D01*
X84240476Y-157782142D01*
X84240476Y-157448809D01*
X84430952Y-157448809D01*
X89764285Y-136777380D02*
X89764285Y-135777380D01*
X89526190Y-135777380D01*
X89383333Y-135825000D01*
X89288095Y-135920238D01*
X89240476Y-136015476D01*
X89192857Y-136205952D01*
X89192857Y-136348809D01*
X89240476Y-136539285D01*
X89288095Y-136634523D01*
X89383333Y-136729761D01*
X89526190Y-136777380D01*
X89764285Y-136777380D01*
X88335714Y-136110714D02*
X88335714Y-136777380D01*
X88573809Y-135729761D02*
X88811904Y-136444047D01*
X88192857Y-136444047D01*
X87907142Y-135777380D02*
X87240476Y-135777380D01*
X87669047Y-136777380D01*
X92597619Y-141303571D02*
X92454761Y-141351190D01*
X92407142Y-141398809D01*
X92359523Y-141494047D01*
X92359523Y-141636904D01*
X92407142Y-141732142D01*
X92454761Y-141779761D01*
X92550000Y-141827380D01*
X92930952Y-141827380D01*
X92930952Y-140827380D01*
X92597619Y-140827380D01*
X92502380Y-140875000D01*
X92454761Y-140922619D01*
X92407142Y-141017857D01*
X92407142Y-141113095D01*
X92454761Y-141208333D01*
X92502380Y-141255952D01*
X92597619Y-141303571D01*
X92930952Y-141303571D01*
X91788095Y-141827380D02*
X91883333Y-141779761D01*
X91930952Y-141732142D01*
X91978571Y-141636904D01*
X91978571Y-141351190D01*
X91930952Y-141255952D01*
X91883333Y-141208333D01*
X91788095Y-141160714D01*
X91645238Y-141160714D01*
X91550000Y-141208333D01*
X91502380Y-141255952D01*
X91454761Y-141351190D01*
X91454761Y-141636904D01*
X91502380Y-141732142D01*
X91550000Y-141779761D01*
X91645238Y-141827380D01*
X91788095Y-141827380D01*
X91169047Y-141160714D02*
X90788095Y-141160714D01*
X91026190Y-140827380D02*
X91026190Y-141684523D01*
X90978571Y-141779761D01*
X90883333Y-141827380D01*
X90788095Y-141827380D01*
X90597619Y-141160714D02*
X90216666Y-141160714D01*
X90454761Y-140827380D02*
X90454761Y-141684523D01*
X90407142Y-141779761D01*
X90311904Y-141827380D01*
X90216666Y-141827380D01*
X89740476Y-141827380D02*
X89835714Y-141779761D01*
X89883333Y-141732142D01*
X89930952Y-141636904D01*
X89930952Y-141351190D01*
X89883333Y-141255952D01*
X89835714Y-141208333D01*
X89740476Y-141160714D01*
X89597619Y-141160714D01*
X89502380Y-141208333D01*
X89454761Y-141255952D01*
X89407142Y-141351190D01*
X89407142Y-141636904D01*
X89454761Y-141732142D01*
X89502380Y-141779761D01*
X89597619Y-141827380D01*
X89740476Y-141827380D01*
X88978571Y-141827380D02*
X88978571Y-141160714D01*
X88978571Y-141255952D02*
X88930952Y-141208333D01*
X88835714Y-141160714D01*
X88692857Y-141160714D01*
X88597619Y-141208333D01*
X88550000Y-141303571D01*
X88550000Y-141827380D01*
X88550000Y-141303571D02*
X88502380Y-141208333D01*
X88407142Y-141160714D01*
X88264285Y-141160714D01*
X88169047Y-141208333D01*
X88121428Y-141303571D01*
X88121428Y-141827380D01*
X86930952Y-141779761D02*
X86788095Y-141827380D01*
X86550000Y-141827380D01*
X86454761Y-141779761D01*
X86407142Y-141732142D01*
X86359523Y-141636904D01*
X86359523Y-141541666D01*
X86407142Y-141446428D01*
X86454761Y-141398809D01*
X86550000Y-141351190D01*
X86740476Y-141303571D01*
X86835714Y-141255952D01*
X86883333Y-141208333D01*
X86930952Y-141113095D01*
X86930952Y-141017857D01*
X86883333Y-140922619D01*
X86835714Y-140875000D01*
X86740476Y-140827380D01*
X86502380Y-140827380D01*
X86359523Y-140875000D01*
X85930952Y-141827380D02*
X85930952Y-141160714D01*
X85930952Y-140827380D02*
X85978571Y-140875000D01*
X85930952Y-140922619D01*
X85883333Y-140875000D01*
X85930952Y-140827380D01*
X85930952Y-140922619D01*
X85026190Y-141827380D02*
X85026190Y-140827380D01*
X85026190Y-141779761D02*
X85121428Y-141827380D01*
X85311904Y-141827380D01*
X85407142Y-141779761D01*
X85454761Y-141732142D01*
X85502380Y-141636904D01*
X85502380Y-141351190D01*
X85454761Y-141255952D01*
X85407142Y-141208333D01*
X85311904Y-141160714D01*
X85121428Y-141160714D01*
X85026190Y-141208333D01*
X84169047Y-141779761D02*
X84264285Y-141827380D01*
X84454761Y-141827380D01*
X84550000Y-141779761D01*
X84597619Y-141684523D01*
X84597619Y-141303571D01*
X84550000Y-141208333D01*
X84454761Y-141160714D01*
X84264285Y-141160714D01*
X84169047Y-141208333D01*
X84121428Y-141303571D01*
X84121428Y-141398809D01*
X84597619Y-141494047D01*
X92883333Y-139327380D02*
X92550000Y-140327380D01*
X92216666Y-139327380D01*
X92645238Y-137827380D02*
X92454761Y-137827380D01*
X92359523Y-137875000D01*
X92264285Y-137970238D01*
X92216666Y-138160714D01*
X92216666Y-138494047D01*
X92264285Y-138684523D01*
X92359523Y-138779761D01*
X92454761Y-138827380D01*
X92645238Y-138827380D01*
X92740476Y-138779761D01*
X92835714Y-138684523D01*
X92883333Y-138494047D01*
X92883333Y-138160714D01*
X92835714Y-137970238D01*
X92740476Y-137875000D01*
X92645238Y-137827380D01*
X84550000Y-140327380D02*
X84550000Y-139327380D01*
X84288095Y-137875000D02*
X84383333Y-137827380D01*
X84526190Y-137827380D01*
X84669047Y-137875000D01*
X84764285Y-137970238D01*
X84811904Y-138065476D01*
X84859523Y-138255952D01*
X84859523Y-138398809D01*
X84811904Y-138589285D01*
X84764285Y-138684523D01*
X84669047Y-138779761D01*
X84526190Y-138827380D01*
X84430952Y-138827380D01*
X84288095Y-138779761D01*
X84240476Y-138732142D01*
X84240476Y-138398809D01*
X84430952Y-138398809D01*
X89764285Y-117727380D02*
X89764285Y-116727380D01*
X89526190Y-116727380D01*
X89383333Y-116775000D01*
X89288095Y-116870238D01*
X89240476Y-116965476D01*
X89192857Y-117155952D01*
X89192857Y-117298809D01*
X89240476Y-117489285D01*
X89288095Y-117584523D01*
X89383333Y-117679761D01*
X89526190Y-117727380D01*
X89764285Y-117727380D01*
X88335714Y-117060714D02*
X88335714Y-117727380D01*
X88573809Y-116679761D02*
X88811904Y-117394047D01*
X88192857Y-117394047D01*
X87383333Y-116727380D02*
X87573809Y-116727380D01*
X87669047Y-116775000D01*
X87716666Y-116822619D01*
X87811904Y-116965476D01*
X87859523Y-117155952D01*
X87859523Y-117536904D01*
X87811904Y-117632142D01*
X87764285Y-117679761D01*
X87669047Y-117727380D01*
X87478571Y-117727380D01*
X87383333Y-117679761D01*
X87335714Y-117632142D01*
X87288095Y-117536904D01*
X87288095Y-117298809D01*
X87335714Y-117203571D01*
X87383333Y-117155952D01*
X87478571Y-117108333D01*
X87669047Y-117108333D01*
X87764285Y-117155952D01*
X87811904Y-117203571D01*
X87859523Y-117298809D01*
X92597619Y-122253571D02*
X92454761Y-122301190D01*
X92407142Y-122348809D01*
X92359523Y-122444047D01*
X92359523Y-122586904D01*
X92407142Y-122682142D01*
X92454761Y-122729761D01*
X92550000Y-122777380D01*
X92930952Y-122777380D01*
X92930952Y-121777380D01*
X92597619Y-121777380D01*
X92502380Y-121825000D01*
X92454761Y-121872619D01*
X92407142Y-121967857D01*
X92407142Y-122063095D01*
X92454761Y-122158333D01*
X92502380Y-122205952D01*
X92597619Y-122253571D01*
X92930952Y-122253571D01*
X91788095Y-122777380D02*
X91883333Y-122729761D01*
X91930952Y-122682142D01*
X91978571Y-122586904D01*
X91978571Y-122301190D01*
X91930952Y-122205952D01*
X91883333Y-122158333D01*
X91788095Y-122110714D01*
X91645238Y-122110714D01*
X91550000Y-122158333D01*
X91502380Y-122205952D01*
X91454761Y-122301190D01*
X91454761Y-122586904D01*
X91502380Y-122682142D01*
X91550000Y-122729761D01*
X91645238Y-122777380D01*
X91788095Y-122777380D01*
X91169047Y-122110714D02*
X90788095Y-122110714D01*
X91026190Y-121777380D02*
X91026190Y-122634523D01*
X90978571Y-122729761D01*
X90883333Y-122777380D01*
X90788095Y-122777380D01*
X90597619Y-122110714D02*
X90216666Y-122110714D01*
X90454761Y-121777380D02*
X90454761Y-122634523D01*
X90407142Y-122729761D01*
X90311904Y-122777380D01*
X90216666Y-122777380D01*
X89740476Y-122777380D02*
X89835714Y-122729761D01*
X89883333Y-122682142D01*
X89930952Y-122586904D01*
X89930952Y-122301190D01*
X89883333Y-122205952D01*
X89835714Y-122158333D01*
X89740476Y-122110714D01*
X89597619Y-122110714D01*
X89502380Y-122158333D01*
X89454761Y-122205952D01*
X89407142Y-122301190D01*
X89407142Y-122586904D01*
X89454761Y-122682142D01*
X89502380Y-122729761D01*
X89597619Y-122777380D01*
X89740476Y-122777380D01*
X88978571Y-122777380D02*
X88978571Y-122110714D01*
X88978571Y-122205952D02*
X88930952Y-122158333D01*
X88835714Y-122110714D01*
X88692857Y-122110714D01*
X88597619Y-122158333D01*
X88550000Y-122253571D01*
X88550000Y-122777380D01*
X88550000Y-122253571D02*
X88502380Y-122158333D01*
X88407142Y-122110714D01*
X88264285Y-122110714D01*
X88169047Y-122158333D01*
X88121428Y-122253571D01*
X88121428Y-122777380D01*
X86930952Y-122729761D02*
X86788095Y-122777380D01*
X86550000Y-122777380D01*
X86454761Y-122729761D01*
X86407142Y-122682142D01*
X86359523Y-122586904D01*
X86359523Y-122491666D01*
X86407142Y-122396428D01*
X86454761Y-122348809D01*
X86550000Y-122301190D01*
X86740476Y-122253571D01*
X86835714Y-122205952D01*
X86883333Y-122158333D01*
X86930952Y-122063095D01*
X86930952Y-121967857D01*
X86883333Y-121872619D01*
X86835714Y-121825000D01*
X86740476Y-121777380D01*
X86502380Y-121777380D01*
X86359523Y-121825000D01*
X85930952Y-122777380D02*
X85930952Y-122110714D01*
X85930952Y-121777380D02*
X85978571Y-121825000D01*
X85930952Y-121872619D01*
X85883333Y-121825000D01*
X85930952Y-121777380D01*
X85930952Y-121872619D01*
X85026190Y-122777380D02*
X85026190Y-121777380D01*
X85026190Y-122729761D02*
X85121428Y-122777380D01*
X85311904Y-122777380D01*
X85407142Y-122729761D01*
X85454761Y-122682142D01*
X85502380Y-122586904D01*
X85502380Y-122301190D01*
X85454761Y-122205952D01*
X85407142Y-122158333D01*
X85311904Y-122110714D01*
X85121428Y-122110714D01*
X85026190Y-122158333D01*
X84169047Y-122729761D02*
X84264285Y-122777380D01*
X84454761Y-122777380D01*
X84550000Y-122729761D01*
X84597619Y-122634523D01*
X84597619Y-122253571D01*
X84550000Y-122158333D01*
X84454761Y-122110714D01*
X84264285Y-122110714D01*
X84169047Y-122158333D01*
X84121428Y-122253571D01*
X84121428Y-122348809D01*
X84597619Y-122444047D01*
X92883333Y-120277380D02*
X92550000Y-121277380D01*
X92216666Y-120277380D01*
X92645238Y-118777380D02*
X92454761Y-118777380D01*
X92359523Y-118825000D01*
X92264285Y-118920238D01*
X92216666Y-119110714D01*
X92216666Y-119444047D01*
X92264285Y-119634523D01*
X92359523Y-119729761D01*
X92454761Y-119777380D01*
X92645238Y-119777380D01*
X92740476Y-119729761D01*
X92835714Y-119634523D01*
X92883333Y-119444047D01*
X92883333Y-119110714D01*
X92835714Y-118920238D01*
X92740476Y-118825000D01*
X92645238Y-118777380D01*
X84550000Y-121277380D02*
X84550000Y-120277380D01*
X84288095Y-118825000D02*
X84383333Y-118777380D01*
X84526190Y-118777380D01*
X84669047Y-118825000D01*
X84764285Y-118920238D01*
X84811904Y-119015476D01*
X84859523Y-119205952D01*
X84859523Y-119348809D01*
X84811904Y-119539285D01*
X84764285Y-119634523D01*
X84669047Y-119729761D01*
X84526190Y-119777380D01*
X84430952Y-119777380D01*
X84288095Y-119729761D01*
X84240476Y-119682142D01*
X84240476Y-119348809D01*
X84430952Y-119348809D01*
X89764285Y-98677380D02*
X89764285Y-97677380D01*
X89526190Y-97677380D01*
X89383333Y-97725000D01*
X89288095Y-97820238D01*
X89240476Y-97915476D01*
X89192857Y-98105952D01*
X89192857Y-98248809D01*
X89240476Y-98439285D01*
X89288095Y-98534523D01*
X89383333Y-98629761D01*
X89526190Y-98677380D01*
X89764285Y-98677380D01*
X88335714Y-98010714D02*
X88335714Y-98677380D01*
X88573809Y-97629761D02*
X88811904Y-98344047D01*
X88192857Y-98344047D01*
X87335714Y-97677380D02*
X87811904Y-97677380D01*
X87859523Y-98153571D01*
X87811904Y-98105952D01*
X87716666Y-98058333D01*
X87478571Y-98058333D01*
X87383333Y-98105952D01*
X87335714Y-98153571D01*
X87288095Y-98248809D01*
X87288095Y-98486904D01*
X87335714Y-98582142D01*
X87383333Y-98629761D01*
X87478571Y-98677380D01*
X87716666Y-98677380D01*
X87811904Y-98629761D01*
X87859523Y-98582142D01*
X92597619Y-103203571D02*
X92454761Y-103251190D01*
X92407142Y-103298809D01*
X92359523Y-103394047D01*
X92359523Y-103536904D01*
X92407142Y-103632142D01*
X92454761Y-103679761D01*
X92550000Y-103727380D01*
X92930952Y-103727380D01*
X92930952Y-102727380D01*
X92597619Y-102727380D01*
X92502380Y-102775000D01*
X92454761Y-102822619D01*
X92407142Y-102917857D01*
X92407142Y-103013095D01*
X92454761Y-103108333D01*
X92502380Y-103155952D01*
X92597619Y-103203571D01*
X92930952Y-103203571D01*
X91788095Y-103727380D02*
X91883333Y-103679761D01*
X91930952Y-103632142D01*
X91978571Y-103536904D01*
X91978571Y-103251190D01*
X91930952Y-103155952D01*
X91883333Y-103108333D01*
X91788095Y-103060714D01*
X91645238Y-103060714D01*
X91550000Y-103108333D01*
X91502380Y-103155952D01*
X91454761Y-103251190D01*
X91454761Y-103536904D01*
X91502380Y-103632142D01*
X91550000Y-103679761D01*
X91645238Y-103727380D01*
X91788095Y-103727380D01*
X91169047Y-103060714D02*
X90788095Y-103060714D01*
X91026190Y-102727380D02*
X91026190Y-103584523D01*
X90978571Y-103679761D01*
X90883333Y-103727380D01*
X90788095Y-103727380D01*
X90597619Y-103060714D02*
X90216666Y-103060714D01*
X90454761Y-102727380D02*
X90454761Y-103584523D01*
X90407142Y-103679761D01*
X90311904Y-103727380D01*
X90216666Y-103727380D01*
X89740476Y-103727380D02*
X89835714Y-103679761D01*
X89883333Y-103632142D01*
X89930952Y-103536904D01*
X89930952Y-103251190D01*
X89883333Y-103155952D01*
X89835714Y-103108333D01*
X89740476Y-103060714D01*
X89597619Y-103060714D01*
X89502380Y-103108333D01*
X89454761Y-103155952D01*
X89407142Y-103251190D01*
X89407142Y-103536904D01*
X89454761Y-103632142D01*
X89502380Y-103679761D01*
X89597619Y-103727380D01*
X89740476Y-103727380D01*
X88978571Y-103727380D02*
X88978571Y-103060714D01*
X88978571Y-103155952D02*
X88930952Y-103108333D01*
X88835714Y-103060714D01*
X88692857Y-103060714D01*
X88597619Y-103108333D01*
X88550000Y-103203571D01*
X88550000Y-103727380D01*
X88550000Y-103203571D02*
X88502380Y-103108333D01*
X88407142Y-103060714D01*
X88264285Y-103060714D01*
X88169047Y-103108333D01*
X88121428Y-103203571D01*
X88121428Y-103727380D01*
X86930952Y-103679761D02*
X86788095Y-103727380D01*
X86550000Y-103727380D01*
X86454761Y-103679761D01*
X86407142Y-103632142D01*
X86359523Y-103536904D01*
X86359523Y-103441666D01*
X86407142Y-103346428D01*
X86454761Y-103298809D01*
X86550000Y-103251190D01*
X86740476Y-103203571D01*
X86835714Y-103155952D01*
X86883333Y-103108333D01*
X86930952Y-103013095D01*
X86930952Y-102917857D01*
X86883333Y-102822619D01*
X86835714Y-102775000D01*
X86740476Y-102727380D01*
X86502380Y-102727380D01*
X86359523Y-102775000D01*
X85930952Y-103727380D02*
X85930952Y-103060714D01*
X85930952Y-102727380D02*
X85978571Y-102775000D01*
X85930952Y-102822619D01*
X85883333Y-102775000D01*
X85930952Y-102727380D01*
X85930952Y-102822619D01*
X85026190Y-103727380D02*
X85026190Y-102727380D01*
X85026190Y-103679761D02*
X85121428Y-103727380D01*
X85311904Y-103727380D01*
X85407142Y-103679761D01*
X85454761Y-103632142D01*
X85502380Y-103536904D01*
X85502380Y-103251190D01*
X85454761Y-103155952D01*
X85407142Y-103108333D01*
X85311904Y-103060714D01*
X85121428Y-103060714D01*
X85026190Y-103108333D01*
X84169047Y-103679761D02*
X84264285Y-103727380D01*
X84454761Y-103727380D01*
X84550000Y-103679761D01*
X84597619Y-103584523D01*
X84597619Y-103203571D01*
X84550000Y-103108333D01*
X84454761Y-103060714D01*
X84264285Y-103060714D01*
X84169047Y-103108333D01*
X84121428Y-103203571D01*
X84121428Y-103298809D01*
X84597619Y-103394047D01*
X92883333Y-101227380D02*
X92550000Y-102227380D01*
X92216666Y-101227380D01*
X92645238Y-99727380D02*
X92454761Y-99727380D01*
X92359523Y-99775000D01*
X92264285Y-99870238D01*
X92216666Y-100060714D01*
X92216666Y-100394047D01*
X92264285Y-100584523D01*
X92359523Y-100679761D01*
X92454761Y-100727380D01*
X92645238Y-100727380D01*
X92740476Y-100679761D01*
X92835714Y-100584523D01*
X92883333Y-100394047D01*
X92883333Y-100060714D01*
X92835714Y-99870238D01*
X92740476Y-99775000D01*
X92645238Y-99727380D01*
X84550000Y-102227380D02*
X84550000Y-101227380D01*
X84288095Y-99775000D02*
X84383333Y-99727380D01*
X84526190Y-99727380D01*
X84669047Y-99775000D01*
X84764285Y-99870238D01*
X84811904Y-99965476D01*
X84859523Y-100155952D01*
X84859523Y-100298809D01*
X84811904Y-100489285D01*
X84764285Y-100584523D01*
X84669047Y-100679761D01*
X84526190Y-100727380D01*
X84430952Y-100727380D01*
X84288095Y-100679761D01*
X84240476Y-100632142D01*
X84240476Y-100298809D01*
X84430952Y-100298809D01*
X89764285Y-79627380D02*
X89764285Y-78627380D01*
X89526190Y-78627380D01*
X89383333Y-78675000D01*
X89288095Y-78770238D01*
X89240476Y-78865476D01*
X89192857Y-79055952D01*
X89192857Y-79198809D01*
X89240476Y-79389285D01*
X89288095Y-79484523D01*
X89383333Y-79579761D01*
X89526190Y-79627380D01*
X89764285Y-79627380D01*
X88335714Y-78960714D02*
X88335714Y-79627380D01*
X88573809Y-78579761D02*
X88811904Y-79294047D01*
X88192857Y-79294047D01*
X87383333Y-78960714D02*
X87383333Y-79627380D01*
X87621428Y-78579761D02*
X87859523Y-79294047D01*
X87240476Y-79294047D01*
X92597619Y-84153571D02*
X92454761Y-84201190D01*
X92407142Y-84248809D01*
X92359523Y-84344047D01*
X92359523Y-84486904D01*
X92407142Y-84582142D01*
X92454761Y-84629761D01*
X92550000Y-84677380D01*
X92930952Y-84677380D01*
X92930952Y-83677380D01*
X92597619Y-83677380D01*
X92502380Y-83725000D01*
X92454761Y-83772619D01*
X92407142Y-83867857D01*
X92407142Y-83963095D01*
X92454761Y-84058333D01*
X92502380Y-84105952D01*
X92597619Y-84153571D01*
X92930952Y-84153571D01*
X91788095Y-84677380D02*
X91883333Y-84629761D01*
X91930952Y-84582142D01*
X91978571Y-84486904D01*
X91978571Y-84201190D01*
X91930952Y-84105952D01*
X91883333Y-84058333D01*
X91788095Y-84010714D01*
X91645238Y-84010714D01*
X91550000Y-84058333D01*
X91502380Y-84105952D01*
X91454761Y-84201190D01*
X91454761Y-84486904D01*
X91502380Y-84582142D01*
X91550000Y-84629761D01*
X91645238Y-84677380D01*
X91788095Y-84677380D01*
X91169047Y-84010714D02*
X90788095Y-84010714D01*
X91026190Y-83677380D02*
X91026190Y-84534523D01*
X90978571Y-84629761D01*
X90883333Y-84677380D01*
X90788095Y-84677380D01*
X90597619Y-84010714D02*
X90216666Y-84010714D01*
X90454761Y-83677380D02*
X90454761Y-84534523D01*
X90407142Y-84629761D01*
X90311904Y-84677380D01*
X90216666Y-84677380D01*
X89740476Y-84677380D02*
X89835714Y-84629761D01*
X89883333Y-84582142D01*
X89930952Y-84486904D01*
X89930952Y-84201190D01*
X89883333Y-84105952D01*
X89835714Y-84058333D01*
X89740476Y-84010714D01*
X89597619Y-84010714D01*
X89502380Y-84058333D01*
X89454761Y-84105952D01*
X89407142Y-84201190D01*
X89407142Y-84486904D01*
X89454761Y-84582142D01*
X89502380Y-84629761D01*
X89597619Y-84677380D01*
X89740476Y-84677380D01*
X88978571Y-84677380D02*
X88978571Y-84010714D01*
X88978571Y-84105952D02*
X88930952Y-84058333D01*
X88835714Y-84010714D01*
X88692857Y-84010714D01*
X88597619Y-84058333D01*
X88550000Y-84153571D01*
X88550000Y-84677380D01*
X88550000Y-84153571D02*
X88502380Y-84058333D01*
X88407142Y-84010714D01*
X88264285Y-84010714D01*
X88169047Y-84058333D01*
X88121428Y-84153571D01*
X88121428Y-84677380D01*
X86930952Y-84629761D02*
X86788095Y-84677380D01*
X86550000Y-84677380D01*
X86454761Y-84629761D01*
X86407142Y-84582142D01*
X86359523Y-84486904D01*
X86359523Y-84391666D01*
X86407142Y-84296428D01*
X86454761Y-84248809D01*
X86550000Y-84201190D01*
X86740476Y-84153571D01*
X86835714Y-84105952D01*
X86883333Y-84058333D01*
X86930952Y-83963095D01*
X86930952Y-83867857D01*
X86883333Y-83772619D01*
X86835714Y-83725000D01*
X86740476Y-83677380D01*
X86502380Y-83677380D01*
X86359523Y-83725000D01*
X85930952Y-84677380D02*
X85930952Y-84010714D01*
X85930952Y-83677380D02*
X85978571Y-83725000D01*
X85930952Y-83772619D01*
X85883333Y-83725000D01*
X85930952Y-83677380D01*
X85930952Y-83772619D01*
X85026190Y-84677380D02*
X85026190Y-83677380D01*
X85026190Y-84629761D02*
X85121428Y-84677380D01*
X85311904Y-84677380D01*
X85407142Y-84629761D01*
X85454761Y-84582142D01*
X85502380Y-84486904D01*
X85502380Y-84201190D01*
X85454761Y-84105952D01*
X85407142Y-84058333D01*
X85311904Y-84010714D01*
X85121428Y-84010714D01*
X85026190Y-84058333D01*
X84169047Y-84629761D02*
X84264285Y-84677380D01*
X84454761Y-84677380D01*
X84550000Y-84629761D01*
X84597619Y-84534523D01*
X84597619Y-84153571D01*
X84550000Y-84058333D01*
X84454761Y-84010714D01*
X84264285Y-84010714D01*
X84169047Y-84058333D01*
X84121428Y-84153571D01*
X84121428Y-84248809D01*
X84597619Y-84344047D01*
X92883333Y-82177380D02*
X92550000Y-83177380D01*
X92216666Y-82177380D01*
X92645238Y-80677380D02*
X92454761Y-80677380D01*
X92359523Y-80725000D01*
X92264285Y-80820238D01*
X92216666Y-81010714D01*
X92216666Y-81344047D01*
X92264285Y-81534523D01*
X92359523Y-81629761D01*
X92454761Y-81677380D01*
X92645238Y-81677380D01*
X92740476Y-81629761D01*
X92835714Y-81534523D01*
X92883333Y-81344047D01*
X92883333Y-81010714D01*
X92835714Y-80820238D01*
X92740476Y-80725000D01*
X92645238Y-80677380D01*
X84550000Y-83177380D02*
X84550000Y-82177380D01*
X84288095Y-80725000D02*
X84383333Y-80677380D01*
X84526190Y-80677380D01*
X84669047Y-80725000D01*
X84764285Y-80820238D01*
X84811904Y-80915476D01*
X84859523Y-81105952D01*
X84859523Y-81248809D01*
X84811904Y-81439285D01*
X84764285Y-81534523D01*
X84669047Y-81629761D01*
X84526190Y-81677380D01*
X84430952Y-81677380D01*
X84288095Y-81629761D01*
X84240476Y-81582142D01*
X84240476Y-81248809D01*
X84430952Y-81248809D01*
X70714285Y-174877380D02*
X70714285Y-173877380D01*
X70476190Y-173877380D01*
X70333333Y-173925000D01*
X70238095Y-174020238D01*
X70190476Y-174115476D01*
X70142857Y-174305952D01*
X70142857Y-174448809D01*
X70190476Y-174639285D01*
X70238095Y-174734523D01*
X70333333Y-174829761D01*
X70476190Y-174877380D01*
X70714285Y-174877380D01*
X69285714Y-174210714D02*
X69285714Y-174877380D01*
X69523809Y-173829761D02*
X69761904Y-174544047D01*
X69142857Y-174544047D01*
X68857142Y-173877380D02*
X68238095Y-173877380D01*
X68571428Y-174258333D01*
X68428571Y-174258333D01*
X68333333Y-174305952D01*
X68285714Y-174353571D01*
X68238095Y-174448809D01*
X68238095Y-174686904D01*
X68285714Y-174782142D01*
X68333333Y-174829761D01*
X68428571Y-174877380D01*
X68714285Y-174877380D01*
X68809523Y-174829761D01*
X68857142Y-174782142D01*
X73547619Y-179403571D02*
X73404761Y-179451190D01*
X73357142Y-179498809D01*
X73309523Y-179594047D01*
X73309523Y-179736904D01*
X73357142Y-179832142D01*
X73404761Y-179879761D01*
X73500000Y-179927380D01*
X73880952Y-179927380D01*
X73880952Y-178927380D01*
X73547619Y-178927380D01*
X73452380Y-178975000D01*
X73404761Y-179022619D01*
X73357142Y-179117857D01*
X73357142Y-179213095D01*
X73404761Y-179308333D01*
X73452380Y-179355952D01*
X73547619Y-179403571D01*
X73880952Y-179403571D01*
X72738095Y-179927380D02*
X72833333Y-179879761D01*
X72880952Y-179832142D01*
X72928571Y-179736904D01*
X72928571Y-179451190D01*
X72880952Y-179355952D01*
X72833333Y-179308333D01*
X72738095Y-179260714D01*
X72595238Y-179260714D01*
X72500000Y-179308333D01*
X72452380Y-179355952D01*
X72404761Y-179451190D01*
X72404761Y-179736904D01*
X72452380Y-179832142D01*
X72500000Y-179879761D01*
X72595238Y-179927380D01*
X72738095Y-179927380D01*
X72119047Y-179260714D02*
X71738095Y-179260714D01*
X71976190Y-178927380D02*
X71976190Y-179784523D01*
X71928571Y-179879761D01*
X71833333Y-179927380D01*
X71738095Y-179927380D01*
X71547619Y-179260714D02*
X71166666Y-179260714D01*
X71404761Y-178927380D02*
X71404761Y-179784523D01*
X71357142Y-179879761D01*
X71261904Y-179927380D01*
X71166666Y-179927380D01*
X70690476Y-179927380D02*
X70785714Y-179879761D01*
X70833333Y-179832142D01*
X70880952Y-179736904D01*
X70880952Y-179451190D01*
X70833333Y-179355952D01*
X70785714Y-179308333D01*
X70690476Y-179260714D01*
X70547619Y-179260714D01*
X70452380Y-179308333D01*
X70404761Y-179355952D01*
X70357142Y-179451190D01*
X70357142Y-179736904D01*
X70404761Y-179832142D01*
X70452380Y-179879761D01*
X70547619Y-179927380D01*
X70690476Y-179927380D01*
X69928571Y-179927380D02*
X69928571Y-179260714D01*
X69928571Y-179355952D02*
X69880952Y-179308333D01*
X69785714Y-179260714D01*
X69642857Y-179260714D01*
X69547619Y-179308333D01*
X69500000Y-179403571D01*
X69500000Y-179927380D01*
X69500000Y-179403571D02*
X69452380Y-179308333D01*
X69357142Y-179260714D01*
X69214285Y-179260714D01*
X69119047Y-179308333D01*
X69071428Y-179403571D01*
X69071428Y-179927380D01*
X67880952Y-179879761D02*
X67738095Y-179927380D01*
X67500000Y-179927380D01*
X67404761Y-179879761D01*
X67357142Y-179832142D01*
X67309523Y-179736904D01*
X67309523Y-179641666D01*
X67357142Y-179546428D01*
X67404761Y-179498809D01*
X67500000Y-179451190D01*
X67690476Y-179403571D01*
X67785714Y-179355952D01*
X67833333Y-179308333D01*
X67880952Y-179213095D01*
X67880952Y-179117857D01*
X67833333Y-179022619D01*
X67785714Y-178975000D01*
X67690476Y-178927380D01*
X67452380Y-178927380D01*
X67309523Y-178975000D01*
X66880952Y-179927380D02*
X66880952Y-179260714D01*
X66880952Y-178927380D02*
X66928571Y-178975000D01*
X66880952Y-179022619D01*
X66833333Y-178975000D01*
X66880952Y-178927380D01*
X66880952Y-179022619D01*
X65976190Y-179927380D02*
X65976190Y-178927380D01*
X65976190Y-179879761D02*
X66071428Y-179927380D01*
X66261904Y-179927380D01*
X66357142Y-179879761D01*
X66404761Y-179832142D01*
X66452380Y-179736904D01*
X66452380Y-179451190D01*
X66404761Y-179355952D01*
X66357142Y-179308333D01*
X66261904Y-179260714D01*
X66071428Y-179260714D01*
X65976190Y-179308333D01*
X65119047Y-179879761D02*
X65214285Y-179927380D01*
X65404761Y-179927380D01*
X65500000Y-179879761D01*
X65547619Y-179784523D01*
X65547619Y-179403571D01*
X65500000Y-179308333D01*
X65404761Y-179260714D01*
X65214285Y-179260714D01*
X65119047Y-179308333D01*
X65071428Y-179403571D01*
X65071428Y-179498809D01*
X65547619Y-179594047D01*
X73833333Y-177427380D02*
X73500000Y-178427380D01*
X73166666Y-177427380D01*
X73595238Y-175927380D02*
X73404761Y-175927380D01*
X73309523Y-175975000D01*
X73214285Y-176070238D01*
X73166666Y-176260714D01*
X73166666Y-176594047D01*
X73214285Y-176784523D01*
X73309523Y-176879761D01*
X73404761Y-176927380D01*
X73595238Y-176927380D01*
X73690476Y-176879761D01*
X73785714Y-176784523D01*
X73833333Y-176594047D01*
X73833333Y-176260714D01*
X73785714Y-176070238D01*
X73690476Y-175975000D01*
X73595238Y-175927380D01*
X65500000Y-178427380D02*
X65500000Y-177427380D01*
X65238095Y-175975000D02*
X65333333Y-175927380D01*
X65476190Y-175927380D01*
X65619047Y-175975000D01*
X65714285Y-176070238D01*
X65761904Y-176165476D01*
X65809523Y-176355952D01*
X65809523Y-176498809D01*
X65761904Y-176689285D01*
X65714285Y-176784523D01*
X65619047Y-176879761D01*
X65476190Y-176927380D01*
X65380952Y-176927380D01*
X65238095Y-176879761D01*
X65190476Y-176832142D01*
X65190476Y-176498809D01*
X65380952Y-176498809D01*
X70714285Y-155827380D02*
X70714285Y-154827380D01*
X70476190Y-154827380D01*
X70333333Y-154875000D01*
X70238095Y-154970238D01*
X70190476Y-155065476D01*
X70142857Y-155255952D01*
X70142857Y-155398809D01*
X70190476Y-155589285D01*
X70238095Y-155684523D01*
X70333333Y-155779761D01*
X70476190Y-155827380D01*
X70714285Y-155827380D01*
X69285714Y-155160714D02*
X69285714Y-155827380D01*
X69523809Y-154779761D02*
X69761904Y-155494047D01*
X69142857Y-155494047D01*
X68809523Y-154922619D02*
X68761904Y-154875000D01*
X68666666Y-154827380D01*
X68428571Y-154827380D01*
X68333333Y-154875000D01*
X68285714Y-154922619D01*
X68238095Y-155017857D01*
X68238095Y-155113095D01*
X68285714Y-155255952D01*
X68857142Y-155827380D01*
X68238095Y-155827380D01*
X73547619Y-160353571D02*
X73404761Y-160401190D01*
X73357142Y-160448809D01*
X73309523Y-160544047D01*
X73309523Y-160686904D01*
X73357142Y-160782142D01*
X73404761Y-160829761D01*
X73500000Y-160877380D01*
X73880952Y-160877380D01*
X73880952Y-159877380D01*
X73547619Y-159877380D01*
X73452380Y-159925000D01*
X73404761Y-159972619D01*
X73357142Y-160067857D01*
X73357142Y-160163095D01*
X73404761Y-160258333D01*
X73452380Y-160305952D01*
X73547619Y-160353571D01*
X73880952Y-160353571D01*
X72738095Y-160877380D02*
X72833333Y-160829761D01*
X72880952Y-160782142D01*
X72928571Y-160686904D01*
X72928571Y-160401190D01*
X72880952Y-160305952D01*
X72833333Y-160258333D01*
X72738095Y-160210714D01*
X72595238Y-160210714D01*
X72500000Y-160258333D01*
X72452380Y-160305952D01*
X72404761Y-160401190D01*
X72404761Y-160686904D01*
X72452380Y-160782142D01*
X72500000Y-160829761D01*
X72595238Y-160877380D01*
X72738095Y-160877380D01*
X72119047Y-160210714D02*
X71738095Y-160210714D01*
X71976190Y-159877380D02*
X71976190Y-160734523D01*
X71928571Y-160829761D01*
X71833333Y-160877380D01*
X71738095Y-160877380D01*
X71547619Y-160210714D02*
X71166666Y-160210714D01*
X71404761Y-159877380D02*
X71404761Y-160734523D01*
X71357142Y-160829761D01*
X71261904Y-160877380D01*
X71166666Y-160877380D01*
X70690476Y-160877380D02*
X70785714Y-160829761D01*
X70833333Y-160782142D01*
X70880952Y-160686904D01*
X70880952Y-160401190D01*
X70833333Y-160305952D01*
X70785714Y-160258333D01*
X70690476Y-160210714D01*
X70547619Y-160210714D01*
X70452380Y-160258333D01*
X70404761Y-160305952D01*
X70357142Y-160401190D01*
X70357142Y-160686904D01*
X70404761Y-160782142D01*
X70452380Y-160829761D01*
X70547619Y-160877380D01*
X70690476Y-160877380D01*
X69928571Y-160877380D02*
X69928571Y-160210714D01*
X69928571Y-160305952D02*
X69880952Y-160258333D01*
X69785714Y-160210714D01*
X69642857Y-160210714D01*
X69547619Y-160258333D01*
X69500000Y-160353571D01*
X69500000Y-160877380D01*
X69500000Y-160353571D02*
X69452380Y-160258333D01*
X69357142Y-160210714D01*
X69214285Y-160210714D01*
X69119047Y-160258333D01*
X69071428Y-160353571D01*
X69071428Y-160877380D01*
X67880952Y-160829761D02*
X67738095Y-160877380D01*
X67500000Y-160877380D01*
X67404761Y-160829761D01*
X67357142Y-160782142D01*
X67309523Y-160686904D01*
X67309523Y-160591666D01*
X67357142Y-160496428D01*
X67404761Y-160448809D01*
X67500000Y-160401190D01*
X67690476Y-160353571D01*
X67785714Y-160305952D01*
X67833333Y-160258333D01*
X67880952Y-160163095D01*
X67880952Y-160067857D01*
X67833333Y-159972619D01*
X67785714Y-159925000D01*
X67690476Y-159877380D01*
X67452380Y-159877380D01*
X67309523Y-159925000D01*
X66880952Y-160877380D02*
X66880952Y-160210714D01*
X66880952Y-159877380D02*
X66928571Y-159925000D01*
X66880952Y-159972619D01*
X66833333Y-159925000D01*
X66880952Y-159877380D01*
X66880952Y-159972619D01*
X65976190Y-160877380D02*
X65976190Y-159877380D01*
X65976190Y-160829761D02*
X66071428Y-160877380D01*
X66261904Y-160877380D01*
X66357142Y-160829761D01*
X66404761Y-160782142D01*
X66452380Y-160686904D01*
X66452380Y-160401190D01*
X66404761Y-160305952D01*
X66357142Y-160258333D01*
X66261904Y-160210714D01*
X66071428Y-160210714D01*
X65976190Y-160258333D01*
X65119047Y-160829761D02*
X65214285Y-160877380D01*
X65404761Y-160877380D01*
X65500000Y-160829761D01*
X65547619Y-160734523D01*
X65547619Y-160353571D01*
X65500000Y-160258333D01*
X65404761Y-160210714D01*
X65214285Y-160210714D01*
X65119047Y-160258333D01*
X65071428Y-160353571D01*
X65071428Y-160448809D01*
X65547619Y-160544047D01*
X73833333Y-158377380D02*
X73500000Y-159377380D01*
X73166666Y-158377380D01*
X73595238Y-156877380D02*
X73404761Y-156877380D01*
X73309523Y-156925000D01*
X73214285Y-157020238D01*
X73166666Y-157210714D01*
X73166666Y-157544047D01*
X73214285Y-157734523D01*
X73309523Y-157829761D01*
X73404761Y-157877380D01*
X73595238Y-157877380D01*
X73690476Y-157829761D01*
X73785714Y-157734523D01*
X73833333Y-157544047D01*
X73833333Y-157210714D01*
X73785714Y-157020238D01*
X73690476Y-156925000D01*
X73595238Y-156877380D01*
X65500000Y-159377380D02*
X65500000Y-158377380D01*
X65238095Y-156925000D02*
X65333333Y-156877380D01*
X65476190Y-156877380D01*
X65619047Y-156925000D01*
X65714285Y-157020238D01*
X65761904Y-157115476D01*
X65809523Y-157305952D01*
X65809523Y-157448809D01*
X65761904Y-157639285D01*
X65714285Y-157734523D01*
X65619047Y-157829761D01*
X65476190Y-157877380D01*
X65380952Y-157877380D01*
X65238095Y-157829761D01*
X65190476Y-157782142D01*
X65190476Y-157448809D01*
X65380952Y-157448809D01*
X70714285Y-136777380D02*
X70714285Y-135777380D01*
X70476190Y-135777380D01*
X70333333Y-135825000D01*
X70238095Y-135920238D01*
X70190476Y-136015476D01*
X70142857Y-136205952D01*
X70142857Y-136348809D01*
X70190476Y-136539285D01*
X70238095Y-136634523D01*
X70333333Y-136729761D01*
X70476190Y-136777380D01*
X70714285Y-136777380D01*
X69285714Y-136110714D02*
X69285714Y-136777380D01*
X69523809Y-135729761D02*
X69761904Y-136444047D01*
X69142857Y-136444047D01*
X68238095Y-136777380D02*
X68809523Y-136777380D01*
X68523809Y-136777380D02*
X68523809Y-135777380D01*
X68619047Y-135920238D01*
X68714285Y-136015476D01*
X68809523Y-136063095D01*
X73547619Y-141303571D02*
X73404761Y-141351190D01*
X73357142Y-141398809D01*
X73309523Y-141494047D01*
X73309523Y-141636904D01*
X73357142Y-141732142D01*
X73404761Y-141779761D01*
X73500000Y-141827380D01*
X73880952Y-141827380D01*
X73880952Y-140827380D01*
X73547619Y-140827380D01*
X73452380Y-140875000D01*
X73404761Y-140922619D01*
X73357142Y-141017857D01*
X73357142Y-141113095D01*
X73404761Y-141208333D01*
X73452380Y-141255952D01*
X73547619Y-141303571D01*
X73880952Y-141303571D01*
X72738095Y-141827380D02*
X72833333Y-141779761D01*
X72880952Y-141732142D01*
X72928571Y-141636904D01*
X72928571Y-141351190D01*
X72880952Y-141255952D01*
X72833333Y-141208333D01*
X72738095Y-141160714D01*
X72595238Y-141160714D01*
X72500000Y-141208333D01*
X72452380Y-141255952D01*
X72404761Y-141351190D01*
X72404761Y-141636904D01*
X72452380Y-141732142D01*
X72500000Y-141779761D01*
X72595238Y-141827380D01*
X72738095Y-141827380D01*
X72119047Y-141160714D02*
X71738095Y-141160714D01*
X71976190Y-140827380D02*
X71976190Y-141684523D01*
X71928571Y-141779761D01*
X71833333Y-141827380D01*
X71738095Y-141827380D01*
X71547619Y-141160714D02*
X71166666Y-141160714D01*
X71404761Y-140827380D02*
X71404761Y-141684523D01*
X71357142Y-141779761D01*
X71261904Y-141827380D01*
X71166666Y-141827380D01*
X70690476Y-141827380D02*
X70785714Y-141779761D01*
X70833333Y-141732142D01*
X70880952Y-141636904D01*
X70880952Y-141351190D01*
X70833333Y-141255952D01*
X70785714Y-141208333D01*
X70690476Y-141160714D01*
X70547619Y-141160714D01*
X70452380Y-141208333D01*
X70404761Y-141255952D01*
X70357142Y-141351190D01*
X70357142Y-141636904D01*
X70404761Y-141732142D01*
X70452380Y-141779761D01*
X70547619Y-141827380D01*
X70690476Y-141827380D01*
X69928571Y-141827380D02*
X69928571Y-141160714D01*
X69928571Y-141255952D02*
X69880952Y-141208333D01*
X69785714Y-141160714D01*
X69642857Y-141160714D01*
X69547619Y-141208333D01*
X69500000Y-141303571D01*
X69500000Y-141827380D01*
X69500000Y-141303571D02*
X69452380Y-141208333D01*
X69357142Y-141160714D01*
X69214285Y-141160714D01*
X69119047Y-141208333D01*
X69071428Y-141303571D01*
X69071428Y-141827380D01*
X67880952Y-141779761D02*
X67738095Y-141827380D01*
X67500000Y-141827380D01*
X67404761Y-141779761D01*
X67357142Y-141732142D01*
X67309523Y-141636904D01*
X67309523Y-141541666D01*
X67357142Y-141446428D01*
X67404761Y-141398809D01*
X67500000Y-141351190D01*
X67690476Y-141303571D01*
X67785714Y-141255952D01*
X67833333Y-141208333D01*
X67880952Y-141113095D01*
X67880952Y-141017857D01*
X67833333Y-140922619D01*
X67785714Y-140875000D01*
X67690476Y-140827380D01*
X67452380Y-140827380D01*
X67309523Y-140875000D01*
X66880952Y-141827380D02*
X66880952Y-141160714D01*
X66880952Y-140827380D02*
X66928571Y-140875000D01*
X66880952Y-140922619D01*
X66833333Y-140875000D01*
X66880952Y-140827380D01*
X66880952Y-140922619D01*
X65976190Y-141827380D02*
X65976190Y-140827380D01*
X65976190Y-141779761D02*
X66071428Y-141827380D01*
X66261904Y-141827380D01*
X66357142Y-141779761D01*
X66404761Y-141732142D01*
X66452380Y-141636904D01*
X66452380Y-141351190D01*
X66404761Y-141255952D01*
X66357142Y-141208333D01*
X66261904Y-141160714D01*
X66071428Y-141160714D01*
X65976190Y-141208333D01*
X65119047Y-141779761D02*
X65214285Y-141827380D01*
X65404761Y-141827380D01*
X65500000Y-141779761D01*
X65547619Y-141684523D01*
X65547619Y-141303571D01*
X65500000Y-141208333D01*
X65404761Y-141160714D01*
X65214285Y-141160714D01*
X65119047Y-141208333D01*
X65071428Y-141303571D01*
X65071428Y-141398809D01*
X65547619Y-141494047D01*
X73833333Y-139327380D02*
X73500000Y-140327380D01*
X73166666Y-139327380D01*
X73595238Y-137827380D02*
X73404761Y-137827380D01*
X73309523Y-137875000D01*
X73214285Y-137970238D01*
X73166666Y-138160714D01*
X73166666Y-138494047D01*
X73214285Y-138684523D01*
X73309523Y-138779761D01*
X73404761Y-138827380D01*
X73595238Y-138827380D01*
X73690476Y-138779761D01*
X73785714Y-138684523D01*
X73833333Y-138494047D01*
X73833333Y-138160714D01*
X73785714Y-137970238D01*
X73690476Y-137875000D01*
X73595238Y-137827380D01*
X65500000Y-140327380D02*
X65500000Y-139327380D01*
X65238095Y-137875000D02*
X65333333Y-137827380D01*
X65476190Y-137827380D01*
X65619047Y-137875000D01*
X65714285Y-137970238D01*
X65761904Y-138065476D01*
X65809523Y-138255952D01*
X65809523Y-138398809D01*
X65761904Y-138589285D01*
X65714285Y-138684523D01*
X65619047Y-138779761D01*
X65476190Y-138827380D01*
X65380952Y-138827380D01*
X65238095Y-138779761D01*
X65190476Y-138732142D01*
X65190476Y-138398809D01*
X65380952Y-138398809D01*
X70714285Y-117727380D02*
X70714285Y-116727380D01*
X70476190Y-116727380D01*
X70333333Y-116775000D01*
X70238095Y-116870238D01*
X70190476Y-116965476D01*
X70142857Y-117155952D01*
X70142857Y-117298809D01*
X70190476Y-117489285D01*
X70238095Y-117584523D01*
X70333333Y-117679761D01*
X70476190Y-117727380D01*
X70714285Y-117727380D01*
X69285714Y-117060714D02*
X69285714Y-117727380D01*
X69523809Y-116679761D02*
X69761904Y-117394047D01*
X69142857Y-117394047D01*
X68571428Y-116727380D02*
X68476190Y-116727380D01*
X68380952Y-116775000D01*
X68333333Y-116822619D01*
X68285714Y-116917857D01*
X68238095Y-117108333D01*
X68238095Y-117346428D01*
X68285714Y-117536904D01*
X68333333Y-117632142D01*
X68380952Y-117679761D01*
X68476190Y-117727380D01*
X68571428Y-117727380D01*
X68666666Y-117679761D01*
X68714285Y-117632142D01*
X68761904Y-117536904D01*
X68809523Y-117346428D01*
X68809523Y-117108333D01*
X68761904Y-116917857D01*
X68714285Y-116822619D01*
X68666666Y-116775000D01*
X68571428Y-116727380D01*
X73547619Y-122253571D02*
X73404761Y-122301190D01*
X73357142Y-122348809D01*
X73309523Y-122444047D01*
X73309523Y-122586904D01*
X73357142Y-122682142D01*
X73404761Y-122729761D01*
X73500000Y-122777380D01*
X73880952Y-122777380D01*
X73880952Y-121777380D01*
X73547619Y-121777380D01*
X73452380Y-121825000D01*
X73404761Y-121872619D01*
X73357142Y-121967857D01*
X73357142Y-122063095D01*
X73404761Y-122158333D01*
X73452380Y-122205952D01*
X73547619Y-122253571D01*
X73880952Y-122253571D01*
X72738095Y-122777380D02*
X72833333Y-122729761D01*
X72880952Y-122682142D01*
X72928571Y-122586904D01*
X72928571Y-122301190D01*
X72880952Y-122205952D01*
X72833333Y-122158333D01*
X72738095Y-122110714D01*
X72595238Y-122110714D01*
X72500000Y-122158333D01*
X72452380Y-122205952D01*
X72404761Y-122301190D01*
X72404761Y-122586904D01*
X72452380Y-122682142D01*
X72500000Y-122729761D01*
X72595238Y-122777380D01*
X72738095Y-122777380D01*
X72119047Y-122110714D02*
X71738095Y-122110714D01*
X71976190Y-121777380D02*
X71976190Y-122634523D01*
X71928571Y-122729761D01*
X71833333Y-122777380D01*
X71738095Y-122777380D01*
X71547619Y-122110714D02*
X71166666Y-122110714D01*
X71404761Y-121777380D02*
X71404761Y-122634523D01*
X71357142Y-122729761D01*
X71261904Y-122777380D01*
X71166666Y-122777380D01*
X70690476Y-122777380D02*
X70785714Y-122729761D01*
X70833333Y-122682142D01*
X70880952Y-122586904D01*
X70880952Y-122301190D01*
X70833333Y-122205952D01*
X70785714Y-122158333D01*
X70690476Y-122110714D01*
X70547619Y-122110714D01*
X70452380Y-122158333D01*
X70404761Y-122205952D01*
X70357142Y-122301190D01*
X70357142Y-122586904D01*
X70404761Y-122682142D01*
X70452380Y-122729761D01*
X70547619Y-122777380D01*
X70690476Y-122777380D01*
X69928571Y-122777380D02*
X69928571Y-122110714D01*
X69928571Y-122205952D02*
X69880952Y-122158333D01*
X69785714Y-122110714D01*
X69642857Y-122110714D01*
X69547619Y-122158333D01*
X69500000Y-122253571D01*
X69500000Y-122777380D01*
X69500000Y-122253571D02*
X69452380Y-122158333D01*
X69357142Y-122110714D01*
X69214285Y-122110714D01*
X69119047Y-122158333D01*
X69071428Y-122253571D01*
X69071428Y-122777380D01*
X67880952Y-122729761D02*
X67738095Y-122777380D01*
X67500000Y-122777380D01*
X67404761Y-122729761D01*
X67357142Y-122682142D01*
X67309523Y-122586904D01*
X67309523Y-122491666D01*
X67357142Y-122396428D01*
X67404761Y-122348809D01*
X67500000Y-122301190D01*
X67690476Y-122253571D01*
X67785714Y-122205952D01*
X67833333Y-122158333D01*
X67880952Y-122063095D01*
X67880952Y-121967857D01*
X67833333Y-121872619D01*
X67785714Y-121825000D01*
X67690476Y-121777380D01*
X67452380Y-121777380D01*
X67309523Y-121825000D01*
X66880952Y-122777380D02*
X66880952Y-122110714D01*
X66880952Y-121777380D02*
X66928571Y-121825000D01*
X66880952Y-121872619D01*
X66833333Y-121825000D01*
X66880952Y-121777380D01*
X66880952Y-121872619D01*
X65976190Y-122777380D02*
X65976190Y-121777380D01*
X65976190Y-122729761D02*
X66071428Y-122777380D01*
X66261904Y-122777380D01*
X66357142Y-122729761D01*
X66404761Y-122682142D01*
X66452380Y-122586904D01*
X66452380Y-122301190D01*
X66404761Y-122205952D01*
X66357142Y-122158333D01*
X66261904Y-122110714D01*
X66071428Y-122110714D01*
X65976190Y-122158333D01*
X65119047Y-122729761D02*
X65214285Y-122777380D01*
X65404761Y-122777380D01*
X65500000Y-122729761D01*
X65547619Y-122634523D01*
X65547619Y-122253571D01*
X65500000Y-122158333D01*
X65404761Y-122110714D01*
X65214285Y-122110714D01*
X65119047Y-122158333D01*
X65071428Y-122253571D01*
X65071428Y-122348809D01*
X65547619Y-122444047D01*
X73833333Y-120277380D02*
X73500000Y-121277380D01*
X73166666Y-120277380D01*
X73595238Y-118777380D02*
X73404761Y-118777380D01*
X73309523Y-118825000D01*
X73214285Y-118920238D01*
X73166666Y-119110714D01*
X73166666Y-119444047D01*
X73214285Y-119634523D01*
X73309523Y-119729761D01*
X73404761Y-119777380D01*
X73595238Y-119777380D01*
X73690476Y-119729761D01*
X73785714Y-119634523D01*
X73833333Y-119444047D01*
X73833333Y-119110714D01*
X73785714Y-118920238D01*
X73690476Y-118825000D01*
X73595238Y-118777380D01*
X65500000Y-121277380D02*
X65500000Y-120277380D01*
X65238095Y-118825000D02*
X65333333Y-118777380D01*
X65476190Y-118777380D01*
X65619047Y-118825000D01*
X65714285Y-118920238D01*
X65761904Y-119015476D01*
X65809523Y-119205952D01*
X65809523Y-119348809D01*
X65761904Y-119539285D01*
X65714285Y-119634523D01*
X65619047Y-119729761D01*
X65476190Y-119777380D01*
X65380952Y-119777380D01*
X65238095Y-119729761D01*
X65190476Y-119682142D01*
X65190476Y-119348809D01*
X65380952Y-119348809D01*
X70714285Y-98677380D02*
X70714285Y-97677380D01*
X70476190Y-97677380D01*
X70333333Y-97725000D01*
X70238095Y-97820238D01*
X70190476Y-97915476D01*
X70142857Y-98105952D01*
X70142857Y-98248809D01*
X70190476Y-98439285D01*
X70238095Y-98534523D01*
X70333333Y-98629761D01*
X70476190Y-98677380D01*
X70714285Y-98677380D01*
X69809523Y-97677380D02*
X69190476Y-97677380D01*
X69523809Y-98058333D01*
X69380952Y-98058333D01*
X69285714Y-98105952D01*
X69238095Y-98153571D01*
X69190476Y-98248809D01*
X69190476Y-98486904D01*
X69238095Y-98582142D01*
X69285714Y-98629761D01*
X69380952Y-98677380D01*
X69666666Y-98677380D01*
X69761904Y-98629761D01*
X69809523Y-98582142D01*
X68714285Y-98677380D02*
X68523809Y-98677380D01*
X68428571Y-98629761D01*
X68380952Y-98582142D01*
X68285714Y-98439285D01*
X68238095Y-98248809D01*
X68238095Y-97867857D01*
X68285714Y-97772619D01*
X68333333Y-97725000D01*
X68428571Y-97677380D01*
X68619047Y-97677380D01*
X68714285Y-97725000D01*
X68761904Y-97772619D01*
X68809523Y-97867857D01*
X68809523Y-98105952D01*
X68761904Y-98201190D01*
X68714285Y-98248809D01*
X68619047Y-98296428D01*
X68428571Y-98296428D01*
X68333333Y-98248809D01*
X68285714Y-98201190D01*
X68238095Y-98105952D01*
X73547619Y-103203571D02*
X73404761Y-103251190D01*
X73357142Y-103298809D01*
X73309523Y-103394047D01*
X73309523Y-103536904D01*
X73357142Y-103632142D01*
X73404761Y-103679761D01*
X73500000Y-103727380D01*
X73880952Y-103727380D01*
X73880952Y-102727380D01*
X73547619Y-102727380D01*
X73452380Y-102775000D01*
X73404761Y-102822619D01*
X73357142Y-102917857D01*
X73357142Y-103013095D01*
X73404761Y-103108333D01*
X73452380Y-103155952D01*
X73547619Y-103203571D01*
X73880952Y-103203571D01*
X72738095Y-103727380D02*
X72833333Y-103679761D01*
X72880952Y-103632142D01*
X72928571Y-103536904D01*
X72928571Y-103251190D01*
X72880952Y-103155952D01*
X72833333Y-103108333D01*
X72738095Y-103060714D01*
X72595238Y-103060714D01*
X72500000Y-103108333D01*
X72452380Y-103155952D01*
X72404761Y-103251190D01*
X72404761Y-103536904D01*
X72452380Y-103632142D01*
X72500000Y-103679761D01*
X72595238Y-103727380D01*
X72738095Y-103727380D01*
X72119047Y-103060714D02*
X71738095Y-103060714D01*
X71976190Y-102727380D02*
X71976190Y-103584523D01*
X71928571Y-103679761D01*
X71833333Y-103727380D01*
X71738095Y-103727380D01*
X71547619Y-103060714D02*
X71166666Y-103060714D01*
X71404761Y-102727380D02*
X71404761Y-103584523D01*
X71357142Y-103679761D01*
X71261904Y-103727380D01*
X71166666Y-103727380D01*
X70690476Y-103727380D02*
X70785714Y-103679761D01*
X70833333Y-103632142D01*
X70880952Y-103536904D01*
X70880952Y-103251190D01*
X70833333Y-103155952D01*
X70785714Y-103108333D01*
X70690476Y-103060714D01*
X70547619Y-103060714D01*
X70452380Y-103108333D01*
X70404761Y-103155952D01*
X70357142Y-103251190D01*
X70357142Y-103536904D01*
X70404761Y-103632142D01*
X70452380Y-103679761D01*
X70547619Y-103727380D01*
X70690476Y-103727380D01*
X69928571Y-103727380D02*
X69928571Y-103060714D01*
X69928571Y-103155952D02*
X69880952Y-103108333D01*
X69785714Y-103060714D01*
X69642857Y-103060714D01*
X69547619Y-103108333D01*
X69500000Y-103203571D01*
X69500000Y-103727380D01*
X69500000Y-103203571D02*
X69452380Y-103108333D01*
X69357142Y-103060714D01*
X69214285Y-103060714D01*
X69119047Y-103108333D01*
X69071428Y-103203571D01*
X69071428Y-103727380D01*
X67880952Y-103679761D02*
X67738095Y-103727380D01*
X67500000Y-103727380D01*
X67404761Y-103679761D01*
X67357142Y-103632142D01*
X67309523Y-103536904D01*
X67309523Y-103441666D01*
X67357142Y-103346428D01*
X67404761Y-103298809D01*
X67500000Y-103251190D01*
X67690476Y-103203571D01*
X67785714Y-103155952D01*
X67833333Y-103108333D01*
X67880952Y-103013095D01*
X67880952Y-102917857D01*
X67833333Y-102822619D01*
X67785714Y-102775000D01*
X67690476Y-102727380D01*
X67452380Y-102727380D01*
X67309523Y-102775000D01*
X66880952Y-103727380D02*
X66880952Y-103060714D01*
X66880952Y-102727380D02*
X66928571Y-102775000D01*
X66880952Y-102822619D01*
X66833333Y-102775000D01*
X66880952Y-102727380D01*
X66880952Y-102822619D01*
X65976190Y-103727380D02*
X65976190Y-102727380D01*
X65976190Y-103679761D02*
X66071428Y-103727380D01*
X66261904Y-103727380D01*
X66357142Y-103679761D01*
X66404761Y-103632142D01*
X66452380Y-103536904D01*
X66452380Y-103251190D01*
X66404761Y-103155952D01*
X66357142Y-103108333D01*
X66261904Y-103060714D01*
X66071428Y-103060714D01*
X65976190Y-103108333D01*
X65119047Y-103679761D02*
X65214285Y-103727380D01*
X65404761Y-103727380D01*
X65500000Y-103679761D01*
X65547619Y-103584523D01*
X65547619Y-103203571D01*
X65500000Y-103108333D01*
X65404761Y-103060714D01*
X65214285Y-103060714D01*
X65119047Y-103108333D01*
X65071428Y-103203571D01*
X65071428Y-103298809D01*
X65547619Y-103394047D01*
X73833333Y-101227380D02*
X73500000Y-102227380D01*
X73166666Y-101227380D01*
X73595238Y-99727380D02*
X73404761Y-99727380D01*
X73309523Y-99775000D01*
X73214285Y-99870238D01*
X73166666Y-100060714D01*
X73166666Y-100394047D01*
X73214285Y-100584523D01*
X73309523Y-100679761D01*
X73404761Y-100727380D01*
X73595238Y-100727380D01*
X73690476Y-100679761D01*
X73785714Y-100584523D01*
X73833333Y-100394047D01*
X73833333Y-100060714D01*
X73785714Y-99870238D01*
X73690476Y-99775000D01*
X73595238Y-99727380D01*
X65500000Y-102227380D02*
X65500000Y-101227380D01*
X65238095Y-99775000D02*
X65333333Y-99727380D01*
X65476190Y-99727380D01*
X65619047Y-99775000D01*
X65714285Y-99870238D01*
X65761904Y-99965476D01*
X65809523Y-100155952D01*
X65809523Y-100298809D01*
X65761904Y-100489285D01*
X65714285Y-100584523D01*
X65619047Y-100679761D01*
X65476190Y-100727380D01*
X65380952Y-100727380D01*
X65238095Y-100679761D01*
X65190476Y-100632142D01*
X65190476Y-100298809D01*
X65380952Y-100298809D01*
X70714285Y-79627380D02*
X70714285Y-78627380D01*
X70476190Y-78627380D01*
X70333333Y-78675000D01*
X70238095Y-78770238D01*
X70190476Y-78865476D01*
X70142857Y-79055952D01*
X70142857Y-79198809D01*
X70190476Y-79389285D01*
X70238095Y-79484523D01*
X70333333Y-79579761D01*
X70476190Y-79627380D01*
X70714285Y-79627380D01*
X69809523Y-78627380D02*
X69190476Y-78627380D01*
X69523809Y-79008333D01*
X69380952Y-79008333D01*
X69285714Y-79055952D01*
X69238095Y-79103571D01*
X69190476Y-79198809D01*
X69190476Y-79436904D01*
X69238095Y-79532142D01*
X69285714Y-79579761D01*
X69380952Y-79627380D01*
X69666666Y-79627380D01*
X69761904Y-79579761D01*
X69809523Y-79532142D01*
X68619047Y-79055952D02*
X68714285Y-79008333D01*
X68761904Y-78960714D01*
X68809523Y-78865476D01*
X68809523Y-78817857D01*
X68761904Y-78722619D01*
X68714285Y-78675000D01*
X68619047Y-78627380D01*
X68428571Y-78627380D01*
X68333333Y-78675000D01*
X68285714Y-78722619D01*
X68238095Y-78817857D01*
X68238095Y-78865476D01*
X68285714Y-78960714D01*
X68333333Y-79008333D01*
X68428571Y-79055952D01*
X68619047Y-79055952D01*
X68714285Y-79103571D01*
X68761904Y-79151190D01*
X68809523Y-79246428D01*
X68809523Y-79436904D01*
X68761904Y-79532142D01*
X68714285Y-79579761D01*
X68619047Y-79627380D01*
X68428571Y-79627380D01*
X68333333Y-79579761D01*
X68285714Y-79532142D01*
X68238095Y-79436904D01*
X68238095Y-79246428D01*
X68285714Y-79151190D01*
X68333333Y-79103571D01*
X68428571Y-79055952D01*
X73547619Y-84153571D02*
X73404761Y-84201190D01*
X73357142Y-84248809D01*
X73309523Y-84344047D01*
X73309523Y-84486904D01*
X73357142Y-84582142D01*
X73404761Y-84629761D01*
X73500000Y-84677380D01*
X73880952Y-84677380D01*
X73880952Y-83677380D01*
X73547619Y-83677380D01*
X73452380Y-83725000D01*
X73404761Y-83772619D01*
X73357142Y-83867857D01*
X73357142Y-83963095D01*
X73404761Y-84058333D01*
X73452380Y-84105952D01*
X73547619Y-84153571D01*
X73880952Y-84153571D01*
X72738095Y-84677380D02*
X72833333Y-84629761D01*
X72880952Y-84582142D01*
X72928571Y-84486904D01*
X72928571Y-84201190D01*
X72880952Y-84105952D01*
X72833333Y-84058333D01*
X72738095Y-84010714D01*
X72595238Y-84010714D01*
X72500000Y-84058333D01*
X72452380Y-84105952D01*
X72404761Y-84201190D01*
X72404761Y-84486904D01*
X72452380Y-84582142D01*
X72500000Y-84629761D01*
X72595238Y-84677380D01*
X72738095Y-84677380D01*
X72119047Y-84010714D02*
X71738095Y-84010714D01*
X71976190Y-83677380D02*
X71976190Y-84534523D01*
X71928571Y-84629761D01*
X71833333Y-84677380D01*
X71738095Y-84677380D01*
X71547619Y-84010714D02*
X71166666Y-84010714D01*
X71404761Y-83677380D02*
X71404761Y-84534523D01*
X71357142Y-84629761D01*
X71261904Y-84677380D01*
X71166666Y-84677380D01*
X70690476Y-84677380D02*
X70785714Y-84629761D01*
X70833333Y-84582142D01*
X70880952Y-84486904D01*
X70880952Y-84201190D01*
X70833333Y-84105952D01*
X70785714Y-84058333D01*
X70690476Y-84010714D01*
X70547619Y-84010714D01*
X70452380Y-84058333D01*
X70404761Y-84105952D01*
X70357142Y-84201190D01*
X70357142Y-84486904D01*
X70404761Y-84582142D01*
X70452380Y-84629761D01*
X70547619Y-84677380D01*
X70690476Y-84677380D01*
X69928571Y-84677380D02*
X69928571Y-84010714D01*
X69928571Y-84105952D02*
X69880952Y-84058333D01*
X69785714Y-84010714D01*
X69642857Y-84010714D01*
X69547619Y-84058333D01*
X69500000Y-84153571D01*
X69500000Y-84677380D01*
X69500000Y-84153571D02*
X69452380Y-84058333D01*
X69357142Y-84010714D01*
X69214285Y-84010714D01*
X69119047Y-84058333D01*
X69071428Y-84153571D01*
X69071428Y-84677380D01*
X67880952Y-84629761D02*
X67738095Y-84677380D01*
X67500000Y-84677380D01*
X67404761Y-84629761D01*
X67357142Y-84582142D01*
X67309523Y-84486904D01*
X67309523Y-84391666D01*
X67357142Y-84296428D01*
X67404761Y-84248809D01*
X67500000Y-84201190D01*
X67690476Y-84153571D01*
X67785714Y-84105952D01*
X67833333Y-84058333D01*
X67880952Y-83963095D01*
X67880952Y-83867857D01*
X67833333Y-83772619D01*
X67785714Y-83725000D01*
X67690476Y-83677380D01*
X67452380Y-83677380D01*
X67309523Y-83725000D01*
X66880952Y-84677380D02*
X66880952Y-84010714D01*
X66880952Y-83677380D02*
X66928571Y-83725000D01*
X66880952Y-83772619D01*
X66833333Y-83725000D01*
X66880952Y-83677380D01*
X66880952Y-83772619D01*
X65976190Y-84677380D02*
X65976190Y-83677380D01*
X65976190Y-84629761D02*
X66071428Y-84677380D01*
X66261904Y-84677380D01*
X66357142Y-84629761D01*
X66404761Y-84582142D01*
X66452380Y-84486904D01*
X66452380Y-84201190D01*
X66404761Y-84105952D01*
X66357142Y-84058333D01*
X66261904Y-84010714D01*
X66071428Y-84010714D01*
X65976190Y-84058333D01*
X65119047Y-84629761D02*
X65214285Y-84677380D01*
X65404761Y-84677380D01*
X65500000Y-84629761D01*
X65547619Y-84534523D01*
X65547619Y-84153571D01*
X65500000Y-84058333D01*
X65404761Y-84010714D01*
X65214285Y-84010714D01*
X65119047Y-84058333D01*
X65071428Y-84153571D01*
X65071428Y-84248809D01*
X65547619Y-84344047D01*
X73833333Y-82177380D02*
X73500000Y-83177380D01*
X73166666Y-82177380D01*
X73595238Y-80677380D02*
X73404761Y-80677380D01*
X73309523Y-80725000D01*
X73214285Y-80820238D01*
X73166666Y-81010714D01*
X73166666Y-81344047D01*
X73214285Y-81534523D01*
X73309523Y-81629761D01*
X73404761Y-81677380D01*
X73595238Y-81677380D01*
X73690476Y-81629761D01*
X73785714Y-81534523D01*
X73833333Y-81344047D01*
X73833333Y-81010714D01*
X73785714Y-80820238D01*
X73690476Y-80725000D01*
X73595238Y-80677380D01*
X65500000Y-83177380D02*
X65500000Y-82177380D01*
X65238095Y-80725000D02*
X65333333Y-80677380D01*
X65476190Y-80677380D01*
X65619047Y-80725000D01*
X65714285Y-80820238D01*
X65761904Y-80915476D01*
X65809523Y-81105952D01*
X65809523Y-81248809D01*
X65761904Y-81439285D01*
X65714285Y-81534523D01*
X65619047Y-81629761D01*
X65476190Y-81677380D01*
X65380952Y-81677380D01*
X65238095Y-81629761D01*
X65190476Y-81582142D01*
X65190476Y-81248809D01*
X65380952Y-81248809D01*
X51664285Y-174877380D02*
X51664285Y-173877380D01*
X51426190Y-173877380D01*
X51283333Y-173925000D01*
X51188095Y-174020238D01*
X51140476Y-174115476D01*
X51092857Y-174305952D01*
X51092857Y-174448809D01*
X51140476Y-174639285D01*
X51188095Y-174734523D01*
X51283333Y-174829761D01*
X51426190Y-174877380D01*
X51664285Y-174877380D01*
X50759523Y-173877380D02*
X50140476Y-173877380D01*
X50473809Y-174258333D01*
X50330952Y-174258333D01*
X50235714Y-174305952D01*
X50188095Y-174353571D01*
X50140476Y-174448809D01*
X50140476Y-174686904D01*
X50188095Y-174782142D01*
X50235714Y-174829761D01*
X50330952Y-174877380D01*
X50616666Y-174877380D01*
X50711904Y-174829761D01*
X50759523Y-174782142D01*
X49807142Y-173877380D02*
X49140476Y-173877380D01*
X49569047Y-174877380D01*
X54497619Y-179403571D02*
X54354761Y-179451190D01*
X54307142Y-179498809D01*
X54259523Y-179594047D01*
X54259523Y-179736904D01*
X54307142Y-179832142D01*
X54354761Y-179879761D01*
X54450000Y-179927380D01*
X54830952Y-179927380D01*
X54830952Y-178927380D01*
X54497619Y-178927380D01*
X54402380Y-178975000D01*
X54354761Y-179022619D01*
X54307142Y-179117857D01*
X54307142Y-179213095D01*
X54354761Y-179308333D01*
X54402380Y-179355952D01*
X54497619Y-179403571D01*
X54830952Y-179403571D01*
X53688095Y-179927380D02*
X53783333Y-179879761D01*
X53830952Y-179832142D01*
X53878571Y-179736904D01*
X53878571Y-179451190D01*
X53830952Y-179355952D01*
X53783333Y-179308333D01*
X53688095Y-179260714D01*
X53545238Y-179260714D01*
X53450000Y-179308333D01*
X53402380Y-179355952D01*
X53354761Y-179451190D01*
X53354761Y-179736904D01*
X53402380Y-179832142D01*
X53450000Y-179879761D01*
X53545238Y-179927380D01*
X53688095Y-179927380D01*
X53069047Y-179260714D02*
X52688095Y-179260714D01*
X52926190Y-178927380D02*
X52926190Y-179784523D01*
X52878571Y-179879761D01*
X52783333Y-179927380D01*
X52688095Y-179927380D01*
X52497619Y-179260714D02*
X52116666Y-179260714D01*
X52354761Y-178927380D02*
X52354761Y-179784523D01*
X52307142Y-179879761D01*
X52211904Y-179927380D01*
X52116666Y-179927380D01*
X51640476Y-179927380D02*
X51735714Y-179879761D01*
X51783333Y-179832142D01*
X51830952Y-179736904D01*
X51830952Y-179451190D01*
X51783333Y-179355952D01*
X51735714Y-179308333D01*
X51640476Y-179260714D01*
X51497619Y-179260714D01*
X51402380Y-179308333D01*
X51354761Y-179355952D01*
X51307142Y-179451190D01*
X51307142Y-179736904D01*
X51354761Y-179832142D01*
X51402380Y-179879761D01*
X51497619Y-179927380D01*
X51640476Y-179927380D01*
X50878571Y-179927380D02*
X50878571Y-179260714D01*
X50878571Y-179355952D02*
X50830952Y-179308333D01*
X50735714Y-179260714D01*
X50592857Y-179260714D01*
X50497619Y-179308333D01*
X50450000Y-179403571D01*
X50450000Y-179927380D01*
X50450000Y-179403571D02*
X50402380Y-179308333D01*
X50307142Y-179260714D01*
X50164285Y-179260714D01*
X50069047Y-179308333D01*
X50021428Y-179403571D01*
X50021428Y-179927380D01*
X48830952Y-179879761D02*
X48688095Y-179927380D01*
X48450000Y-179927380D01*
X48354761Y-179879761D01*
X48307142Y-179832142D01*
X48259523Y-179736904D01*
X48259523Y-179641666D01*
X48307142Y-179546428D01*
X48354761Y-179498809D01*
X48450000Y-179451190D01*
X48640476Y-179403571D01*
X48735714Y-179355952D01*
X48783333Y-179308333D01*
X48830952Y-179213095D01*
X48830952Y-179117857D01*
X48783333Y-179022619D01*
X48735714Y-178975000D01*
X48640476Y-178927380D01*
X48402380Y-178927380D01*
X48259523Y-178975000D01*
X47830952Y-179927380D02*
X47830952Y-179260714D01*
X47830952Y-178927380D02*
X47878571Y-178975000D01*
X47830952Y-179022619D01*
X47783333Y-178975000D01*
X47830952Y-178927380D01*
X47830952Y-179022619D01*
X46926190Y-179927380D02*
X46926190Y-178927380D01*
X46926190Y-179879761D02*
X47021428Y-179927380D01*
X47211904Y-179927380D01*
X47307142Y-179879761D01*
X47354761Y-179832142D01*
X47402380Y-179736904D01*
X47402380Y-179451190D01*
X47354761Y-179355952D01*
X47307142Y-179308333D01*
X47211904Y-179260714D01*
X47021428Y-179260714D01*
X46926190Y-179308333D01*
X46069047Y-179879761D02*
X46164285Y-179927380D01*
X46354761Y-179927380D01*
X46450000Y-179879761D01*
X46497619Y-179784523D01*
X46497619Y-179403571D01*
X46450000Y-179308333D01*
X46354761Y-179260714D01*
X46164285Y-179260714D01*
X46069047Y-179308333D01*
X46021428Y-179403571D01*
X46021428Y-179498809D01*
X46497619Y-179594047D01*
X54783333Y-177427380D02*
X54450000Y-178427380D01*
X54116666Y-177427380D01*
X54545238Y-175927380D02*
X54354761Y-175927380D01*
X54259523Y-175975000D01*
X54164285Y-176070238D01*
X54116666Y-176260714D01*
X54116666Y-176594047D01*
X54164285Y-176784523D01*
X54259523Y-176879761D01*
X54354761Y-176927380D01*
X54545238Y-176927380D01*
X54640476Y-176879761D01*
X54735714Y-176784523D01*
X54783333Y-176594047D01*
X54783333Y-176260714D01*
X54735714Y-176070238D01*
X54640476Y-175975000D01*
X54545238Y-175927380D01*
X46450000Y-178427380D02*
X46450000Y-177427380D01*
X46188095Y-175975000D02*
X46283333Y-175927380D01*
X46426190Y-175927380D01*
X46569047Y-175975000D01*
X46664285Y-176070238D01*
X46711904Y-176165476D01*
X46759523Y-176355952D01*
X46759523Y-176498809D01*
X46711904Y-176689285D01*
X46664285Y-176784523D01*
X46569047Y-176879761D01*
X46426190Y-176927380D01*
X46330952Y-176927380D01*
X46188095Y-176879761D01*
X46140476Y-176832142D01*
X46140476Y-176498809D01*
X46330952Y-176498809D01*
X51664285Y-155827380D02*
X51664285Y-154827380D01*
X51426190Y-154827380D01*
X51283333Y-154875000D01*
X51188095Y-154970238D01*
X51140476Y-155065476D01*
X51092857Y-155255952D01*
X51092857Y-155398809D01*
X51140476Y-155589285D01*
X51188095Y-155684523D01*
X51283333Y-155779761D01*
X51426190Y-155827380D01*
X51664285Y-155827380D01*
X50759523Y-154827380D02*
X50140476Y-154827380D01*
X50473809Y-155208333D01*
X50330952Y-155208333D01*
X50235714Y-155255952D01*
X50188095Y-155303571D01*
X50140476Y-155398809D01*
X50140476Y-155636904D01*
X50188095Y-155732142D01*
X50235714Y-155779761D01*
X50330952Y-155827380D01*
X50616666Y-155827380D01*
X50711904Y-155779761D01*
X50759523Y-155732142D01*
X49283333Y-154827380D02*
X49473809Y-154827380D01*
X49569047Y-154875000D01*
X49616666Y-154922619D01*
X49711904Y-155065476D01*
X49759523Y-155255952D01*
X49759523Y-155636904D01*
X49711904Y-155732142D01*
X49664285Y-155779761D01*
X49569047Y-155827380D01*
X49378571Y-155827380D01*
X49283333Y-155779761D01*
X49235714Y-155732142D01*
X49188095Y-155636904D01*
X49188095Y-155398809D01*
X49235714Y-155303571D01*
X49283333Y-155255952D01*
X49378571Y-155208333D01*
X49569047Y-155208333D01*
X49664285Y-155255952D01*
X49711904Y-155303571D01*
X49759523Y-155398809D01*
X54497619Y-160353571D02*
X54354761Y-160401190D01*
X54307142Y-160448809D01*
X54259523Y-160544047D01*
X54259523Y-160686904D01*
X54307142Y-160782142D01*
X54354761Y-160829761D01*
X54450000Y-160877380D01*
X54830952Y-160877380D01*
X54830952Y-159877380D01*
X54497619Y-159877380D01*
X54402380Y-159925000D01*
X54354761Y-159972619D01*
X54307142Y-160067857D01*
X54307142Y-160163095D01*
X54354761Y-160258333D01*
X54402380Y-160305952D01*
X54497619Y-160353571D01*
X54830952Y-160353571D01*
X53688095Y-160877380D02*
X53783333Y-160829761D01*
X53830952Y-160782142D01*
X53878571Y-160686904D01*
X53878571Y-160401190D01*
X53830952Y-160305952D01*
X53783333Y-160258333D01*
X53688095Y-160210714D01*
X53545238Y-160210714D01*
X53450000Y-160258333D01*
X53402380Y-160305952D01*
X53354761Y-160401190D01*
X53354761Y-160686904D01*
X53402380Y-160782142D01*
X53450000Y-160829761D01*
X53545238Y-160877380D01*
X53688095Y-160877380D01*
X53069047Y-160210714D02*
X52688095Y-160210714D01*
X52926190Y-159877380D02*
X52926190Y-160734523D01*
X52878571Y-160829761D01*
X52783333Y-160877380D01*
X52688095Y-160877380D01*
X52497619Y-160210714D02*
X52116666Y-160210714D01*
X52354761Y-159877380D02*
X52354761Y-160734523D01*
X52307142Y-160829761D01*
X52211904Y-160877380D01*
X52116666Y-160877380D01*
X51640476Y-160877380D02*
X51735714Y-160829761D01*
X51783333Y-160782142D01*
X51830952Y-160686904D01*
X51830952Y-160401190D01*
X51783333Y-160305952D01*
X51735714Y-160258333D01*
X51640476Y-160210714D01*
X51497619Y-160210714D01*
X51402380Y-160258333D01*
X51354761Y-160305952D01*
X51307142Y-160401190D01*
X51307142Y-160686904D01*
X51354761Y-160782142D01*
X51402380Y-160829761D01*
X51497619Y-160877380D01*
X51640476Y-160877380D01*
X50878571Y-160877380D02*
X50878571Y-160210714D01*
X50878571Y-160305952D02*
X50830952Y-160258333D01*
X50735714Y-160210714D01*
X50592857Y-160210714D01*
X50497619Y-160258333D01*
X50450000Y-160353571D01*
X50450000Y-160877380D01*
X50450000Y-160353571D02*
X50402380Y-160258333D01*
X50307142Y-160210714D01*
X50164285Y-160210714D01*
X50069047Y-160258333D01*
X50021428Y-160353571D01*
X50021428Y-160877380D01*
X48830952Y-160829761D02*
X48688095Y-160877380D01*
X48450000Y-160877380D01*
X48354761Y-160829761D01*
X48307142Y-160782142D01*
X48259523Y-160686904D01*
X48259523Y-160591666D01*
X48307142Y-160496428D01*
X48354761Y-160448809D01*
X48450000Y-160401190D01*
X48640476Y-160353571D01*
X48735714Y-160305952D01*
X48783333Y-160258333D01*
X48830952Y-160163095D01*
X48830952Y-160067857D01*
X48783333Y-159972619D01*
X48735714Y-159925000D01*
X48640476Y-159877380D01*
X48402380Y-159877380D01*
X48259523Y-159925000D01*
X47830952Y-160877380D02*
X47830952Y-160210714D01*
X47830952Y-159877380D02*
X47878571Y-159925000D01*
X47830952Y-159972619D01*
X47783333Y-159925000D01*
X47830952Y-159877380D01*
X47830952Y-159972619D01*
X46926190Y-160877380D02*
X46926190Y-159877380D01*
X46926190Y-160829761D02*
X47021428Y-160877380D01*
X47211904Y-160877380D01*
X47307142Y-160829761D01*
X47354761Y-160782142D01*
X47402380Y-160686904D01*
X47402380Y-160401190D01*
X47354761Y-160305952D01*
X47307142Y-160258333D01*
X47211904Y-160210714D01*
X47021428Y-160210714D01*
X46926190Y-160258333D01*
X46069047Y-160829761D02*
X46164285Y-160877380D01*
X46354761Y-160877380D01*
X46450000Y-160829761D01*
X46497619Y-160734523D01*
X46497619Y-160353571D01*
X46450000Y-160258333D01*
X46354761Y-160210714D01*
X46164285Y-160210714D01*
X46069047Y-160258333D01*
X46021428Y-160353571D01*
X46021428Y-160448809D01*
X46497619Y-160544047D01*
X54783333Y-158377380D02*
X54450000Y-159377380D01*
X54116666Y-158377380D01*
X54545238Y-156877380D02*
X54354761Y-156877380D01*
X54259523Y-156925000D01*
X54164285Y-157020238D01*
X54116666Y-157210714D01*
X54116666Y-157544047D01*
X54164285Y-157734523D01*
X54259523Y-157829761D01*
X54354761Y-157877380D01*
X54545238Y-157877380D01*
X54640476Y-157829761D01*
X54735714Y-157734523D01*
X54783333Y-157544047D01*
X54783333Y-157210714D01*
X54735714Y-157020238D01*
X54640476Y-156925000D01*
X54545238Y-156877380D01*
X46450000Y-159377380D02*
X46450000Y-158377380D01*
X46188095Y-156925000D02*
X46283333Y-156877380D01*
X46426190Y-156877380D01*
X46569047Y-156925000D01*
X46664285Y-157020238D01*
X46711904Y-157115476D01*
X46759523Y-157305952D01*
X46759523Y-157448809D01*
X46711904Y-157639285D01*
X46664285Y-157734523D01*
X46569047Y-157829761D01*
X46426190Y-157877380D01*
X46330952Y-157877380D01*
X46188095Y-157829761D01*
X46140476Y-157782142D01*
X46140476Y-157448809D01*
X46330952Y-157448809D01*
X51664285Y-136777380D02*
X51664285Y-135777380D01*
X51426190Y-135777380D01*
X51283333Y-135825000D01*
X51188095Y-135920238D01*
X51140476Y-136015476D01*
X51092857Y-136205952D01*
X51092857Y-136348809D01*
X51140476Y-136539285D01*
X51188095Y-136634523D01*
X51283333Y-136729761D01*
X51426190Y-136777380D01*
X51664285Y-136777380D01*
X50759523Y-135777380D02*
X50140476Y-135777380D01*
X50473809Y-136158333D01*
X50330952Y-136158333D01*
X50235714Y-136205952D01*
X50188095Y-136253571D01*
X50140476Y-136348809D01*
X50140476Y-136586904D01*
X50188095Y-136682142D01*
X50235714Y-136729761D01*
X50330952Y-136777380D01*
X50616666Y-136777380D01*
X50711904Y-136729761D01*
X50759523Y-136682142D01*
X49235714Y-135777380D02*
X49711904Y-135777380D01*
X49759523Y-136253571D01*
X49711904Y-136205952D01*
X49616666Y-136158333D01*
X49378571Y-136158333D01*
X49283333Y-136205952D01*
X49235714Y-136253571D01*
X49188095Y-136348809D01*
X49188095Y-136586904D01*
X49235714Y-136682142D01*
X49283333Y-136729761D01*
X49378571Y-136777380D01*
X49616666Y-136777380D01*
X49711904Y-136729761D01*
X49759523Y-136682142D01*
X54497619Y-141303571D02*
X54354761Y-141351190D01*
X54307142Y-141398809D01*
X54259523Y-141494047D01*
X54259523Y-141636904D01*
X54307142Y-141732142D01*
X54354761Y-141779761D01*
X54450000Y-141827380D01*
X54830952Y-141827380D01*
X54830952Y-140827380D01*
X54497619Y-140827380D01*
X54402380Y-140875000D01*
X54354761Y-140922619D01*
X54307142Y-141017857D01*
X54307142Y-141113095D01*
X54354761Y-141208333D01*
X54402380Y-141255952D01*
X54497619Y-141303571D01*
X54830952Y-141303571D01*
X53688095Y-141827380D02*
X53783333Y-141779761D01*
X53830952Y-141732142D01*
X53878571Y-141636904D01*
X53878571Y-141351190D01*
X53830952Y-141255952D01*
X53783333Y-141208333D01*
X53688095Y-141160714D01*
X53545238Y-141160714D01*
X53450000Y-141208333D01*
X53402380Y-141255952D01*
X53354761Y-141351190D01*
X53354761Y-141636904D01*
X53402380Y-141732142D01*
X53450000Y-141779761D01*
X53545238Y-141827380D01*
X53688095Y-141827380D01*
X53069047Y-141160714D02*
X52688095Y-141160714D01*
X52926190Y-140827380D02*
X52926190Y-141684523D01*
X52878571Y-141779761D01*
X52783333Y-141827380D01*
X52688095Y-141827380D01*
X52497619Y-141160714D02*
X52116666Y-141160714D01*
X52354761Y-140827380D02*
X52354761Y-141684523D01*
X52307142Y-141779761D01*
X52211904Y-141827380D01*
X52116666Y-141827380D01*
X51640476Y-141827380D02*
X51735714Y-141779761D01*
X51783333Y-141732142D01*
X51830952Y-141636904D01*
X51830952Y-141351190D01*
X51783333Y-141255952D01*
X51735714Y-141208333D01*
X51640476Y-141160714D01*
X51497619Y-141160714D01*
X51402380Y-141208333D01*
X51354761Y-141255952D01*
X51307142Y-141351190D01*
X51307142Y-141636904D01*
X51354761Y-141732142D01*
X51402380Y-141779761D01*
X51497619Y-141827380D01*
X51640476Y-141827380D01*
X50878571Y-141827380D02*
X50878571Y-141160714D01*
X50878571Y-141255952D02*
X50830952Y-141208333D01*
X50735714Y-141160714D01*
X50592857Y-141160714D01*
X50497619Y-141208333D01*
X50450000Y-141303571D01*
X50450000Y-141827380D01*
X50450000Y-141303571D02*
X50402380Y-141208333D01*
X50307142Y-141160714D01*
X50164285Y-141160714D01*
X50069047Y-141208333D01*
X50021428Y-141303571D01*
X50021428Y-141827380D01*
X48830952Y-141779761D02*
X48688095Y-141827380D01*
X48450000Y-141827380D01*
X48354761Y-141779761D01*
X48307142Y-141732142D01*
X48259523Y-141636904D01*
X48259523Y-141541666D01*
X48307142Y-141446428D01*
X48354761Y-141398809D01*
X48450000Y-141351190D01*
X48640476Y-141303571D01*
X48735714Y-141255952D01*
X48783333Y-141208333D01*
X48830952Y-141113095D01*
X48830952Y-141017857D01*
X48783333Y-140922619D01*
X48735714Y-140875000D01*
X48640476Y-140827380D01*
X48402380Y-140827380D01*
X48259523Y-140875000D01*
X47830952Y-141827380D02*
X47830952Y-141160714D01*
X47830952Y-140827380D02*
X47878571Y-140875000D01*
X47830952Y-140922619D01*
X47783333Y-140875000D01*
X47830952Y-140827380D01*
X47830952Y-140922619D01*
X46926190Y-141827380D02*
X46926190Y-140827380D01*
X46926190Y-141779761D02*
X47021428Y-141827380D01*
X47211904Y-141827380D01*
X47307142Y-141779761D01*
X47354761Y-141732142D01*
X47402380Y-141636904D01*
X47402380Y-141351190D01*
X47354761Y-141255952D01*
X47307142Y-141208333D01*
X47211904Y-141160714D01*
X47021428Y-141160714D01*
X46926190Y-141208333D01*
X46069047Y-141779761D02*
X46164285Y-141827380D01*
X46354761Y-141827380D01*
X46450000Y-141779761D01*
X46497619Y-141684523D01*
X46497619Y-141303571D01*
X46450000Y-141208333D01*
X46354761Y-141160714D01*
X46164285Y-141160714D01*
X46069047Y-141208333D01*
X46021428Y-141303571D01*
X46021428Y-141398809D01*
X46497619Y-141494047D01*
X54783333Y-139327380D02*
X54450000Y-140327380D01*
X54116666Y-139327380D01*
X54545238Y-137827380D02*
X54354761Y-137827380D01*
X54259523Y-137875000D01*
X54164285Y-137970238D01*
X54116666Y-138160714D01*
X54116666Y-138494047D01*
X54164285Y-138684523D01*
X54259523Y-138779761D01*
X54354761Y-138827380D01*
X54545238Y-138827380D01*
X54640476Y-138779761D01*
X54735714Y-138684523D01*
X54783333Y-138494047D01*
X54783333Y-138160714D01*
X54735714Y-137970238D01*
X54640476Y-137875000D01*
X54545238Y-137827380D01*
X46450000Y-140327380D02*
X46450000Y-139327380D01*
X46188095Y-137875000D02*
X46283333Y-137827380D01*
X46426190Y-137827380D01*
X46569047Y-137875000D01*
X46664285Y-137970238D01*
X46711904Y-138065476D01*
X46759523Y-138255952D01*
X46759523Y-138398809D01*
X46711904Y-138589285D01*
X46664285Y-138684523D01*
X46569047Y-138779761D01*
X46426190Y-138827380D01*
X46330952Y-138827380D01*
X46188095Y-138779761D01*
X46140476Y-138732142D01*
X46140476Y-138398809D01*
X46330952Y-138398809D01*
X51664285Y-117727380D02*
X51664285Y-116727380D01*
X51426190Y-116727380D01*
X51283333Y-116775000D01*
X51188095Y-116870238D01*
X51140476Y-116965476D01*
X51092857Y-117155952D01*
X51092857Y-117298809D01*
X51140476Y-117489285D01*
X51188095Y-117584523D01*
X51283333Y-117679761D01*
X51426190Y-117727380D01*
X51664285Y-117727380D01*
X50759523Y-116727380D02*
X50140476Y-116727380D01*
X50473809Y-117108333D01*
X50330952Y-117108333D01*
X50235714Y-117155952D01*
X50188095Y-117203571D01*
X50140476Y-117298809D01*
X50140476Y-117536904D01*
X50188095Y-117632142D01*
X50235714Y-117679761D01*
X50330952Y-117727380D01*
X50616666Y-117727380D01*
X50711904Y-117679761D01*
X50759523Y-117632142D01*
X49283333Y-117060714D02*
X49283333Y-117727380D01*
X49521428Y-116679761D02*
X49759523Y-117394047D01*
X49140476Y-117394047D01*
X54497619Y-122253571D02*
X54354761Y-122301190D01*
X54307142Y-122348809D01*
X54259523Y-122444047D01*
X54259523Y-122586904D01*
X54307142Y-122682142D01*
X54354761Y-122729761D01*
X54450000Y-122777380D01*
X54830952Y-122777380D01*
X54830952Y-121777380D01*
X54497619Y-121777380D01*
X54402380Y-121825000D01*
X54354761Y-121872619D01*
X54307142Y-121967857D01*
X54307142Y-122063095D01*
X54354761Y-122158333D01*
X54402380Y-122205952D01*
X54497619Y-122253571D01*
X54830952Y-122253571D01*
X53688095Y-122777380D02*
X53783333Y-122729761D01*
X53830952Y-122682142D01*
X53878571Y-122586904D01*
X53878571Y-122301190D01*
X53830952Y-122205952D01*
X53783333Y-122158333D01*
X53688095Y-122110714D01*
X53545238Y-122110714D01*
X53450000Y-122158333D01*
X53402380Y-122205952D01*
X53354761Y-122301190D01*
X53354761Y-122586904D01*
X53402380Y-122682142D01*
X53450000Y-122729761D01*
X53545238Y-122777380D01*
X53688095Y-122777380D01*
X53069047Y-122110714D02*
X52688095Y-122110714D01*
X52926190Y-121777380D02*
X52926190Y-122634523D01*
X52878571Y-122729761D01*
X52783333Y-122777380D01*
X52688095Y-122777380D01*
X52497619Y-122110714D02*
X52116666Y-122110714D01*
X52354761Y-121777380D02*
X52354761Y-122634523D01*
X52307142Y-122729761D01*
X52211904Y-122777380D01*
X52116666Y-122777380D01*
X51640476Y-122777380D02*
X51735714Y-122729761D01*
X51783333Y-122682142D01*
X51830952Y-122586904D01*
X51830952Y-122301190D01*
X51783333Y-122205952D01*
X51735714Y-122158333D01*
X51640476Y-122110714D01*
X51497619Y-122110714D01*
X51402380Y-122158333D01*
X51354761Y-122205952D01*
X51307142Y-122301190D01*
X51307142Y-122586904D01*
X51354761Y-122682142D01*
X51402380Y-122729761D01*
X51497619Y-122777380D01*
X51640476Y-122777380D01*
X50878571Y-122777380D02*
X50878571Y-122110714D01*
X50878571Y-122205952D02*
X50830952Y-122158333D01*
X50735714Y-122110714D01*
X50592857Y-122110714D01*
X50497619Y-122158333D01*
X50450000Y-122253571D01*
X50450000Y-122777380D01*
X50450000Y-122253571D02*
X50402380Y-122158333D01*
X50307142Y-122110714D01*
X50164285Y-122110714D01*
X50069047Y-122158333D01*
X50021428Y-122253571D01*
X50021428Y-122777380D01*
X48830952Y-122729761D02*
X48688095Y-122777380D01*
X48450000Y-122777380D01*
X48354761Y-122729761D01*
X48307142Y-122682142D01*
X48259523Y-122586904D01*
X48259523Y-122491666D01*
X48307142Y-122396428D01*
X48354761Y-122348809D01*
X48450000Y-122301190D01*
X48640476Y-122253571D01*
X48735714Y-122205952D01*
X48783333Y-122158333D01*
X48830952Y-122063095D01*
X48830952Y-121967857D01*
X48783333Y-121872619D01*
X48735714Y-121825000D01*
X48640476Y-121777380D01*
X48402380Y-121777380D01*
X48259523Y-121825000D01*
X47830952Y-122777380D02*
X47830952Y-122110714D01*
X47830952Y-121777380D02*
X47878571Y-121825000D01*
X47830952Y-121872619D01*
X47783333Y-121825000D01*
X47830952Y-121777380D01*
X47830952Y-121872619D01*
X46926190Y-122777380D02*
X46926190Y-121777380D01*
X46926190Y-122729761D02*
X47021428Y-122777380D01*
X47211904Y-122777380D01*
X47307142Y-122729761D01*
X47354761Y-122682142D01*
X47402380Y-122586904D01*
X47402380Y-122301190D01*
X47354761Y-122205952D01*
X47307142Y-122158333D01*
X47211904Y-122110714D01*
X47021428Y-122110714D01*
X46926190Y-122158333D01*
X46069047Y-122729761D02*
X46164285Y-122777380D01*
X46354761Y-122777380D01*
X46450000Y-122729761D01*
X46497619Y-122634523D01*
X46497619Y-122253571D01*
X46450000Y-122158333D01*
X46354761Y-122110714D01*
X46164285Y-122110714D01*
X46069047Y-122158333D01*
X46021428Y-122253571D01*
X46021428Y-122348809D01*
X46497619Y-122444047D01*
X54783333Y-120277380D02*
X54450000Y-121277380D01*
X54116666Y-120277380D01*
X54545238Y-118777380D02*
X54354761Y-118777380D01*
X54259523Y-118825000D01*
X54164285Y-118920238D01*
X54116666Y-119110714D01*
X54116666Y-119444047D01*
X54164285Y-119634523D01*
X54259523Y-119729761D01*
X54354761Y-119777380D01*
X54545238Y-119777380D01*
X54640476Y-119729761D01*
X54735714Y-119634523D01*
X54783333Y-119444047D01*
X54783333Y-119110714D01*
X54735714Y-118920238D01*
X54640476Y-118825000D01*
X54545238Y-118777380D01*
X46450000Y-121277380D02*
X46450000Y-120277380D01*
X46188095Y-118825000D02*
X46283333Y-118777380D01*
X46426190Y-118777380D01*
X46569047Y-118825000D01*
X46664285Y-118920238D01*
X46711904Y-119015476D01*
X46759523Y-119205952D01*
X46759523Y-119348809D01*
X46711904Y-119539285D01*
X46664285Y-119634523D01*
X46569047Y-119729761D01*
X46426190Y-119777380D01*
X46330952Y-119777380D01*
X46188095Y-119729761D01*
X46140476Y-119682142D01*
X46140476Y-119348809D01*
X46330952Y-119348809D01*
X51664285Y-98677380D02*
X51664285Y-97677380D01*
X51426190Y-97677380D01*
X51283333Y-97725000D01*
X51188095Y-97820238D01*
X51140476Y-97915476D01*
X51092857Y-98105952D01*
X51092857Y-98248809D01*
X51140476Y-98439285D01*
X51188095Y-98534523D01*
X51283333Y-98629761D01*
X51426190Y-98677380D01*
X51664285Y-98677380D01*
X50759523Y-97677380D02*
X50140476Y-97677380D01*
X50473809Y-98058333D01*
X50330952Y-98058333D01*
X50235714Y-98105952D01*
X50188095Y-98153571D01*
X50140476Y-98248809D01*
X50140476Y-98486904D01*
X50188095Y-98582142D01*
X50235714Y-98629761D01*
X50330952Y-98677380D01*
X50616666Y-98677380D01*
X50711904Y-98629761D01*
X50759523Y-98582142D01*
X49807142Y-97677380D02*
X49188095Y-97677380D01*
X49521428Y-98058333D01*
X49378571Y-98058333D01*
X49283333Y-98105952D01*
X49235714Y-98153571D01*
X49188095Y-98248809D01*
X49188095Y-98486904D01*
X49235714Y-98582142D01*
X49283333Y-98629761D01*
X49378571Y-98677380D01*
X49664285Y-98677380D01*
X49759523Y-98629761D01*
X49807142Y-98582142D01*
X54497619Y-103203571D02*
X54354761Y-103251190D01*
X54307142Y-103298809D01*
X54259523Y-103394047D01*
X54259523Y-103536904D01*
X54307142Y-103632142D01*
X54354761Y-103679761D01*
X54450000Y-103727380D01*
X54830952Y-103727380D01*
X54830952Y-102727380D01*
X54497619Y-102727380D01*
X54402380Y-102775000D01*
X54354761Y-102822619D01*
X54307142Y-102917857D01*
X54307142Y-103013095D01*
X54354761Y-103108333D01*
X54402380Y-103155952D01*
X54497619Y-103203571D01*
X54830952Y-103203571D01*
X53688095Y-103727380D02*
X53783333Y-103679761D01*
X53830952Y-103632142D01*
X53878571Y-103536904D01*
X53878571Y-103251190D01*
X53830952Y-103155952D01*
X53783333Y-103108333D01*
X53688095Y-103060714D01*
X53545238Y-103060714D01*
X53450000Y-103108333D01*
X53402380Y-103155952D01*
X53354761Y-103251190D01*
X53354761Y-103536904D01*
X53402380Y-103632142D01*
X53450000Y-103679761D01*
X53545238Y-103727380D01*
X53688095Y-103727380D01*
X53069047Y-103060714D02*
X52688095Y-103060714D01*
X52926190Y-102727380D02*
X52926190Y-103584523D01*
X52878571Y-103679761D01*
X52783333Y-103727380D01*
X52688095Y-103727380D01*
X52497619Y-103060714D02*
X52116666Y-103060714D01*
X52354761Y-102727380D02*
X52354761Y-103584523D01*
X52307142Y-103679761D01*
X52211904Y-103727380D01*
X52116666Y-103727380D01*
X51640476Y-103727380D02*
X51735714Y-103679761D01*
X51783333Y-103632142D01*
X51830952Y-103536904D01*
X51830952Y-103251190D01*
X51783333Y-103155952D01*
X51735714Y-103108333D01*
X51640476Y-103060714D01*
X51497619Y-103060714D01*
X51402380Y-103108333D01*
X51354761Y-103155952D01*
X51307142Y-103251190D01*
X51307142Y-103536904D01*
X51354761Y-103632142D01*
X51402380Y-103679761D01*
X51497619Y-103727380D01*
X51640476Y-103727380D01*
X50878571Y-103727380D02*
X50878571Y-103060714D01*
X50878571Y-103155952D02*
X50830952Y-103108333D01*
X50735714Y-103060714D01*
X50592857Y-103060714D01*
X50497619Y-103108333D01*
X50450000Y-103203571D01*
X50450000Y-103727380D01*
X50450000Y-103203571D02*
X50402380Y-103108333D01*
X50307142Y-103060714D01*
X50164285Y-103060714D01*
X50069047Y-103108333D01*
X50021428Y-103203571D01*
X50021428Y-103727380D01*
X48830952Y-103679761D02*
X48688095Y-103727380D01*
X48450000Y-103727380D01*
X48354761Y-103679761D01*
X48307142Y-103632142D01*
X48259523Y-103536904D01*
X48259523Y-103441666D01*
X48307142Y-103346428D01*
X48354761Y-103298809D01*
X48450000Y-103251190D01*
X48640476Y-103203571D01*
X48735714Y-103155952D01*
X48783333Y-103108333D01*
X48830952Y-103013095D01*
X48830952Y-102917857D01*
X48783333Y-102822619D01*
X48735714Y-102775000D01*
X48640476Y-102727380D01*
X48402380Y-102727380D01*
X48259523Y-102775000D01*
X47830952Y-103727380D02*
X47830952Y-103060714D01*
X47830952Y-102727380D02*
X47878571Y-102775000D01*
X47830952Y-102822619D01*
X47783333Y-102775000D01*
X47830952Y-102727380D01*
X47830952Y-102822619D01*
X46926190Y-103727380D02*
X46926190Y-102727380D01*
X46926190Y-103679761D02*
X47021428Y-103727380D01*
X47211904Y-103727380D01*
X47307142Y-103679761D01*
X47354761Y-103632142D01*
X47402380Y-103536904D01*
X47402380Y-103251190D01*
X47354761Y-103155952D01*
X47307142Y-103108333D01*
X47211904Y-103060714D01*
X47021428Y-103060714D01*
X46926190Y-103108333D01*
X46069047Y-103679761D02*
X46164285Y-103727380D01*
X46354761Y-103727380D01*
X46450000Y-103679761D01*
X46497619Y-103584523D01*
X46497619Y-103203571D01*
X46450000Y-103108333D01*
X46354761Y-103060714D01*
X46164285Y-103060714D01*
X46069047Y-103108333D01*
X46021428Y-103203571D01*
X46021428Y-103298809D01*
X46497619Y-103394047D01*
X54783333Y-101227380D02*
X54450000Y-102227380D01*
X54116666Y-101227380D01*
X54545238Y-99727380D02*
X54354761Y-99727380D01*
X54259523Y-99775000D01*
X54164285Y-99870238D01*
X54116666Y-100060714D01*
X54116666Y-100394047D01*
X54164285Y-100584523D01*
X54259523Y-100679761D01*
X54354761Y-100727380D01*
X54545238Y-100727380D01*
X54640476Y-100679761D01*
X54735714Y-100584523D01*
X54783333Y-100394047D01*
X54783333Y-100060714D01*
X54735714Y-99870238D01*
X54640476Y-99775000D01*
X54545238Y-99727380D01*
X46450000Y-102227380D02*
X46450000Y-101227380D01*
X46188095Y-99775000D02*
X46283333Y-99727380D01*
X46426190Y-99727380D01*
X46569047Y-99775000D01*
X46664285Y-99870238D01*
X46711904Y-99965476D01*
X46759523Y-100155952D01*
X46759523Y-100298809D01*
X46711904Y-100489285D01*
X46664285Y-100584523D01*
X46569047Y-100679761D01*
X46426190Y-100727380D01*
X46330952Y-100727380D01*
X46188095Y-100679761D01*
X46140476Y-100632142D01*
X46140476Y-100298809D01*
X46330952Y-100298809D01*
X51664285Y-79627380D02*
X51664285Y-78627380D01*
X51426190Y-78627380D01*
X51283333Y-78675000D01*
X51188095Y-78770238D01*
X51140476Y-78865476D01*
X51092857Y-79055952D01*
X51092857Y-79198809D01*
X51140476Y-79389285D01*
X51188095Y-79484523D01*
X51283333Y-79579761D01*
X51426190Y-79627380D01*
X51664285Y-79627380D01*
X50759523Y-78627380D02*
X50140476Y-78627380D01*
X50473809Y-79008333D01*
X50330952Y-79008333D01*
X50235714Y-79055952D01*
X50188095Y-79103571D01*
X50140476Y-79198809D01*
X50140476Y-79436904D01*
X50188095Y-79532142D01*
X50235714Y-79579761D01*
X50330952Y-79627380D01*
X50616666Y-79627380D01*
X50711904Y-79579761D01*
X50759523Y-79532142D01*
X49759523Y-78722619D02*
X49711904Y-78675000D01*
X49616666Y-78627380D01*
X49378571Y-78627380D01*
X49283333Y-78675000D01*
X49235714Y-78722619D01*
X49188095Y-78817857D01*
X49188095Y-78913095D01*
X49235714Y-79055952D01*
X49807142Y-79627380D01*
X49188095Y-79627380D01*
X54497619Y-84153571D02*
X54354761Y-84201190D01*
X54307142Y-84248809D01*
X54259523Y-84344047D01*
X54259523Y-84486904D01*
X54307142Y-84582142D01*
X54354761Y-84629761D01*
X54450000Y-84677380D01*
X54830952Y-84677380D01*
X54830952Y-83677380D01*
X54497619Y-83677380D01*
X54402380Y-83725000D01*
X54354761Y-83772619D01*
X54307142Y-83867857D01*
X54307142Y-83963095D01*
X54354761Y-84058333D01*
X54402380Y-84105952D01*
X54497619Y-84153571D01*
X54830952Y-84153571D01*
X53688095Y-84677380D02*
X53783333Y-84629761D01*
X53830952Y-84582142D01*
X53878571Y-84486904D01*
X53878571Y-84201190D01*
X53830952Y-84105952D01*
X53783333Y-84058333D01*
X53688095Y-84010714D01*
X53545238Y-84010714D01*
X53450000Y-84058333D01*
X53402380Y-84105952D01*
X53354761Y-84201190D01*
X53354761Y-84486904D01*
X53402380Y-84582142D01*
X53450000Y-84629761D01*
X53545238Y-84677380D01*
X53688095Y-84677380D01*
X53069047Y-84010714D02*
X52688095Y-84010714D01*
X52926190Y-83677380D02*
X52926190Y-84534523D01*
X52878571Y-84629761D01*
X52783333Y-84677380D01*
X52688095Y-84677380D01*
X52497619Y-84010714D02*
X52116666Y-84010714D01*
X52354761Y-83677380D02*
X52354761Y-84534523D01*
X52307142Y-84629761D01*
X52211904Y-84677380D01*
X52116666Y-84677380D01*
X51640476Y-84677380D02*
X51735714Y-84629761D01*
X51783333Y-84582142D01*
X51830952Y-84486904D01*
X51830952Y-84201190D01*
X51783333Y-84105952D01*
X51735714Y-84058333D01*
X51640476Y-84010714D01*
X51497619Y-84010714D01*
X51402380Y-84058333D01*
X51354761Y-84105952D01*
X51307142Y-84201190D01*
X51307142Y-84486904D01*
X51354761Y-84582142D01*
X51402380Y-84629761D01*
X51497619Y-84677380D01*
X51640476Y-84677380D01*
X50878571Y-84677380D02*
X50878571Y-84010714D01*
X50878571Y-84105952D02*
X50830952Y-84058333D01*
X50735714Y-84010714D01*
X50592857Y-84010714D01*
X50497619Y-84058333D01*
X50450000Y-84153571D01*
X50450000Y-84677380D01*
X50450000Y-84153571D02*
X50402380Y-84058333D01*
X50307142Y-84010714D01*
X50164285Y-84010714D01*
X50069047Y-84058333D01*
X50021428Y-84153571D01*
X50021428Y-84677380D01*
X48830952Y-84629761D02*
X48688095Y-84677380D01*
X48450000Y-84677380D01*
X48354761Y-84629761D01*
X48307142Y-84582142D01*
X48259523Y-84486904D01*
X48259523Y-84391666D01*
X48307142Y-84296428D01*
X48354761Y-84248809D01*
X48450000Y-84201190D01*
X48640476Y-84153571D01*
X48735714Y-84105952D01*
X48783333Y-84058333D01*
X48830952Y-83963095D01*
X48830952Y-83867857D01*
X48783333Y-83772619D01*
X48735714Y-83725000D01*
X48640476Y-83677380D01*
X48402380Y-83677380D01*
X48259523Y-83725000D01*
X47830952Y-84677380D02*
X47830952Y-84010714D01*
X47830952Y-83677380D02*
X47878571Y-83725000D01*
X47830952Y-83772619D01*
X47783333Y-83725000D01*
X47830952Y-83677380D01*
X47830952Y-83772619D01*
X46926190Y-84677380D02*
X46926190Y-83677380D01*
X46926190Y-84629761D02*
X47021428Y-84677380D01*
X47211904Y-84677380D01*
X47307142Y-84629761D01*
X47354761Y-84582142D01*
X47402380Y-84486904D01*
X47402380Y-84201190D01*
X47354761Y-84105952D01*
X47307142Y-84058333D01*
X47211904Y-84010714D01*
X47021428Y-84010714D01*
X46926190Y-84058333D01*
X46069047Y-84629761D02*
X46164285Y-84677380D01*
X46354761Y-84677380D01*
X46450000Y-84629761D01*
X46497619Y-84534523D01*
X46497619Y-84153571D01*
X46450000Y-84058333D01*
X46354761Y-84010714D01*
X46164285Y-84010714D01*
X46069047Y-84058333D01*
X46021428Y-84153571D01*
X46021428Y-84248809D01*
X46497619Y-84344047D01*
X54783333Y-82177380D02*
X54450000Y-83177380D01*
X54116666Y-82177380D01*
X54545238Y-80677380D02*
X54354761Y-80677380D01*
X54259523Y-80725000D01*
X54164285Y-80820238D01*
X54116666Y-81010714D01*
X54116666Y-81344047D01*
X54164285Y-81534523D01*
X54259523Y-81629761D01*
X54354761Y-81677380D01*
X54545238Y-81677380D01*
X54640476Y-81629761D01*
X54735714Y-81534523D01*
X54783333Y-81344047D01*
X54783333Y-81010714D01*
X54735714Y-80820238D01*
X54640476Y-80725000D01*
X54545238Y-80677380D01*
X46450000Y-83177380D02*
X46450000Y-82177380D01*
X46188095Y-80725000D02*
X46283333Y-80677380D01*
X46426190Y-80677380D01*
X46569047Y-80725000D01*
X46664285Y-80820238D01*
X46711904Y-80915476D01*
X46759523Y-81105952D01*
X46759523Y-81248809D01*
X46711904Y-81439285D01*
X46664285Y-81534523D01*
X46569047Y-81629761D01*
X46426190Y-81677380D01*
X46330952Y-81677380D01*
X46188095Y-81629761D01*
X46140476Y-81582142D01*
X46140476Y-81248809D01*
X46330952Y-81248809D01*
X32614285Y-174877380D02*
X32614285Y-173877380D01*
X32376190Y-173877380D01*
X32233333Y-173925000D01*
X32138095Y-174020238D01*
X32090476Y-174115476D01*
X32042857Y-174305952D01*
X32042857Y-174448809D01*
X32090476Y-174639285D01*
X32138095Y-174734523D01*
X32233333Y-174829761D01*
X32376190Y-174877380D01*
X32614285Y-174877380D01*
X31709523Y-173877380D02*
X31090476Y-173877380D01*
X31423809Y-174258333D01*
X31280952Y-174258333D01*
X31185714Y-174305952D01*
X31138095Y-174353571D01*
X31090476Y-174448809D01*
X31090476Y-174686904D01*
X31138095Y-174782142D01*
X31185714Y-174829761D01*
X31280952Y-174877380D01*
X31566666Y-174877380D01*
X31661904Y-174829761D01*
X31709523Y-174782142D01*
X30138095Y-174877380D02*
X30709523Y-174877380D01*
X30423809Y-174877380D02*
X30423809Y-173877380D01*
X30519047Y-174020238D01*
X30614285Y-174115476D01*
X30709523Y-174163095D01*
X35447619Y-179403571D02*
X35304761Y-179451190D01*
X35257142Y-179498809D01*
X35209523Y-179594047D01*
X35209523Y-179736904D01*
X35257142Y-179832142D01*
X35304761Y-179879761D01*
X35400000Y-179927380D01*
X35780952Y-179927380D01*
X35780952Y-178927380D01*
X35447619Y-178927380D01*
X35352380Y-178975000D01*
X35304761Y-179022619D01*
X35257142Y-179117857D01*
X35257142Y-179213095D01*
X35304761Y-179308333D01*
X35352380Y-179355952D01*
X35447619Y-179403571D01*
X35780952Y-179403571D01*
X34638095Y-179927380D02*
X34733333Y-179879761D01*
X34780952Y-179832142D01*
X34828571Y-179736904D01*
X34828571Y-179451190D01*
X34780952Y-179355952D01*
X34733333Y-179308333D01*
X34638095Y-179260714D01*
X34495238Y-179260714D01*
X34400000Y-179308333D01*
X34352380Y-179355952D01*
X34304761Y-179451190D01*
X34304761Y-179736904D01*
X34352380Y-179832142D01*
X34400000Y-179879761D01*
X34495238Y-179927380D01*
X34638095Y-179927380D01*
X34019047Y-179260714D02*
X33638095Y-179260714D01*
X33876190Y-178927380D02*
X33876190Y-179784523D01*
X33828571Y-179879761D01*
X33733333Y-179927380D01*
X33638095Y-179927380D01*
X33447619Y-179260714D02*
X33066666Y-179260714D01*
X33304761Y-178927380D02*
X33304761Y-179784523D01*
X33257142Y-179879761D01*
X33161904Y-179927380D01*
X33066666Y-179927380D01*
X32590476Y-179927380D02*
X32685714Y-179879761D01*
X32733333Y-179832142D01*
X32780952Y-179736904D01*
X32780952Y-179451190D01*
X32733333Y-179355952D01*
X32685714Y-179308333D01*
X32590476Y-179260714D01*
X32447619Y-179260714D01*
X32352380Y-179308333D01*
X32304761Y-179355952D01*
X32257142Y-179451190D01*
X32257142Y-179736904D01*
X32304761Y-179832142D01*
X32352380Y-179879761D01*
X32447619Y-179927380D01*
X32590476Y-179927380D01*
X31828571Y-179927380D02*
X31828571Y-179260714D01*
X31828571Y-179355952D02*
X31780952Y-179308333D01*
X31685714Y-179260714D01*
X31542857Y-179260714D01*
X31447619Y-179308333D01*
X31400000Y-179403571D01*
X31400000Y-179927380D01*
X31400000Y-179403571D02*
X31352380Y-179308333D01*
X31257142Y-179260714D01*
X31114285Y-179260714D01*
X31019047Y-179308333D01*
X30971428Y-179403571D01*
X30971428Y-179927380D01*
X29780952Y-179879761D02*
X29638095Y-179927380D01*
X29400000Y-179927380D01*
X29304761Y-179879761D01*
X29257142Y-179832142D01*
X29209523Y-179736904D01*
X29209523Y-179641666D01*
X29257142Y-179546428D01*
X29304761Y-179498809D01*
X29400000Y-179451190D01*
X29590476Y-179403571D01*
X29685714Y-179355952D01*
X29733333Y-179308333D01*
X29780952Y-179213095D01*
X29780952Y-179117857D01*
X29733333Y-179022619D01*
X29685714Y-178975000D01*
X29590476Y-178927380D01*
X29352380Y-178927380D01*
X29209523Y-178975000D01*
X28780952Y-179927380D02*
X28780952Y-179260714D01*
X28780952Y-178927380D02*
X28828571Y-178975000D01*
X28780952Y-179022619D01*
X28733333Y-178975000D01*
X28780952Y-178927380D01*
X28780952Y-179022619D01*
X27876190Y-179927380D02*
X27876190Y-178927380D01*
X27876190Y-179879761D02*
X27971428Y-179927380D01*
X28161904Y-179927380D01*
X28257142Y-179879761D01*
X28304761Y-179832142D01*
X28352380Y-179736904D01*
X28352380Y-179451190D01*
X28304761Y-179355952D01*
X28257142Y-179308333D01*
X28161904Y-179260714D01*
X27971428Y-179260714D01*
X27876190Y-179308333D01*
X27019047Y-179879761D02*
X27114285Y-179927380D01*
X27304761Y-179927380D01*
X27400000Y-179879761D01*
X27447619Y-179784523D01*
X27447619Y-179403571D01*
X27400000Y-179308333D01*
X27304761Y-179260714D01*
X27114285Y-179260714D01*
X27019047Y-179308333D01*
X26971428Y-179403571D01*
X26971428Y-179498809D01*
X27447619Y-179594047D01*
X35733333Y-177427380D02*
X35400000Y-178427380D01*
X35066666Y-177427380D01*
X35495238Y-175927380D02*
X35304761Y-175927380D01*
X35209523Y-175975000D01*
X35114285Y-176070238D01*
X35066666Y-176260714D01*
X35066666Y-176594047D01*
X35114285Y-176784523D01*
X35209523Y-176879761D01*
X35304761Y-176927380D01*
X35495238Y-176927380D01*
X35590476Y-176879761D01*
X35685714Y-176784523D01*
X35733333Y-176594047D01*
X35733333Y-176260714D01*
X35685714Y-176070238D01*
X35590476Y-175975000D01*
X35495238Y-175927380D01*
X27400000Y-178427380D02*
X27400000Y-177427380D01*
X27138095Y-175975000D02*
X27233333Y-175927380D01*
X27376190Y-175927380D01*
X27519047Y-175975000D01*
X27614285Y-176070238D01*
X27661904Y-176165476D01*
X27709523Y-176355952D01*
X27709523Y-176498809D01*
X27661904Y-176689285D01*
X27614285Y-176784523D01*
X27519047Y-176879761D01*
X27376190Y-176927380D01*
X27280952Y-176927380D01*
X27138095Y-176879761D01*
X27090476Y-176832142D01*
X27090476Y-176498809D01*
X27280952Y-176498809D01*
X32614285Y-155827380D02*
X32614285Y-154827380D01*
X32376190Y-154827380D01*
X32233333Y-154875000D01*
X32138095Y-154970238D01*
X32090476Y-155065476D01*
X32042857Y-155255952D01*
X32042857Y-155398809D01*
X32090476Y-155589285D01*
X32138095Y-155684523D01*
X32233333Y-155779761D01*
X32376190Y-155827380D01*
X32614285Y-155827380D01*
X31709523Y-154827380D02*
X31090476Y-154827380D01*
X31423809Y-155208333D01*
X31280952Y-155208333D01*
X31185714Y-155255952D01*
X31138095Y-155303571D01*
X31090476Y-155398809D01*
X31090476Y-155636904D01*
X31138095Y-155732142D01*
X31185714Y-155779761D01*
X31280952Y-155827380D01*
X31566666Y-155827380D01*
X31661904Y-155779761D01*
X31709523Y-155732142D01*
X30471428Y-154827380D02*
X30376190Y-154827380D01*
X30280952Y-154875000D01*
X30233333Y-154922619D01*
X30185714Y-155017857D01*
X30138095Y-155208333D01*
X30138095Y-155446428D01*
X30185714Y-155636904D01*
X30233333Y-155732142D01*
X30280952Y-155779761D01*
X30376190Y-155827380D01*
X30471428Y-155827380D01*
X30566666Y-155779761D01*
X30614285Y-155732142D01*
X30661904Y-155636904D01*
X30709523Y-155446428D01*
X30709523Y-155208333D01*
X30661904Y-155017857D01*
X30614285Y-154922619D01*
X30566666Y-154875000D01*
X30471428Y-154827380D01*
X35447619Y-160353571D02*
X35304761Y-160401190D01*
X35257142Y-160448809D01*
X35209523Y-160544047D01*
X35209523Y-160686904D01*
X35257142Y-160782142D01*
X35304761Y-160829761D01*
X35400000Y-160877380D01*
X35780952Y-160877380D01*
X35780952Y-159877380D01*
X35447619Y-159877380D01*
X35352380Y-159925000D01*
X35304761Y-159972619D01*
X35257142Y-160067857D01*
X35257142Y-160163095D01*
X35304761Y-160258333D01*
X35352380Y-160305952D01*
X35447619Y-160353571D01*
X35780952Y-160353571D01*
X34638095Y-160877380D02*
X34733333Y-160829761D01*
X34780952Y-160782142D01*
X34828571Y-160686904D01*
X34828571Y-160401190D01*
X34780952Y-160305952D01*
X34733333Y-160258333D01*
X34638095Y-160210714D01*
X34495238Y-160210714D01*
X34400000Y-160258333D01*
X34352380Y-160305952D01*
X34304761Y-160401190D01*
X34304761Y-160686904D01*
X34352380Y-160782142D01*
X34400000Y-160829761D01*
X34495238Y-160877380D01*
X34638095Y-160877380D01*
X34019047Y-160210714D02*
X33638095Y-160210714D01*
X33876190Y-159877380D02*
X33876190Y-160734523D01*
X33828571Y-160829761D01*
X33733333Y-160877380D01*
X33638095Y-160877380D01*
X33447619Y-160210714D02*
X33066666Y-160210714D01*
X33304761Y-159877380D02*
X33304761Y-160734523D01*
X33257142Y-160829761D01*
X33161904Y-160877380D01*
X33066666Y-160877380D01*
X32590476Y-160877380D02*
X32685714Y-160829761D01*
X32733333Y-160782142D01*
X32780952Y-160686904D01*
X32780952Y-160401190D01*
X32733333Y-160305952D01*
X32685714Y-160258333D01*
X32590476Y-160210714D01*
X32447619Y-160210714D01*
X32352380Y-160258333D01*
X32304761Y-160305952D01*
X32257142Y-160401190D01*
X32257142Y-160686904D01*
X32304761Y-160782142D01*
X32352380Y-160829761D01*
X32447619Y-160877380D01*
X32590476Y-160877380D01*
X31828571Y-160877380D02*
X31828571Y-160210714D01*
X31828571Y-160305952D02*
X31780952Y-160258333D01*
X31685714Y-160210714D01*
X31542857Y-160210714D01*
X31447619Y-160258333D01*
X31400000Y-160353571D01*
X31400000Y-160877380D01*
X31400000Y-160353571D02*
X31352380Y-160258333D01*
X31257142Y-160210714D01*
X31114285Y-160210714D01*
X31019047Y-160258333D01*
X30971428Y-160353571D01*
X30971428Y-160877380D01*
X29780952Y-160829761D02*
X29638095Y-160877380D01*
X29400000Y-160877380D01*
X29304761Y-160829761D01*
X29257142Y-160782142D01*
X29209523Y-160686904D01*
X29209523Y-160591666D01*
X29257142Y-160496428D01*
X29304761Y-160448809D01*
X29400000Y-160401190D01*
X29590476Y-160353571D01*
X29685714Y-160305952D01*
X29733333Y-160258333D01*
X29780952Y-160163095D01*
X29780952Y-160067857D01*
X29733333Y-159972619D01*
X29685714Y-159925000D01*
X29590476Y-159877380D01*
X29352380Y-159877380D01*
X29209523Y-159925000D01*
X28780952Y-160877380D02*
X28780952Y-160210714D01*
X28780952Y-159877380D02*
X28828571Y-159925000D01*
X28780952Y-159972619D01*
X28733333Y-159925000D01*
X28780952Y-159877380D01*
X28780952Y-159972619D01*
X27876190Y-160877380D02*
X27876190Y-159877380D01*
X27876190Y-160829761D02*
X27971428Y-160877380D01*
X28161904Y-160877380D01*
X28257142Y-160829761D01*
X28304761Y-160782142D01*
X28352380Y-160686904D01*
X28352380Y-160401190D01*
X28304761Y-160305952D01*
X28257142Y-160258333D01*
X28161904Y-160210714D01*
X27971428Y-160210714D01*
X27876190Y-160258333D01*
X27019047Y-160829761D02*
X27114285Y-160877380D01*
X27304761Y-160877380D01*
X27400000Y-160829761D01*
X27447619Y-160734523D01*
X27447619Y-160353571D01*
X27400000Y-160258333D01*
X27304761Y-160210714D01*
X27114285Y-160210714D01*
X27019047Y-160258333D01*
X26971428Y-160353571D01*
X26971428Y-160448809D01*
X27447619Y-160544047D01*
X35733333Y-158377380D02*
X35400000Y-159377380D01*
X35066666Y-158377380D01*
X35495238Y-156877380D02*
X35304761Y-156877380D01*
X35209523Y-156925000D01*
X35114285Y-157020238D01*
X35066666Y-157210714D01*
X35066666Y-157544047D01*
X35114285Y-157734523D01*
X35209523Y-157829761D01*
X35304761Y-157877380D01*
X35495238Y-157877380D01*
X35590476Y-157829761D01*
X35685714Y-157734523D01*
X35733333Y-157544047D01*
X35733333Y-157210714D01*
X35685714Y-157020238D01*
X35590476Y-156925000D01*
X35495238Y-156877380D01*
X27400000Y-159377380D02*
X27400000Y-158377380D01*
X27138095Y-156925000D02*
X27233333Y-156877380D01*
X27376190Y-156877380D01*
X27519047Y-156925000D01*
X27614285Y-157020238D01*
X27661904Y-157115476D01*
X27709523Y-157305952D01*
X27709523Y-157448809D01*
X27661904Y-157639285D01*
X27614285Y-157734523D01*
X27519047Y-157829761D01*
X27376190Y-157877380D01*
X27280952Y-157877380D01*
X27138095Y-157829761D01*
X27090476Y-157782142D01*
X27090476Y-157448809D01*
X27280952Y-157448809D01*
X32614285Y-136777380D02*
X32614285Y-135777380D01*
X32376190Y-135777380D01*
X32233333Y-135825000D01*
X32138095Y-135920238D01*
X32090476Y-136015476D01*
X32042857Y-136205952D01*
X32042857Y-136348809D01*
X32090476Y-136539285D01*
X32138095Y-136634523D01*
X32233333Y-136729761D01*
X32376190Y-136777380D01*
X32614285Y-136777380D01*
X31661904Y-135872619D02*
X31614285Y-135825000D01*
X31519047Y-135777380D01*
X31280952Y-135777380D01*
X31185714Y-135825000D01*
X31138095Y-135872619D01*
X31090476Y-135967857D01*
X31090476Y-136063095D01*
X31138095Y-136205952D01*
X31709523Y-136777380D01*
X31090476Y-136777380D01*
X30614285Y-136777380D02*
X30423809Y-136777380D01*
X30328571Y-136729761D01*
X30280952Y-136682142D01*
X30185714Y-136539285D01*
X30138095Y-136348809D01*
X30138095Y-135967857D01*
X30185714Y-135872619D01*
X30233333Y-135825000D01*
X30328571Y-135777380D01*
X30519047Y-135777380D01*
X30614285Y-135825000D01*
X30661904Y-135872619D01*
X30709523Y-135967857D01*
X30709523Y-136205952D01*
X30661904Y-136301190D01*
X30614285Y-136348809D01*
X30519047Y-136396428D01*
X30328571Y-136396428D01*
X30233333Y-136348809D01*
X30185714Y-136301190D01*
X30138095Y-136205952D01*
X35447619Y-141303571D02*
X35304761Y-141351190D01*
X35257142Y-141398809D01*
X35209523Y-141494047D01*
X35209523Y-141636904D01*
X35257142Y-141732142D01*
X35304761Y-141779761D01*
X35400000Y-141827380D01*
X35780952Y-141827380D01*
X35780952Y-140827380D01*
X35447619Y-140827380D01*
X35352380Y-140875000D01*
X35304761Y-140922619D01*
X35257142Y-141017857D01*
X35257142Y-141113095D01*
X35304761Y-141208333D01*
X35352380Y-141255952D01*
X35447619Y-141303571D01*
X35780952Y-141303571D01*
X34638095Y-141827380D02*
X34733333Y-141779761D01*
X34780952Y-141732142D01*
X34828571Y-141636904D01*
X34828571Y-141351190D01*
X34780952Y-141255952D01*
X34733333Y-141208333D01*
X34638095Y-141160714D01*
X34495238Y-141160714D01*
X34400000Y-141208333D01*
X34352380Y-141255952D01*
X34304761Y-141351190D01*
X34304761Y-141636904D01*
X34352380Y-141732142D01*
X34400000Y-141779761D01*
X34495238Y-141827380D01*
X34638095Y-141827380D01*
X34019047Y-141160714D02*
X33638095Y-141160714D01*
X33876190Y-140827380D02*
X33876190Y-141684523D01*
X33828571Y-141779761D01*
X33733333Y-141827380D01*
X33638095Y-141827380D01*
X33447619Y-141160714D02*
X33066666Y-141160714D01*
X33304761Y-140827380D02*
X33304761Y-141684523D01*
X33257142Y-141779761D01*
X33161904Y-141827380D01*
X33066666Y-141827380D01*
X32590476Y-141827380D02*
X32685714Y-141779761D01*
X32733333Y-141732142D01*
X32780952Y-141636904D01*
X32780952Y-141351190D01*
X32733333Y-141255952D01*
X32685714Y-141208333D01*
X32590476Y-141160714D01*
X32447619Y-141160714D01*
X32352380Y-141208333D01*
X32304761Y-141255952D01*
X32257142Y-141351190D01*
X32257142Y-141636904D01*
X32304761Y-141732142D01*
X32352380Y-141779761D01*
X32447619Y-141827380D01*
X32590476Y-141827380D01*
X31828571Y-141827380D02*
X31828571Y-141160714D01*
X31828571Y-141255952D02*
X31780952Y-141208333D01*
X31685714Y-141160714D01*
X31542857Y-141160714D01*
X31447619Y-141208333D01*
X31400000Y-141303571D01*
X31400000Y-141827380D01*
X31400000Y-141303571D02*
X31352380Y-141208333D01*
X31257142Y-141160714D01*
X31114285Y-141160714D01*
X31019047Y-141208333D01*
X30971428Y-141303571D01*
X30971428Y-141827380D01*
X29780952Y-141779761D02*
X29638095Y-141827380D01*
X29400000Y-141827380D01*
X29304761Y-141779761D01*
X29257142Y-141732142D01*
X29209523Y-141636904D01*
X29209523Y-141541666D01*
X29257142Y-141446428D01*
X29304761Y-141398809D01*
X29400000Y-141351190D01*
X29590476Y-141303571D01*
X29685714Y-141255952D01*
X29733333Y-141208333D01*
X29780952Y-141113095D01*
X29780952Y-141017857D01*
X29733333Y-140922619D01*
X29685714Y-140875000D01*
X29590476Y-140827380D01*
X29352380Y-140827380D01*
X29209523Y-140875000D01*
X28780952Y-141827380D02*
X28780952Y-141160714D01*
X28780952Y-140827380D02*
X28828571Y-140875000D01*
X28780952Y-140922619D01*
X28733333Y-140875000D01*
X28780952Y-140827380D01*
X28780952Y-140922619D01*
X27876190Y-141827380D02*
X27876190Y-140827380D01*
X27876190Y-141779761D02*
X27971428Y-141827380D01*
X28161904Y-141827380D01*
X28257142Y-141779761D01*
X28304761Y-141732142D01*
X28352380Y-141636904D01*
X28352380Y-141351190D01*
X28304761Y-141255952D01*
X28257142Y-141208333D01*
X28161904Y-141160714D01*
X27971428Y-141160714D01*
X27876190Y-141208333D01*
X27019047Y-141779761D02*
X27114285Y-141827380D01*
X27304761Y-141827380D01*
X27400000Y-141779761D01*
X27447619Y-141684523D01*
X27447619Y-141303571D01*
X27400000Y-141208333D01*
X27304761Y-141160714D01*
X27114285Y-141160714D01*
X27019047Y-141208333D01*
X26971428Y-141303571D01*
X26971428Y-141398809D01*
X27447619Y-141494047D01*
X35733333Y-139327380D02*
X35400000Y-140327380D01*
X35066666Y-139327380D01*
X35495238Y-137827380D02*
X35304761Y-137827380D01*
X35209523Y-137875000D01*
X35114285Y-137970238D01*
X35066666Y-138160714D01*
X35066666Y-138494047D01*
X35114285Y-138684523D01*
X35209523Y-138779761D01*
X35304761Y-138827380D01*
X35495238Y-138827380D01*
X35590476Y-138779761D01*
X35685714Y-138684523D01*
X35733333Y-138494047D01*
X35733333Y-138160714D01*
X35685714Y-137970238D01*
X35590476Y-137875000D01*
X35495238Y-137827380D01*
X27400000Y-140327380D02*
X27400000Y-139327380D01*
X27138095Y-137875000D02*
X27233333Y-137827380D01*
X27376190Y-137827380D01*
X27519047Y-137875000D01*
X27614285Y-137970238D01*
X27661904Y-138065476D01*
X27709523Y-138255952D01*
X27709523Y-138398809D01*
X27661904Y-138589285D01*
X27614285Y-138684523D01*
X27519047Y-138779761D01*
X27376190Y-138827380D01*
X27280952Y-138827380D01*
X27138095Y-138779761D01*
X27090476Y-138732142D01*
X27090476Y-138398809D01*
X27280952Y-138398809D01*
X32614285Y-117727380D02*
X32614285Y-116727380D01*
X32376190Y-116727380D01*
X32233333Y-116775000D01*
X32138095Y-116870238D01*
X32090476Y-116965476D01*
X32042857Y-117155952D01*
X32042857Y-117298809D01*
X32090476Y-117489285D01*
X32138095Y-117584523D01*
X32233333Y-117679761D01*
X32376190Y-117727380D01*
X32614285Y-117727380D01*
X31661904Y-116822619D02*
X31614285Y-116775000D01*
X31519047Y-116727380D01*
X31280952Y-116727380D01*
X31185714Y-116775000D01*
X31138095Y-116822619D01*
X31090476Y-116917857D01*
X31090476Y-117013095D01*
X31138095Y-117155952D01*
X31709523Y-117727380D01*
X31090476Y-117727380D01*
X30519047Y-117155952D02*
X30614285Y-117108333D01*
X30661904Y-117060714D01*
X30709523Y-116965476D01*
X30709523Y-116917857D01*
X30661904Y-116822619D01*
X30614285Y-116775000D01*
X30519047Y-116727380D01*
X30328571Y-116727380D01*
X30233333Y-116775000D01*
X30185714Y-116822619D01*
X30138095Y-116917857D01*
X30138095Y-116965476D01*
X30185714Y-117060714D01*
X30233333Y-117108333D01*
X30328571Y-117155952D01*
X30519047Y-117155952D01*
X30614285Y-117203571D01*
X30661904Y-117251190D01*
X30709523Y-117346428D01*
X30709523Y-117536904D01*
X30661904Y-117632142D01*
X30614285Y-117679761D01*
X30519047Y-117727380D01*
X30328571Y-117727380D01*
X30233333Y-117679761D01*
X30185714Y-117632142D01*
X30138095Y-117536904D01*
X30138095Y-117346428D01*
X30185714Y-117251190D01*
X30233333Y-117203571D01*
X30328571Y-117155952D01*
X35447619Y-122253571D02*
X35304761Y-122301190D01*
X35257142Y-122348809D01*
X35209523Y-122444047D01*
X35209523Y-122586904D01*
X35257142Y-122682142D01*
X35304761Y-122729761D01*
X35400000Y-122777380D01*
X35780952Y-122777380D01*
X35780952Y-121777380D01*
X35447619Y-121777380D01*
X35352380Y-121825000D01*
X35304761Y-121872619D01*
X35257142Y-121967857D01*
X35257142Y-122063095D01*
X35304761Y-122158333D01*
X35352380Y-122205952D01*
X35447619Y-122253571D01*
X35780952Y-122253571D01*
X34638095Y-122777380D02*
X34733333Y-122729761D01*
X34780952Y-122682142D01*
X34828571Y-122586904D01*
X34828571Y-122301190D01*
X34780952Y-122205952D01*
X34733333Y-122158333D01*
X34638095Y-122110714D01*
X34495238Y-122110714D01*
X34400000Y-122158333D01*
X34352380Y-122205952D01*
X34304761Y-122301190D01*
X34304761Y-122586904D01*
X34352380Y-122682142D01*
X34400000Y-122729761D01*
X34495238Y-122777380D01*
X34638095Y-122777380D01*
X34019047Y-122110714D02*
X33638095Y-122110714D01*
X33876190Y-121777380D02*
X33876190Y-122634523D01*
X33828571Y-122729761D01*
X33733333Y-122777380D01*
X33638095Y-122777380D01*
X33447619Y-122110714D02*
X33066666Y-122110714D01*
X33304761Y-121777380D02*
X33304761Y-122634523D01*
X33257142Y-122729761D01*
X33161904Y-122777380D01*
X33066666Y-122777380D01*
X32590476Y-122777380D02*
X32685714Y-122729761D01*
X32733333Y-122682142D01*
X32780952Y-122586904D01*
X32780952Y-122301190D01*
X32733333Y-122205952D01*
X32685714Y-122158333D01*
X32590476Y-122110714D01*
X32447619Y-122110714D01*
X32352380Y-122158333D01*
X32304761Y-122205952D01*
X32257142Y-122301190D01*
X32257142Y-122586904D01*
X32304761Y-122682142D01*
X32352380Y-122729761D01*
X32447619Y-122777380D01*
X32590476Y-122777380D01*
X31828571Y-122777380D02*
X31828571Y-122110714D01*
X31828571Y-122205952D02*
X31780952Y-122158333D01*
X31685714Y-122110714D01*
X31542857Y-122110714D01*
X31447619Y-122158333D01*
X31400000Y-122253571D01*
X31400000Y-122777380D01*
X31400000Y-122253571D02*
X31352380Y-122158333D01*
X31257142Y-122110714D01*
X31114285Y-122110714D01*
X31019047Y-122158333D01*
X30971428Y-122253571D01*
X30971428Y-122777380D01*
X29780952Y-122729761D02*
X29638095Y-122777380D01*
X29400000Y-122777380D01*
X29304761Y-122729761D01*
X29257142Y-122682142D01*
X29209523Y-122586904D01*
X29209523Y-122491666D01*
X29257142Y-122396428D01*
X29304761Y-122348809D01*
X29400000Y-122301190D01*
X29590476Y-122253571D01*
X29685714Y-122205952D01*
X29733333Y-122158333D01*
X29780952Y-122063095D01*
X29780952Y-121967857D01*
X29733333Y-121872619D01*
X29685714Y-121825000D01*
X29590476Y-121777380D01*
X29352380Y-121777380D01*
X29209523Y-121825000D01*
X28780952Y-122777380D02*
X28780952Y-122110714D01*
X28780952Y-121777380D02*
X28828571Y-121825000D01*
X28780952Y-121872619D01*
X28733333Y-121825000D01*
X28780952Y-121777380D01*
X28780952Y-121872619D01*
X27876190Y-122777380D02*
X27876190Y-121777380D01*
X27876190Y-122729761D02*
X27971428Y-122777380D01*
X28161904Y-122777380D01*
X28257142Y-122729761D01*
X28304761Y-122682142D01*
X28352380Y-122586904D01*
X28352380Y-122301190D01*
X28304761Y-122205952D01*
X28257142Y-122158333D01*
X28161904Y-122110714D01*
X27971428Y-122110714D01*
X27876190Y-122158333D01*
X27019047Y-122729761D02*
X27114285Y-122777380D01*
X27304761Y-122777380D01*
X27400000Y-122729761D01*
X27447619Y-122634523D01*
X27447619Y-122253571D01*
X27400000Y-122158333D01*
X27304761Y-122110714D01*
X27114285Y-122110714D01*
X27019047Y-122158333D01*
X26971428Y-122253571D01*
X26971428Y-122348809D01*
X27447619Y-122444047D01*
X35733333Y-120277380D02*
X35400000Y-121277380D01*
X35066666Y-120277380D01*
X35495238Y-118777380D02*
X35304761Y-118777380D01*
X35209523Y-118825000D01*
X35114285Y-118920238D01*
X35066666Y-119110714D01*
X35066666Y-119444047D01*
X35114285Y-119634523D01*
X35209523Y-119729761D01*
X35304761Y-119777380D01*
X35495238Y-119777380D01*
X35590476Y-119729761D01*
X35685714Y-119634523D01*
X35733333Y-119444047D01*
X35733333Y-119110714D01*
X35685714Y-118920238D01*
X35590476Y-118825000D01*
X35495238Y-118777380D01*
X27400000Y-121277380D02*
X27400000Y-120277380D01*
X27138095Y-118825000D02*
X27233333Y-118777380D01*
X27376190Y-118777380D01*
X27519047Y-118825000D01*
X27614285Y-118920238D01*
X27661904Y-119015476D01*
X27709523Y-119205952D01*
X27709523Y-119348809D01*
X27661904Y-119539285D01*
X27614285Y-119634523D01*
X27519047Y-119729761D01*
X27376190Y-119777380D01*
X27280952Y-119777380D01*
X27138095Y-119729761D01*
X27090476Y-119682142D01*
X27090476Y-119348809D01*
X27280952Y-119348809D01*
X32614285Y-98677380D02*
X32614285Y-97677380D01*
X32376190Y-97677380D01*
X32233333Y-97725000D01*
X32138095Y-97820238D01*
X32090476Y-97915476D01*
X32042857Y-98105952D01*
X32042857Y-98248809D01*
X32090476Y-98439285D01*
X32138095Y-98534523D01*
X32233333Y-98629761D01*
X32376190Y-98677380D01*
X32614285Y-98677380D01*
X31661904Y-97772619D02*
X31614285Y-97725000D01*
X31519047Y-97677380D01*
X31280952Y-97677380D01*
X31185714Y-97725000D01*
X31138095Y-97772619D01*
X31090476Y-97867857D01*
X31090476Y-97963095D01*
X31138095Y-98105952D01*
X31709523Y-98677380D01*
X31090476Y-98677380D01*
X30757142Y-97677380D02*
X30090476Y-97677380D01*
X30519047Y-98677380D01*
X35447619Y-103203571D02*
X35304761Y-103251190D01*
X35257142Y-103298809D01*
X35209523Y-103394047D01*
X35209523Y-103536904D01*
X35257142Y-103632142D01*
X35304761Y-103679761D01*
X35400000Y-103727380D01*
X35780952Y-103727380D01*
X35780952Y-102727380D01*
X35447619Y-102727380D01*
X35352380Y-102775000D01*
X35304761Y-102822619D01*
X35257142Y-102917857D01*
X35257142Y-103013095D01*
X35304761Y-103108333D01*
X35352380Y-103155952D01*
X35447619Y-103203571D01*
X35780952Y-103203571D01*
X34638095Y-103727380D02*
X34733333Y-103679761D01*
X34780952Y-103632142D01*
X34828571Y-103536904D01*
X34828571Y-103251190D01*
X34780952Y-103155952D01*
X34733333Y-103108333D01*
X34638095Y-103060714D01*
X34495238Y-103060714D01*
X34400000Y-103108333D01*
X34352380Y-103155952D01*
X34304761Y-103251190D01*
X34304761Y-103536904D01*
X34352380Y-103632142D01*
X34400000Y-103679761D01*
X34495238Y-103727380D01*
X34638095Y-103727380D01*
X34019047Y-103060714D02*
X33638095Y-103060714D01*
X33876190Y-102727380D02*
X33876190Y-103584523D01*
X33828571Y-103679761D01*
X33733333Y-103727380D01*
X33638095Y-103727380D01*
X33447619Y-103060714D02*
X33066666Y-103060714D01*
X33304761Y-102727380D02*
X33304761Y-103584523D01*
X33257142Y-103679761D01*
X33161904Y-103727380D01*
X33066666Y-103727380D01*
X32590476Y-103727380D02*
X32685714Y-103679761D01*
X32733333Y-103632142D01*
X32780952Y-103536904D01*
X32780952Y-103251190D01*
X32733333Y-103155952D01*
X32685714Y-103108333D01*
X32590476Y-103060714D01*
X32447619Y-103060714D01*
X32352380Y-103108333D01*
X32304761Y-103155952D01*
X32257142Y-103251190D01*
X32257142Y-103536904D01*
X32304761Y-103632142D01*
X32352380Y-103679761D01*
X32447619Y-103727380D01*
X32590476Y-103727380D01*
X31828571Y-103727380D02*
X31828571Y-103060714D01*
X31828571Y-103155952D02*
X31780952Y-103108333D01*
X31685714Y-103060714D01*
X31542857Y-103060714D01*
X31447619Y-103108333D01*
X31400000Y-103203571D01*
X31400000Y-103727380D01*
X31400000Y-103203571D02*
X31352380Y-103108333D01*
X31257142Y-103060714D01*
X31114285Y-103060714D01*
X31019047Y-103108333D01*
X30971428Y-103203571D01*
X30971428Y-103727380D01*
X29780952Y-103679761D02*
X29638095Y-103727380D01*
X29400000Y-103727380D01*
X29304761Y-103679761D01*
X29257142Y-103632142D01*
X29209523Y-103536904D01*
X29209523Y-103441666D01*
X29257142Y-103346428D01*
X29304761Y-103298809D01*
X29400000Y-103251190D01*
X29590476Y-103203571D01*
X29685714Y-103155952D01*
X29733333Y-103108333D01*
X29780952Y-103013095D01*
X29780952Y-102917857D01*
X29733333Y-102822619D01*
X29685714Y-102775000D01*
X29590476Y-102727380D01*
X29352380Y-102727380D01*
X29209523Y-102775000D01*
X28780952Y-103727380D02*
X28780952Y-103060714D01*
X28780952Y-102727380D02*
X28828571Y-102775000D01*
X28780952Y-102822619D01*
X28733333Y-102775000D01*
X28780952Y-102727380D01*
X28780952Y-102822619D01*
X27876190Y-103727380D02*
X27876190Y-102727380D01*
X27876190Y-103679761D02*
X27971428Y-103727380D01*
X28161904Y-103727380D01*
X28257142Y-103679761D01*
X28304761Y-103632142D01*
X28352380Y-103536904D01*
X28352380Y-103251190D01*
X28304761Y-103155952D01*
X28257142Y-103108333D01*
X28161904Y-103060714D01*
X27971428Y-103060714D01*
X27876190Y-103108333D01*
X27019047Y-103679761D02*
X27114285Y-103727380D01*
X27304761Y-103727380D01*
X27400000Y-103679761D01*
X27447619Y-103584523D01*
X27447619Y-103203571D01*
X27400000Y-103108333D01*
X27304761Y-103060714D01*
X27114285Y-103060714D01*
X27019047Y-103108333D01*
X26971428Y-103203571D01*
X26971428Y-103298809D01*
X27447619Y-103394047D01*
X35733333Y-101227380D02*
X35400000Y-102227380D01*
X35066666Y-101227380D01*
X35495238Y-99727380D02*
X35304761Y-99727380D01*
X35209523Y-99775000D01*
X35114285Y-99870238D01*
X35066666Y-100060714D01*
X35066666Y-100394047D01*
X35114285Y-100584523D01*
X35209523Y-100679761D01*
X35304761Y-100727380D01*
X35495238Y-100727380D01*
X35590476Y-100679761D01*
X35685714Y-100584523D01*
X35733333Y-100394047D01*
X35733333Y-100060714D01*
X35685714Y-99870238D01*
X35590476Y-99775000D01*
X35495238Y-99727380D01*
X27400000Y-102227380D02*
X27400000Y-101227380D01*
X27138095Y-99775000D02*
X27233333Y-99727380D01*
X27376190Y-99727380D01*
X27519047Y-99775000D01*
X27614285Y-99870238D01*
X27661904Y-99965476D01*
X27709523Y-100155952D01*
X27709523Y-100298809D01*
X27661904Y-100489285D01*
X27614285Y-100584523D01*
X27519047Y-100679761D01*
X27376190Y-100727380D01*
X27280952Y-100727380D01*
X27138095Y-100679761D01*
X27090476Y-100632142D01*
X27090476Y-100298809D01*
X27280952Y-100298809D01*
X32614285Y-79627380D02*
X32614285Y-78627380D01*
X32376190Y-78627380D01*
X32233333Y-78675000D01*
X32138095Y-78770238D01*
X32090476Y-78865476D01*
X32042857Y-79055952D01*
X32042857Y-79198809D01*
X32090476Y-79389285D01*
X32138095Y-79484523D01*
X32233333Y-79579761D01*
X32376190Y-79627380D01*
X32614285Y-79627380D01*
X31661904Y-78722619D02*
X31614285Y-78675000D01*
X31519047Y-78627380D01*
X31280952Y-78627380D01*
X31185714Y-78675000D01*
X31138095Y-78722619D01*
X31090476Y-78817857D01*
X31090476Y-78913095D01*
X31138095Y-79055952D01*
X31709523Y-79627380D01*
X31090476Y-79627380D01*
X30233333Y-78627380D02*
X30423809Y-78627380D01*
X30519047Y-78675000D01*
X30566666Y-78722619D01*
X30661904Y-78865476D01*
X30709523Y-79055952D01*
X30709523Y-79436904D01*
X30661904Y-79532142D01*
X30614285Y-79579761D01*
X30519047Y-79627380D01*
X30328571Y-79627380D01*
X30233333Y-79579761D01*
X30185714Y-79532142D01*
X30138095Y-79436904D01*
X30138095Y-79198809D01*
X30185714Y-79103571D01*
X30233333Y-79055952D01*
X30328571Y-79008333D01*
X30519047Y-79008333D01*
X30614285Y-79055952D01*
X30661904Y-79103571D01*
X30709523Y-79198809D01*
X35447619Y-84153571D02*
X35304761Y-84201190D01*
X35257142Y-84248809D01*
X35209523Y-84344047D01*
X35209523Y-84486904D01*
X35257142Y-84582142D01*
X35304761Y-84629761D01*
X35400000Y-84677380D01*
X35780952Y-84677380D01*
X35780952Y-83677380D01*
X35447619Y-83677380D01*
X35352380Y-83725000D01*
X35304761Y-83772619D01*
X35257142Y-83867857D01*
X35257142Y-83963095D01*
X35304761Y-84058333D01*
X35352380Y-84105952D01*
X35447619Y-84153571D01*
X35780952Y-84153571D01*
X34638095Y-84677380D02*
X34733333Y-84629761D01*
X34780952Y-84582142D01*
X34828571Y-84486904D01*
X34828571Y-84201190D01*
X34780952Y-84105952D01*
X34733333Y-84058333D01*
X34638095Y-84010714D01*
X34495238Y-84010714D01*
X34400000Y-84058333D01*
X34352380Y-84105952D01*
X34304761Y-84201190D01*
X34304761Y-84486904D01*
X34352380Y-84582142D01*
X34400000Y-84629761D01*
X34495238Y-84677380D01*
X34638095Y-84677380D01*
X34019047Y-84010714D02*
X33638095Y-84010714D01*
X33876190Y-83677380D02*
X33876190Y-84534523D01*
X33828571Y-84629761D01*
X33733333Y-84677380D01*
X33638095Y-84677380D01*
X33447619Y-84010714D02*
X33066666Y-84010714D01*
X33304761Y-83677380D02*
X33304761Y-84534523D01*
X33257142Y-84629761D01*
X33161904Y-84677380D01*
X33066666Y-84677380D01*
X32590476Y-84677380D02*
X32685714Y-84629761D01*
X32733333Y-84582142D01*
X32780952Y-84486904D01*
X32780952Y-84201190D01*
X32733333Y-84105952D01*
X32685714Y-84058333D01*
X32590476Y-84010714D01*
X32447619Y-84010714D01*
X32352380Y-84058333D01*
X32304761Y-84105952D01*
X32257142Y-84201190D01*
X32257142Y-84486904D01*
X32304761Y-84582142D01*
X32352380Y-84629761D01*
X32447619Y-84677380D01*
X32590476Y-84677380D01*
X31828571Y-84677380D02*
X31828571Y-84010714D01*
X31828571Y-84105952D02*
X31780952Y-84058333D01*
X31685714Y-84010714D01*
X31542857Y-84010714D01*
X31447619Y-84058333D01*
X31400000Y-84153571D01*
X31400000Y-84677380D01*
X31400000Y-84153571D02*
X31352380Y-84058333D01*
X31257142Y-84010714D01*
X31114285Y-84010714D01*
X31019047Y-84058333D01*
X30971428Y-84153571D01*
X30971428Y-84677380D01*
X29780952Y-84629761D02*
X29638095Y-84677380D01*
X29400000Y-84677380D01*
X29304761Y-84629761D01*
X29257142Y-84582142D01*
X29209523Y-84486904D01*
X29209523Y-84391666D01*
X29257142Y-84296428D01*
X29304761Y-84248809D01*
X29400000Y-84201190D01*
X29590476Y-84153571D01*
X29685714Y-84105952D01*
X29733333Y-84058333D01*
X29780952Y-83963095D01*
X29780952Y-83867857D01*
X29733333Y-83772619D01*
X29685714Y-83725000D01*
X29590476Y-83677380D01*
X29352380Y-83677380D01*
X29209523Y-83725000D01*
X28780952Y-84677380D02*
X28780952Y-84010714D01*
X28780952Y-83677380D02*
X28828571Y-83725000D01*
X28780952Y-83772619D01*
X28733333Y-83725000D01*
X28780952Y-83677380D01*
X28780952Y-83772619D01*
X27876190Y-84677380D02*
X27876190Y-83677380D01*
X27876190Y-84629761D02*
X27971428Y-84677380D01*
X28161904Y-84677380D01*
X28257142Y-84629761D01*
X28304761Y-84582142D01*
X28352380Y-84486904D01*
X28352380Y-84201190D01*
X28304761Y-84105952D01*
X28257142Y-84058333D01*
X28161904Y-84010714D01*
X27971428Y-84010714D01*
X27876190Y-84058333D01*
X27019047Y-84629761D02*
X27114285Y-84677380D01*
X27304761Y-84677380D01*
X27400000Y-84629761D01*
X27447619Y-84534523D01*
X27447619Y-84153571D01*
X27400000Y-84058333D01*
X27304761Y-84010714D01*
X27114285Y-84010714D01*
X27019047Y-84058333D01*
X26971428Y-84153571D01*
X26971428Y-84248809D01*
X27447619Y-84344047D01*
X35733333Y-82177380D02*
X35400000Y-83177380D01*
X35066666Y-82177380D01*
X35495238Y-80677380D02*
X35304761Y-80677380D01*
X35209523Y-80725000D01*
X35114285Y-80820238D01*
X35066666Y-81010714D01*
X35066666Y-81344047D01*
X35114285Y-81534523D01*
X35209523Y-81629761D01*
X35304761Y-81677380D01*
X35495238Y-81677380D01*
X35590476Y-81629761D01*
X35685714Y-81534523D01*
X35733333Y-81344047D01*
X35733333Y-81010714D01*
X35685714Y-80820238D01*
X35590476Y-80725000D01*
X35495238Y-80677380D01*
X27400000Y-83177380D02*
X27400000Y-82177380D01*
X27138095Y-80725000D02*
X27233333Y-80677380D01*
X27376190Y-80677380D01*
X27519047Y-80725000D01*
X27614285Y-80820238D01*
X27661904Y-80915476D01*
X27709523Y-81105952D01*
X27709523Y-81248809D01*
X27661904Y-81439285D01*
X27614285Y-81534523D01*
X27519047Y-81629761D01*
X27376190Y-81677380D01*
X27280952Y-81677380D01*
X27138095Y-81629761D01*
X27090476Y-81582142D01*
X27090476Y-81248809D01*
X27280952Y-81248809D01*
X99092380Y-170355714D02*
X98092380Y-170355714D01*
X98092380Y-170593809D01*
X98140000Y-170736666D01*
X98235238Y-170831904D01*
X98330476Y-170879523D01*
X98520952Y-170927142D01*
X98663809Y-170927142D01*
X98854285Y-170879523D01*
X98949523Y-170831904D01*
X99044761Y-170736666D01*
X99092380Y-170593809D01*
X99092380Y-170355714D01*
X98187619Y-171308095D02*
X98140000Y-171355714D01*
X98092380Y-171450952D01*
X98092380Y-171689047D01*
X98140000Y-171784285D01*
X98187619Y-171831904D01*
X98282857Y-171879523D01*
X98378095Y-171879523D01*
X98520952Y-171831904D01*
X99092380Y-171260476D01*
X99092380Y-171879523D01*
X98092380Y-172784285D02*
X98092380Y-172308095D01*
X98568571Y-172260476D01*
X98520952Y-172308095D01*
X98473333Y-172403333D01*
X98473333Y-172641428D01*
X98520952Y-172736666D01*
X98568571Y-172784285D01*
X98663809Y-172831904D01*
X98901904Y-172831904D01*
X98997142Y-172784285D01*
X99044761Y-172736666D01*
X99092380Y-172641428D01*
X99092380Y-172403333D01*
X99044761Y-172308095D01*
X98997142Y-172260476D01*
X80042380Y-170355714D02*
X79042380Y-170355714D01*
X79042380Y-170593809D01*
X79090000Y-170736666D01*
X79185238Y-170831904D01*
X79280476Y-170879523D01*
X79470952Y-170927142D01*
X79613809Y-170927142D01*
X79804285Y-170879523D01*
X79899523Y-170831904D01*
X79994761Y-170736666D01*
X80042380Y-170593809D01*
X80042380Y-170355714D01*
X80042380Y-171879523D02*
X80042380Y-171308095D01*
X80042380Y-171593809D02*
X79042380Y-171593809D01*
X79185238Y-171498571D01*
X79280476Y-171403333D01*
X79328095Y-171308095D01*
X80042380Y-172355714D02*
X80042380Y-172546190D01*
X79994761Y-172641428D01*
X79947142Y-172689047D01*
X79804285Y-172784285D01*
X79613809Y-172831904D01*
X79232857Y-172831904D01*
X79137619Y-172784285D01*
X79090000Y-172736666D01*
X79042380Y-172641428D01*
X79042380Y-172450952D01*
X79090000Y-172355714D01*
X79137619Y-172308095D01*
X79232857Y-172260476D01*
X79470952Y-172260476D01*
X79566190Y-172308095D01*
X79613809Y-172355714D01*
X79661428Y-172450952D01*
X79661428Y-172641428D01*
X79613809Y-172736666D01*
X79566190Y-172784285D01*
X79470952Y-172831904D01*
X60087619Y-172784285D02*
X61087619Y-172784285D01*
X61087619Y-172546190D01*
X61040000Y-172403333D01*
X60944761Y-172308095D01*
X60849523Y-172260476D01*
X60659047Y-172212857D01*
X60516190Y-172212857D01*
X60325714Y-172260476D01*
X60230476Y-172308095D01*
X60135238Y-172403333D01*
X60087619Y-172546190D01*
X60087619Y-172784285D01*
X60087619Y-171260476D02*
X60087619Y-171831904D01*
X60087619Y-171546190D02*
X61087619Y-171546190D01*
X60944761Y-171641428D01*
X60849523Y-171736666D01*
X60801904Y-171831904D01*
X61087619Y-170927142D02*
X61087619Y-170308095D01*
X60706666Y-170641428D01*
X60706666Y-170498571D01*
X60659047Y-170403333D01*
X60611428Y-170355714D01*
X60516190Y-170308095D01*
X60278095Y-170308095D01*
X60182857Y-170355714D01*
X60135238Y-170403333D01*
X60087619Y-170498571D01*
X60087619Y-170784285D01*
X60135238Y-170879523D01*
X60182857Y-170927142D01*
X41942380Y-170831904D02*
X40942380Y-170831904D01*
X40942380Y-171070000D01*
X40990000Y-171212857D01*
X41085238Y-171308095D01*
X41180476Y-171355714D01*
X41370952Y-171403333D01*
X41513809Y-171403333D01*
X41704285Y-171355714D01*
X41799523Y-171308095D01*
X41894761Y-171212857D01*
X41942380Y-171070000D01*
X41942380Y-170831904D01*
X40942380Y-171736666D02*
X40942380Y-172403333D01*
X41942380Y-171974761D01*
X99092380Y-151305714D02*
X98092380Y-151305714D01*
X98092380Y-151543809D01*
X98140000Y-151686666D01*
X98235238Y-151781904D01*
X98330476Y-151829523D01*
X98520952Y-151877142D01*
X98663809Y-151877142D01*
X98854285Y-151829523D01*
X98949523Y-151781904D01*
X99044761Y-151686666D01*
X99092380Y-151543809D01*
X99092380Y-151305714D01*
X98187619Y-152258095D02*
X98140000Y-152305714D01*
X98092380Y-152400952D01*
X98092380Y-152639047D01*
X98140000Y-152734285D01*
X98187619Y-152781904D01*
X98282857Y-152829523D01*
X98378095Y-152829523D01*
X98520952Y-152781904D01*
X99092380Y-152210476D01*
X99092380Y-152829523D01*
X98425714Y-153686666D02*
X99092380Y-153686666D01*
X98044761Y-153448571D02*
X98759047Y-153210476D01*
X98759047Y-153829523D01*
X80042380Y-151305714D02*
X79042380Y-151305714D01*
X79042380Y-151543809D01*
X79090000Y-151686666D01*
X79185238Y-151781904D01*
X79280476Y-151829523D01*
X79470952Y-151877142D01*
X79613809Y-151877142D01*
X79804285Y-151829523D01*
X79899523Y-151781904D01*
X79994761Y-151686666D01*
X80042380Y-151543809D01*
X80042380Y-151305714D01*
X80042380Y-152829523D02*
X80042380Y-152258095D01*
X80042380Y-152543809D02*
X79042380Y-152543809D01*
X79185238Y-152448571D01*
X79280476Y-152353333D01*
X79328095Y-152258095D01*
X79470952Y-153400952D02*
X79423333Y-153305714D01*
X79375714Y-153258095D01*
X79280476Y-153210476D01*
X79232857Y-153210476D01*
X79137619Y-153258095D01*
X79090000Y-153305714D01*
X79042380Y-153400952D01*
X79042380Y-153591428D01*
X79090000Y-153686666D01*
X79137619Y-153734285D01*
X79232857Y-153781904D01*
X79280476Y-153781904D01*
X79375714Y-153734285D01*
X79423333Y-153686666D01*
X79470952Y-153591428D01*
X79470952Y-153400952D01*
X79518571Y-153305714D01*
X79566190Y-153258095D01*
X79661428Y-153210476D01*
X79851904Y-153210476D01*
X79947142Y-153258095D01*
X79994761Y-153305714D01*
X80042380Y-153400952D01*
X80042380Y-153591428D01*
X79994761Y-153686666D01*
X79947142Y-153734285D01*
X79851904Y-153781904D01*
X79661428Y-153781904D01*
X79566190Y-153734285D01*
X79518571Y-153686666D01*
X79470952Y-153591428D01*
X60992380Y-151305714D02*
X59992380Y-151305714D01*
X59992380Y-151543809D01*
X60040000Y-151686666D01*
X60135238Y-151781904D01*
X60230476Y-151829523D01*
X60420952Y-151877142D01*
X60563809Y-151877142D01*
X60754285Y-151829523D01*
X60849523Y-151781904D01*
X60944761Y-151686666D01*
X60992380Y-151543809D01*
X60992380Y-151305714D01*
X60992380Y-152829523D02*
X60992380Y-152258095D01*
X60992380Y-152543809D02*
X59992380Y-152543809D01*
X60135238Y-152448571D01*
X60230476Y-152353333D01*
X60278095Y-152258095D01*
X60087619Y-153210476D02*
X60040000Y-153258095D01*
X59992380Y-153353333D01*
X59992380Y-153591428D01*
X60040000Y-153686666D01*
X60087619Y-153734285D01*
X60182857Y-153781904D01*
X60278095Y-153781904D01*
X60420952Y-153734285D01*
X60992380Y-153162857D01*
X60992380Y-153781904D01*
X41942380Y-151781904D02*
X40942380Y-151781904D01*
X40942380Y-152020000D01*
X40990000Y-152162857D01*
X41085238Y-152258095D01*
X41180476Y-152305714D01*
X41370952Y-152353333D01*
X41513809Y-152353333D01*
X41704285Y-152305714D01*
X41799523Y-152258095D01*
X41894761Y-152162857D01*
X41942380Y-152020000D01*
X41942380Y-151781904D01*
X40942380Y-153210476D02*
X40942380Y-153020000D01*
X40990000Y-152924761D01*
X41037619Y-152877142D01*
X41180476Y-152781904D01*
X41370952Y-152734285D01*
X41751904Y-152734285D01*
X41847142Y-152781904D01*
X41894761Y-152829523D01*
X41942380Y-152924761D01*
X41942380Y-153115238D01*
X41894761Y-153210476D01*
X41847142Y-153258095D01*
X41751904Y-153305714D01*
X41513809Y-153305714D01*
X41418571Y-153258095D01*
X41370952Y-153210476D01*
X41323333Y-153115238D01*
X41323333Y-152924761D01*
X41370952Y-152829523D01*
X41418571Y-152781904D01*
X41513809Y-152734285D01*
X99092380Y-132255714D02*
X98092380Y-132255714D01*
X98092380Y-132493809D01*
X98140000Y-132636666D01*
X98235238Y-132731904D01*
X98330476Y-132779523D01*
X98520952Y-132827142D01*
X98663809Y-132827142D01*
X98854285Y-132779523D01*
X98949523Y-132731904D01*
X99044761Y-132636666D01*
X99092380Y-132493809D01*
X99092380Y-132255714D01*
X98187619Y-133208095D02*
X98140000Y-133255714D01*
X98092380Y-133350952D01*
X98092380Y-133589047D01*
X98140000Y-133684285D01*
X98187619Y-133731904D01*
X98282857Y-133779523D01*
X98378095Y-133779523D01*
X98520952Y-133731904D01*
X99092380Y-133160476D01*
X99092380Y-133779523D01*
X98092380Y-134112857D02*
X98092380Y-134731904D01*
X98473333Y-134398571D01*
X98473333Y-134541428D01*
X98520952Y-134636666D01*
X98568571Y-134684285D01*
X98663809Y-134731904D01*
X98901904Y-134731904D01*
X98997142Y-134684285D01*
X99044761Y-134636666D01*
X99092380Y-134541428D01*
X99092380Y-134255714D01*
X99044761Y-134160476D01*
X98997142Y-134112857D01*
X80042380Y-132255714D02*
X79042380Y-132255714D01*
X79042380Y-132493809D01*
X79090000Y-132636666D01*
X79185238Y-132731904D01*
X79280476Y-132779523D01*
X79470952Y-132827142D01*
X79613809Y-132827142D01*
X79804285Y-132779523D01*
X79899523Y-132731904D01*
X79994761Y-132636666D01*
X80042380Y-132493809D01*
X80042380Y-132255714D01*
X80042380Y-133779523D02*
X80042380Y-133208095D01*
X80042380Y-133493809D02*
X79042380Y-133493809D01*
X79185238Y-133398571D01*
X79280476Y-133303333D01*
X79328095Y-133208095D01*
X79042380Y-134112857D02*
X79042380Y-134779523D01*
X80042380Y-134350952D01*
X60992380Y-132255714D02*
X59992380Y-132255714D01*
X59992380Y-132493809D01*
X60040000Y-132636666D01*
X60135238Y-132731904D01*
X60230476Y-132779523D01*
X60420952Y-132827142D01*
X60563809Y-132827142D01*
X60754285Y-132779523D01*
X60849523Y-132731904D01*
X60944761Y-132636666D01*
X60992380Y-132493809D01*
X60992380Y-132255714D01*
X60992380Y-133779523D02*
X60992380Y-133208095D01*
X60992380Y-133493809D02*
X59992380Y-133493809D01*
X60135238Y-133398571D01*
X60230476Y-133303333D01*
X60278095Y-133208095D01*
X60992380Y-134731904D02*
X60992380Y-134160476D01*
X60992380Y-134446190D02*
X59992380Y-134446190D01*
X60135238Y-134350952D01*
X60230476Y-134255714D01*
X60278095Y-134160476D01*
X41942380Y-132731904D02*
X40942380Y-132731904D01*
X40942380Y-132970000D01*
X40990000Y-133112857D01*
X41085238Y-133208095D01*
X41180476Y-133255714D01*
X41370952Y-133303333D01*
X41513809Y-133303333D01*
X41704285Y-133255714D01*
X41799523Y-133208095D01*
X41894761Y-133112857D01*
X41942380Y-132970000D01*
X41942380Y-132731904D01*
X40942380Y-134208095D02*
X40942380Y-133731904D01*
X41418571Y-133684285D01*
X41370952Y-133731904D01*
X41323333Y-133827142D01*
X41323333Y-134065238D01*
X41370952Y-134160476D01*
X41418571Y-134208095D01*
X41513809Y-134255714D01*
X41751904Y-134255714D01*
X41847142Y-134208095D01*
X41894761Y-134160476D01*
X41942380Y-134065238D01*
X41942380Y-133827142D01*
X41894761Y-133731904D01*
X41847142Y-133684285D01*
X99092380Y-113205714D02*
X98092380Y-113205714D01*
X98092380Y-113443809D01*
X98140000Y-113586666D01*
X98235238Y-113681904D01*
X98330476Y-113729523D01*
X98520952Y-113777142D01*
X98663809Y-113777142D01*
X98854285Y-113729523D01*
X98949523Y-113681904D01*
X99044761Y-113586666D01*
X99092380Y-113443809D01*
X99092380Y-113205714D01*
X98187619Y-114158095D02*
X98140000Y-114205714D01*
X98092380Y-114300952D01*
X98092380Y-114539047D01*
X98140000Y-114634285D01*
X98187619Y-114681904D01*
X98282857Y-114729523D01*
X98378095Y-114729523D01*
X98520952Y-114681904D01*
X99092380Y-114110476D01*
X99092380Y-114729523D01*
X98187619Y-115110476D02*
X98140000Y-115158095D01*
X98092380Y-115253333D01*
X98092380Y-115491428D01*
X98140000Y-115586666D01*
X98187619Y-115634285D01*
X98282857Y-115681904D01*
X98378095Y-115681904D01*
X98520952Y-115634285D01*
X99092380Y-115062857D01*
X99092380Y-115681904D01*
X79137619Y-115634285D02*
X80137619Y-115634285D01*
X80137619Y-115396190D01*
X80090000Y-115253333D01*
X79994761Y-115158095D01*
X79899523Y-115110476D01*
X79709047Y-115062857D01*
X79566190Y-115062857D01*
X79375714Y-115110476D01*
X79280476Y-115158095D01*
X79185238Y-115253333D01*
X79137619Y-115396190D01*
X79137619Y-115634285D01*
X79137619Y-114110476D02*
X79137619Y-114681904D01*
X79137619Y-114396190D02*
X80137619Y-114396190D01*
X79994761Y-114491428D01*
X79899523Y-114586666D01*
X79851904Y-114681904D01*
X80137619Y-113253333D02*
X80137619Y-113443809D01*
X80090000Y-113539047D01*
X80042380Y-113586666D01*
X79899523Y-113681904D01*
X79709047Y-113729523D01*
X79328095Y-113729523D01*
X79232857Y-113681904D01*
X79185238Y-113634285D01*
X79137619Y-113539047D01*
X79137619Y-113348571D01*
X79185238Y-113253333D01*
X79232857Y-113205714D01*
X79328095Y-113158095D01*
X79566190Y-113158095D01*
X79661428Y-113205714D01*
X79709047Y-113253333D01*
X79756666Y-113348571D01*
X79756666Y-113539047D01*
X79709047Y-113634285D01*
X79661428Y-113681904D01*
X79566190Y-113729523D01*
X60992380Y-113205714D02*
X59992380Y-113205714D01*
X59992380Y-113443809D01*
X60040000Y-113586666D01*
X60135238Y-113681904D01*
X60230476Y-113729523D01*
X60420952Y-113777142D01*
X60563809Y-113777142D01*
X60754285Y-113729523D01*
X60849523Y-113681904D01*
X60944761Y-113586666D01*
X60992380Y-113443809D01*
X60992380Y-113205714D01*
X60992380Y-114729523D02*
X60992380Y-114158095D01*
X60992380Y-114443809D02*
X59992380Y-114443809D01*
X60135238Y-114348571D01*
X60230476Y-114253333D01*
X60278095Y-114158095D01*
X59992380Y-115348571D02*
X59992380Y-115443809D01*
X60040000Y-115539047D01*
X60087619Y-115586666D01*
X60182857Y-115634285D01*
X60373333Y-115681904D01*
X60611428Y-115681904D01*
X60801904Y-115634285D01*
X60897142Y-115586666D01*
X60944761Y-115539047D01*
X60992380Y-115443809D01*
X60992380Y-115348571D01*
X60944761Y-115253333D01*
X60897142Y-115205714D01*
X60801904Y-115158095D01*
X60611428Y-115110476D01*
X60373333Y-115110476D01*
X60182857Y-115158095D01*
X60087619Y-115205714D01*
X60040000Y-115253333D01*
X59992380Y-115348571D01*
X41942380Y-113681904D02*
X40942380Y-113681904D01*
X40942380Y-113920000D01*
X40990000Y-114062857D01*
X41085238Y-114158095D01*
X41180476Y-114205714D01*
X41370952Y-114253333D01*
X41513809Y-114253333D01*
X41704285Y-114205714D01*
X41799523Y-114158095D01*
X41894761Y-114062857D01*
X41942380Y-113920000D01*
X41942380Y-113681904D01*
X41275714Y-115110476D02*
X41942380Y-115110476D01*
X40894761Y-114872380D02*
X41609047Y-114634285D01*
X41609047Y-115253333D01*
X99092380Y-94155714D02*
X98092380Y-94155714D01*
X98092380Y-94393809D01*
X98140000Y-94536666D01*
X98235238Y-94631904D01*
X98330476Y-94679523D01*
X98520952Y-94727142D01*
X98663809Y-94727142D01*
X98854285Y-94679523D01*
X98949523Y-94631904D01*
X99044761Y-94536666D01*
X99092380Y-94393809D01*
X99092380Y-94155714D01*
X98187619Y-95108095D02*
X98140000Y-95155714D01*
X98092380Y-95250952D01*
X98092380Y-95489047D01*
X98140000Y-95584285D01*
X98187619Y-95631904D01*
X98282857Y-95679523D01*
X98378095Y-95679523D01*
X98520952Y-95631904D01*
X99092380Y-95060476D01*
X99092380Y-95679523D01*
X99092380Y-96631904D02*
X99092380Y-96060476D01*
X99092380Y-96346190D02*
X98092380Y-96346190D01*
X98235238Y-96250952D01*
X98330476Y-96155714D01*
X98378095Y-96060476D01*
X80042380Y-94155714D02*
X79042380Y-94155714D01*
X79042380Y-94393809D01*
X79090000Y-94536666D01*
X79185238Y-94631904D01*
X79280476Y-94679523D01*
X79470952Y-94727142D01*
X79613809Y-94727142D01*
X79804285Y-94679523D01*
X79899523Y-94631904D01*
X79994761Y-94536666D01*
X80042380Y-94393809D01*
X80042380Y-94155714D01*
X80042380Y-95679523D02*
X80042380Y-95108095D01*
X80042380Y-95393809D02*
X79042380Y-95393809D01*
X79185238Y-95298571D01*
X79280476Y-95203333D01*
X79328095Y-95108095D01*
X79042380Y-96584285D02*
X79042380Y-96108095D01*
X79518571Y-96060476D01*
X79470952Y-96108095D01*
X79423333Y-96203333D01*
X79423333Y-96441428D01*
X79470952Y-96536666D01*
X79518571Y-96584285D01*
X79613809Y-96631904D01*
X79851904Y-96631904D01*
X79947142Y-96584285D01*
X79994761Y-96536666D01*
X80042380Y-96441428D01*
X80042380Y-96203333D01*
X79994761Y-96108095D01*
X79947142Y-96060476D01*
X60992380Y-94631904D02*
X59992380Y-94631904D01*
X59992380Y-94870000D01*
X60040000Y-95012857D01*
X60135238Y-95108095D01*
X60230476Y-95155714D01*
X60420952Y-95203333D01*
X60563809Y-95203333D01*
X60754285Y-95155714D01*
X60849523Y-95108095D01*
X60944761Y-95012857D01*
X60992380Y-94870000D01*
X60992380Y-94631904D01*
X60992380Y-95679523D02*
X60992380Y-95870000D01*
X60944761Y-95965238D01*
X60897142Y-96012857D01*
X60754285Y-96108095D01*
X60563809Y-96155714D01*
X60182857Y-96155714D01*
X60087619Y-96108095D01*
X60040000Y-96060476D01*
X59992380Y-95965238D01*
X59992380Y-95774761D01*
X60040000Y-95679523D01*
X60087619Y-95631904D01*
X60182857Y-95584285D01*
X60420952Y-95584285D01*
X60516190Y-95631904D01*
X60563809Y-95679523D01*
X60611428Y-95774761D01*
X60611428Y-95965238D01*
X60563809Y-96060476D01*
X60516190Y-96108095D01*
X60420952Y-96155714D01*
X41942380Y-94631904D02*
X40942380Y-94631904D01*
X40942380Y-94870000D01*
X40990000Y-95012857D01*
X41085238Y-95108095D01*
X41180476Y-95155714D01*
X41370952Y-95203333D01*
X41513809Y-95203333D01*
X41704285Y-95155714D01*
X41799523Y-95108095D01*
X41894761Y-95012857D01*
X41942380Y-94870000D01*
X41942380Y-94631904D01*
X40942380Y-95536666D02*
X40942380Y-96155714D01*
X41323333Y-95822380D01*
X41323333Y-95965238D01*
X41370952Y-96060476D01*
X41418571Y-96108095D01*
X41513809Y-96155714D01*
X41751904Y-96155714D01*
X41847142Y-96108095D01*
X41894761Y-96060476D01*
X41942380Y-95965238D01*
X41942380Y-95679523D01*
X41894761Y-95584285D01*
X41847142Y-95536666D01*
X99092380Y-75105714D02*
X98092380Y-75105714D01*
X98092380Y-75343809D01*
X98140000Y-75486666D01*
X98235238Y-75581904D01*
X98330476Y-75629523D01*
X98520952Y-75677142D01*
X98663809Y-75677142D01*
X98854285Y-75629523D01*
X98949523Y-75581904D01*
X99044761Y-75486666D01*
X99092380Y-75343809D01*
X99092380Y-75105714D01*
X98187619Y-76058095D02*
X98140000Y-76105714D01*
X98092380Y-76200952D01*
X98092380Y-76439047D01*
X98140000Y-76534285D01*
X98187619Y-76581904D01*
X98282857Y-76629523D01*
X98378095Y-76629523D01*
X98520952Y-76581904D01*
X99092380Y-76010476D01*
X99092380Y-76629523D01*
X98092380Y-77248571D02*
X98092380Y-77343809D01*
X98140000Y-77439047D01*
X98187619Y-77486666D01*
X98282857Y-77534285D01*
X98473333Y-77581904D01*
X98711428Y-77581904D01*
X98901904Y-77534285D01*
X98997142Y-77486666D01*
X99044761Y-77439047D01*
X99092380Y-77343809D01*
X99092380Y-77248571D01*
X99044761Y-77153333D01*
X98997142Y-77105714D01*
X98901904Y-77058095D01*
X98711428Y-77010476D01*
X98473333Y-77010476D01*
X98282857Y-77058095D01*
X98187619Y-77105714D01*
X98140000Y-77153333D01*
X98092380Y-77248571D01*
X80042380Y-75105714D02*
X79042380Y-75105714D01*
X79042380Y-75343809D01*
X79090000Y-75486666D01*
X79185238Y-75581904D01*
X79280476Y-75629523D01*
X79470952Y-75677142D01*
X79613809Y-75677142D01*
X79804285Y-75629523D01*
X79899523Y-75581904D01*
X79994761Y-75486666D01*
X80042380Y-75343809D01*
X80042380Y-75105714D01*
X80042380Y-76629523D02*
X80042380Y-76058095D01*
X80042380Y-76343809D02*
X79042380Y-76343809D01*
X79185238Y-76248571D01*
X79280476Y-76153333D01*
X79328095Y-76058095D01*
X79375714Y-77486666D02*
X80042380Y-77486666D01*
X78994761Y-77248571D02*
X79709047Y-77010476D01*
X79709047Y-77629523D01*
X60992380Y-75581904D02*
X59992380Y-75581904D01*
X59992380Y-75820000D01*
X60040000Y-75962857D01*
X60135238Y-76058095D01*
X60230476Y-76105714D01*
X60420952Y-76153333D01*
X60563809Y-76153333D01*
X60754285Y-76105714D01*
X60849523Y-76058095D01*
X60944761Y-75962857D01*
X60992380Y-75820000D01*
X60992380Y-75581904D01*
X60420952Y-76724761D02*
X60373333Y-76629523D01*
X60325714Y-76581904D01*
X60230476Y-76534285D01*
X60182857Y-76534285D01*
X60087619Y-76581904D01*
X60040000Y-76629523D01*
X59992380Y-76724761D01*
X59992380Y-76915238D01*
X60040000Y-77010476D01*
X60087619Y-77058095D01*
X60182857Y-77105714D01*
X60230476Y-77105714D01*
X60325714Y-77058095D01*
X60373333Y-77010476D01*
X60420952Y-76915238D01*
X60420952Y-76724761D01*
X60468571Y-76629523D01*
X60516190Y-76581904D01*
X60611428Y-76534285D01*
X60801904Y-76534285D01*
X60897142Y-76581904D01*
X60944761Y-76629523D01*
X60992380Y-76724761D01*
X60992380Y-76915238D01*
X60944761Y-77010476D01*
X60897142Y-77058095D01*
X60801904Y-77105714D01*
X60611428Y-77105714D01*
X60516190Y-77058095D01*
X60468571Y-77010476D01*
X60420952Y-76915238D01*
X133327380Y-58338095D02*
X134136904Y-58338095D01*
X134232142Y-58385714D01*
X134279761Y-58433333D01*
X134327380Y-58528571D01*
X134327380Y-58719047D01*
X134279761Y-58814285D01*
X134232142Y-58861904D01*
X134136904Y-58909523D01*
X133327380Y-58909523D01*
X134327380Y-59909523D02*
X134327380Y-59338095D01*
X134327380Y-59623809D02*
X133327380Y-59623809D01*
X133470238Y-59528571D01*
X133565476Y-59433333D01*
X133613095Y-59338095D01*
X131379166Y-57007142D02*
X131426785Y-57054761D01*
X131569642Y-57102380D01*
X131664880Y-57102380D01*
X131807738Y-57054761D01*
X131902976Y-56959523D01*
X131950595Y-56864285D01*
X131998214Y-56673809D01*
X131998214Y-56530952D01*
X131950595Y-56340476D01*
X131902976Y-56245238D01*
X131807738Y-56150000D01*
X131664880Y-56102380D01*
X131569642Y-56102380D01*
X131426785Y-56150000D01*
X131379166Y-56197619D01*
X130426785Y-57102380D02*
X130998214Y-57102380D01*
X130712500Y-57102380D02*
X130712500Y-56102380D01*
X130807738Y-56245238D01*
X130902976Y-56340476D01*
X130998214Y-56388095D01*
X131379166Y-65407142D02*
X131426785Y-65454761D01*
X131569642Y-65502380D01*
X131664880Y-65502380D01*
X131807738Y-65454761D01*
X131902976Y-65359523D01*
X131950595Y-65264285D01*
X131998214Y-65073809D01*
X131998214Y-64930952D01*
X131950595Y-64740476D01*
X131902976Y-64645238D01*
X131807738Y-64550000D01*
X131664880Y-64502380D01*
X131569642Y-64502380D01*
X131426785Y-64550000D01*
X131379166Y-64597619D01*
X130998214Y-64597619D02*
X130950595Y-64550000D01*
X130855357Y-64502380D01*
X130617261Y-64502380D01*
X130522023Y-64550000D01*
X130474404Y-64597619D01*
X130426785Y-64692857D01*
X130426785Y-64788095D01*
X130474404Y-64930952D01*
X131045833Y-65502380D01*
X130426785Y-65502380D01*
X117716666Y-81202142D02*
X117764285Y-81249761D01*
X117907142Y-81297380D01*
X118002380Y-81297380D01*
X118145238Y-81249761D01*
X118240476Y-81154523D01*
X118288095Y-81059285D01*
X118335714Y-80868809D01*
X118335714Y-80725952D01*
X118288095Y-80535476D01*
X118240476Y-80440238D01*
X118145238Y-80345000D01*
X118002380Y-80297380D01*
X117907142Y-80297380D01*
X117764285Y-80345000D01*
X117716666Y-80392619D01*
X117383333Y-80297380D02*
X116764285Y-80297380D01*
X117097619Y-80678333D01*
X116954761Y-80678333D01*
X116859523Y-80725952D01*
X116811904Y-80773571D01*
X116764285Y-80868809D01*
X116764285Y-81106904D01*
X116811904Y-81202142D01*
X116859523Y-81249761D01*
X116954761Y-81297380D01*
X117240476Y-81297380D01*
X117335714Y-81249761D01*
X117383333Y-81202142D01*
X126812142Y-73008333D02*
X126859761Y-72960714D01*
X126907380Y-72817857D01*
X126907380Y-72722619D01*
X126859761Y-72579761D01*
X126764523Y-72484523D01*
X126669285Y-72436904D01*
X126478809Y-72389285D01*
X126335952Y-72389285D01*
X126145476Y-72436904D01*
X126050238Y-72484523D01*
X125955000Y-72579761D01*
X125907380Y-72722619D01*
X125907380Y-72817857D01*
X125955000Y-72960714D01*
X126002619Y-73008333D01*
X126240714Y-73865476D02*
X126907380Y-73865476D01*
X125859761Y-73627380D02*
X126574047Y-73389285D01*
X126574047Y-74008333D01*
X110241666Y-82312142D02*
X110289285Y-82359761D01*
X110432142Y-82407380D01*
X110527380Y-82407380D01*
X110670238Y-82359761D01*
X110765476Y-82264523D01*
X110813095Y-82169285D01*
X110860714Y-81978809D01*
X110860714Y-81835952D01*
X110813095Y-81645476D01*
X110765476Y-81550238D01*
X110670238Y-81455000D01*
X110527380Y-81407380D01*
X110432142Y-81407380D01*
X110289285Y-81455000D01*
X110241666Y-81502619D01*
X109336904Y-81407380D02*
X109813095Y-81407380D01*
X109860714Y-81883571D01*
X109813095Y-81835952D01*
X109717857Y-81788333D01*
X109479761Y-81788333D01*
X109384523Y-81835952D01*
X109336904Y-81883571D01*
X109289285Y-81978809D01*
X109289285Y-82216904D01*
X109336904Y-82312142D01*
X109384523Y-82359761D01*
X109479761Y-82407380D01*
X109717857Y-82407380D01*
X109813095Y-82359761D01*
X109860714Y-82312142D01*
X116791666Y-66652142D02*
X116839285Y-66699761D01*
X116982142Y-66747380D01*
X117077380Y-66747380D01*
X117220238Y-66699761D01*
X117315476Y-66604523D01*
X117363095Y-66509285D01*
X117410714Y-66318809D01*
X117410714Y-66175952D01*
X117363095Y-65985476D01*
X117315476Y-65890238D01*
X117220238Y-65795000D01*
X117077380Y-65747380D01*
X116982142Y-65747380D01*
X116839285Y-65795000D01*
X116791666Y-65842619D01*
X115934523Y-65747380D02*
X116125000Y-65747380D01*
X116220238Y-65795000D01*
X116267857Y-65842619D01*
X116363095Y-65985476D01*
X116410714Y-66175952D01*
X116410714Y-66556904D01*
X116363095Y-66652142D01*
X116315476Y-66699761D01*
X116220238Y-66747380D01*
X116029761Y-66747380D01*
X115934523Y-66699761D01*
X115886904Y-66652142D01*
X115839285Y-66556904D01*
X115839285Y-66318809D01*
X115886904Y-66223571D01*
X115934523Y-66175952D01*
X116029761Y-66128333D01*
X116220238Y-66128333D01*
X116315476Y-66175952D01*
X116363095Y-66223571D01*
X116410714Y-66318809D01*
X47021666Y-164967142D02*
X47069285Y-165014761D01*
X47212142Y-165062380D01*
X47307380Y-165062380D01*
X47450238Y-165014761D01*
X47545476Y-164919523D01*
X47593095Y-164824285D01*
X47640714Y-164633809D01*
X47640714Y-164490952D01*
X47593095Y-164300476D01*
X47545476Y-164205238D01*
X47450238Y-164110000D01*
X47307380Y-164062380D01*
X47212142Y-164062380D01*
X47069285Y-164110000D01*
X47021666Y-164157619D01*
X46688333Y-164062380D02*
X46021666Y-164062380D01*
X46450238Y-165062380D01*
X25081666Y-82897142D02*
X25129285Y-82944761D01*
X25272142Y-82992380D01*
X25367380Y-82992380D01*
X25510238Y-82944761D01*
X25605476Y-82849523D01*
X25653095Y-82754285D01*
X25700714Y-82563809D01*
X25700714Y-82420952D01*
X25653095Y-82230476D01*
X25605476Y-82135238D01*
X25510238Y-82040000D01*
X25367380Y-81992380D01*
X25272142Y-81992380D01*
X25129285Y-82040000D01*
X25081666Y-82087619D01*
X24510238Y-82420952D02*
X24605476Y-82373333D01*
X24653095Y-82325714D01*
X24700714Y-82230476D01*
X24700714Y-82182857D01*
X24653095Y-82087619D01*
X24605476Y-82040000D01*
X24510238Y-81992380D01*
X24319761Y-81992380D01*
X24224523Y-82040000D01*
X24176904Y-82087619D01*
X24129285Y-82182857D01*
X24129285Y-82230476D01*
X24176904Y-82325714D01*
X24224523Y-82373333D01*
X24319761Y-82420952D01*
X24510238Y-82420952D01*
X24605476Y-82468571D01*
X24653095Y-82516190D01*
X24700714Y-82611428D01*
X24700714Y-82801904D01*
X24653095Y-82897142D01*
X24605476Y-82944761D01*
X24510238Y-82992380D01*
X24319761Y-82992380D01*
X24224523Y-82944761D01*
X24176904Y-82897142D01*
X24129285Y-82801904D01*
X24129285Y-82611428D01*
X24176904Y-82516190D01*
X24224523Y-82468571D01*
X24319761Y-82420952D01*
X65941666Y-164917142D02*
X65989285Y-164964761D01*
X66132142Y-165012380D01*
X66227380Y-165012380D01*
X66370238Y-164964761D01*
X66465476Y-164869523D01*
X66513095Y-164774285D01*
X66560714Y-164583809D01*
X66560714Y-164440952D01*
X66513095Y-164250476D01*
X66465476Y-164155238D01*
X66370238Y-164060000D01*
X66227380Y-164012380D01*
X66132142Y-164012380D01*
X65989285Y-164060000D01*
X65941666Y-164107619D01*
X65465476Y-165012380D02*
X65275000Y-165012380D01*
X65179761Y-164964761D01*
X65132142Y-164917142D01*
X65036904Y-164774285D01*
X64989285Y-164583809D01*
X64989285Y-164202857D01*
X65036904Y-164107619D01*
X65084523Y-164060000D01*
X65179761Y-164012380D01*
X65370238Y-164012380D01*
X65465476Y-164060000D01*
X65513095Y-164107619D01*
X65560714Y-164202857D01*
X65560714Y-164440952D01*
X65513095Y-164536190D01*
X65465476Y-164583809D01*
X65370238Y-164631428D01*
X65179761Y-164631428D01*
X65084523Y-164583809D01*
X65036904Y-164536190D01*
X64989285Y-164440952D01*
X44607857Y-82897142D02*
X44655476Y-82944761D01*
X44798333Y-82992380D01*
X44893571Y-82992380D01*
X45036428Y-82944761D01*
X45131666Y-82849523D01*
X45179285Y-82754285D01*
X45226904Y-82563809D01*
X45226904Y-82420952D01*
X45179285Y-82230476D01*
X45131666Y-82135238D01*
X45036428Y-82040000D01*
X44893571Y-81992380D01*
X44798333Y-81992380D01*
X44655476Y-82040000D01*
X44607857Y-82087619D01*
X43655476Y-82992380D02*
X44226904Y-82992380D01*
X43941190Y-82992380D02*
X43941190Y-81992380D01*
X44036428Y-82135238D01*
X44131666Y-82230476D01*
X44226904Y-82278095D01*
X43036428Y-81992380D02*
X42941190Y-81992380D01*
X42845952Y-82040000D01*
X42798333Y-82087619D01*
X42750714Y-82182857D01*
X42703095Y-82373333D01*
X42703095Y-82611428D01*
X42750714Y-82801904D01*
X42798333Y-82897142D01*
X42845952Y-82944761D01*
X42941190Y-82992380D01*
X43036428Y-82992380D01*
X43131666Y-82944761D01*
X43179285Y-82897142D01*
X43226904Y-82801904D01*
X43274523Y-82611428D01*
X43274523Y-82373333D01*
X43226904Y-82182857D01*
X43179285Y-82087619D01*
X43131666Y-82040000D01*
X43036428Y-81992380D01*
X82707857Y-82897142D02*
X82755476Y-82944761D01*
X82898333Y-82992380D01*
X82993571Y-82992380D01*
X83136428Y-82944761D01*
X83231666Y-82849523D01*
X83279285Y-82754285D01*
X83326904Y-82563809D01*
X83326904Y-82420952D01*
X83279285Y-82230476D01*
X83231666Y-82135238D01*
X83136428Y-82040000D01*
X82993571Y-81992380D01*
X82898333Y-81992380D01*
X82755476Y-82040000D01*
X82707857Y-82087619D01*
X81755476Y-82992380D02*
X82326904Y-82992380D01*
X82041190Y-82992380D02*
X82041190Y-81992380D01*
X82136428Y-82135238D01*
X82231666Y-82230476D01*
X82326904Y-82278095D01*
X80803095Y-82992380D02*
X81374523Y-82992380D01*
X81088809Y-82992380D02*
X81088809Y-81992380D01*
X81184047Y-82135238D01*
X81279285Y-82230476D01*
X81374523Y-82278095D01*
X28352857Y-164947142D02*
X28400476Y-164994761D01*
X28543333Y-165042380D01*
X28638571Y-165042380D01*
X28781428Y-164994761D01*
X28876666Y-164899523D01*
X28924285Y-164804285D01*
X28971904Y-164613809D01*
X28971904Y-164470952D01*
X28924285Y-164280476D01*
X28876666Y-164185238D01*
X28781428Y-164090000D01*
X28638571Y-164042380D01*
X28543333Y-164042380D01*
X28400476Y-164090000D01*
X28352857Y-164137619D01*
X27400476Y-165042380D02*
X27971904Y-165042380D01*
X27686190Y-165042380D02*
X27686190Y-164042380D01*
X27781428Y-164185238D01*
X27876666Y-164280476D01*
X27971904Y-164328095D01*
X27019523Y-164137619D02*
X26971904Y-164090000D01*
X26876666Y-164042380D01*
X26638571Y-164042380D01*
X26543333Y-164090000D01*
X26495714Y-164137619D01*
X26448095Y-164232857D01*
X26448095Y-164328095D01*
X26495714Y-164470952D01*
X27067142Y-165042380D01*
X26448095Y-165042380D01*
X85467857Y-164917142D02*
X85515476Y-164964761D01*
X85658333Y-165012380D01*
X85753571Y-165012380D01*
X85896428Y-164964761D01*
X85991666Y-164869523D01*
X86039285Y-164774285D01*
X86086904Y-164583809D01*
X86086904Y-164440952D01*
X86039285Y-164250476D01*
X85991666Y-164155238D01*
X85896428Y-164060000D01*
X85753571Y-164012380D01*
X85658333Y-164012380D01*
X85515476Y-164060000D01*
X85467857Y-164107619D01*
X84515476Y-165012380D02*
X85086904Y-165012380D01*
X84801190Y-165012380D02*
X84801190Y-164012380D01*
X84896428Y-164155238D01*
X84991666Y-164250476D01*
X85086904Y-164298095D01*
X84182142Y-164012380D02*
X83563095Y-164012380D01*
X83896428Y-164393333D01*
X83753571Y-164393333D01*
X83658333Y-164440952D01*
X83610714Y-164488571D01*
X83563095Y-164583809D01*
X83563095Y-164821904D01*
X83610714Y-164917142D01*
X83658333Y-164964761D01*
X83753571Y-165012380D01*
X84039285Y-165012380D01*
X84134523Y-164964761D01*
X84182142Y-164917142D01*
X41942380Y-75581904D02*
X40942380Y-75581904D01*
X40942380Y-75820000D01*
X40990000Y-75962857D01*
X41085238Y-76058095D01*
X41180476Y-76105714D01*
X41370952Y-76153333D01*
X41513809Y-76153333D01*
X41704285Y-76105714D01*
X41799523Y-76058095D01*
X41894761Y-75962857D01*
X41942380Y-75820000D01*
X41942380Y-75581904D01*
X41037619Y-76534285D02*
X40990000Y-76581904D01*
X40942380Y-76677142D01*
X40942380Y-76915238D01*
X40990000Y-77010476D01*
X41037619Y-77058095D01*
X41132857Y-77105714D01*
X41228095Y-77105714D01*
X41370952Y-77058095D01*
X41942380Y-76486666D01*
X41942380Y-77105714D01*
X127323571Y-60529166D02*
X127323571Y-60195833D01*
X127847380Y-60195833D02*
X126847380Y-60195833D01*
X126847380Y-60672023D01*
X127847380Y-61576785D02*
X127847380Y-61005357D01*
X127847380Y-61291071D02*
X126847380Y-61291071D01*
X126990238Y-61195833D01*
X127085476Y-61100595D01*
X127133095Y-61005357D01*
X114254166Y-61782380D02*
X114587500Y-61306190D01*
X114825595Y-61782380D02*
X114825595Y-60782380D01*
X114444642Y-60782380D01*
X114349404Y-60830000D01*
X114301785Y-60877619D01*
X114254166Y-60972857D01*
X114254166Y-61115714D01*
X114301785Y-61210952D01*
X114349404Y-61258571D01*
X114444642Y-61306190D01*
X114825595Y-61306190D01*
X113301785Y-61782380D02*
X113873214Y-61782380D01*
X113587500Y-61782380D02*
X113587500Y-60782380D01*
X113682738Y-60925238D01*
X113777976Y-61020476D01*
X113873214Y-61068095D01*
X123882380Y-61520833D02*
X123406190Y-61187500D01*
X123882380Y-60949404D02*
X122882380Y-60949404D01*
X122882380Y-61330357D01*
X122930000Y-61425595D01*
X122977619Y-61473214D01*
X123072857Y-61520833D01*
X123215714Y-61520833D01*
X123310952Y-61473214D01*
X123358571Y-61425595D01*
X123406190Y-61330357D01*
X123406190Y-60949404D01*
X122977619Y-61901785D02*
X122930000Y-61949404D01*
X122882380Y-62044642D01*
X122882380Y-62282738D01*
X122930000Y-62377976D01*
X122977619Y-62425595D01*
X123072857Y-62473214D01*
X123168095Y-62473214D01*
X123310952Y-62425595D01*
X123882380Y-61854166D01*
X123882380Y-62473214D01*
X129397380Y-79645833D02*
X128921190Y-79312500D01*
X129397380Y-79074404D02*
X128397380Y-79074404D01*
X128397380Y-79455357D01*
X128445000Y-79550595D01*
X128492619Y-79598214D01*
X128587857Y-79645833D01*
X128730714Y-79645833D01*
X128825952Y-79598214D01*
X128873571Y-79550595D01*
X128921190Y-79455357D01*
X128921190Y-79074404D01*
X128397380Y-79979166D02*
X128397380Y-80598214D01*
X128778333Y-80264880D01*
X128778333Y-80407738D01*
X128825952Y-80502976D01*
X128873571Y-80550595D01*
X128968809Y-80598214D01*
X129206904Y-80598214D01*
X129302142Y-80550595D01*
X129349761Y-80502976D01*
X129397380Y-80407738D01*
X129397380Y-80122023D01*
X129349761Y-80026785D01*
X129302142Y-79979166D01*
X128004166Y-87372380D02*
X128337500Y-86896190D01*
X128575595Y-87372380D02*
X128575595Y-86372380D01*
X128194642Y-86372380D01*
X128099404Y-86420000D01*
X128051785Y-86467619D01*
X128004166Y-86562857D01*
X128004166Y-86705714D01*
X128051785Y-86800952D01*
X128099404Y-86848571D01*
X128194642Y-86896190D01*
X128575595Y-86896190D01*
X127147023Y-86705714D02*
X127147023Y-87372380D01*
X127385119Y-86324761D02*
X127623214Y-87039047D01*
X127004166Y-87039047D01*
X114091666Y-90282380D02*
X114425000Y-89806190D01*
X114663095Y-90282380D02*
X114663095Y-89282380D01*
X114282142Y-89282380D01*
X114186904Y-89330000D01*
X114139285Y-89377619D01*
X114091666Y-89472857D01*
X114091666Y-89615714D01*
X114139285Y-89710952D01*
X114186904Y-89758571D01*
X114282142Y-89806190D01*
X114663095Y-89806190D01*
X113186904Y-89282380D02*
X113663095Y-89282380D01*
X113710714Y-89758571D01*
X113663095Y-89710952D01*
X113567857Y-89663333D01*
X113329761Y-89663333D01*
X113234523Y-89710952D01*
X113186904Y-89758571D01*
X113139285Y-89853809D01*
X113139285Y-90091904D01*
X113186904Y-90187142D01*
X113234523Y-90234761D01*
X113329761Y-90282380D01*
X113567857Y-90282380D01*
X113663095Y-90234761D01*
X113710714Y-90187142D01*
X132232380Y-84845833D02*
X131756190Y-84512500D01*
X132232380Y-84274404D02*
X131232380Y-84274404D01*
X131232380Y-84655357D01*
X131280000Y-84750595D01*
X131327619Y-84798214D01*
X131422857Y-84845833D01*
X131565714Y-84845833D01*
X131660952Y-84798214D01*
X131708571Y-84750595D01*
X131756190Y-84655357D01*
X131756190Y-84274404D01*
X131232380Y-85702976D02*
X131232380Y-85512500D01*
X131280000Y-85417261D01*
X131327619Y-85369642D01*
X131470476Y-85274404D01*
X131660952Y-85226785D01*
X132041904Y-85226785D01*
X132137142Y-85274404D01*
X132184761Y-85322023D01*
X132232380Y-85417261D01*
X132232380Y-85607738D01*
X132184761Y-85702976D01*
X132137142Y-85750595D01*
X132041904Y-85798214D01*
X131803809Y-85798214D01*
X131708571Y-85750595D01*
X131660952Y-85702976D01*
X131613333Y-85607738D01*
X131613333Y-85417261D01*
X131660952Y-85322023D01*
X131708571Y-85274404D01*
X131803809Y-85226785D01*
X108279166Y-73732380D02*
X108612500Y-73256190D01*
X108850595Y-73732380D02*
X108850595Y-72732380D01*
X108469642Y-72732380D01*
X108374404Y-72780000D01*
X108326785Y-72827619D01*
X108279166Y-72922857D01*
X108279166Y-73065714D01*
X108326785Y-73160952D01*
X108374404Y-73208571D01*
X108469642Y-73256190D01*
X108850595Y-73256190D01*
X107945833Y-72732380D02*
X107279166Y-72732380D01*
X107707738Y-73732380D01*
X91579166Y-57297380D02*
X91912500Y-56821190D01*
X92150595Y-57297380D02*
X92150595Y-56297380D01*
X91769642Y-56297380D01*
X91674404Y-56345000D01*
X91626785Y-56392619D01*
X91579166Y-56487857D01*
X91579166Y-56630714D01*
X91626785Y-56725952D01*
X91674404Y-56773571D01*
X91769642Y-56821190D01*
X92150595Y-56821190D01*
X91102976Y-57297380D02*
X90912500Y-57297380D01*
X90817261Y-57249761D01*
X90769642Y-57202142D01*
X90674404Y-57059285D01*
X90626785Y-56868809D01*
X90626785Y-56487857D01*
X90674404Y-56392619D01*
X90722023Y-56345000D01*
X90817261Y-56297380D01*
X91007738Y-56297380D01*
X91102976Y-56345000D01*
X91150595Y-56392619D01*
X91198214Y-56487857D01*
X91198214Y-56725952D01*
X91150595Y-56821190D01*
X91102976Y-56868809D01*
X91007738Y-56916428D01*
X90817261Y-56916428D01*
X90722023Y-56868809D01*
X90674404Y-56821190D01*
X90626785Y-56725952D01*
X92055357Y-57082380D02*
X92388690Y-56606190D01*
X92626785Y-57082380D02*
X92626785Y-56082380D01*
X92245833Y-56082380D01*
X92150595Y-56130000D01*
X92102976Y-56177619D01*
X92055357Y-56272857D01*
X92055357Y-56415714D01*
X92102976Y-56510952D01*
X92150595Y-56558571D01*
X92245833Y-56606190D01*
X92626785Y-56606190D01*
X91102976Y-57082380D02*
X91674404Y-57082380D01*
X91388690Y-57082380D02*
X91388690Y-56082380D01*
X91483928Y-56225238D01*
X91579166Y-56320476D01*
X91674404Y-56368095D01*
X90483928Y-56082380D02*
X90388690Y-56082380D01*
X90293452Y-56130000D01*
X90245833Y-56177619D01*
X90198214Y-56272857D01*
X90150595Y-56463333D01*
X90150595Y-56701428D01*
X90198214Y-56891904D01*
X90245833Y-56987142D01*
X90293452Y-57034761D01*
X90388690Y-57082380D01*
X90483928Y-57082380D01*
X90579166Y-57034761D01*
X90626785Y-56987142D01*
X90674404Y-56891904D01*
X90722023Y-56701428D01*
X90722023Y-56463333D01*
X90674404Y-56272857D01*
X90626785Y-56177619D01*
X90579166Y-56130000D01*
X90483928Y-56082380D01*
X138227523Y-74945761D02*
X138084666Y-74993380D01*
X137846571Y-74993380D01*
X137751333Y-74945761D01*
X137703714Y-74898142D01*
X137656095Y-74802904D01*
X137656095Y-74707666D01*
X137703714Y-74612428D01*
X137751333Y-74564809D01*
X137846571Y-74517190D01*
X138037047Y-74469571D01*
X138132285Y-74421952D01*
X138179904Y-74374333D01*
X138227523Y-74279095D01*
X138227523Y-74183857D01*
X138179904Y-74088619D01*
X138132285Y-74041000D01*
X138037047Y-73993380D01*
X137798952Y-73993380D01*
X137656095Y-74041000D01*
X137322761Y-73993380D02*
X137084666Y-74993380D01*
X136894190Y-74279095D01*
X136703714Y-74993380D01*
X136465619Y-73993380D01*
X136132285Y-74088619D02*
X136084666Y-74041000D01*
X135989428Y-73993380D01*
X135751333Y-73993380D01*
X135656095Y-74041000D01*
X135608476Y-74088619D01*
X135560857Y-74183857D01*
X135560857Y-74279095D01*
X135608476Y-74421952D01*
X136179904Y-74993380D01*
X135560857Y-74993380D01*
X134656095Y-73993380D02*
X135132285Y-73993380D01*
X135179904Y-74469571D01*
X135132285Y-74421952D01*
X135037047Y-74374333D01*
X134798952Y-74374333D01*
X134703714Y-74421952D01*
X134656095Y-74469571D01*
X134608476Y-74564809D01*
X134608476Y-74802904D01*
X134656095Y-74898142D01*
X134703714Y-74945761D01*
X134798952Y-74993380D01*
X135037047Y-74993380D01*
X135132285Y-74945761D01*
X135179904Y-74898142D01*
X138227523Y-92368761D02*
X138084666Y-92416380D01*
X137846571Y-92416380D01*
X137751333Y-92368761D01*
X137703714Y-92321142D01*
X137656095Y-92225904D01*
X137656095Y-92130666D01*
X137703714Y-92035428D01*
X137751333Y-91987809D01*
X137846571Y-91940190D01*
X138037047Y-91892571D01*
X138132285Y-91844952D01*
X138179904Y-91797333D01*
X138227523Y-91702095D01*
X138227523Y-91606857D01*
X138179904Y-91511619D01*
X138132285Y-91464000D01*
X138037047Y-91416380D01*
X137798952Y-91416380D01*
X137656095Y-91464000D01*
X137322761Y-91416380D02*
X137084666Y-92416380D01*
X136894190Y-91702095D01*
X136703714Y-92416380D01*
X136465619Y-91416380D01*
X136132285Y-91511619D02*
X136084666Y-91464000D01*
X135989428Y-91416380D01*
X135751333Y-91416380D01*
X135656095Y-91464000D01*
X135608476Y-91511619D01*
X135560857Y-91606857D01*
X135560857Y-91702095D01*
X135608476Y-91844952D01*
X136179904Y-92416380D01*
X135560857Y-92416380D01*
X134989428Y-91844952D02*
X135084666Y-91797333D01*
X135132285Y-91749714D01*
X135179904Y-91654476D01*
X135179904Y-91606857D01*
X135132285Y-91511619D01*
X135084666Y-91464000D01*
X134989428Y-91416380D01*
X134798952Y-91416380D01*
X134703714Y-91464000D01*
X134656095Y-91511619D01*
X134608476Y-91606857D01*
X134608476Y-91654476D01*
X134656095Y-91749714D01*
X134703714Y-91797333D01*
X134798952Y-91844952D01*
X134989428Y-91844952D01*
X135084666Y-91892571D01*
X135132285Y-91940190D01*
X135179904Y-92035428D01*
X135179904Y-92225904D01*
X135132285Y-92321142D01*
X135084666Y-92368761D01*
X134989428Y-92416380D01*
X134798952Y-92416380D01*
X134703714Y-92368761D01*
X134656095Y-92321142D01*
X134608476Y-92225904D01*
X134608476Y-92035428D01*
X134656095Y-91940190D01*
X134703714Y-91892571D01*
X134798952Y-91844952D01*
X121814435Y-78022599D02*
X122386855Y-78595019D01*
X122420527Y-78696034D01*
X122420527Y-78763378D01*
X122386855Y-78864393D01*
X122252168Y-78999080D01*
X122151153Y-79032752D01*
X122083809Y-79032752D01*
X121982794Y-78999080D01*
X121410374Y-78426660D01*
X121174672Y-78797050D02*
X121107329Y-78797050D01*
X121006313Y-78830721D01*
X120837955Y-78999080D01*
X120804283Y-79100095D01*
X120804283Y-79167439D01*
X120837955Y-79268454D01*
X120905298Y-79335798D01*
X121039985Y-79403141D01*
X121848107Y-79403141D01*
X121410374Y-79840874D01*
X87311904Y-62302380D02*
X87311904Y-63111904D01*
X87264285Y-63207142D01*
X87216666Y-63254761D01*
X87121428Y-63302380D01*
X86930952Y-63302380D01*
X86835714Y-63254761D01*
X86788095Y-63207142D01*
X86740476Y-63111904D01*
X86740476Y-62302380D01*
X86359523Y-62302380D02*
X85740476Y-62302380D01*
X86073809Y-62683333D01*
X85930952Y-62683333D01*
X85835714Y-62730952D01*
X85788095Y-62778571D01*
X85740476Y-62873809D01*
X85740476Y-63111904D01*
X85788095Y-63207142D01*
X85835714Y-63254761D01*
X85930952Y-63302380D01*
X86216666Y-63302380D01*
X86311904Y-63254761D01*
X86359523Y-63207142D01*
X120513095Y-58377380D02*
X120513095Y-59186904D01*
X120465476Y-59282142D01*
X120417857Y-59329761D01*
X120322619Y-59377380D01*
X120132142Y-59377380D01*
X120036904Y-59329761D01*
X119989285Y-59282142D01*
X119941666Y-59186904D01*
X119941666Y-58377380D01*
X119513095Y-59329761D02*
X119370238Y-59377380D01*
X119132142Y-59377380D01*
X119036904Y-59329761D01*
X118989285Y-59282142D01*
X118941666Y-59186904D01*
X118941666Y-59091666D01*
X118989285Y-58996428D01*
X119036904Y-58948809D01*
X119132142Y-58901190D01*
X119322619Y-58853571D01*
X119417857Y-58805952D01*
X119465476Y-58758333D01*
X119513095Y-58663095D01*
X119513095Y-58567857D01*
X119465476Y-58472619D01*
X119417857Y-58425000D01*
X119322619Y-58377380D01*
X119084523Y-58377380D01*
X118941666Y-58425000D01*
X118179761Y-58853571D02*
X118036904Y-58901190D01*
X117989285Y-58948809D01*
X117941666Y-59044047D01*
X117941666Y-59186904D01*
X117989285Y-59282142D01*
X118036904Y-59329761D01*
X118132142Y-59377380D01*
X118513095Y-59377380D01*
X118513095Y-58377380D01*
X118179761Y-58377380D01*
X118084523Y-58425000D01*
X118036904Y-58472619D01*
X117989285Y-58567857D01*
X117989285Y-58663095D01*
X118036904Y-58758333D01*
X118084523Y-58805952D01*
X118179761Y-58853571D01*
X118513095Y-58853571D01*
X116989285Y-59377380D02*
X117560714Y-59377380D01*
X117275000Y-59377380D02*
X117275000Y-58377380D01*
X117370238Y-58520238D01*
X117465476Y-58615476D01*
X117560714Y-58663095D01*
M02*
