M48
METRIC,TZ
T1C0.650
T2C1.750
T3C3.988
%
G90
G05
T1
X115885Y-54975
X121665Y-54975
T2
X26280Y-115130
X36440Y-115130
X45330Y-153230
X55490Y-153230
X64380Y-172280
X74540Y-172280
X26280Y-77030
X36440Y-77030
X83430Y-153230
X93590Y-153230
X45330Y-115130
X55490Y-115130
X64380Y-134180
X74540Y-134180
X45330Y-77030
X55490Y-77030
X64380Y-96080
X74540Y-96080
X83430Y-115130
X93590Y-115130
X26280Y-134180
X36440Y-134180
X26280Y-153230
X36440Y-153230
X45330Y-172280
X55490Y-172280
X83430Y-77030
X93590Y-77030
X26280Y-96080
X36440Y-96080
X83430Y-172280
X93590Y-172280
X45330Y-134180
X55490Y-134180
X64380Y-153230
X74540Y-153230
X83430Y-134180
X93590Y-134180
X45330Y-96080
X55490Y-96080
X64380Y-115130
X74540Y-115130
X26280Y-172280
X36440Y-172280
X64380Y-77030
X74540Y-77030
X83430Y-96080
X93590Y-96080
T3
X31360Y-172280
X69460Y-77030
X88510Y-96080
X31360Y-115130
X50410Y-153230
X69460Y-172280
X31360Y-77030
X88510Y-153230
X50410Y-115130
X69460Y-134180
X50410Y-77030
X69460Y-96080
X88510Y-115130
X31360Y-134180
X31360Y-153230
X50410Y-172280
X88510Y-77030
X31360Y-96080
X88510Y-172280
X50410Y-134180
X69460Y-153230
X88510Y-134180
X50410Y-96080
X69460Y-115130
T0
M30
