M48
METRIC,TZ
T1C0.400
T2C0.600
T3C1.000
T4C1.200
T5C1.470
T6C1.500
T7C1.700
%
G90
G05
T1
X27625Y-125550
X30025Y-165105
X30701Y-162926
X38735Y-156115
X40900Y-83825
X50970Y-166905
X59950Y-83975
X65625Y-123050
X78975Y-83925
X85200Y-64800
X86050Y-100275
X86875Y-58450
X86900Y-123775
X86900Y-124575
X87900Y-64800
X87900Y-65750
X90681Y-141193
X92200Y-55200
X92200Y-58275
X92850Y-82950
X94400Y-56900
X95275Y-73725
X97925Y-51750
X101225Y-51850
X101575Y-60825
X102325Y-53600
X102332Y-55318
X103485Y-51850
X104240Y-64885
X105075Y-74475
X105600Y-73825
X107800Y-65250
X109250Y-78325
X109625Y-75875
X109625Y-77625
X109695Y-91025
X110150Y-65825
X113126Y-69174
X114043Y-70060
X114150Y-68550
X115625Y-76425
X116250Y-62575
X117925Y-61450
X119375Y-68200
X119475Y-81075
X119925Y-61650
X120165Y-67960
X121875Y-70125
X121944Y-79406
X122600Y-79925
X123450Y-71525
X125575Y-62350
X128500Y-90975
X129825Y-63325
X130350Y-80575
X130375Y-84200
X139593Y-76725
T3
X115890Y-142800
X118430Y-142800
X120970Y-142800
X123510Y-142800
X130302Y-72644
X132842Y-72644
X135382Y-72644
X137922Y-72644
X140462Y-72644
X72375Y-55950
X72375Y-60950
X86875Y-55950
X86875Y-58450
X86875Y-60950
X115960Y-103440
X118500Y-103440
X121040Y-103440
X123580Y-103440
T4
X22935Y-58600
X66435Y-56850
X66435Y-60350
T5
X65650Y-131640
X72000Y-129100
X46600Y-74490
X52950Y-71950
X65650Y-93540
X72000Y-91000
X84700Y-112590
X91050Y-110050
X27550Y-131640
X33900Y-129100
X27550Y-150690
X33900Y-148150
X46600Y-169740
X52950Y-167200
X84700Y-74490
X91050Y-71950
X27550Y-93540
X33900Y-91000
X84700Y-169740
X91050Y-167200
X46600Y-131640
X52950Y-129100
X65650Y-150690
X72000Y-148150
X84700Y-131640
X91050Y-129100
X46600Y-93540
X52950Y-91000
X65650Y-112590
X72000Y-110050
X27550Y-169740
X33900Y-167200
X65650Y-74490
X72000Y-71950
X84700Y-93540
X91050Y-91000
X27550Y-112590
X33900Y-110050
X46600Y-150690
X52950Y-148150
X65650Y-169740
X72000Y-167200
X27550Y-74490
X33900Y-71950
X84700Y-150690
X91050Y-148150
X46600Y-112590
X52950Y-110050
T7
X27085Y-54400
X28285Y-62800
X61085Y-62800
X62285Y-54400
T2
G00X114455Y-51025
M15
G01X114455Y-51625
M16
G05
G00X114455Y-54955
M15
G01X114455Y-56055
M16
G05
G00X123095Y-51025
M15
G01X123095Y-51625
M16
G05
G00X123095Y-54955
M15
G01X123095Y-56055
M16
G05
T6
G00X80025Y-52850
M15
G01X78725Y-52850
M16
G05
G00X80025Y-64050
M15
G01X78725Y-64050
M16
G05
T0
M30
